<svg xmlns="http://www.w3.org/2000/svg" width="2134.869" height="1332.383" viewBox="0 0 2134.869 1332.383">
  <g id="Group_1720" data-name="Group 1720" transform="translate(105.818 181.326)">
    <path id="Path_5099" data-name="Path 5099" d="M12594.917,413.626c-13.556-26.058-30.679-50.479-40.288-78.236-11.574-33.433-11.653-70.075-23.924-103.258a149.869,149.869,0,0,0-79.668-84.333c-3.79-1.651-8-3.167-11.974-2.03-5.416,1.55-8.326,7.366-9.945,12.762-7.592,25.295-.686,52.954,11.418,76.428s29.122,44,43.542,66.123c9.918,15.218,16.923,39.077,1.461,48.609-9.088,5.6-21.1,2.107-30.187-3.492-29.629-18.251-42.631-53.711-57.547-85.151a437.693,437.693,0,0,0-56.677-89.513c-9.456-11.553-21.381-23.513-36.309-23.544-14.456-.03-26.912,12.057-31.067,25.9s-1.5,28.867,3.211,42.535c16.273,47.232,55.21,82.958,95.809,112.07s84.748,54.148,119.373,90.16c5.463,5.681,10.869,12.015,12.367,19.753,3.677,18.986-19.462,34.249-38.477,30.727s-33.437-18.617-46.466-32.908l-45.471-49.878c-11.006-12.072-24.158-25.113-40.489-24.7-16.086.41-29.28,14.906-32.581,30.656s1.361,32.134,8.111,46.742c26.117,56.525,92.653,96.444,152.209,78.27,26.06-7.952,51.122-26.055,77.845-20.741,16.2,3.221,29.318,14.582,43.225,23.495,8.577,5.5,24.582,14.736,35.295,11.522,16.566-4.971,10.989-15.6,7.84-31.176A330.17,330.17,0,0,0,12594.917,413.626Z" transform="translate(-10600)" fill="#23af5b" fill-rule="evenodd"/>
    <path id="Path_5100" data-name="Path 5100" d="M10497.95,892.707a799.756,799.756,0,0,1,104.09-314.025c12.468-21.368,26.192-42.5,45.416-58.96s44.739-27.959,71.668-26.832c15.751,15.279,14.771,39.72,5.1,57.8s-26.2,31.9-40.087,47.367c-36.706,40.877-54.991,93.425-68.128,145.752-.816,3.251-1.618,6.628-.874,9.965,2.792,12.506,22.071,13.62,35.107,10.153,92.219-24.53,150.921-108.512,241.413-137.44,46.549-14.881,99.684-13.719,147.1,3.215,27.95,9.982,57.881,32.78,52.217,59.142-82.717-24.744-176.066-10.638-242.231,36.6-47.216,33.712-84.286,84.392-143.617,95.675-24.288,4.619-55.452,5.1-64.654,26.109-7.548,17.24,7.566,38.375,26.987,45.475s40.925,3.632,60.272-1.913a280.274,280.274,0,0,0,59.7-24.794c56.4-31.6,102.9-83.486,169.55-90.532,75.71-8.005,153.869,45.761,226.849,27.3,14.73-3.725,30.926-10.184,44.755-3.159,14.57,7.4,17.279,27.087,9.037,39.652s-23.955,19.154-39.5,23.018c-57.937,14.4-121.3-.194-181.172,6.954a235.434,235.434,0,0,0-91.563,30.582c-22.714,13.422-43.162,30.924-69.206,38.212-35.914,10.051-78.741-.476-110.815,16.961-24.418,13.274-36.1,39.381-46.326,63.852-1.725,4.128-3.38,9.022-.728,12.917,1.871,2.747,5.358,4.125,8.613,5.321,28.163,10.35,58.118,20.515,87.359,16.334,31.224-4.464,55.955-24.39,83.225-38.318,42-21.454,92.713-29.006,141.4-21.059,42.486,6.935,82.336,25.017,123.943,36.253s88.67,14.886,124.127-5.6c11.964-6.913,26.3-16.656,39.017-9.775,12.98,7.02,10.757,25.259,2.206,35.915-19.025,23.711-55.278,28.883-88.062,28.739-68.924-.3-142.684-15.462-203.471,11.78-28.61,12.821-51.681,34.177-80.627,46.393-39.571,16.7-86.093,14.763-130.372,9.871a1133.684,1133.684,0,0,1-134.283-23.084c-22.553-5.288-45.692-11.616-63.973-25.3-14.869-11.134-25.4-26.311-35.633-41.183-22.777-33.089-45.718-66.474-60.867-102.825s-22.125-76.36-11.953-113.033" transform="translate(-10600)" fill="#23af5b" fill-rule="evenodd"/>
    <rect id="Rectangle_527" data-name="Rectangle 527" width="1961.027" height="1115.311" transform="translate(-24.189 -22.332)" fill="none"/>
    <path id="Path_5117" data-name="Path 5117" d="M11516.533-108.208c-.2,19.446-21.576,30.894-40.125,36.731-55.087,17.334-117.447,25.494-157.123,67.456-8.649,9.148-16.03,20.041-18.347,32.416s1.287,26.376,11.228,34.1c8.016,6.229,18.839,7.619,28.961,6.853,21.694-1.641,41.666-11.9,60.956-21.967l57.535-30.011c22.158-11.558,44.594-23.308,63.031-40.18,12.147-11.117,23.084-24.765,38.694-30,8.678,12.833,7.553,30.312,1.317,44.493s-16.854,25.885-26.938,37.644c-57.276,66.793-104.112,149.7-99.336,237.556.123,2.275.339,4.7,1.754,6.49,1.689,2.132,4.617,2.772,7.319,3.086,24.4,2.84,48.617-9.837,65.269-27.894s26.935-40.972,36.067-63.774a982.144,982.144,0,0,0,43.063-135.021c2.24-9.3,4.617-19.144,11.326-25.965s19.341-8.768,25.387-1.353c2.128,2.611,3.136,5.941,3.938,9.213,14.06,57.359-20.562,114.622-27.058,173.32-1.8,16.318.09,35.741,13.986,44.482,17.947,11.29,41.352-3.837,53.246-21.39a120.894,120.894,0,0,0,19.7-51.861c5.339-40.663-10.192-80.985-13.145-121.891-.75-10.384.469-22.908,9.633-27.85,11.031-5.949,24.533,4.521,28.753,16.323s3.183,24.961,7.239,36.82c1.713,5.01,4.641,10.014,9.466,12.193,7.832,3.536,16.747-1.69,23.179-7.388,21.386-18.944,34.821-53.573,16.608-75.585-11.936-14.424-32.907-17.827-46.89-30.276-14.664-13.055-19.429-34.164-19.015-53.793s5.15-38.953,5.932-58.57c.181-4.528.107-9.252-1.906-13.312-1.784-3.594-4.921-6.314-8.122-8.735-24.709-18.685-56.823-24.759-87.8-25.43-7.2-.156-14.564-.025-21.354,2.382-8.447,2.994-15.278,9.233-21.859,15.318l-43.286,40.025c-6.435,5.95-13.029,12.116-16.7,20.076s-3.712,18.253,2.242,24.683" transform="translate(-10600)" fill="#23af5b" fill-rule="evenodd"/>
    <circle id="Ellipse_372" data-name="Ellipse 372" cx="394.34" cy="394.34" r="394.34" transform="translate(1005.334 212.041)" fill="#070707"/>
    <g id="Group_1656" data-name="Group 1656" transform="translate(-10600)">
      <g id="Group_1655" data-name="Group 1655">
        <path id="Path_5118" data-name="Path 5118" d="M11847.284,537.809" fill="none" stroke="#fff" stroke-miterlimit="10" stroke-width="40"/>
        <path id="Path_5119" data-name="Path 5119" d="M11870.991,536.637a6.333,6.333,0,0,0-8.792-9.106l-4.614,4.549-4.67-4.666a6.208,6.208,0,0,0-4.419-1.836h0a6.349,6.349,0,0,0-4.5,10.834l12.134,12.134h2.952Z" fill="none"/>
        <path id="Path_5120" data-name="Path 5120" d="M11868.486,548.546l7.24-7.241h0a12.98,12.98,0,0,0-.111-18.242h0a12.984,12.984,0,0,0-18-.351h0a12.936,12.936,0,0,0-18.321.041h0a12.983,12.983,0,0,0,0,18.361l7.432,7.432h9.4" fill="#fcd42d"/>
        <path id="Rectangle_529" data-name="Rectangle 529" d="M12.985,0H24.154a0,0,0,0,1,0,0V25.969a0,0,0,0,1,0,0H12.985A12.985,12.985,0,0,1,0,12.985v0A12.985,12.985,0,0,1,12.985,0Z" transform="translate(11848.374 513.48) rotate(45)" fill="#c4c4c4"/>
        <path id="Path_5121" data-name="Path 5121" d="M11846.729,548.546l10.878,10.879,10.879-10.879Z" fill="#1abee5"/>
        <circle id="Ellipse_373" data-name="Ellipse 373" cx="2.611" cy="2.611" r="2.611" transform="translate(11846.729 529.028)" fill="#0d0d0b"/>
        <path id="Path_5122" data-name="Path 5122" d="M11856.279,521.385l9.182,9.182-9.252,9.251" fill="#1abee5"/>
        <path id="Path_5123" data-name="Path 5123" d="M11846.492,512.252a5.337,5.337,0,0,1,0,10.674" fill="#ff6a29"/>
      </g>
    </g>
    <g id="Group_1658" data-name="Group 1658" transform="translate(-10600)">
      <g id="Group_1657" data-name="Group 1657">
        <path id="Path_5124" data-name="Path 5124" d="M11756.255,759.329" fill="none" stroke="#fff" stroke-miterlimit="10" stroke-width="40"/>
        <path id="Path_5125" data-name="Path 5125" d="M11775.7,745.708a6.333,6.333,0,0,0-12.292-3.023l-1.482,6.307-6.437-1.461a6.211,6.211,0,0,0-4.718.8h0a6.349,6.349,0,0,0,1.965,11.565l16.731,3.805,2.5-1.572Z" fill="none"/>
        <path id="Path_5126" data-name="Path 5126" d="M11779.918,757.121l2.271-9.986h0a12.983,12.983,0,0,0-9.813-15.379h0a12.983,12.983,0,0,0-15.418,9.289v0a12.853,12.853,0,0,0-9.734,1.658,12.983,12.983,0,0,0-5.75,8.136h0a12.983,12.983,0,0,0,9.781,15.539l10.249,2.331,7.958-5.009" fill="#fcd42d"/>
        <path id="Rectangle_530" data-name="Rectangle 530" d="M12.985,0H24.154a0,0,0,0,1,0,0V25.969a0,0,0,0,1,0,0H12.985A12.985,12.985,0,0,1,0,12.985v0A12.985,12.985,0,0,1,12.985,0Z" transform="matrix(0.975, 0.222, -0.222, 0.975, 11744.218, 738.158)" fill="#c4c4c4"/>
        <path id="Path_5127" data-name="Path 5127" d="M11761.5,768.711l15,3.412,3.412-15Z" fill="#1abee5"/>
        <circle id="Ellipse_374" data-name="Ellipse 374" cx="2.611" cy="2.611" r="2.611" transform="translate(11752.097 750.401)" fill="#0d0d0b"/>
        <path id="Path_5128" data-name="Path 5128" d="M11755.119,740.637l12.661,2.879-2.9,12.758" fill="#1abee5"/>
        <path id="Path_5129" data-name="Path 5129" d="M11741.971,738.121a5.337,5.337,0,0,1,5.687,9.034" fill="#ff6a29"/>
      </g>
    </g>
    <g id="Group_1660" data-name="Group 1660" transform="translate(-10600)">
      <g id="Group_1659" data-name="Group 1659">
        <path id="Path_5130" data-name="Path 5130" d="M11925.21,765.84" fill="none" stroke="#fff" stroke-miterlimit="10" stroke-width="40"/>
        <path id="Path_5131" data-name="Path 5131" d="M11948.057,772.276a6.333,6.333,0,0,0-5.436-11.431l-5.822,2.842-2.94-5.909a6.215,6.215,0,0,0-3.605-3.147h0a6.349,6.349,0,0,0-7.714,8.838l7.64,15.365,2.8.94Z" fill="none"/>
        <path id="Path_5132" data-name="Path 5132" d="M11941.891,782.767l9.169-4.559h0a12.982,12.982,0,0,0,5.7-17.33h0a12.986,12.986,0,0,0-16.948-6.062h0a12.933,12.933,0,0,0-17.38-5.793h0a12.982,12.982,0,0,0-5.845,17.405l4.679,9.412,8.914,2.993" fill="#fcd42d"/>
        <path id="Rectangle_531" data-name="Rectangle 531" d="M12.985,0H24.154a0,0,0,0,1,0,0V25.969a0,0,0,0,1,0,0H12.985A12.985,12.985,0,0,1,0,12.985v0A12.985,12.985,0,0,1,12.985,0Z" transform="translate(11933.989 743.124) rotate(63.563)" fill="#c4c4c4"/>
        <path id="Path_5133" data-name="Path 5133" d="M11921.266,775.841l6.85,13.776,13.775-6.85Z" fill="#1abee5"/>
        <circle id="Ellipse_375" data-name="Ellipse 375" cx="2.611" cy="2.611" r="2.611" transform="translate(11926.512 758.034)" fill="#0d0d0b"/>
        <path id="Path_5134" data-name="Path 5134" d="M11938.966,753.134l5.781,11.627-11.716,5.825" fill="#1abee5"/>
        <path id="Path_5135" data-name="Path 5135" d="M11932.6,741.36a5.337,5.337,0,0,1-3.4,10.119" fill="#ff6a29"/>
      </g>
    </g>
    <g id="Group_1662" data-name="Group 1662" transform="translate(-10600)">
      <g id="Group_1661" data-name="Group 1661">
        <path id="Path_5136" data-name="Path 5136" d="M12277.482,663.968" fill="none" stroke="#fff" stroke-miterlimit="10" stroke-width="40"/>
        <path id="Path_5137" data-name="Path 5137" d="M12296.136,678.647a6.333,6.333,0,0,0-.654-12.642l-6.468.4-.459-6.585a6.21,6.21,0,0,0-2.129-4.285h0a6.349,6.349,0,0,0-10.506,5.219l1.188,17.119,2.227,1.937Z" fill="none"/>
        <path id="Path_5138" data-name="Path 5138" d="M12286.428,685.985l10.216-.709h0a12.981,12.981,0,0,0,11.891-13.835h0a12.982,12.982,0,0,0-13.345-12.079h0a12.934,12.934,0,0,0-13.848-12h0a12.982,12.982,0,0,0-12.053,13.851l.727,10.485,7.094,6.173" fill="#fcd42d"/>
        <path id="Rectangle_532" data-name="Rectangle 532" d="M12.985,0H24.154a0,0,0,0,1,0,0V25.969a0,0,0,0,1,0,0H12.985A12.985,12.985,0,0,1,0,12.985v0A12.985,12.985,0,0,1,12.985,0Z" transform="translate(12294.276 646.331) rotate(86.03)" fill="#c4c4c4"/>
        <path id="Path_5139" data-name="Path 5139" d="M12270.016,671.7l1.064,15.348,15.349-1.065Z" fill="#1abee5"/>
        <circle id="Ellipse_376" data-name="Ellipse 376" cx="2.611" cy="2.611" r="2.611" transform="translate(12280.472 658.052)" fill="#0d0d0b"/>
        <path id="Path_5140" data-name="Path 5140" d="M12295.05,657.483l.9,12.953-13.053.906" fill="#1abee5"/>
        <path id="Path_5141" data-name="Path 5141" d="M12293.663,644.169a5.337,5.337,0,0,1-7.008,8.052" fill="#ff6a29"/>
      </g>
    </g>
    <g id="Group_1664" data-name="Group 1664" transform="translate(-10600)">
      <g id="Group_1663" data-name="Group 1663">
        <path id="Path_5142" data-name="Path 5142" d="M12105.578,254.159" fill="none" stroke="#fff" stroke-miterlimit="10" stroke-width="40"/>
        <path id="Path_5143" data-name="Path 5143" d="M12124.231,268.838a6.333,6.333,0,0,0-.655-12.641l-6.466.4-.46-6.585a6.21,6.21,0,0,0-2.129-4.286h0a6.349,6.349,0,0,0-10.506,5.22l1.188,17.118,2.227,1.938Z" fill="none"/>
        <path id="Path_5144" data-name="Path 5144" d="M12114.524,276.177l10.215-.709h0a12.982,12.982,0,0,0,11.891-13.836h0a12.982,12.982,0,0,0-13.346-12.078h0a12.848,12.848,0,0,0-4.4-8.841,12.98,12.98,0,0,0-9.45-3.156h0a12.984,12.984,0,0,0-12.053,13.851l.729,10.486,7.093,6.172" fill="#fcd42d"/>
        <path id="Rectangle_533" data-name="Rectangle 533" d="M12.985,0H24.154a0,0,0,0,1,0,0V25.969a0,0,0,0,1,0,0H12.985A12.985,12.985,0,0,1,0,12.985v0A12.985,12.985,0,0,1,12.985,0Z" transform="matrix(0.069, 0.998, -0.998, 0.069, 12122.371, 236.522)" fill="#c4c4c4"/>
        <path id="Path_5145" data-name="Path 5145" d="M12098.11,261.894l1.065,15.348,15.348-1.065Z" fill="#1abee5"/>
        <circle id="Ellipse_377" data-name="Ellipse 377" cx="2.611" cy="2.611" r="2.611" transform="translate(12108.567 248.243)" fill="#0d0d0b"/>
        <path id="Path_5146" data-name="Path 5146" d="M12123.146,247.675l.9,12.953-13.052.906" fill="#1abee5"/>
        <path id="Path_5147" data-name="Path 5147" d="M12121.758,234.361a5.337,5.337,0,0,1-7.007,8.052" fill="#ff6a29"/>
      </g>
    </g>
    <g id="Group_1666" data-name="Group 1666" transform="translate(-10600)">
      <g id="Group_1665" data-name="Group 1665">
        <path id="Path_5148" data-name="Path 5148" d="M12015.987,365.07" fill="none" stroke="#fff" stroke-miterlimit="10" stroke-width="40"/>
        <path id="Path_5149" data-name="Path 5149" d="M12025.8,343.46a6.333,6.333,0,0,0-12.122,3.644l1.931,6.185-6.287,2.013a6.216,6.216,0,0,0-3.656,3.088h0a6.349,6.349,0,0,0,7.57,8.962l16.344-5.228,1.352-2.624Z" fill="none"/>
        <path id="Path_5150" data-name="Path 5150" d="M12035.243,351.142l-3.12-9.753h0a12.981,12.981,0,0,0-16.267-8.257h0a12.983,12.983,0,0,0-8.557,15.837v0a12.933,12.933,0,0,0-8.355,16.3h0a12.982,12.982,0,0,0,16.32,8.41l10.012-3.2,4.308-8.359" fill="#fcd42d"/>
        <path id="Rectangle_534" data-name="Rectangle 534" d="M12.985,0H24.154a0,0,0,0,1,0,0V25.969a0,0,0,0,1,0,0H12.985A12.985,12.985,0,0,1,0,12.985v0A12.985,12.985,0,0,1,12.985,0Z" transform="matrix(0.952, -0.305, 0.305, 0.952, 11994.859, 352.957)" fill="#c4c4c4"/>
        <path id="Path_5151" data-name="Path 5151" d="M12025.276,370.483l14.653-4.687-4.687-14.654Z" fill="#1abee5"/>
        <circle id="Ellipse_378" data-name="Ellipse 378" cx="2.611" cy="2.611" r="2.611" transform="translate(12008.833 357.806)" fill="#0d0d0b"/>
        <path id="Path_5152" data-name="Path 5152" d="M12005.509,349.551l12.367-3.956,3.985,12.462" fill="#1abee5"/>
        <path id="Path_5153" data-name="Path 5153" d="M11992.907,354.067a5.336,5.336,0,1,1,9.487,4.889" fill="#ff6a29"/>
      </g>
    </g>
    <g id="Group_1668" data-name="Group 1668" transform="translate(-10600)">
      <g id="Group_1667" data-name="Group 1667">
        <path id="Path_5154" data-name="Path 5154" d="M12032.857,989.8" fill="none" stroke="#fff" stroke-miterlimit="10" stroke-width="40"/>
        <path id="Path_5155" data-name="Path 5155" d="M12042.675,968.192a6.333,6.333,0,0,0-12.122,3.645l1.93,6.185-6.287,2.013a6.205,6.205,0,0,0-3.655,3.088h0a6.348,6.348,0,0,0,7.569,8.961l16.344-5.227,1.352-2.624Z" fill="none"/>
        <path id="Path_5156" data-name="Path 5156" d="M12052.112,975.875l-3.119-9.754h0a12.982,12.982,0,0,0-16.269-8.256h0a12.983,12.983,0,0,0-8.556,15.836v0a12.852,12.852,0,0,0-7.541,6.375,12.981,12.981,0,0,0-.815,9.929h0a12.982,12.982,0,0,0,16.321,8.411l10.012-3.2,4.307-8.358" fill="#fcd42d"/>
        <path id="Rectangle_535" data-name="Rectangle 535" d="M12.985,0H24.154a0,0,0,0,1,0,0V25.969a0,0,0,0,1,0,0H12.985A12.985,12.985,0,0,1,0,12.985v0A12.985,12.985,0,0,1,12.985,0Z" transform="matrix(0.952, -0.305, 0.305, 0.952, 12011.729, 977.689)" fill="#c4c4c4"/>
        <path id="Path_5157" data-name="Path 5157" d="M12042.146,995.215l14.654-4.687-4.687-14.654Z" fill="#1abee5"/>
        <circle id="Ellipse_379" data-name="Ellipse 379" cx="2.611" cy="2.611" r="2.611" transform="translate(12025.702 982.539)" fill="#0d0d0b"/>
        <path id="Path_5158" data-name="Path 5158" d="M12022.378,974.283l12.367-3.956,3.986,12.462" fill="#1abee5"/>
        <path id="Path_5159" data-name="Path 5159" d="M12009.776,978.8a5.337,5.337,0,1,1,9.487,4.89" fill="#ff6a29"/>
      </g>
    </g>
    <g id="Group_1670" data-name="Group 1670" transform="translate(-10600)">
      <g id="Group_1669" data-name="Group 1669">
        <path id="Path_5160" data-name="Path 5160" d="M11963.605,976.21" fill="none" stroke="#fff" stroke-miterlimit="10" stroke-width="40"/>
        <path id="Path_5161" data-name="Path 5161" d="M11979.753,993.607a6.333,6.333,0,0,0,1.316-12.589l-6.451-.607.568-6.577a6.207,6.207,0,0,0-1.437-4.564h0a6.348,6.348,0,0,0-11.188,3.525l-1.483,17.1,1.9,2.26Z" fill="none"/>
        <path id="Path_5162" data-name="Path 5162" d="M11969.024,999.349l10.2.886h0a12.981,12.981,0,0,0,13.895-11.821h0a12.985,12.985,0,0,0-11.308-14.005h0a12.933,12.933,0,0,0-11.816-14h0a12.983,12.983,0,0,0-14.058,11.811l-.908,10.471,6.049,7.2" fill="#fcd42d"/>
        <path id="Rectangle_536" data-name="Rectangle 536" d="M12.985,0H24.154a0,0,0,0,1,0,0V25.969a0,0,0,0,1,0,0H12.985A12.985,12.985,0,0,1,0,12.985v0A12.985,12.985,0,0,1,12.985,0Z" transform="translate(11982.934 961.394) rotate(94.962)" fill="#c4c4c4"/>
        <path id="Path_5163" data-name="Path 5163" d="M11955.027,982.691l-1.33,15.327,15.327,1.331Z" fill="#1abee5"/>
        <circle id="Ellipse_380" data-name="Ellipse 380" cx="2.611" cy="2.611" r="2.611" transform="translate(11967.04 971.204)" fill="#0d0d0b"/>
        <path id="Path_5164" data-name="Path 5164" d="M11981.967,972.532l-1.123,12.936-13.035-1.132" fill="#1abee5"/>
        <path id="Path_5165" data-name="Path 5165" d="M11982.663,959.163a5.337,5.337,0,0,1-8.172,6.867" fill="#ff6a29"/>
      </g>
    </g>
    <g id="Group_1672" data-name="Group 1672" transform="translate(-10600)">
      <g id="Group_1671" data-name="Group 1671">
        <path id="Path_5166" data-name="Path 5166" d="M11957.084,542.5" fill="none" stroke="#fff" stroke-miterlimit="10" stroke-width="40"/>
        <path id="Path_5167" data-name="Path 5167" d="M11974.375,558.762a6.333,6.333,0,0,0,.459-12.649l-6.477-.168.12-6.6a6.213,6.213,0,0,0-1.743-4.456h0a6.35,6.35,0,0,0-10.925,4.276l-.32,17.156,2.048,2.126Z" fill="none"/>
        <path id="Path_5168" data-name="Path 5168" d="M11964.06,565.219l10.239.192h0a12.982,12.982,0,0,0,13.061-12.737h0a12.983,12.983,0,0,0-12.232-13.205h0a12.935,12.935,0,0,0-12.74-13.167h0a12.982,12.982,0,0,0-13.223,12.739l-.2,10.508,6.523,6.772" fill="#fcd42d"/>
        <path id="Rectangle_537" data-name="Rectangle 537" d="M12.985,0H24.154a0,0,0,0,1,0,0V25.969a0,0,0,0,1,0,0H12.985A12.985,12.985,0,0,1,0,12.985v0A12.985,12.985,0,0,1,12.985,0Z" transform="translate(11975.362 526.407) rotate(91.072)" fill="#c4c4c4"/>
        <path id="Path_5169" data-name="Path 5169" d="M11948.966,549.549l-.288,15.382,15.383.288Z" fill="#1abee5"/>
        <circle id="Ellipse_381" data-name="Ellipse 381" cx="2.611" cy="2.611" r="2.611" transform="translate(11960.343 537.09)" fill="#0d0d0b"/>
        <path id="Path_5170" data-name="Path 5170" d="M11975.153,537.585l-.243,12.982-13.081-.245" fill="#1abee5"/>
        <path id="Path_5171" data-name="Path 5171" d="M11974.941,524.2a5.337,5.337,0,0,1-7.687,7.405" fill="#ff6a29"/>
      </g>
    </g>
    <g id="Group_1674" data-name="Group 1674" transform="translate(-10600)">
      <g id="Group_1673" data-name="Group 1673">
        <path id="Path_5172" data-name="Path 5172" d="M11847.634,914.418" fill="none" stroke="#fff" stroke-miterlimit="10" stroke-width="40"/>
        <path id="Path_5173" data-name="Path 5173" d="M11864.925,930.68a6.333,6.333,0,0,0,.459-12.65l-6.477-.168.121-6.6a6.215,6.215,0,0,0-1.744-4.456h0a6.349,6.349,0,0,0-10.924,4.276l-.321,17.157,2.048,2.126Z" fill="none"/>
        <path id="Path_5174" data-name="Path 5174" d="M11854.61,937.137l10.238.191h0a12.98,12.98,0,0,0,13.061-12.737h0a12.983,12.983,0,0,0-12.232-13.205h0a12.934,12.934,0,0,0-12.74-13.166h0a12.982,12.982,0,0,0-13.223,12.738l-.2,10.509,6.523,6.772" fill="#fcd42d"/>
        <path id="Rectangle_538" data-name="Rectangle 538" d="M12.985,0H24.154a0,0,0,0,1,0,0V25.969a0,0,0,0,1,0,0H12.985A12.985,12.985,0,0,1,0,12.985v0A12.985,12.985,0,0,1,12.985,0Z" transform="translate(11865.912 898.325) rotate(91.072)" fill="#c4c4c4"/>
        <path id="Path_5175" data-name="Path 5175" d="M11839.516,921.467l-.287,15.382,15.382.288Z" fill="#1abee5"/>
        <circle id="Ellipse_382" data-name="Ellipse 382" cx="2.611" cy="2.611" r="2.611" transform="translate(11850.893 909.007)" fill="#0d0d0b"/>
        <path id="Path_5176" data-name="Path 5176" d="M11865.7,909.5l-.242,12.982-13.082-.245" fill="#1abee5"/>
        <path id="Path_5177" data-name="Path 5177" d="M11865.491,896.118a5.337,5.337,0,0,1-7.687,7.405" fill="#ff6a29"/>
      </g>
    </g>
    <g id="Group_1676" data-name="Group 1676" transform="translate(-10600)">
      <g id="Group_1675" data-name="Group 1675">
        <path id="Path_5178" data-name="Path 5178" d="M12105.377,957.086" fill="none" stroke="#fff" stroke-miterlimit="10" stroke-width="40"/>
        <path id="Path_5179" data-name="Path 5179" d="M12122.668,973.347a6.333,6.333,0,0,0,.459-12.65l-6.477-.168.121-6.6a6.221,6.221,0,0,0-1.744-4.456h0a6.35,6.35,0,0,0-10.925,4.277l-.32,17.156,2.048,2.126Z" fill="none"/>
        <path id="Path_5180" data-name="Path 5180" d="M12112.353,979.8l10.239.192h0a12.982,12.982,0,0,0,13.061-12.737h0a12.982,12.982,0,0,0-12.232-13.2h0a12.935,12.935,0,0,0-12.74-13.167h0a12.982,12.982,0,0,0-13.223,12.738l-.2,10.509,6.523,6.772" fill="#fcd42d"/>
        <path id="Rectangle_539" data-name="Rectangle 539" d="M12.985,0H24.154a0,0,0,0,1,0,0V25.969a0,0,0,0,1,0,0H12.985A12.985,12.985,0,0,1,0,12.985v0A12.985,12.985,0,0,1,12.985,0Z" transform="translate(12123.655 940.992) rotate(91.072)" fill="#c4c4c4"/>
        <path id="Path_5181" data-name="Path 5181" d="M12097.259,964.134l-.288,15.382,15.383.288Z" fill="#1abee5"/>
        <circle id="Ellipse_383" data-name="Ellipse 383" cx="2.611" cy="2.611" r="2.611" transform="translate(12108.636 951.675)" fill="#0d0d0b"/>
        <path id="Path_5182" data-name="Path 5182" d="M12123.446,952.17l-.243,12.982-13.081-.245" fill="#1abee5"/>
        <path id="Path_5183" data-name="Path 5183" d="M12123.234,938.785a5.337,5.337,0,0,1-7.687,7.406" fill="#ff6a29"/>
      </g>
    </g>
    <g id="Group_1678" data-name="Group 1678" transform="translate(-10600)">
      <g id="Group_1677" data-name="Group 1677">
        <path id="Path_5184" data-name="Path 5184" d="M11994.788,945.67" fill="none" stroke="#fff" stroke-miterlimit="10" stroke-width="40"/>
        <path id="Path_5185" data-name="Path 5185" d="M12012.079,961.931a6.333,6.333,0,0,0,.459-12.65l-6.478-.168.121-6.6a6.216,6.216,0,0,0-1.743-4.456h0a6.35,6.35,0,0,0-10.925,4.277l-.32,17.156,2.048,2.126Z" fill="none"/>
        <path id="Path_5186" data-name="Path 5186" d="M12001.765,968.388l10.238.192h0a12.983,12.983,0,0,0,13.061-12.737h0a12.983,12.983,0,0,0-12.232-13.205h0a12.937,12.937,0,0,0-12.739-13.167h0a12.982,12.982,0,0,0-13.224,12.738l-.2,10.509,6.523,6.772" fill="#fcd42d"/>
        <path id="Rectangle_540" data-name="Rectangle 540" d="M12.985,0H24.154a0,0,0,0,1,0,0V25.969a0,0,0,0,1,0,0H12.985A12.985,12.985,0,0,1,0,12.985v0A12.985,12.985,0,0,1,12.985,0Z" transform="translate(12013.066 929.576) rotate(91.072)" fill="#c4c4c4"/>
        <path id="Path_5187" data-name="Path 5187" d="M11986.67,952.718l-.287,15.382,15.382.288Z" fill="#1abee5"/>
        <circle id="Ellipse_384" data-name="Ellipse 384" cx="2.611" cy="2.611" r="2.611" transform="translate(11998.047 940.259)" fill="#0d0d0b"/>
        <path id="Path_5188" data-name="Path 5188" d="M12012.857,940.754l-.243,12.982-13.081-.245" fill="#1abee5"/>
        <path id="Path_5189" data-name="Path 5189" d="M12012.646,927.369a5.338,5.338,0,0,1-7.688,7.406" fill="#ff6a29"/>
      </g>
    </g>
    <g id="Group_1680" data-name="Group 1680" transform="translate(-10600)">
      <g id="Group_1679" data-name="Group 1679">
        <path id="Path_5190" data-name="Path 5190" d="M12105.47,852.9" fill="none" stroke="#fff" stroke-miterlimit="10" stroke-width="40"/>
        <path id="Path_5191" data-name="Path 5191" d="M12128.736,857.595a6.333,6.333,0,0,0-6.28-10.99l-5.592,3.272-3.377-5.672a6.209,6.209,0,0,0-3.831-2.866h0a6.348,6.348,0,0,0-7.026,9.393l8.773,14.747,2.86.727Z" fill="none"/>
        <path id="Path_5192" data-name="Path 5192" d="M12123.377,868.52l8.8-5.236h0a12.98,12.98,0,0,0,4.381-17.709h0a12.984,12.984,0,0,0-17.355-4.77h0a12.846,12.846,0,0,0-7.909-5.911,12.98,12.98,0,0,0-9.858,1.44h0a12.985,12.985,0,0,0-4.519,17.8l5.374,9.032,9.113,2.315" fill="#fcd42d"/>
        <path id="Rectangle_541" data-name="Rectangle 541" d="M12.985,0H24.154a0,0,0,0,1,0,0V25.969a0,0,0,0,1,0,0H12.985A12.985,12.985,0,0,1,0,12.985v0A12.985,12.985,0,0,1,12.985,0Z" transform="matrix(0.511, 0.859, -0.859, 0.511, 12112.516, 829.583)" fill="#c4c4c4"/>
        <path id="Path_5193" data-name="Path 5193" d="M12102.289,863.164l7.866,13.222,13.222-7.866Z" fill="#1abee5"/>
        <circle id="Ellipse_385" data-name="Ellipse 385" cx="2.611" cy="2.611" r="2.611" transform="translate(12106.37 844.81)" fill="#0d0d0b"/>
        <path id="Path_5194" data-name="Path 5194" d="M12118.231,839.191l6.639,11.159-11.243,6.689" fill="#1abee5"/>
        <path id="Path_5195" data-name="Path 5195" d="M12110.994,827.93a5.337,5.337,0,0,1-2.627,10.345" fill="#ff6a29"/>
      </g>
    </g>
    <g id="Group_1682" data-name="Group 1682" transform="translate(-10600)">
      <g id="Group_1681" data-name="Group 1681">
        <path id="Path_5196" data-name="Path 5196" d="M12174.544,591.949" fill="none" stroke="#fff" stroke-miterlimit="10" stroke-width="40"/>
        <path id="Path_5197" data-name="Path 5197" d="M12197.81,596.649a6.333,6.333,0,0,0-6.279-10.991l-5.592,3.273-3.378-5.672a6.207,6.207,0,0,0-3.83-2.866h0a6.348,6.348,0,0,0-7.027,9.393l8.772,14.747,2.861.726Z" fill="none"/>
        <path id="Path_5198" data-name="Path 5198" d="M12192.451,607.574l8.8-5.236h0a12.98,12.98,0,0,0,4.381-17.709h0a12.981,12.981,0,0,0-17.355-4.77h0a12.852,12.852,0,0,0-7.909-5.912,12.984,12.984,0,0,0-9.858,1.441h0a12.983,12.983,0,0,0-4.519,17.8l5.374,9.033,9.112,2.315" fill="#fcd42d"/>
        <path id="Rectangle_542" data-name="Rectangle 542" d="M12.985,0H24.154a0,0,0,0,1,0,0V25.969a0,0,0,0,1,0,0H12.985A12.985,12.985,0,0,1,0,12.985v0A12.985,12.985,0,0,1,12.985,0Z" transform="matrix(0.511, 0.859, -0.859, 0.511, 12181.59, 568.636)" fill="#c4c4c4"/>
        <path id="Path_5199" data-name="Path 5199" d="M12171.362,602.218l7.866,13.222,13.223-7.866Z" fill="#1abee5"/>
        <circle id="Ellipse_386" data-name="Ellipse 386" cx="2.611" cy="2.611" r="2.611" transform="translate(12175.444 583.864)" fill="#0d0d0b"/>
        <path id="Path_5200" data-name="Path 5200" d="M12187.306,578.245l6.639,11.159-11.244,6.689" fill="#1abee5"/>
        <path id="Path_5201" data-name="Path 5201" d="M12180.068,566.983a5.337,5.337,0,0,1-2.627,10.346" fill="#ff6a29"/>
      </g>
    </g>
    <g id="Group_1684" data-name="Group 1684" transform="translate(-10600)">
      <g id="Group_1683" data-name="Group 1683">
        <path id="Path_5202" data-name="Path 5202" d="M11828.719,292.608" fill="none" stroke="#fff" stroke-miterlimit="10" stroke-width="40"/>
        <path id="Path_5203" data-name="Path 5203" d="M11851.985,297.308a6.333,6.333,0,0,0-6.28-10.99l-5.592,3.273-3.377-5.672a6.214,6.214,0,0,0-3.832-2.867h0a6.349,6.349,0,0,0-7.027,9.393l8.774,14.747,2.86.727Z" fill="none"/>
        <path id="Path_5204" data-name="Path 5204" d="M11846.625,308.233l8.8-5.235h0a12.981,12.981,0,0,0,4.382-17.709h0a12.984,12.984,0,0,0-17.355-4.77h0a12.935,12.935,0,0,0-17.768-4.47h0a12.984,12.984,0,0,0-4.52,17.8l5.374,9.032,9.114,2.315" fill="#fcd42d"/>
        <path id="Rectangle_543" data-name="Rectangle 543" d="M12.985,0H24.154a0,0,0,0,1,0,0V25.969a0,0,0,0,1,0,0H12.985A12.985,12.985,0,0,1,0,12.985v0A12.985,12.985,0,0,1,12.985,0Z" transform="matrix(0.511, 0.859, -0.859, 0.511, 11835.765, 269.296)" fill="#c4c4c4"/>
        <path id="Path_5205" data-name="Path 5205" d="M11825.537,302.878l7.866,13.222,13.222-7.866Z" fill="#1abee5"/>
        <circle id="Ellipse_387" data-name="Ellipse 387" cx="2.611" cy="2.611" r="2.611" transform="translate(11829.618 284.523)" fill="#0d0d0b"/>
        <path id="Path_5206" data-name="Path 5206" d="M11841.48,278.9l6.639,11.159-11.244,6.689" fill="#1abee5"/>
        <path id="Path_5207" data-name="Path 5207" d="M11834.243,267.643a5.337,5.337,0,0,1-2.628,10.345" fill="#ff6a29"/>
      </g>
    </g>
    <g id="Group_1686" data-name="Group 1686" transform="translate(-10600)">
      <g id="Group_1685" data-name="Group 1685">
        <path id="Path_5208" data-name="Path 5208" d="M11924.12,965.553" fill="none" stroke="#fff" stroke-miterlimit="10" stroke-width="40"/>
        <path id="Path_5209" data-name="Path 5209" d="M11941.411,981.814a6.333,6.333,0,0,0,.459-12.649l-6.478-.168.121-6.6a6.208,6.208,0,0,0-1.745-4.456h0a6.349,6.349,0,0,0-10.923,4.276l-.32,17.156,2.048,2.126Z" fill="none"/>
        <path id="Path_5210" data-name="Path 5210" d="M11931.1,988.271l10.239.192h0a12.982,12.982,0,0,0,13.062-12.737h0a12.985,12.985,0,0,0-12.232-13.205h0a12.934,12.934,0,0,0-12.739-13.166h0a12.982,12.982,0,0,0-13.224,12.738l-.2,10.508,6.523,6.772" fill="#fcd42d"/>
        <path id="Rectangle_544" data-name="Rectangle 544" d="M12.985,0H24.154a0,0,0,0,1,0,0V25.969a0,0,0,0,1,0,0H12.985A12.985,12.985,0,0,1,0,12.985v0A12.985,12.985,0,0,1,12.985,0Z" transform="translate(11942.398 949.46) rotate(91.072)" fill="#c4c4c4"/>
        <path id="Path_5211" data-name="Path 5211" d="M11916,972.6l-.288,15.382,15.383.288Z" fill="#1abee5"/>
        <circle id="Ellipse_388" data-name="Ellipse 388" cx="2.611" cy="2.611" r="2.611" transform="translate(11927.378 960.142)" fill="#0d0d0b"/>
        <path id="Path_5212" data-name="Path 5212" d="M11942.189,960.637l-.243,12.982-13.081-.245" fill="#1abee5"/>
        <path id="Path_5213" data-name="Path 5213" d="M11941.977,947.253a5.337,5.337,0,1,1-7.687,7.405" fill="#ff6a29"/>
      </g>
    </g>
    <rect id="Rectangle_545" data-name="Rectangle 545" width="1971" height="1138" transform="translate(-25.5 -29)" fill="none"/>
    <rect id="Rectangle_546" data-name="Rectangle 546" width="1920" height="1080" fill="none"/>
  </g>
</svg>
