<svg xmlns="http://www.w3.org/2000/svg" width="2134.869" height="1332.383" viewBox="0 0 2134.869 1332.383">
  <g id="Group_1721" data-name="Group 1721" transform="translate(105.818 181.326)">
    <path id="Path_4880" data-name="Path 4880" d="M14714.917,413.626c-13.556-26.058-30.679-50.479-40.288-78.236-11.574-33.433-11.653-70.075-23.924-103.258a149.869,149.869,0,0,0-79.668-84.333c-3.79-1.651-8-3.167-11.974-2.03-5.416,1.55-8.326,7.366-9.945,12.762-7.592,25.295-.686,52.954,11.418,76.428s29.122,44,43.542,66.123c9.918,15.218,16.923,39.077,1.461,48.609-9.088,5.6-21.1,2.107-30.187-3.492-29.629-18.251-42.631-53.711-57.547-85.151a437.693,437.693,0,0,0-56.677-89.513c-9.456-11.553-21.381-23.513-36.309-23.544-14.456-.03-26.912,12.057-31.067,25.9s-1.5,28.867,3.211,42.535c16.273,47.232,55.21,82.958,95.809,112.07s84.748,54.148,119.373,90.16c5.463,5.681,10.869,12.015,12.367,19.753,3.677,18.986-19.462,34.249-38.477,30.727s-33.437-18.617-46.466-32.908l-45.471-49.878c-11.006-12.072-24.158-25.113-40.489-24.7-16.086.41-29.28,14.906-32.581,30.656s1.361,32.134,8.111,46.742c26.117,56.525,92.653,96.444,152.209,78.27,26.06-7.952,51.122-26.055,77.845-20.741,16.2,3.221,29.318,14.582,43.225,23.495,8.577,5.5,24.582,14.736,35.295,11.522,16.566-4.971,10.989-15.6,7.84-31.176A330.17,330.17,0,0,0,14714.917,413.626Z" transform="translate(-12720)" fill="#23af5b" fill-rule="evenodd"/>
    <path id="Path_4881" data-name="Path 4881" d="M12617.95,892.707a799.756,799.756,0,0,1,104.09-314.025c12.468-21.368,26.192-42.5,45.416-58.96s44.739-27.959,71.668-26.832c15.751,15.279,14.771,39.72,5.1,57.8s-26.2,31.9-40.087,47.367c-36.706,40.877-54.991,93.425-68.128,145.752-.816,3.251-1.618,6.628-.874,9.965,2.792,12.506,22.071,13.62,35.107,10.153,92.219-24.53,150.921-108.512,241.413-137.44,46.549-14.881,99.684-13.719,147.1,3.215,27.95,9.982,57.881,32.78,52.217,59.142-82.717-24.744-176.066-10.638-242.231,36.6-47.216,33.712-84.286,84.392-143.617,95.675-24.288,4.619-55.452,5.1-64.654,26.109-7.548,17.24,7.566,38.375,26.987,45.475s40.925,3.632,60.272-1.913a280.274,280.274,0,0,0,59.7-24.794c56.4-31.6,102.9-83.486,169.55-90.532,75.71-8.005,153.869,45.761,226.849,27.3,14.73-3.725,30.926-10.184,44.755-3.159,14.57,7.4,17.279,27.087,9.037,39.652s-23.955,19.154-39.5,23.018c-57.937,14.4-121.3-.194-181.172,6.954a235.434,235.434,0,0,0-91.563,30.582c-22.714,13.422-43.162,30.924-69.206,38.212-35.914,10.051-78.741-.476-110.815,16.961-24.418,13.274-36.1,39.381-46.326,63.852-1.725,4.128-3.38,9.022-.728,12.917,1.871,2.747,5.358,4.125,8.613,5.321,28.163,10.35,58.118,20.515,87.359,16.334,31.224-4.464,55.955-24.39,83.225-38.318,42-21.454,92.713-29.006,141.4-21.059,42.486,6.935,82.336,25.017,123.943,36.253s88.67,14.886,124.127-5.6c11.964-6.913,26.3-16.656,39.017-9.775,12.98,7.02,10.757,25.259,2.206,35.915-19.025,23.711-55.278,28.883-88.062,28.739-68.924-.3-142.684-15.462-203.471,11.78-28.61,12.821-51.681,34.177-80.627,46.393-39.571,16.7-86.093,14.763-130.372,9.871a1133.684,1133.684,0,0,1-134.283-23.084c-22.553-5.288-45.692-11.616-63.973-25.3-14.869-11.134-25.4-26.311-35.633-41.183-22.777-33.089-45.718-66.474-60.867-102.825s-22.125-76.36-11.953-113.033" transform="translate(-12720)" fill="#23af5b" fill-rule="evenodd"/>
    <rect id="Rectangle_502" data-name="Rectangle 502" width="1961.027" height="1115.311" transform="translate(-24.189 -22.332)" fill="none"/>
    <path id="Path_4898" data-name="Path 4898" d="M13636.533-108.208c-.2,19.446-21.576,30.894-40.125,36.731-55.087,17.334-117.447,25.494-157.123,67.456-8.649,9.148-16.03,20.041-18.347,32.416s1.287,26.376,11.228,34.1c8.016,6.229,18.839,7.619,28.961,6.853,21.694-1.641,41.666-11.9,60.956-21.967l57.535-30.011c22.158-11.558,44.594-23.308,63.031-40.18,12.147-11.117,23.084-24.765,38.694-30,8.678,12.833,7.553,30.312,1.317,44.493s-16.854,25.885-26.938,37.644c-57.276,66.793-104.112,149.7-99.336,237.556.123,2.275.339,4.7,1.754,6.49,1.689,2.132,4.617,2.772,7.319,3.086,24.4,2.84,48.617-9.837,65.269-27.894s26.935-40.972,36.067-63.774a982.144,982.144,0,0,0,43.063-135.021c2.24-9.3,4.617-19.144,11.326-25.965s19.341-8.768,25.387-1.353c2.128,2.611,3.136,5.941,3.938,9.213,14.06,57.359-20.562,114.622-27.058,173.32-1.8,16.318.09,35.741,13.986,44.482,17.947,11.29,41.352-3.837,53.246-21.39a120.894,120.894,0,0,0,19.7-51.861c5.339-40.663-10.192-80.985-13.145-121.891-.75-10.384.469-22.908,9.633-27.85,11.031-5.949,24.533,4.521,28.753,16.323s3.183,24.961,7.239,36.82c1.713,5.01,4.641,10.014,9.466,12.193,7.832,3.536,16.747-1.69,23.179-7.388,21.386-18.944,34.821-53.573,16.608-75.585-11.936-14.424-32.907-17.827-46.89-30.276-14.664-13.055-19.429-34.164-19.015-53.793s5.15-38.953,5.932-58.57c.181-4.528.107-9.252-1.906-13.312-1.784-3.594-4.921-6.314-8.122-8.735-24.709-18.685-56.823-24.759-87.8-25.43-7.2-.156-14.564-.025-21.354,2.382-8.447,2.994-15.278,9.233-21.859,15.318l-43.286,40.025c-6.435,5.95-13.029,12.116-16.7,20.076s-3.712,18.253,2.242,24.683" transform="translate(-12720)" fill="#23af5b" fill-rule="evenodd"/>
    <circle id="Ellipse_346" data-name="Ellipse 346" cx="394.34" cy="394.34" r="394.34" transform="translate(1005.334 212.041)" fill="#070707"/>
    <g id="Group_1621" data-name="Group 1621" transform="translate(-12720)">
      <path id="Path_4899" data-name="Path 4899" d="M13981.106,548.367" fill="none" stroke="#fff" stroke-miterlimit="10" stroke-width="40"/>
      <path id="Path_4900" data-name="Path 4900" d="M13998.226,562.7a5.958,5.958,0,0,0-.254-11.905l-6.092.193-.244-6.205a5.837,5.837,0,0,0-1.88-4.09h0a5.972,5.972,0,0,0-10.027,4.608l.629,16.13,2.039,1.886Z" fill="none"/>
      <path id="Path_4901" data-name="Path 4901" d="M13998.515,568.95h0l-.131.009.452-.021-.32.012Z" fill="#c4c4c4"/>
      <path id="Path_4902" data-name="Path 4902" d="M13998.516,568.95Z" fill="#c4c4c4"/>
      <path id="Path_4903" data-name="Path 4903" d="M14010.092,556.281h0a12.215,12.215,0,0,0-12.2-11.738h0A12.09,12.09,0,0,0,13994,536.1a12.215,12.215,0,0,0-8.8-3.237h0a12.215,12.215,0,0,0-11.729,12.68l.386,9.88.563,14.462,14.462-.563,9.626-.375h0A12.212,12.212,0,0,0,14010.092,556.281Z" fill="#ff6a29"/>
      <path id="Path_4904" data-name="Path 4904" d="M13998.35,556.643l-.475-12.206a12.216,12.216,0,0,0-12.681-11.731h0a12.217,12.217,0,0,0-11.731,12.681l19.022,17.6,5.864-6.34" fill="#c4c4c4"/>
      <circle id="Ellipse_347" data-name="Ellipse 347" cx="2.115" cy="2.115" r="2.115" transform="translate(13988.179 544.638)" fill="#ff6a29"/>
      <rect id="Rectangle_504" data-name="Rectangle 504" width="3.795" height="5.869" transform="matrix(0.734, 0.679, -0.679, 0.734, 13989.699, 560.407)" fill="#0d0d0b"/>
      <path id="Path_4905" data-name="Path 4905" d="M13996.424,558.725l1.933-2.089-.129-3.284h0l-.517.14a3.08,3.08,0,0,0-1.287,5.233Z" fill="#0d0d0b"/>
      <path id="Path_4906" data-name="Path 4906" d="M13996.89,556.324" fill="#9842ff"/>
      <path id="Path_4907" data-name="Path 4907" d="M13978.384,539.485l-2.3-2.131a5.27,5.27,0,0,0-.289-7.439l-3.193-2.953,2.131-2.3,3.193,2.953A8.412,8.412,0,0,1,13978.384,539.485Z" fill="#c4c4c4"/>
      <path id="Path_4908" data-name="Path 4908" d="M13973.475,545.4l-2.3-2.131a5.272,5.272,0,0,0-.29-7.44l-3.5-3.233,2.131-2.3,3.5,3.233A8.412,8.412,0,0,1,13973.475,545.4Z" fill="#c4c4c4"/>
    </g>
    <g id="Group_1622" data-name="Group 1622" transform="translate(-12720)">
      <path id="Path_4909" data-name="Path 4909" d="M13870.448,587.5" fill="none" stroke="#fff" stroke-miterlimit="10" stroke-width="40"/>
      <path id="Path_4910" data-name="Path 4910" d="M13881.919,568.338a5.957,5.957,0,0,0-11.717,2.12l1.146,5.986-6.09,1.215a5.842,5.842,0,0,0-3.745,2.5h0a5.973,5.973,0,0,0,6.125,9.18l15.831-3.151,1.543-2.309Z" fill="none"/>
      <path id="Path_4911" data-name="Path 4911" d="M13888.045,567.073h0c.009.043.021.085.029.128l-.092-.443.063.314Z" fill="#c4c4c4"/>
      <path id="Path_4912" data-name="Path 4912" d="M13888.045,567.072h0Z" fill="#c4c4c4"/>
      <path id="Path_4913" data-name="Path 4913" d="M13873.716,557.628h0a12.215,12.215,0,0,0-9.678,13.894v0a12.167,12.167,0,0,0-9.542,14.353h0a12.214,12.214,0,0,0,14.363,9.594l9.7-1.93,14.2-2.825-2.826-14.2-1.88-9.448h0A12.212,12.212,0,0,0,13873.716,557.628Z" fill="#ff6a29"/>
      <path id="Path_4914" data-name="Path 4914" d="M13875.916,569.167l-11.981,2.385a12.215,12.215,0,0,0-9.595,14.364h0a12.215,12.215,0,0,0,14.364,9.6l14.394-21.547-7.182-4.8" fill="#c4c4c4"/>
      <circle id="Ellipse_348" data-name="Ellipse 348" cx="2.115" cy="2.115" r="2.115" transform="translate(13865.298 576.56)" fill="#ff6a29"/>
      <rect id="Rectangle_505" data-name="Rectangle 505" width="3.795" height="5.869" transform="translate(13880.989 577.121) rotate(-56.257)" fill="#0d0d0b"/>
      <path id="Path_4915" data-name="Path 4915" d="M13878.274,570.742l-2.366-1.58-3.224.642h0l.22.488a3.079,3.079,0,0,0,5.37.45Z" fill="#0d0d0b"/>
      <path id="Path_4916" data-name="Path 4916" d="M13875.83,570.659" fill="#9842ff"/>
      <path id="Path_4917" data-name="Path 4917" d="M13862.1,591.578l-1.742,2.609a5.272,5.272,0,0,0-7.3,1.454l-2.415,3.616-2.609-1.743,2.416-3.616A8.41,8.41,0,0,1,13862.1,591.578Z" fill="#c4c4c4"/>
      <path id="Path_4918" data-name="Path 4918" d="M13868.713,595.5l-1.743,2.609a5.27,5.27,0,0,0-7.3,1.454l-2.645,3.959-2.609-1.743,2.644-3.959A8.412,8.412,0,0,1,13868.713,595.5Z" fill="#c4c4c4"/>
    </g>
    <g id="Group_1623" data-name="Group 1623" transform="translate(-12720)">
      <path id="Path_4919" data-name="Path 4919" d="M14267.395,548.535" fill="none" stroke="#fff" stroke-miterlimit="10" stroke-width="40"/>
      <path id="Path_4920" data-name="Path 4920" d="M14284.515,562.87a5.958,5.958,0,0,0-.255-11.9l-6.092.193-.243-6.205a5.841,5.841,0,0,0-1.88-4.09h0a5.972,5.972,0,0,0-10.027,4.608l.629,16.13,2.037,1.886Z" fill="none"/>
      <path id="Path_4921" data-name="Path 4921" d="M14284.8,569.119h0l-.131.008.451-.021-.32.012Z" fill="#c4c4c4"/>
      <path id="Path_4922" data-name="Path 4922" d="M14284.8,569.118h0Z" fill="#c4c4c4"/>
      <path id="Path_4923" data-name="Path 4923" d="M14296.38,556.449h0a12.213,12.213,0,0,0-12.2-11.739h0a12.088,12.088,0,0,0-3.883-8.439,12.211,12.211,0,0,0-8.795-3.237h0a12.215,12.215,0,0,0-11.729,12.68l.385,9.88.563,14.462,14.463-.563,9.626-.374h0A12.212,12.212,0,0,0,14296.38,556.449Z" fill="#ff6a29"/>
      <path id="Path_4924" data-name="Path 4924" d="M14284.639,556.811l-.476-12.206a12.215,12.215,0,0,0-12.681-11.731h0a12.215,12.215,0,0,0-11.73,12.682l19.021,17.595,5.865-6.34" fill="#c4c4c4"/>
      <circle id="Ellipse_349" data-name="Ellipse 349" cx="2.115" cy="2.115" r="2.115" transform="translate(14274.467 544.806)" fill="#ff6a29"/>
      <rect id="Rectangle_506" data-name="Rectangle 506" width="3.795" height="5.869" transform="matrix(0.734, 0.679, -0.679, 0.734, 14275.987, 560.574)" fill="#0d0d0b"/>
      <path id="Path_4925" data-name="Path 4925" d="M14282.713,558.893l1.932-2.089-.128-3.284h0l-.517.14a3.079,3.079,0,0,0-1.287,5.233Z" fill="#0d0d0b"/>
      <path id="Path_4926" data-name="Path 4926" d="M14283.179,556.492" fill="#9842ff"/>
      <path id="Path_4927" data-name="Path 4927" d="M14264.673,539.653l-2.3-2.131a5.27,5.27,0,0,0-.29-7.439l-3.192-2.953,2.131-2.3,3.192,2.953A8.412,8.412,0,0,1,14264.673,539.653Z" fill="#c4c4c4"/>
      <path id="Path_4928" data-name="Path 4928" d="M14259.764,545.567l-2.3-2.131a5.271,5.271,0,0,0-.289-7.439l-3.5-3.233,2.13-2.3,3.5,3.233A8.412,8.412,0,0,1,14259.764,545.567Z" fill="#c4c4c4"/>
    </g>
    <g id="Group_1624" data-name="Group 1624" transform="translate(-12720)">
      <path id="Path_4929" data-name="Path 4929" d="M13898.219,438.4" fill="none" stroke="#fff" stroke-miterlimit="10" stroke-width="40"/>
      <path id="Path_4930" data-name="Path 4930" d="M13915.339,452.738a5.958,5.958,0,0,0-.254-11.9l-6.093.193-.243-6.2a5.853,5.853,0,0,0-1.88-4.091h0a5.973,5.973,0,0,0-10.027,4.608l.628,16.131,2.038,1.885Z" fill="none"/>
      <path id="Path_4931" data-name="Path 4931" d="M13915.628,458.986h0c-.044,0-.087.007-.131.009l.452-.021-.321.012Z" fill="#c4c4c4"/>
      <path id="Path_4932" data-name="Path 4932" d="M13915.628,458.986Z" fill="#c4c4c4"/>
      <path id="Path_4933" data-name="Path 4933" d="M13927.2,446.316h0a12.213,12.213,0,0,0-12.2-11.738h0a12.169,12.169,0,0,0-12.678-11.676h0a12.213,12.213,0,0,0-11.729,12.68l.384,9.88.563,14.462,14.463-.563,9.626-.375h0A12.212,12.212,0,0,0,13927.2,446.316Z" fill="#ff6a29"/>
      <path id="Path_4934" data-name="Path 4934" d="M13915.463,446.679l-.475-12.206a12.217,12.217,0,0,0-12.683-11.731h0a12.215,12.215,0,0,0-11.729,12.681l19.021,17.6,5.866-6.34" fill="#c4c4c4"/>
      <circle id="Ellipse_350" data-name="Ellipse 350" cx="2.115" cy="2.115" r="2.115" transform="translate(13905.291 434.674)" fill="#ff6a29"/>
      <rect id="Rectangle_507" data-name="Rectangle 507" width="3.795" height="5.869" transform="matrix(0.734, 0.679, -0.679, 0.734, 13906.812, 450.442)" fill="#0d0d0b"/>
      <path id="Path_4935" data-name="Path 4935" d="M13913.537,448.761l1.932-2.089-.128-3.284h0l-.517.14a3.078,3.078,0,0,0-1.287,5.232Z" fill="#0d0d0b"/>
      <path id="Path_4936" data-name="Path 4936" d="M13914,446.36" fill="#9842ff"/>
      <path id="Path_4937" data-name="Path 4937" d="M13895.5,429.521l-2.3-2.131a5.27,5.27,0,0,0-.29-7.439l-3.192-2.953,2.131-2.3,3.192,2.953A8.413,8.413,0,0,1,13895.5,429.521Z" fill="#c4c4c4"/>
      <path id="Path_4938" data-name="Path 4938" d="M13890.588,435.434l-2.3-2.131a5.27,5.27,0,0,0-.289-7.439l-3.5-3.233,2.131-2.3,3.5,3.233A8.41,8.41,0,0,1,13890.588,435.434Z" fill="#c4c4c4"/>
    </g>
    <g id="Group_1625" data-name="Group 1625" transform="translate(-12720)">
      <path id="Path_4939" data-name="Path 4939" d="M14437.436,622.8" fill="none" stroke="#fff" stroke-miterlimit="10" stroke-width="40"/>
      <path id="Path_4940" data-name="Path 4940" d="M14454.557,637.133a5.958,5.958,0,0,0-.255-11.9l-6.092.193-.244-6.205a5.837,5.837,0,0,0-1.88-4.09h0a5.972,5.972,0,0,0-10.027,4.608l.628,16.13,2.039,1.886Z" fill="none"/>
      <path id="Path_4941" data-name="Path 4941" d="M14454.846,643.382h0l-.13.008.451-.021-.32.013Z" fill="#c4c4c4"/>
      <path id="Path_4942" data-name="Path 4942" d="M14454.846,643.382Z" fill="#c4c4c4"/>
      <path id="Path_4943" data-name="Path 4943" d="M14466.422,630.712h0a12.215,12.215,0,0,0-12.2-11.739h0a12.091,12.091,0,0,0-3.882-8.439,12.214,12.214,0,0,0-8.795-3.237h0a12.215,12.215,0,0,0-11.729,12.68l.386,9.88.563,14.463,14.462-.564,9.626-.374h0A12.213,12.213,0,0,0,14466.422,630.712Z" fill="#ff6a29"/>
      <path id="Path_4944" data-name="Path 4944" d="M14454.68,631.074l-.475-12.206a12.214,12.214,0,0,0-12.681-11.73h0a12.216,12.216,0,0,0-11.731,12.681l19.022,17.6,5.864-6.341" fill="#c4c4c4"/>
      <circle id="Ellipse_351" data-name="Ellipse 351" cx="2.115" cy="2.115" r="2.115" transform="translate(14444.509 619.069)" fill="#ff6a29"/>
      <rect id="Rectangle_508" data-name="Rectangle 508" width="3.795" height="5.869" transform="matrix(0.734, 0.679, -0.679, 0.734, 14446.029, 634.838)" fill="#0d0d0b"/>
      <path id="Path_4945" data-name="Path 4945" d="M14452.754,633.156l1.932-2.088-.128-3.285h0l-.517.14a3.08,3.08,0,0,0-1.287,5.233Z" fill="#0d0d0b"/>
      <path id="Path_4946" data-name="Path 4946" d="M14453.221,630.755" fill="#9842ff"/>
      <path id="Path_4947" data-name="Path 4947" d="M14434.714,613.916l-2.3-2.131a5.27,5.27,0,0,0-.29-7.439l-3.193-2.953,2.131-2.3,3.193,2.953A8.412,8.412,0,0,1,14434.714,613.916Z" fill="#c4c4c4"/>
      <path id="Path_4948" data-name="Path 4948" d="M14429.8,619.83l-2.3-2.131a5.27,5.27,0,0,0-.29-7.439l-3.5-3.233,2.131-2.3,3.5,3.233A8.411,8.411,0,0,1,14429.8,619.83Z" fill="#c4c4c4"/>
    </g>
    <g id="Group_1626" data-name="Group 1626" transform="translate(-12720)">
      <path id="Path_4949" data-name="Path 4949" d="M14166.586,240.422" fill="none" stroke="#fff" stroke-miterlimit="10" stroke-width="40"/>
      <path id="Path_4950" data-name="Path 4950" d="M14183.707,254.757a5.958,5.958,0,0,0-.255-11.9l-6.092.194-.244-6.206a5.849,5.849,0,0,0-1.879-4.09h0a5.973,5.973,0,0,0-10.028,4.608l.628,16.13,2.039,1.886Z" fill="none"/>
      <path id="Path_4951" data-name="Path 4951" d="M14184,261.006h0l-.13.008.451-.021-.32.013Z" fill="#c4c4c4"/>
      <path id="Path_4952" data-name="Path 4952" d="M14184,261.006Z" fill="#c4c4c4"/>
      <path id="Path_4953" data-name="Path 4953" d="M14195.572,248.336h0a12.215,12.215,0,0,0-12.2-11.739h0a12.165,12.165,0,0,0-12.677-11.675h0a12.215,12.215,0,0,0-11.73,12.68l.385,9.88.563,14.463,14.462-.564,9.626-.374h0A12.213,12.213,0,0,0,14195.572,248.336Z" fill="#ff6a29"/>
      <path id="Path_4954" data-name="Path 4954" d="M14183.83,248.7l-.475-12.206a12.215,12.215,0,0,0-12.682-11.73h0a12.214,12.214,0,0,0-11.73,12.681l19.021,17.6,5.865-6.341" fill="#c4c4c4"/>
      <circle id="Ellipse_352" data-name="Ellipse 352" cx="2.115" cy="2.115" r="2.115" transform="translate(14173.659 236.693)" fill="#ff6a29"/>
      <rect id="Rectangle_509" data-name="Rectangle 509" width="3.795" height="5.869" transform="matrix(0.734, 0.679, -0.679, 0.734, 14175.179, 252.461)" fill="#0d0d0b"/>
      <path id="Path_4955" data-name="Path 4955" d="M14181.905,250.78l1.931-2.088-.128-3.285h0l-.516.14a3.079,3.079,0,0,0-1.287,5.233Z" fill="#0d0d0b"/>
      <path id="Path_4956" data-name="Path 4956" d="M14182.371,248.379" fill="#9842ff"/>
      <path id="Path_4957" data-name="Path 4957" d="M14163.864,231.54l-2.3-2.131a5.269,5.269,0,0,0-.289-7.439l-3.192-2.953,2.131-2.3,3.192,2.954A8.412,8.412,0,0,1,14163.864,231.54Z" fill="#c4c4c4"/>
      <path id="Path_4958" data-name="Path 4958" d="M14158.956,237.454l-2.3-2.131a5.27,5.27,0,0,0-.29-7.439l-3.5-3.233,2.131-2.3,3.5,3.233A8.413,8.413,0,0,1,14158.956,237.454Z" fill="#c4c4c4"/>
    </g>
    <g id="Group_1627" data-name="Group 1627" transform="translate(-12720)">
      <path id="Path_4959" data-name="Path 4959" d="M14116.126,979.493" fill="none" stroke="#fff" stroke-miterlimit="10" stroke-width="40"/>
      <path id="Path_4960" data-name="Path 4960" d="M14133.247,993.828a5.958,5.958,0,0,0-.255-11.905l-6.092.194-.244-6.206a5.847,5.847,0,0,0-1.88-4.09h0a5.973,5.973,0,0,0-10.027,4.608l.628,16.13,2.039,1.886Z" fill="none"/>
      <path id="Path_4961" data-name="Path 4961" d="M14133.535,1000.077h0c-.044,0-.087.006-.13.009l.451-.022-.32.013Z" fill="#c4c4c4"/>
      <path id="Path_4962" data-name="Path 4962" d="M14133.536,1000.077h0Z" fill="#c4c4c4"/>
      <path id="Path_4963" data-name="Path 4963" d="M14145.112,987.407h0a12.215,12.215,0,0,0-12.2-11.739h0a12.167,12.167,0,0,0-12.679-11.675h0a12.214,12.214,0,0,0-11.729,12.679l.385,9.88.563,14.463,14.462-.563,9.626-.375h0A12.213,12.213,0,0,0,14145.112,987.407Z" fill="#ff6a29"/>
      <path id="Path_4964" data-name="Path 4964" d="M14133.37,987.769l-.476-12.206a12.214,12.214,0,0,0-12.681-11.73h0a12.214,12.214,0,0,0-11.73,12.681l19.021,17.6,5.865-6.341" fill="#c4c4c4"/>
      <circle id="Ellipse_353" data-name="Ellipse 353" cx="2.115" cy="2.115" r="2.115" transform="translate(14123.198 975.764)" fill="#ff6a29"/>
      <rect id="Rectangle_510" data-name="Rectangle 510" width="3.795" height="5.869" transform="matrix(0.734, 0.679, -0.679, 0.734, 14124.719, 991.533)" fill="#0d0d0b"/>
      <path id="Path_4965" data-name="Path 4965" d="M14131.444,989.851l1.932-2.088-.128-3.285h0l-.517.14a3.079,3.079,0,0,0-1.287,5.233Z" fill="#0d0d0b"/>
      <path id="Path_4966" data-name="Path 4966" d="M14131.911,987.45" fill="#9842ff"/>
      <path id="Path_4967" data-name="Path 4967" d="M14113.4,970.611l-2.3-2.131a5.269,5.269,0,0,0-.29-7.439l-3.192-2.953,2.131-2.3,3.193,2.954A8.412,8.412,0,0,1,14113.4,970.611Z" fill="#c4c4c4"/>
      <path id="Path_4968" data-name="Path 4968" d="M14108.5,976.525l-2.3-2.131a5.27,5.27,0,0,0-.29-7.439l-3.5-3.233,2.131-2.3,3.5,3.233A8.412,8.412,0,0,1,14108.5,976.525Z" fill="#c4c4c4"/>
    </g>
    <g id="Group_1628" data-name="Group 1628" transform="translate(-12720)">
      <path id="Path_4969" data-name="Path 4969" d="M14220.7,960.145" fill="none" stroke="#fff" stroke-miterlimit="10" stroke-width="40"/>
      <path id="Path_4970" data-name="Path 4970" d="M14237.816,974.48a5.958,5.958,0,0,0-.255-11.9l-6.093.193-.243-6.205a5.841,5.841,0,0,0-1.88-4.09h0a5.972,5.972,0,0,0-10.026,4.608l.628,16.13,2.038,1.886Z" fill="none"/>
      <path id="Path_4971" data-name="Path 4971" d="M14238.105,980.729h0l-.132.008.452-.021-.32.013Z" fill="#c4c4c4"/>
      <path id="Path_4972" data-name="Path 4972" d="M14238.105,980.729Z" fill="#c4c4c4"/>
      <path id="Path_4973" data-name="Path 4973" d="M14249.681,968.059h0a12.211,12.211,0,0,0-12.2-11.739h0a12.088,12.088,0,0,0-3.883-8.439,12.212,12.212,0,0,0-8.795-3.237h0a12.213,12.213,0,0,0-11.729,12.68l.384,9.88.563,14.463,14.463-.564,9.627-.374h0A12.211,12.211,0,0,0,14249.681,968.059Z" fill="#ff6a29"/>
      <path id="Path_4974" data-name="Path 4974" d="M14237.94,968.421l-.477-12.206a12.213,12.213,0,0,0-12.681-11.73h0a12.214,12.214,0,0,0-11.73,12.681l19.021,17.6,5.866-6.341" fill="#c4c4c4"/>
      <circle id="Ellipse_354" data-name="Ellipse 354" cx="2.115" cy="2.115" r="2.115" transform="translate(14227.768 956.416)" fill="#ff6a29"/>
      <rect id="Rectangle_511" data-name="Rectangle 511" width="3.795" height="5.869" transform="matrix(0.734, 0.679, -0.679, 0.734, 14229.288, 972.184)" fill="#0d0d0b"/>
      <path id="Path_4975" data-name="Path 4975" d="M14236.014,970.5l1.933-2.088-.128-3.285h0l-.518.14a3.079,3.079,0,0,0-1.287,5.233Z" fill="#0d0d0b"/>
      <path id="Path_4976" data-name="Path 4976" d="M14236.48,968.1" fill="#9842ff"/>
      <path id="Path_4977" data-name="Path 4977" d="M14217.974,951.263l-2.3-2.131a5.27,5.27,0,0,0-.29-7.439l-3.191-2.953,2.131-2.3,3.191,2.953A8.412,8.412,0,0,1,14217.974,951.263Z" fill="#c4c4c4"/>
      <path id="Path_4978" data-name="Path 4978" d="M14213.065,957.177l-2.3-2.131a5.27,5.27,0,0,0-.289-7.439l-3.5-3.233,2.132-2.3,3.494,3.233A8.413,8.413,0,0,1,14213.065,957.177Z" fill="#c4c4c4"/>
    </g>
    <g id="Group_1629" data-name="Group 1629" transform="translate(-12720)">
      <path id="Path_4979" data-name="Path 4979" d="M14177.239,983.7" fill="none" stroke="#fff" stroke-miterlimit="10" stroke-width="40"/>
      <path id="Path_4980" data-name="Path 4980" d="M14193.511,968.412a5.957,5.957,0,0,0-11.85-1.166l-.534,6.072-6.19-.5a5.843,5.843,0,0,0-4.284,1.379h0a5.973,5.973,0,0,0,3.381,10.505l16.09,1.3,2.116-1.8Z" fill="none"/>
      <path id="Path_4981" data-name="Path 4981" d="M14199.749,968.869h0c0,.043,0,.087-.006.13l.032-.45-.026.319Z" fill="#c4c4c4"/>
      <path id="Path_4982" data-name="Path 4982" d="M14199.749,968.869h0Z" fill="#c4c4c4"/>
      <path id="Path_4983" data-name="Path 4983" d="M14188.549,955.866h0a12.215,12.215,0,0,0-13.108,10.719v0a12.167,12.167,0,0,0-13.1,11.2h0a12.214,12.214,0,0,0,11.192,13.156l9.855.795,14.426,1.164,1.164-14.426.774-9.6h0A12.211,12.211,0,0,0,14188.549,955.866Z" fill="#ff6a29"/>
      <path id="Path_4984" data-name="Path 4984" d="M14187.51,967.567l-12.176-.982a12.215,12.215,0,0,0-13.157,11.194h0a12.215,12.215,0,0,0,11.193,13.157l19.737-16.79-5.6-6.579" fill="#c4c4c4"/>
      <circle id="Ellipse_355" data-name="Ellipse 355" cx="2.115" cy="2.115" r="2.115" transform="translate(14174.616 972.273)" fill="#ff6a29"/>
      <rect id="Rectangle_512" data-name="Rectangle 512" width="3.795" height="5.869" transform="translate(14190.216 976.605) rotate(-40.388)" fill="#0d0d0b"/>
      <path id="Path_4985" data-name="Path 4985" d="M14189.347,969.727l-1.843-2.166-3.276-.265h0l.077.53a3.079,3.079,0,0,0,5.042,1.9Z" fill="#0d0d0b"/>
      <path id="Path_4986" data-name="Path 4986" d="M14187.019,968.979" fill="#9842ff"/>
      <path id="Path_4987" data-name="Path 4987" d="M14168.1,985.347l-2.39,2.034a5.27,5.27,0,0,0-7.421-.6l-3.313,2.818-2.032-2.39,3.313-2.818A8.411,8.411,0,0,1,14168.1,985.347Z" fill="#c4c4c4"/>
      <path id="Path_4988" data-name="Path 4988" d="M14173.382,990.926l-2.39,2.033a5.27,5.27,0,0,0-7.42-.6l-3.627,3.085-2.033-2.39,3.626-3.085A8.411,8.411,0,0,1,14173.382,990.926Z" fill="#c4c4c4"/>
    </g>
    <g id="Group_1630" data-name="Group 1630" transform="translate(-12720)">
      <path id="Path_4989" data-name="Path 4989" d="M14020.554,266.435" fill="none" stroke="#fff" stroke-miterlimit="10" stroke-width="40"/>
      <path id="Path_4990" data-name="Path 4990" d="M14036.827,251.144a5.958,5.958,0,0,0-11.852-1.165l-.533,6.071-6.19-.5a5.845,5.845,0,0,0-4.285,1.379h0a5.973,5.973,0,0,0,3.38,10.505l16.092,1.3,2.114-1.8Z" fill="none"/>
      <path id="Path_4991" data-name="Path 4991" d="M14043.065,251.6h0c0,.043,0,.087-.008.13l.033-.45-.025.319Z" fill="#c4c4c4"/>
      <path id="Path_4992" data-name="Path 4992" d="M14043.064,251.6h0Z" fill="#c4c4c4"/>
      <path id="Path_4993" data-name="Path 4993" d="M14031.864,238.6h0a12.215,12.215,0,0,0-13.109,10.719v0a12.167,12.167,0,0,0-13.1,11.2h0a12.215,12.215,0,0,0,11.192,13.157l9.855.794,14.427,1.164,1.163-14.426.775-9.6h0A12.214,12.214,0,0,0,14031.864,238.6Z" fill="#ff6a29"/>
      <path id="Path_4994" data-name="Path 4994" d="M14030.825,250.3l-12.175-.982a12.215,12.215,0,0,0-13.158,11.194h0a12.214,12.214,0,0,0,11.192,13.157l19.737-16.79-5.6-6.579" fill="#c4c4c4"/>
      <circle id="Ellipse_356" data-name="Ellipse 356" cx="2.115" cy="2.115" r="2.115" transform="translate(14017.931 255.005)" fill="#ff6a29"/>
      <rect id="Rectangle_513" data-name="Rectangle 513" width="3.795" height="5.869" transform="translate(14033.531 259.337) rotate(-40.388)" fill="#0d0d0b"/>
      <path id="Path_4995" data-name="Path 4995" d="M14032.663,252.459l-1.844-2.166-3.276-.265h0l.077.53a3.08,3.08,0,0,0,5.043,1.9Z" fill="#0d0d0b"/>
      <path id="Path_4996" data-name="Path 4996" d="M14030.335,251.711" fill="#9842ff"/>
      <path id="Path_4997" data-name="Path 4997" d="M14011.411,268.079l-2.39,2.034a5.272,5.272,0,0,0-7.422-.6l-3.312,2.818-2.034-2.39,3.313-2.818A8.412,8.412,0,0,1,14011.411,268.079Z" fill="#c4c4c4"/>
      <path id="Path_4998" data-name="Path 4998" d="M14016.7,273.658l-2.391,2.033a5.271,5.271,0,0,0-7.421-.6l-3.626,3.085-2.034-2.39,3.627-3.085A8.413,8.413,0,0,1,14016.7,273.658Z" fill="#c4c4c4"/>
    </g>
    <g id="Group_1631" data-name="Group 1631" transform="translate(-12720)">
      <path id="Path_4999" data-name="Path 4999" d="M14058.684,981.489" fill="none" stroke="#fff" stroke-miterlimit="10" stroke-width="40"/>
      <path id="Path_5000" data-name="Path 5000" d="M14079.512,973.439a5.958,5.958,0,0,0-10.543-5.536l-2.777,5.426-5.549-2.788a5.842,5.842,0,0,0-4.489-.334h0a5.974,5.974,0,0,0-.817,11.006l14.422,7.252,2.636-.872Z" fill="none"/>
      <path id="Path_5001" data-name="Path 5001" d="M14085.12,976.208h0c-.02.04-.036.079-.055.119l.2-.406-.144.287Z" fill="#c4c4c4"/>
      <path id="Path_5002" data-name="Path 5002" d="M14085.121,976.208h0Z" fill="#c4c4c4"/>
      <path id="Path_5003" data-name="Path 5003" d="M14079.631,959.948h0a12.214,12.214,0,0,0-16.177,5v0a12.089,12.089,0,0,0-9.264-.684,12.211,12.211,0,0,0-7.088,6.132h0a12.214,12.214,0,0,0,5.425,16.4l8.834,4.443,12.93,6.5,6.5-12.93,4.328-8.607h0A12.213,12.213,0,0,0,14079.631,959.948Z" fill="#ff6a29"/>
      <path id="Path_5004" data-name="Path 5004" d="M14074.268,970.4l-10.912-5.488a12.215,12.215,0,0,0-16.4,5.425h0a12.215,12.215,0,0,0,5.425,16.4l24.6-8.138-2.714-8.2" fill="#c4c4c4"/>
      <circle id="Ellipse_357" data-name="Ellipse 357" cx="2.115" cy="2.115" r="2.115" transform="translate(14059.601 970.552)" fill="#ff6a29"/>
      <rect id="Rectangle_514" data-name="Rectangle 514" width="3.795" height="5.869" transform="matrix(0.949, -0.314, 0.314, 0.949, 14073.378, 979.792)" fill="#0d0d0b"/>
      <path id="Path_5005" data-name="Path 5005" d="M14075.159,973.092l-.894-2.7-2.937-1.476h0l-.127.52a3.079,3.079,0,0,0,3.957,3.657Z" fill="#0d0d0b"/>
      <path id="Path_5006" data-name="Path 5006" d="M14073.283,971.523" fill="#9842ff"/>
      <path id="Path_5007" data-name="Path 5007" d="M14049.594,979.576l-2.979.985a5.269,5.269,0,0,0-6.651-3.344l-4.128,1.365-.986-2.979,4.129-1.366A8.412,8.412,0,0,1,14049.594,979.576Z" fill="#c4c4c4"/>
      <path id="Path_5008" data-name="Path 5008" d="M14052.395,986.732l-2.979.986a5.271,5.271,0,0,0-6.651-3.345l-4.52,1.5-.986-2.98,4.521-1.495A8.411,8.411,0,0,1,14052.395,986.732Z" fill="#c4c4c4"/>
    </g>
    <g id="Group_1632" data-name="Group 1632" transform="translate(-12720)">
      <path id="Path_5009" data-name="Path 5009" d="M13994.546,957.483" fill="none" stroke="#fff" stroke-miterlimit="10" stroke-width="40"/>
      <path id="Path_5010" data-name="Path 5010" d="M14006.042,976.626a5.958,5.958,0,0,0,3.65-11.335l-5.821-1.808,1.8-5.944a5.841,5.841,0,0,0-.44-4.48h0a5.972,5.972,0,0,0-10.981,1.078l-4.678,15.449,1.31,2.449Z" fill="none"/>
      <path id="Path_5011" data-name="Path 5011" d="M14004.273,982.625h0l-.127-.034.434.127-.307-.092Z" fill="#c4c4c4"/>
      <path id="Path_5012" data-name="Path 5012" d="M14004.273,982.626h0Z" fill="#c4c4c4"/>
      <path id="Path_5013" data-name="Path 5013" d="M14019.354,974.435h0a12.215,12.215,0,0,0-7.7-15.083h0a12.168,12.168,0,0,0-8.166-15.178h0a12.214,12.214,0,0,0-15.229,8.15l-2.865,9.463-4.194,13.852,13.853,4.2,9.221,2.791h0A12.212,12.212,0,0,0,14019.354,974.435Z" fill="#ff6a29"/>
      <path id="Path_5014" data-name="Path 5014" d="M14008.139,970.94l3.54-11.691a12.215,12.215,0,0,0-8.15-15.231h0a12.215,12.215,0,0,0-15.231,8.151l12.228,22.846,7.614-4.075" fill="#c4c4c4"/>
      <circle id="Ellipse_358" data-name="Ellipse 358" cx="2.115" cy="2.115" r="2.115" transform="translate(14001.642 956.845)" fill="#ff6a29"/>
      <rect id="Rectangle_515" data-name="Rectangle 515" width="3.795" height="5.869" transform="translate(13998.733 971.669) rotate(61.846)" fill="#0d0d0b"/>
      <path id="Path_5015" data-name="Path 5015" d="M14005.638,972.278l2.51-1.342.951-3.146h0l-.533-.037a3.08,3.08,0,0,0-2.928,4.525Z" fill="#0d0d0b"/>
      <path id="Path_5016" data-name="Path 5016" d="M14006.864,970.161" fill="#9842ff"/>
      <path id="Path_5017" data-name="Path 5017" d="M13994.877,948.2l-1.48-2.767a5.271,5.271,0,0,0,2.157-7.125l-2.052-3.835,2.766-1.48,2.053,3.834A8.412,8.412,0,0,1,13994.877,948.2Z" fill="#c4c4c4"/>
      <path id="Path_5018" data-name="Path 5018" d="M13988.3,952.183l-1.48-2.766a5.273,5.273,0,0,0,2.158-7.126l-2.247-4.2,2.767-1.481,2.246,4.2A8.41,8.41,0,0,1,13988.3,952.183Z" fill="#c4c4c4"/>
    </g>
    <g id="Group_1633" data-name="Group 1633" transform="translate(-12720)">
      <path id="Path_5019" data-name="Path 5019" d="M14083.737,936.537" fill="none" stroke="#fff" stroke-miterlimit="10" stroke-width="40"/>
      <path id="Path_5020" data-name="Path 5020" d="M14095.233,955.68a5.957,5.957,0,0,0,3.649-11.334l-5.821-1.809,1.8-5.944a5.842,5.842,0,0,0-.44-4.48h0a5.973,5.973,0,0,0-10.983,1.078l-4.678,15.45,1.312,2.448Z" fill="none"/>
      <path id="Path_5021" data-name="Path 5021" d="M14093.464,961.68h0l-.126-.035.435.128-.308-.093Z" fill="#c4c4c4"/>
      <path id="Path_5022" data-name="Path 5022" d="M14093.464,961.68h0Z" fill="#c4c4c4"/>
      <path id="Path_5023" data-name="Path 5023" d="M14108.545,953.489h0a12.212,12.212,0,0,0-7.7-15.082h0a12.082,12.082,0,0,0-.911-9.244,12.207,12.207,0,0,0-7.255-5.934h0a12.213,12.213,0,0,0-15.229,8.15l-2.865,9.464-4.2,13.852,13.853,4.194,9.22,2.792h0A12.212,12.212,0,0,0,14108.545,953.489Z" fill="#ff6a29"/>
      <path id="Path_5024" data-name="Path 5024" d="M14097.33,949.994l3.54-11.691a12.215,12.215,0,0,0-8.151-15.231h0a12.215,12.215,0,0,0-15.23,8.151l12.226,22.847,7.616-4.076" fill="#c4c4c4"/>
      <circle id="Ellipse_359" data-name="Ellipse 359" cx="2.115" cy="2.115" r="2.115" transform="translate(14090.833 935.899)" fill="#ff6a29"/>
      <rect id="Rectangle_516" data-name="Rectangle 516" width="3.795" height="5.869" transform="translate(14087.924 950.723) rotate(61.846)" fill="#0d0d0b"/>
      <path id="Path_5025" data-name="Path 5025" d="M14094.829,951.332l2.509-1.342.952-3.146h0l-.534-.037a3.079,3.079,0,0,0-2.927,4.525Z" fill="#0d0d0b"/>
      <path id="Path_5026" data-name="Path 5026" d="M14096.055,949.216" fill="#9842ff"/>
      <path id="Path_5027" data-name="Path 5027" d="M14084.068,927.253l-1.481-2.767a5.269,5.269,0,0,0,2.157-7.125l-2.052-3.834,2.767-1.481,2.052,3.834A8.411,8.411,0,0,1,14084.068,927.253Z" fill="#c4c4c4"/>
      <path id="Path_5028" data-name="Path 5028" d="M14077.5,931.238l-1.481-2.767a5.27,5.27,0,0,0,2.158-7.125l-2.247-4.2,2.768-1.481,2.246,4.2A8.412,8.412,0,0,1,14077.5,931.238Z" fill="#c4c4c4"/>
    </g>
    <g id="Group_1634" data-name="Group 1634" transform="translate(-12720)">
      <path id="Path_5029" data-name="Path 5029" d="M14169.366,757" fill="none" stroke="#fff" stroke-miterlimit="10" stroke-width="40"/>
      <path id="Path_5030" data-name="Path 5030" d="M14180.862,776.14a5.958,5.958,0,0,0,3.649-11.335l-5.82-1.808,1.8-5.944a5.844,5.844,0,0,0-.44-4.481h0a5.972,5.972,0,0,0-10.982,1.078l-4.679,15.45,1.312,2.448Z" fill="none"/>
      <path id="Path_5031" data-name="Path 5031" d="M14179.093,782.139h0l-.126-.034.435.127-.308-.093Z" fill="#c4c4c4"/>
      <path id="Path_5032" data-name="Path 5032" d="M14179.093,782.139h0Z" fill="#c4c4c4"/>
      <path id="Path_5033" data-name="Path 5033" d="M14194.174,773.948h0a12.214,12.214,0,0,0-7.7-15.082h0a12.091,12.091,0,0,0-.91-9.244,12.216,12.216,0,0,0-7.256-5.934h0a12.214,12.214,0,0,0-15.229,8.151l-2.865,9.463-4.2,13.852,13.853,4.194,9.22,2.792h0A12.211,12.211,0,0,0,14194.174,773.948Z" fill="#ff6a29"/>
      <path id="Path_5034" data-name="Path 5034" d="M14182.959,770.453l3.54-11.691a12.215,12.215,0,0,0-8.151-15.23h0a12.214,12.214,0,0,0-15.23,8.151l12.226,22.846,7.616-4.076" fill="#c4c4c4"/>
      <circle id="Ellipse_360" data-name="Ellipse 360" cx="2.115" cy="2.115" r="2.115" transform="translate(14176.462 756.359)" fill="#ff6a29"/>
      <rect id="Rectangle_517" data-name="Rectangle 517" width="3.795" height="5.869" transform="translate(14173.553 771.182) rotate(61.846)" fill="#0d0d0b"/>
      <path id="Path_5035" data-name="Path 5035" d="M14180.458,771.792l2.508-1.343.953-3.146h0l-.534-.036a3.079,3.079,0,0,0-2.927,4.525Z" fill="#0d0d0b"/>
      <path id="Path_5036" data-name="Path 5036" d="M14181.683,769.675" fill="#9842ff"/>
      <path id="Path_5037" data-name="Path 5037" d="M14169.7,747.712l-1.481-2.766a5.27,5.27,0,0,0,2.157-7.126l-2.052-3.834,2.767-1.481,2.052,3.835A8.411,8.411,0,0,1,14169.7,747.712Z" fill="#c4c4c4"/>
      <path id="Path_5038" data-name="Path 5038" d="M14163.125,751.7l-1.481-2.767a5.269,5.269,0,0,0,2.157-7.125l-2.246-4.2,2.768-1.481,2.246,4.2A8.412,8.412,0,0,1,14163.125,751.7Z" fill="#c4c4c4"/>
    </g>
    <g id="Group_1635" data-name="Group 1635" transform="translate(-12720)">
      <path id="Path_5039" data-name="Path 5039" d="M13927.22,909.421" fill="none" stroke="#fff" stroke-miterlimit="10" stroke-width="40"/>
      <path id="Path_5040" data-name="Path 5040" d="M13938.715,928.565a5.958,5.958,0,0,0,3.651-11.335l-5.821-1.808,1.8-5.944a5.844,5.844,0,0,0-.438-4.481h0a5.973,5.973,0,0,0-10.983,1.078l-4.678,15.45,1.31,2.448Z" fill="none"/>
      <path id="Path_5041" data-name="Path 5041" d="M13936.946,934.564h0l-.126-.034.433.127-.306-.093Z" fill="#c4c4c4"/>
      <path id="Path_5042" data-name="Path 5042" d="M13936.946,934.564h0Z" fill="#c4c4c4"/>
      <path id="Path_5043" data-name="Path 5043" d="M13952.028,926.373h0a12.214,12.214,0,0,0-7.7-15.082h0a12.168,12.168,0,0,0-8.166-15.178h0a12.215,12.215,0,0,0-15.229,8.151l-2.865,9.463-4.194,13.852,13.852,4.194,9.221,2.792h0A12.212,12.212,0,0,0,13952.028,926.373Z" fill="#ff6a29"/>
      <path id="Path_5044" data-name="Path 5044" d="M13940.813,922.878l3.538-11.691a12.213,12.213,0,0,0-8.149-15.23h0a12.215,12.215,0,0,0-15.23,8.151l12.227,22.846,7.616-4.076" fill="#c4c4c4"/>
      <circle id="Ellipse_361" data-name="Ellipse 361" cx="2.115" cy="2.115" r="2.115" transform="translate(13934.315 908.784)" fill="#ff6a29"/>
      <rect id="Rectangle_518" data-name="Rectangle 518" width="3.795" height="5.869" transform="translate(13931.406 923.608) rotate(61.846)" fill="#0d0d0b"/>
      <path id="Path_5045" data-name="Path 5045" d="M13938.312,924.217l2.509-1.343.953-3.146h0l-.534-.036a3.08,3.08,0,0,0-2.928,4.525Z" fill="#0d0d0b"/>
      <path id="Path_5046" data-name="Path 5046" d="M13939.537,922.1" fill="#9842ff"/>
      <path id="Path_5047" data-name="Path 5047" d="M13927.55,900.137l-1.479-2.766a5.271,5.271,0,0,0,2.156-7.126l-2.052-3.834,2.768-1.481,2.052,3.835A8.412,8.412,0,0,1,13927.55,900.137Z" fill="#c4c4c4"/>
      <path id="Path_5048" data-name="Path 5048" d="M13920.979,904.122l-1.48-2.767a5.27,5.27,0,0,0,2.157-7.125l-2.246-4.2,2.767-1.481,2.246,4.2A8.412,8.412,0,0,1,13920.979,904.122Z" fill="#c4c4c4"/>
    </g>
    <g id="Group_1636" data-name="Group 1636" transform="translate(-12720)">
      <path id="Path_5049" data-name="Path 5049" d="M14259.16,942.817" fill="none" stroke="#fff" stroke-miterlimit="10" stroke-width="40"/>
      <path id="Path_5050" data-name="Path 5050" d="M14270.655,961.961a5.958,5.958,0,0,0,3.65-11.335l-5.82-1.808,1.8-5.944a5.841,5.841,0,0,0-.439-4.48h0a5.972,5.972,0,0,0-10.982,1.078l-4.679,15.45,1.311,2.448Z" fill="none"/>
      <path id="Path_5051" data-name="Path 5051" d="M14268.886,967.96h0l-.126-.034.434.127-.307-.093Z" fill="#c4c4c4"/>
      <path id="Path_5052" data-name="Path 5052" d="M14268.887,967.96h0Z" fill="#c4c4c4"/>
      <path id="Path_5053" data-name="Path 5053" d="M14283.968,959.769h0a12.214,12.214,0,0,0-7.7-15.082h0a12.091,12.091,0,0,0-.91-9.244,12.214,12.214,0,0,0-7.256-5.933h0a12.213,12.213,0,0,0-15.229,8.15l-2.866,9.463-4.193,13.852,13.852,4.194,9.22,2.792h0A12.212,12.212,0,0,0,14283.968,959.769Z" fill="#ff6a29"/>
      <path id="Path_5054" data-name="Path 5054" d="M14272.752,956.275l3.54-11.691a12.215,12.215,0,0,0-8.151-15.231h0a12.214,12.214,0,0,0-15.229,8.151l12.226,22.846,7.615-4.075" fill="#c4c4c4"/>
      <circle id="Ellipse_362" data-name="Ellipse 362" cx="2.115" cy="2.115" r="2.115" transform="translate(14266.255 942.18)" fill="#ff6a29"/>
      <rect id="Rectangle_519" data-name="Rectangle 519" width="3.795" height="5.869" transform="translate(14263.347 957.004) rotate(61.846)" fill="#0d0d0b"/>
      <path id="Path_5055" data-name="Path 5055" d="M14270.252,957.613l2.508-1.343.953-3.145h0l-.534-.037a3.079,3.079,0,0,0-2.927,4.525Z" fill="#0d0d0b"/>
      <path id="Path_5056" data-name="Path 5056" d="M14271.477,955.5" fill="#9842ff"/>
      <path id="Path_5057" data-name="Path 5057" d="M14259.49,933.534l-1.48-2.767a5.269,5.269,0,0,0,2.157-7.125l-2.052-3.835,2.767-1.48,2.052,3.834A8.412,8.412,0,0,1,14259.49,933.534Z" fill="#c4c4c4"/>
      <path id="Path_5058" data-name="Path 5058" d="M14252.918,937.518l-1.479-2.767a5.269,5.269,0,0,0,2.156-7.125l-2.246-4.2,2.767-1.48,2.247,4.2A8.413,8.413,0,0,1,14252.918,937.518Z" fill="#c4c4c4"/>
    </g>
    <g id="Group_1637" data-name="Group 1637" transform="translate(-12720)">
      <path id="Path_5059" data-name="Path 5059" d="M14301.353,668.738" fill="none" stroke="#fff" stroke-miterlimit="10" stroke-width="40"/>
      <path id="Path_5060" data-name="Path 5060" d="M14311.422,648.808a5.958,5.958,0,0,0-11.536,2.954l1.573,5.888-5.987,1.648a5.846,5.846,0,0,0-3.556,2.76h0a5.973,5.973,0,0,0,6.766,8.718l15.566-4.278,1.373-2.414Z" fill="none"/>
      <path id="Path_5061" data-name="Path 5061" d="M14317.441,647.106h0c.012.042.025.084.037.126l-.122-.435.085.309Z" fill="#c4c4c4"/>
      <path id="Path_5062" data-name="Path 5062" d="M14317.441,647.106h0Z" fill="#c4c4c4"/>
      <path id="Path_5063" data-name="Path 5063" d="M14302.472,638.713h0a12.212,12.212,0,0,0-8.657,14.552v0a12.167,12.167,0,0,0-8.488,15h0a12.214,12.214,0,0,0,15.014,8.54l9.534-2.621,13.956-3.835-3.836-13.956-2.553-9.289h0A12.213,12.213,0,0,0,14302.472,638.713Z" fill="#ff6a29"/>
      <path id="Path_5064" data-name="Path 5064" d="M14305.493,650.064l-11.778,3.238a12.214,12.214,0,0,0-8.541,15.015h0a12.215,12.215,0,0,0,15.016,8.541L14313,654.335l-7.508-4.271" fill="#c4c4c4"/>
      <circle id="Ellipse_363" data-name="Ellipse 363" cx="2.115" cy="2.115" r="2.115" transform="translate(14295.579 658.043)" fill="#ff6a29"/>
      <rect id="Rectangle_520" data-name="Rectangle 520" width="3.795" height="5.869" transform="translate(14311.125 657.634) rotate(-60.368)" fill="#0d0d0b"/>
      <path id="Path_5065" data-name="Path 5065" d="M14307.958,651.467l-2.472-1.407-3.17.871h0l.254.472a3.079,3.079,0,0,0,5.388.064Z" fill="#0d0d0b"/>
      <path id="Path_5066" data-name="Path 5066" d="M14305.515,651.558" fill="#9842ff"/>
      <path id="Path_5067" data-name="Path 5067" d="M14293.323,673.408l-1.552,2.728a5.269,5.269,0,0,0-7.179,1.973l-2.15,3.78-2.728-1.552,2.15-3.78A8.412,8.412,0,0,1,14293.323,673.408Z" fill="#c4c4c4"/>
      <path id="Path_5068" data-name="Path 5068" d="M14300.2,676.844l-1.551,2.728a5.271,5.271,0,0,0-7.18,1.973l-2.354,4.138-2.729-1.551,2.354-4.139A8.412,8.412,0,0,1,14300.2,676.844Z" fill="#c4c4c4"/>
    </g>
    <g id="Group_1638" data-name="Group 1638" transform="translate(-12720)">
      <path id="Path_5069" data-name="Path 5069" d="M14104.469,557.1" fill="none" stroke="#fff" stroke-miterlimit="10" stroke-width="40"/>
      <path id="Path_5070" data-name="Path 5070" d="M14122.575,544.029a5.958,5.958,0,0,0-11.6-2.682l-1.311,5.953-6.074-1.29a5.838,5.838,0,0,0-4.427.816h0a5.972,5.972,0,0,0,2,10.852l15.789,3.359,2.329-1.512Z" fill="none"/>
      <path id="Path_5071" data-name="Path 5071" d="M14128.7,545.286h0c-.009.043-.017.086-.024.129l.09-.443-.065.314Z" fill="#c4c4c4"/>
      <path id="Path_5072" data-name="Path 5072" d="M14128.7,545.286h0Z" fill="#c4c4c4"/>
      <path id="Path_5073" data-name="Path 5073" d="M14119.27,530.949h0a12.214,12.214,0,0,0-14.379,8.941v0a12.088,12.088,0,0,0-9.134,1.687,12.212,12.212,0,0,0-5.3,7.729h0a12.213,12.213,0,0,0,9.405,14.488l9.671,2.058,14.156,3.011,3.012-14.156,2-9.423h0A12.212,12.212,0,0,0,14119.27,530.949Z" fill="#ff6a29"/>
      <path id="Path_5074" data-name="Path 5074" d="M14116.733,542.419l-11.948-2.542a12.216,12.216,0,0,0-14.49,9.406h0a12.216,12.216,0,0,0,9.407,14.49l21.733-14.11-4.7-7.244" fill="#c4c4c4"/>
      <circle id="Ellipse_364" data-name="Ellipse 364" cx="2.115" cy="2.115" r="2.115" transform="translate(14103.05 545.68)" fill="#ff6a29"/>
      <rect id="Rectangle_521" data-name="Rectangle 521" width="3.795" height="5.869" transform="matrix(0.839, -0.545, 0.545, 0.839, 14118.252, 551.73)" fill="#0d0d0b"/>
      <path id="Path_5075" data-name="Path 5075" d="M14118.277,544.8l-1.55-2.387-3.215-.683h0l.009.535a3.08,3.08,0,0,0,4.756,2.535Z" fill="#0d0d0b"/>
      <path id="Path_5076" data-name="Path 5076" d="M14116.065,543.755" fill="#9842ff"/>
      <path id="Path_5077" data-name="Path 5077" d="M14095.191,557.551l-2.633,1.709a5.269,5.269,0,0,0-7.281-1.549l-3.648,2.368-1.708-2.632,3.647-2.368A8.412,8.412,0,0,1,14095.191,557.551Z" fill="#c4c4c4"/>
      <path id="Path_5078" data-name="Path 5078" d="M14099.715,563.764l-2.632,1.708a5.272,5.272,0,0,0-7.282-1.549l-3.993,2.593-1.709-2.632,3.994-2.593A8.411,8.411,0,0,1,14099.715,563.764Z" fill="#c4c4c4"/>
    </g>
    <g id="Group_1639" data-name="Group 1639" transform="translate(-12720)">
      <path id="Path_5079" data-name="Path 5079" d="M14150.485,537.806" fill="none" stroke="#fff" stroke-miterlimit="10" stroke-width="40"/>
      <path id="Path_5080" data-name="Path 5080" d="M14148.324,560.031A5.958,5.958,0,0,0,14158,553.1l-3.6-4.918,4.982-3.706a5.846,5.846,0,0,0,2.314-3.862h0a5.973,5.973,0,0,0-9.466-5.672l-12.957,9.629-.405,2.747Z" fill="none"/>
      <path id="Path_5081" data-name="Path 5081" d="M14143.331,563.8h0c-.027-.035-.055-.068-.081-.1l.272.361-.191-.257Z" fill="#c4c4c4"/>
      <path id="Path_5082" data-name="Path 5082" d="M14143.331,563.8h0Z" fill="#c4c4c4"/>
      <path id="Path_5083" data-name="Path 5083" d="M14160.325,566.2h0a12.215,12.215,0,0,0,2.795-16.7v0a12.167,12.167,0,0,0,2.474-17.056h0a12.213,12.213,0,0,0-17.088-2.518l-7.936,5.9-11.617,8.633,8.633,11.617,5.746,7.732h0A12.214,12.214,0,0,0,14160.325,566.2Z" fill="#ff6a29"/>
      <path id="Path_5084" data-name="Path 5084" d="M14153.394,556.711l9.806-7.286a12.215,12.215,0,0,0,2.518-17.09h0a12.214,12.214,0,0,0-17.09-2.519l-3.778,25.636,8.545,1.259" fill="#c4c4c4"/>
      <circle id="Ellipse_365" data-name="Ellipse 365" cx="2.115" cy="2.115" r="2.115" transform="translate(14154.891 542.362)" fill="#ff6a29"/>
      <rect id="Rectangle_522" data-name="Rectangle 522" width="3.795" height="5.869" transform="matrix(-0.146, 0.989, -0.989, -0.146, 14145.402, 551.697)" fill="#0d0d0b"/>
      <path id="Path_5085" data-name="Path 5085" d="M14150.589,556.3l2.814.415,2.638-1.961h0l-.407-.347a3.079,3.079,0,0,0-5.045,1.893Z" fill="#0d0d0b"/>
      <path id="Path_5086" data-name="Path 5086" d="M14152.833,555.326" fill="#9842ff"/>
      <path id="Path_5087" data-name="Path 5087" d="M14156.277,530.543l.458-3.1a5.27,5.27,0,0,0,5.975-4.441l.634-4.3,3.105.457-.634,4.3A8.412,8.412,0,0,1,14156.277,530.543Z" fill="#c4c4c4"/>
      <path id="Path_5088" data-name="Path 5088" d="M14148.625,529.832l.457-3.1a5.271,5.271,0,0,0,5.976-4.441l.694-4.71,3.1.458-.694,4.71A8.411,8.411,0,0,1,14148.625,529.832Z" fill="#c4c4c4"/>
    </g>
    <g id="Group_1640" data-name="Group 1640" transform="translate(-12720)">
      <path id="Path_5089" data-name="Path 5089" d="M14153.967,384.6" fill="none" stroke="#fff" stroke-miterlimit="10" stroke-width="40"/>
      <path id="Path_5090" data-name="Path 5090" d="M14151.806,406.828a5.958,5.958,0,0,0,9.682-6.934l-3.6-4.918,4.983-3.706a5.845,5.845,0,0,0,2.313-3.861h0a5.973,5.973,0,0,0-9.466-5.673l-12.957,9.629-.4,2.747Z" fill="none"/>
      <path id="Path_5091" data-name="Path 5091" d="M14146.813,410.6h0c-.027-.035-.056-.068-.081-.1l.271.361-.19-.257Z" fill="#c4c4c4"/>
      <path id="Path_5092" data-name="Path 5092" d="M14146.813,410.6h0Z" fill="#c4c4c4"/>
      <path id="Path_5093" data-name="Path 5093" d="M14163.807,412.993h0a12.213,12.213,0,0,0,2.795-16.7l0,0a12.087,12.087,0,0,0,4.772-7.969,12.211,12.211,0,0,0-2.3-9.087h0a12.213,12.213,0,0,0-17.088-2.518l-7.937,5.9-11.617,8.632,8.634,11.617,5.746,7.732h0A12.212,12.212,0,0,0,14163.807,412.993Z" fill="#ff6a29"/>
      <path id="Path_5094" data-name="Path 5094" d="M14156.876,403.508l9.8-7.286a12.216,12.216,0,0,0,2.519-17.09h0a12.215,12.215,0,0,0-17.09-2.519l-3.778,25.636,8.545,1.259" fill="#c4c4c4"/>
      <circle id="Ellipse_366" data-name="Ellipse 366" cx="2.115" cy="2.115" r="2.115" transform="translate(14158.372 389.159)" fill="#ff6a29"/>
      <rect id="Rectangle_523" data-name="Rectangle 523" width="3.795" height="5.869" transform="matrix(-0.146, 0.989, -0.989, -0.146, 14148.885, 398.495)" fill="#0d0d0b"/>
      <path id="Path_5095" data-name="Path 5095" d="M14154.071,403.094l2.813.415,2.639-1.96h0l-.407-.348a3.079,3.079,0,0,0-5.045,1.893Z" fill="#0d0d0b"/>
      <path id="Path_5096" data-name="Path 5096" d="M14156.315,402.123" fill="#9842ff"/>
      <path id="Path_5097" data-name="Path 5097" d="M14159.759,377.341l.458-3.105a5.271,5.271,0,0,0,5.976-4.441l.634-4.3,3.1.458-.634,4.3A8.413,8.413,0,0,1,14159.759,377.341Z" fill="#c4c4c4"/>
      <path id="Path_5098" data-name="Path 5098" d="M14152.107,376.63l.457-3.105a5.27,5.27,0,0,0,5.975-4.44l.7-4.711,3.1.458-.694,4.71A8.411,8.411,0,0,1,14152.107,376.63Z" fill="#c4c4c4"/>
    </g>
    <rect id="Rectangle_524" data-name="Rectangle 524" width="1971" height="1138" transform="translate(-25.5 -29)" fill="none"/>
    <rect id="Rectangle_525" data-name="Rectangle 525" width="1920" height="1080" fill="none"/>
  </g>
</svg>
