<svg xmlns="http://www.w3.org/2000/svg" xmlns:xlink="http://www.w3.org/1999/xlink" width="2067.512" height="1260.052" viewBox="0 0 2067.512 1260.052">
  <defs>
    <clipPath id="clip-path">
      <circle id="Ellipse_284" data-name="Ellipse 284" cx="320.026" cy="320.026" r="320.026" transform="translate(11696.56 1529.81)" fill="none"/>
    </clipPath>
    <clipPath id="clip-path-2">
      <path id="Path_4005" data-name="Path 4005" d="M11897.061,1598.993c6.79-9.275,16.873-24.482,32.018-29.933,23.378-8.414,49.892-10.7,72.8-1.09,9.8,4.112,19.57,10.443,30.1,9.028,6.071-.815,11.509-4.178,16.3-8,29.7-23.7,42.189-71.776,76.891-87.218,44.491-19.8,69.466-4.35,82.793.082,5.759,1.916,11.262,4.6,17.115,6.2a49,49,0,0,0,19.915,1.236c5.056-.731,3.346-44.917,5.186-49.693,35.839-93.063,82.63-84.542,136.361-90.249,8.636-.916,20.552,15.912,27.918,20.517,9.276,5.8,9.36,27.926,12.429,38.439,15.538,53.216,31.232,108.59,22.5,163.346-3.538,22.2-11.014,43.549-18.451,64.757q-5.714,16.295-11.43,32.587c-2.458,7.007-6.953,15.423-14.336,14.767-4.358-.387-7.625-3.967-10.788-7-24.861-23.79-63.618-22.8-97.912-20.305-6.239.453-12.729.982-18.129,4.155-10.012,5.882-13.111,18.6-18.98,28.635-10.043,17.17-29.567,27.216-49.26,29.8s-39.667-1.411-58.753-6.92c-5.337-1.542-10.819-3.221-16.341-2.62-8.683.943-15.683,7.236-23.443,11.251-20.191,10.447-44.561,5.144-66.6-.389-14.6-3.664-22-8.694-29.183-13.637-12.1-8.323-23.622-16.405-67.964-17.337-53.493-1.124-70.984-62.786-50.76-90.409" fill="none"/>
    </clipPath>
    <clipPath id="clip-path-3">
      <path id="Path_4019" data-name="Path 4019" d="M12093.847,1898.578c14.638,1.579,37.963,3,53.718,16.3,24.32,20.522,43.861,48.447,47.9,80.009,1.728,13.5.976,28.392,9.3,39.158,4.8,6.208,12.012,10.079,19.327,12.939,45.32,17.724,106.627.741,146,29.3,50.483,36.627,49.374,74.22,53.008,91.839,1.571,7.613,2.129,15.43,4.1,22.95a62.781,62.781,0,0,0,11.4,22.868c4.054,5.137,51.942-25.1,58.415-26.122,126.157-19.952,146.72,37.385,187.5,93.292,6.554,8.984-4.461,32.987-4.839,44.1-.479,14-24.957,28.288-34.643,38.434-49.03,51.353-100.354,104.266-166.652,129.708-26.879,10.314-55.341,15.719-83.622,21.076q-21.728,4.113-43.455,8.229c-9.346,1.77-21.559,2.183-25.566-6.424-2.365-5.081-.491-11,.837-16.446,10.428-42.821-15.523-85.15-40.284-121.567-4.5-6.627-9.254-13.483-16.233-17.434-12.942-7.327-29.032-2.6-43.919-2.676-25.475-.123-49.133-15.323-64.625-35.5s-23.877-44.879-30.009-69.57c-1.714-6.905-3.369-14.06-7.576-19.8-6.614-9.021-18.078-12.745-27.508-18.774-24.532-15.683-34.281-46.1-42.283-74.082-5.332-18.649-4.456-30.1-3.581-41.3,1.461-18.68,2.923-36.685-24.384-86.26-33.061-60.021,24.078-118.958,67.672-114.254" fill="none"/>
    </clipPath>
    <linearGradient id="linear-gradient" y1="0.5" x2="1" y2="0.5" gradientUnits="objectBoundingBox">
      <stop offset="0" stop-color="#7c3300"/>
      <stop offset="0.37" stop-color="#fc0"/>
      <stop offset="0.673" stop-color="#f70"/>
      <stop offset="0.818" stop-color="#e27c02"/>
      <stop offset="1" stop-color="#402000"/>
    </linearGradient>
  </defs>
  <g id="Group_1723" data-name="Group 1723" transform="translate(25.5 120.509)">
    <g id="Group_1441" data-name="Group 1441" transform="translate(-10600 -1280)">
      <g id="Group_1430" data-name="Group 1430">
        <g id="Group_1429" data-name="Group 1429" clip-path="url(#clip-path)">
          <rect id="Rectangle_417" data-name="Rectangle 417" width="942.225" height="714.171" transform="translate(11518.381 1472.295)" fill="#23af5b"/>
          <g id="Group_1425" data-name="Group 1425">
            <g id="Group_1424" data-name="Group 1424" clip-path="url(#clip-path-2)">
              <path id="Path_3981" data-name="Path 3981" d="M11882.812,1668.4c4.243-23.729-3.306-50.054,8.346-71.148,7.792-14.107,22.776-22.738,37.921-28.189,23.377-8.413,49.891-10.7,72.8-1.088,9.8,4.111,19.57,10.442,30.1,9.027,6.072-.815,11.509-4.178,16.3-8,29.7-23.7,41.492-70.795,75.476-87.761,44.2-22.068,70.882-3.807,84.209.626,5.76,1.916,11.261,4.6,17.115,6.2,6.46,1.771,20.173,4.921,33.813-4.639,21.074-14.771,36.5-114.845,123.428-109.091,28.511,1.887,41.5,23.466,44.567,33.979,15.537,53.216,31.232,108.591,22.5,163.347-3.539,22.2-11.014,43.547-18.451,64.757l-11.43,32.586c-2.458,7.007-6.954,15.424-14.337,14.767-4.358-.388-7.625-3.968-10.788-6.995-24.862-23.792-63.618-22.8-97.912-20.307-6.239.454-12.73.983-18.128,4.155-10.013,5.883-13.111,18.6-18.98,28.636-10.044,17.17-29.567,27.215-49.261,29.8s-39.669-1.41-58.753-6.92c-5.337-1.54-10.818-3.219-16.341-2.619-8.684.943-15.683,7.235-23.443,11.251-20.191,10.446-44.561,5.144-66.6-.389l-117.534-29.5C11910.717,1686.676,11890.7,1683.744,11882.812,1668.4Z" fill="#fcd42d"/>
              <path id="Path_3982" data-name="Path 3982" d="M12181.295,1524.933c-.562-5.157,1.165-10.353,3.841-14.794s6.266-8.246,9.795-12.041a6.445,6.445,0,0,0,1.234-1.648c1.053-2.3-.677-6.777-3.118-6.122-35.886,9.63-28.733,50.083-10.139,56.383,3.7,1.254,7.861,2.049,11.54.575,3.345-1.341,6.539-4.534,2.11-6.45C12189.123,1537.618,12182.292,1534.063,12181.295,1524.933Z" fill="#c4c4c4"/>
              <path id="Path_3983" data-name="Path 3983" d="M12121.528,1661.972a15.559,15.559,0,0,0,11.85-5.316,24.91,24.91,0,0,0,4.282-8.032,22.548,22.548,0,0,0,1.66-9.01c-.135-1.959-.687-3.967-.117-5.846a5.234,5.234,0,0,1,5.361-3.58,6.573,6.573,0,0,1,4.755,3.325,14.445,14.445,0,0,1,1.686,5.737,34.032,34.032,0,0,1-5.86,23.718,29.225,29.225,0,0,1-20.949,12.109,17.545,17.545,0,0,1-8.58-1.223c-4.817-2.165-8.267-7.816-7.568-13.147.532-4.053,2.387-3.129,5.007-1.477A16.264,16.264,0,0,0,12121.528,1661.972Z" fill="#c4c4c4"/>
              <path id="Path_3984" data-name="Path 3984" d="M12054.017,1671.389a15.561,15.561,0,0,0,11.853-5.317,24.909,24.909,0,0,0,4.281-8.03,22.553,22.553,0,0,0,1.658-9.011c-.133-1.959-.685-3.967-.115-5.846a5.234,5.234,0,0,1,5.361-3.579,6.566,6.566,0,0,1,4.754,3.324,14.429,14.429,0,0,1,1.687,5.737,34.032,34.032,0,0,1-5.86,23.718,29.232,29.232,0,0,1-20.95,12.109,17.53,17.53,0,0,1-8.579-1.223c-4.817-2.164-8.267-7.816-7.568-13.147.532-4.053,2.387-3.128,5.007-1.477A16.245,16.245,0,0,0,12054.017,1671.389Z" fill="#c4c4c4"/>
              <path id="Path_3985" data-name="Path 3985" d="M12185.475,1630.386c-7.371-1.74-11.789-9.328-13.969-16.595-1.3-4.336-2.124-8.936-1.311-13.39a22.327,22.327,0,0,1,8.206-13.111,34.483,34.483,0,0,1,14.262-6.438c3.122-.684,6.492-1.029,9.424.243s5.163,4.632,4.2,7.684a7.426,7.426,0,0,1-4.312,4.23c-1.9.833-3.966,1.2-5.939,1.843a17.829,17.829,0,0,0-8.9,6.126,12.647,12.647,0,0,0-2.285,10.393c1.247,4.946,5.719,8.342,8.187,12.805a6.743,6.743,0,0,1,.975,2.968c.1,2.9-3,5.136-5.9,5.031s-5.455-1.908-7.526-3.937" fill="#c4c4c4"/>
              <path id="Path_3986" data-name="Path 3986" d="M11925.1,1676.342c-5.746,4.943-14.47,4.05-21.614,1.535-4.265-1.5-8.459-3.543-11.572-6.825a22.337,22.337,0,0,1-5.738-14.366,34.652,34.652,0,0,1,3.211-15.338c1.288-2.93,3-5.862,5.75-7.486s6.777-1.452,8.67,1.127a7.435,7.435,0,0,1,.871,5.981c-.446,2.03-1.366,3.92-2.013,5.9a17.889,17.889,0,0,0-.306,10.816,12.613,12.613,0,0,0,7.035,7.971c4.725,1.9,10.1.284,15.15.915a6.69,6.69,0,0,1,2.968.959c2.4,1.628,2.374,5.454.583,7.736s-4.753,3.292-7.609,3.775" fill="#c4c4c4"/>
              <path id="Path_3987" data-name="Path 3987" d="M12139.8,1590.893a26.52,26.52,0,0,1-18.548,7.04c-2.64-.1-5.847-.382-7.34,1.8a4.387,4.387,0,0,0,0,4.487,9.038,9.038,0,0,0,3.391,3.2c7.56,4.56,17.671,3.513,25.087-1.278s12.337-12.794,14.94-21.242a16.168,16.168,0,0,0,.892-7.44c-.876-5.068-7.3-8.419-9.341-2.489C12146.784,1581.086,12144.74,1586.386,12139.8,1590.893Z" fill="#c4c4c4"/>
              <path id="Path_3988" data-name="Path 3988" d="M12119.682,1574.058a26.514,26.514,0,0,1-18.548,7.039c-2.64-.1-5.848-.381-7.34,1.8a4.384,4.384,0,0,0,0,4.487,9.027,9.027,0,0,0,3.391,3.2c7.559,4.559,17.671,3.512,25.087-1.279s12.337-12.794,14.94-21.241a16.181,16.181,0,0,0,.891-7.44c-.875-5.068-7.3-8.419-9.34-2.49C12126.668,1564.251,12124.624,1569.551,12119.682,1574.058Z" fill="#c4c4c4"/>
              <path id="Path_3989" data-name="Path 3989" d="M12124.286,1713.177a26.614,26.614,0,0,1-9.976,17.176c-2.11,1.591-4.78,3.4-4.565,6.034a4.371,4.371,0,0,0,2.825,3.48,9.009,9.009,0,0,0,4.646.346c8.738-1.233,15.932-8.431,18.677-16.834s1.532-17.721-1.76-25.923a16.155,16.155,0,0,0-3.987-6.338c-3.868-3.382-10.968-1.924-8.819,3.965C12123.542,1701.152,12125.288,1706.557,12124.286,1713.177Z" fill="#c4c4c4"/>
              <path id="Path_3990" data-name="Path 3990" d="M12164.64,1682.91a26.63,26.63,0,0,1-5.876,18.98c-1.7,2.025-3.9,4.384-3.1,6.906a4.368,4.368,0,0,0,3.533,2.757,9.016,9.016,0,0,0,4.605-.708c8.24-3.165,13.639-11.8,14.434-20.6s-2.476-17.613-7.52-24.866a16.134,16.134,0,0,0-5.306-5.28c-4.526-2.427-11.119.59-7.707,5.845C12161.223,1671.36,12164.135,1676.235,12164.64,1682.91Z" fill="#c4c4c4"/>
              <path id="Path_3991" data-name="Path 3991" d="M12218.976,1512.5a31.151,31.151,0,0,1,20.3,44.358c-2.435,4.794-6.994,9.305-12.338,8.805a5.3,5.3,0,0,1-3.062-1.186c-1.721-1.534-1.684-4.32-.732-6.422s2.613-3.788,3.889-5.711a17.582,17.582,0,0,0-9.191-26.435c-3.047-.991-6.434-1.178-9.09-2.972-2.615-1.766-5.642-7.408-2.812-9.983C12208.635,1510.5,12215.887,1511.739,12218.976,1512.5Z" fill="#c4c4c4"/>
              <path id="Path_3992" data-name="Path 3992" d="M11946.214,1664.112a31.147,31.147,0,0,1,20.3,44.357c-2.434,4.8-6.994,9.306-12.338,8.806a5.3,5.3,0,0,1-3.062-1.186c-1.721-1.535-1.685-4.32-.732-6.422s2.614-3.788,3.888-5.711a17.583,17.583,0,0,0-9.19-26.435c-3.047-.991-6.434-1.177-9.09-2.972-2.615-1.766-5.643-7.408-2.812-9.983C11935.873,1662.113,11943.124,1663.354,11946.214,1664.112Z" fill="#c4c4c4"/>
              <path id="Path_3993" data-name="Path 3993" d="M12132.385,1491.224a31.149,31.149,0,0,1,20.3,44.358c-2.434,4.794-6.992,9.3-12.338,8.8a5.3,5.3,0,0,1-3.061-1.185c-1.721-1.535-1.685-4.321-.732-6.423s2.613-3.788,3.889-5.711a17.584,17.584,0,0,0-9.191-26.435c-3.048-.991-6.434-1.177-9.091-2.972-2.615-1.766-5.642-7.409-2.812-9.983C12122.044,1489.225,12129.295,1490.466,12132.385,1491.224Z" fill="#c4c4c4"/>
              <path id="Path_3994" data-name="Path 3994" d="M12148.256,1447.625a31.147,31.147,0,0,1,20.3,44.357c-2.433,4.794-6.993,9.3-12.338,8.8a5.3,5.3,0,0,1-3.061-1.186c-1.722-1.534-1.685-4.32-.732-6.422s2.613-3.788,3.888-5.711a17.583,17.583,0,0,0-9.19-26.435c-3.047-.991-6.435-1.177-9.09-2.972-2.615-1.766-5.643-7.408-2.812-9.983C12137.916,1445.625,12145.167,1446.866,12148.256,1447.625Z" fill="#c4c4c4"/>
              <path id="Path_3995" data-name="Path 3995" d="M11990.74,1581.323a31.053,31.053,0,0,1-46.008-16.013c-1.77-5.078-1.863-11.5,2.2-15.016a5.312,5.312,0,0,1,2.974-1.393c2.3-.183,4.277,1.771,5.134,3.915s.92,4.51,1.423,6.763a17.53,17.53,0,0,0,25.407,11.645c2.823-1.518,5.3-3.838,8.433-4.518,3.083-.669,9.243,1.047,9.14,4.875C11999.339,1575.228,11993.425,1579.614,11990.74,1581.323Z" fill="#c4c4c4"/>
              <path id="Path_3996" data-name="Path 3996" d="M11924.493,1610.923a31.073,31.073,0,0,1-41.879-24.913c-.721-5.33.47-11.638,5.149-14.272a5.307,5.307,0,0,1,3.192-.77c2.287.282,3.837,2.594,4.248,4.866s0,4.6.043,6.912a17.542,17.542,0,0,0,22.568,16.5c3.068-.921,5.96-2.7,9.163-2.736,3.154-.038,8.848,2.879,7.981,6.608C11934.134,1606.674,11927.465,1609.786,11924.493,1610.923Z" fill="#c4c4c4"/>
              <path id="Path_3997" data-name="Path 3997" d="M12110.935,1541.871a31.108,31.108,0,0,1-36.461,32.364c-5.285-.939-10.919-4-11.993-9.266a5.329,5.329,0,0,1,.241-3.28c.967-2.1,3.638-2.871,5.921-2.57s4.377,1.4,6.584,2.066a17.547,17.547,0,0,0,22.573-16.5c.062-3.21-.744-6.511.2-9.579.927-3.021,5.436-7.564,8.717-5.6C12109.84,1531.376,12110.762,1538.689,12110.935,1541.871Z" fill="#c4c4c4"/>
              <path id="Path_3998" data-name="Path 3998" d="M12107.883,1633.108A31.073,31.073,0,0,1,12066,1608.2c-.719-5.33.471-11.638,5.151-14.272a5.3,5.3,0,0,1,3.19-.77c2.287.281,3.838,2.594,4.248,4.865s0,4.6.044,6.912a17.542,17.542,0,0,0,22.567,16.5c3.07-.922,5.961-2.7,9.165-2.736,3.154-.038,8.847,2.878,7.979,6.608C12117.525,1628.86,12110.855,1631.972,12107.883,1633.108Z" fill="#c4c4c4"/>
              <path id="Path_3999" data-name="Path 3999" d="M12002.266,1602.692a31.1,31.1,0,0,1-38.271,30.192c-5.223-1.243-10.67-4.624-11.438-9.947a5.329,5.329,0,0,1,.433-3.26c1.085-2.036,3.8-2.655,6.059-2.222s4.288,1.655,6.453,2.445a17.542,17.542,0,0,0,23.49-15.163c.247-3.2-.367-6.542.751-9.551,1.1-2.962,5.864-7.235,9.025-5.084C12001.779,1592.152,12002.277,1599.505,12002.266,1602.692Z" fill="#c4c4c4"/>
              <path id="Path_4000" data-name="Path 4000" d="M11964.957,1654.156a31.05,31.05,0,0,1-46.873-13.259c-2.067-4.963-2.539-11.365,1.306-15.119a5.31,5.31,0,0,1,2.887-1.567c2.281-.318,4.375,1.515,5.355,3.6s1.186,4.448,1.82,6.667a17.525,17.525,0,0,0,26.05,10.118c2.729-1.682,5.066-4.145,8.152-5.009,3.038-.851,9.289.5,9.411,4.325C11973.181,1647.563,11967.537,1652.291,11964.957,1654.156Z" fill="#c4c4c4"/>
              <path id="Path_4001" data-name="Path 4001" d="M11994.209,1706.5a32.236,32.236,0,0,0-.1,13.3c1.309,7.623,4.367,15.276,10.263,20.27a14.737,14.737,0,0,0,8.368,3.768,8.589,8.589,0,0,0,7.972-3.876c1.646-2.857,1.054-6.518-.339-9.505s-3.5-5.586-4.986-8.53c-2.922-5.8-3.048-13.316.919-18.459,4.592-5.951,13.057-7.308,18.734-12.228,4.206-3.645,2.464-12.522-4.025-12.554C12009.309,1678.582,11996.321,1698.13,11994.209,1706.5Z" fill="#c4c4c4"/>
              <path id="Path_4002" data-name="Path 4002" d="M12056.375,1714.417a32.241,32.241,0,0,0-.1,13.3c1.309,7.622,4.367,15.275,10.263,20.269a14.728,14.728,0,0,0,8.368,3.768,8.588,8.588,0,0,0,7.972-3.876c1.645-2.856,1.054-6.518-.339-9.505s-3.5-5.586-4.986-8.53c-2.922-5.8-3.048-13.316.919-18.459,4.591-5.951,13.057-7.308,18.733-12.227,4.207-3.646,2.465-12.523-4.024-12.555C12071.475,1686.5,12058.487,1706.045,12056.375,1714.417Z" fill="#c4c4c4"/>
              <path id="Path_4003" data-name="Path 4003" d="M12014,1604.525a32.252,32.252,0,0,0-.1,13.3c1.309,7.623,4.368,15.275,10.263,20.269a14.734,14.734,0,0,0,8.369,3.769,8.589,8.589,0,0,0,7.972-3.877c1.645-2.856,1.054-6.517-.34-9.505s-3.5-5.586-4.986-8.53c-2.921-5.8-3.047-13.316.92-18.459,4.59-5.95,13.056-7.307,18.733-12.227,4.207-3.645,2.465-12.523-4.024-12.554C12029.1,1576.6,12016.108,1596.153,12014,1604.525Z" fill="#c4c4c4"/>
              <path id="Path_4004" data-name="Path 4004" d="M11997.383,1651.375a20.146,20.146,0,0,0-6.48,5.233c-3.174,3.662-5.665,8.187-5.745,13.035a9.265,9.265,0,0,0,1.5,5.565,5.376,5.376,0,0,0,5.04,2.337c2.037-.334,3.575-2.074,4.469-3.938s1.315-3.921,2.153-5.81c1.65-3.724,5.24-6.769,9.306-6.881,4.7-.131,8.72,3.446,13.355,4.253,3.436.6,7.043-3.773,4.484-6.94C12016.9,1647.632,12002.276,1649.078,11997.383,1651.375Z" fill="#c4c4c4"/>
            </g>
          </g>
          <g id="Group_1427" data-name="Group 1427">
            <g id="Group_1426" data-name="Group 1426" clip-path="url(#clip-path-3)">
              <path id="Path_4006" data-name="Path 4006" d="M12007.768,1927.292c29.028-10.514,53.37-35.766,84.228-36.378,20.636-.409,39.814,10.667,55.57,23.961,24.319,20.52,43.859,48.446,47.9,80.008,1.727,13.5.974,28.393,9.3,39.158,4.8,6.208,12.014,10.079,19.326,12.939,45.322,17.725,105.093.594,145.7,27.387,52.812,34.848,49.678,76.138,53.312,93.756,1.57,7.614,2.129,15.431,4.1,22.95,2.179,8.3,7.48,25.52,26.829,34.511,29.89,13.889,150.725-33.191,200.1,66.866,16.194,32.817.6,61.055-9.086,71.2-49.031,51.353-100.354,104.266-166.652,129.708-26.879,10.314-55.34,15.72-83.623,21.076l-43.455,8.228c-9.345,1.77-21.559,2.184-25.565-6.424-2.365-5.079-.491-11,.836-16.445,10.43-42.821-15.522-85.15-40.282-121.568-4.506-6.627-9.255-13.483-16.233-17.432-12.942-7.327-29.032-2.606-43.919-2.677-25.476-.122-49.133-15.323-64.626-35.5s-23.877-44.879-30.009-69.57c-1.715-6.9-3.369-14.059-7.576-19.795-6.614-9.022-18.079-12.746-27.508-18.775-24.531-15.683-34.281-46.1-42.283-74.082q-21.334-74.61-42.671-149.22C12005.4,1969.952,11995.814,1945.883,12007.768,1927.292Z" fill="#c7efa8"/>
              <path id="Path_4007" data-name="Path 4007" d="M12370.309,2491.544a25.605,25.605,0,0,1-16.583-4.489c-8.961-6.047-7.02-11.218-11.24-15.233a7.273,7.273,0,0,0-1.837-1.407c-2.573-1.211-5.571.936-6.925,3.44-2.247,4.157-1.892,9.361.04,13.667,9.77,21.781,49.78,33.341,64.28,1.7,1.833-4,2.62-10.773,1.011-14.928-1.463-3.779-6.772-6.139-8.985-1.177C12386.353,2481.447,12380.588,2490.524,12370.309,2491.544Z" fill="#c4c4c4"/>
              <path id="Path_4008" data-name="Path 4008" d="M12347.992,2415.575a20,20,0,0,0,11.567-11.986,31.808,31.808,0,0,0,1.262-11.576c-.151-3.931-.611-7.941-2.326-11.481-1.094-2.258-2.71-4.376-2.929-6.876a6.716,6.716,0,0,1,4.672-6.816,8.428,8.428,0,0,1,7.246,1.664,18.357,18.357,0,0,1,4.744,5.994,43.385,43.385,0,0,1,4.351,30.935,37.548,37.548,0,0,1-19.155,24.4,22.566,22.566,0,0,1-10.8,2.663c-6.766-.257-13.57-5.3-15.284-11.962-1.3-5.061,1.348-4.853,5.254-4.152A20.887,20.887,0,0,0,12347.992,2415.575Z" fill="#c4c4c4"/>
              <path id="Path_4009" data-name="Path 4009" d="M12424.343,2474.036c-9.345,2.668-19.023-3.038-26-9.783-4.161-4.025-7.949-8.645-9.816-14.124a28.514,28.514,0,0,1,1.022-19.764,44.32,44.32,0,0,1,11.965-16.1c3.072-2.716,6.634-5.209,10.712-5.623s8.672,1.939,9.493,5.949c.533,2.6-.585,5.3-2.193,7.417s-3.694,3.823-5.5,5.772a22.869,22.869,0,0,0-6.158,12.406,16.109,16.109,0,0,0,3.918,13.027c4.481,4.74,11.607,5.734,17.155,9.171a8.58,8.58,0,0,1,2.94,2.7c1.92,3.176-.16,7.609-3.47,9.3s-7.3,1.282-10.886.313" fill="#c4c4c4"/>
              <path id="Path_4010" data-name="Path 4010" d="M12244.016,2238.447c-2.8-9.288,2.781-19.052,9.438-26.129,3.972-4.223,8.544-8.086,14-10.042a28.6,28.6,0,0,1,19.8.69,44.147,44.147,0,0,1,16.284,11.681c2.76,3.023,5.3,6.537,5.775,10.6s-1.823,8.694-5.826,9.581c-2.6.577-5.312-.5-7.454-2.067s-3.877-3.625-5.854-5.4a22.832,22.832,0,0,0-12.5-5.942,16.191,16.191,0,0,0-12.985,4.131c-4.685,4.556-5.581,11.69-8.946,17.288a8.64,8.64,0,0,1-2.665,2.984c-3.152,1.97-7.619-.033-9.359-3.31s-1.383-7.271-.462-10.869" fill="#c4c4c4"/>
              <path id="Path_4011" data-name="Path 4011" d="M12201.815,2323.9a37.724,37.724,0,0,1-3.227-28.038c1.056-3.61,2.569-7.939.08-10.755a6.224,6.224,0,0,0-6.187-1.547,12.912,12.912,0,0,0-5.6,3.572c-8.927,8.857-11.015,23.177-7,35.072s13.329,21.453,24.067,27.969c3.063,1.858,6.371,3.536,9.946,3.8,7.294.544,14.158-7.17,6.7-12.032C12212.9,2336.935,12206.3,2332.28,12201.815,2323.9Z" fill="#c4c4c4"/>
              <path id="Path_4012" data-name="Path 4012" d="M12302.23,2347.07a33.963,33.963,0,0,1-19.7-16.048c-1.585-2.989-3.327-6.727-6.705-6.981a5.613,5.613,0,0,0-4.973,2.881,11.572,11.572,0,0,0-1.376,5.812c-.207,11.305,7.439,21.843,17.508,26.993s22.095,5.471,33.129,2.939c3.147-.722,6.341-1.714,8.819-3.784,5.058-4.22,4.649-13.5-3.229-11.95C12317.582,2348.525,12310.4,2349.658,12302.23,2347.07Z" fill="#c4c4c4"/>
              <path id="Path_4013" data-name="Path 4013" d="M12293.858,2395.858a33.963,33.963,0,0,1-19.7-16.048c-1.585-2.988-3.327-6.727-6.705-6.981a5.612,5.612,0,0,0-4.972,2.882,11.561,11.561,0,0,0-1.376,5.812c-.207,11.3,7.438,21.843,17.507,26.992s22.095,5.471,33.129,2.94c3.147-.722,6.34-1.715,8.819-3.784,5.058-4.221,4.649-13.5-3.229-11.951C12309.21,2397.313,12302.024,2398.446,12293.858,2395.858Z" fill="#c4c4c4"/>
              <path id="Path_4014" data-name="Path 4014" d="M12449.5,2230.365c-9.793-.41-19.517,2.786-27.916,7.848a36.431,36.431,0,0,0-10.99,9.51,19.2,19.2,0,0,0-3.815,13.74,8.128,8.128,0,0,0,2.593,5.246c2.838,2.292,7.257,1.149,9.986-1.281s4.348-5.832,6.5-8.784a29.355,29.355,0,0,1,29.165-11.153c3.223.69,6.317,1.935,9.574,2.438,2.986.461,9.255.27,10.461-3.409.917-2.8-3.292-5.472-5.295-7.014A35.878,35.878,0,0,0,12449.5,2230.365Z" fill="#c4c4c4"/>
              <path id="Path_4015" data-name="Path 4015" d="M12455.8,2343.69a39.9,39.9,0,0,1-62.461,1.445c-4.394-5.289-7.372-12.936-4.061-18.972a6.816,6.816,0,0,1,2.952-3c2.681-1.248,5.935.205,7.92,2.388s3.119,4.991,4.729,7.464a22.5,22.5,0,0,0,35.743,2.559c2.717-3.085,4.662-6.975,8.123-9.193,3.408-2.184,11.58-2.89,13.163,1.742C12463.416,2332.534,12458.264,2340.438,12455.8,2343.69Z" fill="#c4c4c4"/>
              <path id="Path_4016" data-name="Path 4016" d="M12396.193,2199.979a39.894,39.894,0,0,1-36.156,50.952c-6.876.377-14.8-1.785-17.675-8.031a6.794,6.794,0,0,1-.649-4.154c.6-2.892,3.71-4.638,6.651-4.93s5.875.467,8.825.647a22.518,22.518,0,0,0,23.41-27.143c-.855-4.013-2.82-7.887-2.535-11.983.28-4.032,4.6-11.006,9.265-9.52C12391.777,2187.233,12395.052,2196.068,12396.193,2199.979Z" fill="#c4c4c4"/>
              <path id="Path_4017" data-name="Path 4017" d="M12294.735,2313.094a39.8,39.8,0,0,1,.759-62.4c5.447-4.216,13.2-6.943,19.126-3.444a6.785,6.785,0,0,1,2.9,3.045c1.155,2.715-.412,5.918-2.668,7.829s-5.1,2.954-7.635,4.481a22.466,22.466,0,0,0-3.822,35.6c2.99,2.812,6.814,4.878,8.911,8.405,2.065,3.473,2.483,11.654-2.208,13.086C12305.628,2321.057,12297.9,2315.66,12294.735,2313.094Z" fill="#c4c4c4"/>
              <path id="Path_4018" data-name="Path 4018" d="M12368.988,2274.388a33.314,33.314,0,0,0-11.947,6.8c-6.139,5.114-11.4,11.81-12.818,19.666a15.236,15.236,0,0,0,.96,9.435,8.873,8.873,0,0,0,7.592,5.124c3.405-.007,6.375-2.429,8.325-5.221s3.184-6.024,5.051-8.873c3.677-5.616,10.333-9.616,16.984-8.729,7.7,1.027,13.291,7.9,20.629,10.428,5.438,1.877,12.476-4.275,9.146-10.095C12401.773,2273.447,12377.568,2271.946,12368.988,2274.388Z" fill="#c4c4c4"/>
            </g>
          </g>
          <path id="Path_4020" data-name="Path 4020" d="M12460.147,2186.439h-942.479V1471.825h942.479v714.613" fill="none"/>
          <g id="Group_1428" data-name="Group 1428">
            <path id="Path_4021" data-name="Path 4021" d="M11891.257,2186.157c13.088-74.156,26.136-151.461,39.357-225.594.86-4.828-.235-6.966-4.819-9.219-15.854-7.789-26.382-20.475-30.127-37.849-1.654-7.676-1.24-15.894.057-23.609.808-4.8-.384-5.925-4.358-7.261-8.675-2.916-17.5-5.424-25-11.252-13.98-10.86-24.034-23.994-27.437-41.82a75.771,75.771,0,0,1-.177-25.289c.775-5.4,2.483-6.2,7.291-3.414a138.353,138.353,0,0,0,73.275,19.2,144.085,144.085,0,0,0,45.354-8.4c2.69-.945,2.68-2,2.1-4.592-1.489-6.66-5.7-11.692-9.219-17.152-9.017-14.008-22.984-18.213-38.5-18.986-18.462-.919-36.857,1.307-55.3,1.47-17.133.151-34.018-.991-50.233-7.295-23.926-9.3-38.4-27.138-46.508-50.836-1.438-4.2-2.409-8.582-3.793-12.763-1.481-4.481-.535-7.993,3.147-9.637,3.66-1.634,6.706.673,8.894,4.265a108.542,108.542,0,0,0,19.657,24.175c13.533,12.275,29.589,15.646,47.269,13.5,24.821-3.016,48.756-10.637,73.645-13.561,41.417-4.866,77.975,13.828,97.536,51.012.961,1.828,1.979,3.626,3.45,6.316,6.55-12.68,13.714-23.9,23.567-33.269,21.628-20.559,47.706-26.694,76.607-24.218,21.062,1.8,41.309,7.858,62,11.566,17.166,3.075,34.3,4.678,50.255-4.791,12.483-7.409,20.975-18.657,28.671-30.6,1.212-1.881,2.1-4.086,4.541-4.787,4.255-1.221,8.489,2.931,7.494,7.964-6.7,33.88-26.215,60.706-62.5,69.35-20.609,4.909-41.465,3.468-62.329,2.507-14.417-.663-28.868-1.679-43.229,1.114-11.639,2.264-20.34,8.626-26.715,18.436a121.507,121.507,0,0,0-8.485,16.157c-1.146,2.519-.646,3.646,1.919,4.562a139.577,139.577,0,0,0,119.167-10.985c4.171-2.462,5.7-1.642,6.729,3.233,7.162,33.948-17.035,70.692-51.284,77.88-7.321,1.536-6.982,1.482-5.824,8.686,3.022,18.8-.817,35.363-15.094,49.22-5.494,5.332-11.153,9.959-17.916,13.225-3.337,1.611-2.162,4.028-1.788,6.206,3.442,20.049,7,40.079,10.528,60.112q12.406,70.385,24.814,140.768c1.542,8.754,2.807,17.564,4.606,26.264Zm80.371-197.582c0,10.632.044,21.264-.033,31.9-.018,2.544.1,4.283,3.493,4.22,9.932-.184,19.87-.054,29.8-.083,1.325,0,3.409.307,3.312-1.559-.3-5.662,1.993-11.614-3.171-16.707-5.812-5.732-10.848-12.247-16.271-18.376-3.552-4.015-4.8-8.412-2.5-13.468,2.247-4.96,6.332-6.426,11.5-6.372q18.822.2,37.648-.006c5.143-.06,9.327,1.225,11.579,6.209,2.355,5.211,1.119,9.771-2.618,13.927-4.543,5.051-8.583,10.618-13.529,15.223-5.112,4.759-6.435,10.157-6.009,16.762.214,3.314.887,4.555,4.394,4.472q13.85-.328,27.71.005c3.63.093,4.734-.955,4.7-4.653q-.253-31.371.009-62.745c.026-3.327-1.216-4.695-4.02-6.2-18.633-9.988-28.864-25.672-30.5-46.761-.722-9.3-1.414-10.206-10.877-10.019-2.068.04-4.121.606-6.194.781-3.022.255-3.934,1.67-3.917,4.783.129,23.579-10.862,40.6-31.353,51.647-2.648,1.428-3.242,2.968-3.211,5.649C11971.7,1967.658,11971.626,1978.117,11971.628,1988.575Zm-20.879-49.986a37.5,37.5,0,0,0,37.229-37.252c.094-20.123-17.479-37.449-37.783-37.252s-36.8,17.183-37.068,37.568C11912.867,1921.16,11928.822,1939.5,11950.749,1938.589Zm94.97-37.281c.006,20.761,16.977,37.8,37.413,37.568,20.176-.23,37.029-17.376,37-37.644s-17.037-37.155-37.429-37.156A37.094,37.094,0,0,0,12045.719,1901.308Zm-29.044,139.749c-13.4,0-26.807.077-40.209-.053-3.437-.033-4.136.983-3.26,4.293,5.053,19.1,23.127,33.083,43.166,33.188a45.107,45.107,0,0,0,43.554-32.591c1.061-3.708.5-4.959-3.564-4.9C12043.134,2041.173,12029.9,2041.059,12016.675,2041.057Zm.3-169.767a36.374,36.374,0,0,1,12.852,1.582c3.225.906,5.011.4,6.816-2.508a43.789,43.789,0,0,1,15.423-15.256c3.682-2.1,3.264-3.8,1.151-6.8-17.841-25.275-58.524-25.267-74.933,1.993-1.38,2.293-.726,2.774.823,3.788,7.072,4.632,13.719,9.766,18.217,17.091,1.377,2.243,2.956,2.594,5.216,1.958A46.139,46.139,0,0,1,12016.971,1871.29Z" fill="#141414"/>
            <path id="Path_4022" data-name="Path 4022" d="M11971.627,1988.575c0-10.458.07-20.917-.05-31.373-.031-2.681.563-4.221,3.211-5.649,20.49-11.047,31.481-28.068,31.353-51.647-.017-3.113.895-4.528,3.917-4.783,2.073-.175,4.126-.741,6.194-.781,9.463-.187,10.155.714,10.877,10.019,1.636,21.089,11.867,36.773,30.5,46.761,2.8,1.5,4.046,2.871,4.02,6.2q-.261,31.371-.009,62.745c.03,3.7-1.074,4.746-4.7,4.653q-13.847-.356-27.71-.005c-3.507.083-4.18-1.158-4.394-4.472-.426-6.6.9-12,6.009-16.762,4.946-4.6,8.986-10.172,13.529-15.223,3.737-4.156,4.974-8.716,2.618-13.927-2.252-4.984-6.437-6.269-11.579-6.209q-18.822.222-37.648.006c-5.171-.054-9.256,1.412-11.5,6.372-2.291,5.056-1.047,9.453,2.5,13.468,5.423,6.129,10.459,12.644,16.271,18.376,5.164,5.093,2.874,11.045,3.171,16.707.1,1.866-1.986,1.555-3.312,1.559-9.935.029-19.873-.1-29.8.083-3.392.063-3.511-1.676-3.493-4.22C11971.672,2009.839,11971.628,1999.207,11971.627,1988.575Z" fill="#fbd32c"/>
            <path id="Path_4023" data-name="Path 4023" d="M11950.749,1938.589c-21.927.915-37.882-17.429-37.622-36.936.271-20.385,16.76-37.371,37.068-37.568s37.877,17.129,37.783,37.252A37.5,37.5,0,0,1,11950.749,1938.589Z" fill="#1cbde4"/>
            <path id="Path_4024" data-name="Path 4024" d="M12045.719,1901.308a37.094,37.094,0,0,1,36.985-37.232c20.392,0,37.4,16.885,37.429,37.156s-16.825,37.414-37,37.644C12062.7,1939.109,12045.725,1922.069,12045.719,1901.308Z" fill="#1cbde4"/>
            <path id="Path_4025" data-name="Path 4025" d="M12016.675,2041.058c13.229,0,26.459.115,39.687-.067,4.062-.056,4.625,1.2,3.564,4.9a45.107,45.107,0,0,1-43.554,32.591c-20.039-.105-38.113-14.092-43.166-33.188-.876-3.31-.177-4.326,3.26-4.293C11989.868,2041.134,12003.271,2041.057,12016.675,2041.058Z" fill="#fbd32c"/>
            <path id="Path_4026" data-name="Path 4026" d="M12016.971,1871.29a46.139,46.139,0,0,0-14.435,1.851c-2.26.636-3.839.285-5.216-1.958-4.5-7.325-11.145-12.459-18.217-17.091-1.549-1.014-2.2-1.495-.823-3.788,16.408-27.26,57.092-27.268,74.933-1.993,2.112,2.993,2.53,4.7-1.151,6.8a43.789,43.789,0,0,0-15.423,15.256c-1.806,2.908-3.592,3.414-6.816,2.508A36.374,36.374,0,0,0,12016.971,1871.29Z" fill="#fbd32c"/>
          </g>
        </g>
      </g>
      <g id="Group_1440" data-name="Group 1440">
        <g id="Group_1437" data-name="Group 1437">
          <path id="Path_4027" data-name="Path 4027" d="M12121.034,2125.863c-2.083-5.97-6.039-13-11.762-20.891l2.55-15.358a6.8,6.8,0,0,0-.2-3.3,7.477,7.477,0,0,0-2.091-3.012,6.454,6.454,0,0,0-3.015-1.689,4.351,4.351,0,0,0-.928-.1,3.791,3.791,0,0,0-.954.12,2.1,2.1,0,0,0-.274-.018,2.158,2.158,0,0,0-2.075,1.564c-.033.115-.068.253-.1.42l0,.022a6.216,6.216,0,0,0-.6,1.7l-.012.063c-.439,2.487-.844,5.107-1.209,7.831l-3.862-5.033c-5.774-7.76-7.259-9.43-7.873-10.008a3.825,3.825,0,0,0-2.654-1.135,3.538,3.538,0,0,0-1.237.226,2.24,2.24,0,0,0-.346-.027,2.152,2.152,0,0,0-1.421.534c-.228.2-.453.418-.687.668a12.708,12.708,0,0,0-2.382,5.165,7.681,7.681,0,0,0,1.345,4.7,84.81,84.81,0,0,1,5.217,9.636,29.5,29.5,0,0,1,2.215,6.425c.027.16.05.308.068.444a29.353,29.353,0,0,1-2.4-2.8c-1.091-1.417-2.214-2.932-3.339-4.5-.808-1.139-1.686-2.479-2.6-3.975l-.034-.054a22.163,22.163,0,0,0-2.585-3.6,4.018,4.018,0,0,0-2.791-1.186,3.723,3.723,0,0,0-.459.028,3.54,3.54,0,0,0-.717.171c-.052-.009-.1-.017-.153-.022a2.055,2.055,0,0,0-.235-.013,2.154,2.154,0,0,0-1.394.511,7.015,7.015,0,0,0-.6.573,7.34,7.34,0,0,0-2.091,3.45,6.327,6.327,0,0,0-.649,2.016,8.053,8.053,0,0,0,1.1,4.857,67.748,67.748,0,0,0,3.9,6.372,2.167,2.167,0,0,0-.6.825c-.016.039-.03.079-.045.119a10.83,10.83,0,0,1-2.557,4.615c-.117-.325-.363-1.094-.822-2.841a31.737,31.737,0,0,0-1.544-4.711c-1.608-3.291-3.946-3.982-5.623-3.982a6.34,6.34,0,0,0-.816.054,3.63,3.63,0,0,0-.755-.078,5.54,5.54,0,0,0-2.45.668,10.478,10.478,0,0,0-3.916,3.739,16.4,16.4,0,0,0-1.87,4.035,26.51,26.51,0,0,0-1.085,3.392,12.761,12.761,0,0,0-.826-2.6,3.533,3.533,0,0,0-2.817-2.163,3.441,3.441,0,0,0-.368-.019,4.845,4.845,0,0,0-1.5.261,2.173,2.173,0,0,0-1.406.107c-.119.052-.253.113-.406.187a7.453,7.453,0,0,0-3.267,2.667,4.527,4.527,0,0,0-.532,1.4,7.6,7.6,0,0,0-.648,4.739,58.043,58.043,0,0,0,2.038,8.774c-.065.076-.132.15-.2.223a2.151,2.151,0,0,0-1.148.536,8.54,8.54,0,0,1-1.239.947c.007-.373.049-1.187.218-2.893a31.68,31.68,0,0,0,.193-4.955c-.388-3.9-2.725-6.134-6.413-6.134-.278,0-.569.013-.867.039a6.43,6.43,0,0,0-.707-.038,7.345,7.345,0,0,0-.741.038,10.477,10.477,0,0,0-4.971,2.141,19.092,19.092,0,0,0-4.438,4.9,10.52,10.52,0,0,0,.06-2.076,3.529,3.529,0,0,0-1.888-3.009,4.8,4.8,0,0,0-2.155-.427c-.316,0-.666.018-1.038.055l-.177.019a2.181,2.181,0,0,0-.547-.07c-.036,0-.073,0-.11,0-.134.007-.289.018-.465.036a7.428,7.428,0,0,0-3.979,1.364,5.242,5.242,0,0,0-1.723,2.917,8.894,8.894,0,0,0-.671,2.03,59.474,59.474,0,0,0-1.138,15.364c-.31.225-.614.444-.916.66-.049,0-.1,0-.146,0a2.154,2.154,0,0,0-1.228.383c-1.442,1-2.629,1.753-3.527,2.245a10.775,10.775,0,0,1-1.234.586,72.781,72.781,0,0,1,4.048-10.018,47.115,47.115,0,0,0,2.844-7.078,4.307,4.307,0,0,0-.879-3.94,6.478,6.478,0,0,0-3.525-1.9q-.807-.193-1.606-.317a4.839,4.839,0,0,0-.461-1.369,4.685,4.685,0,0,0-3.3-2.17,17.147,17.147,0,0,0-4-.469q-.333,0-.663.012-.451-.027-.9-.027c-.184,0-.365,0-.548.01a29.905,29.905,0,0,0,7.242-6.389,14.31,14.31,0,0,0,3.636-8.229,8.805,8.805,0,0,0-3.287-7.557,13.092,13.092,0,0,0-8.641-2.988c-.271,0-.546.006-.823.019-.243-.012-.488-.018-.738-.018a16.08,16.08,0,0,0-2.157.149,34.886,34.886,0,0,0-12.147,4.327,73.577,73.577,0,0,0-11.5,7.977c-1.372-.9-2.866-1.962-4.458-3.168l-3.457-2.6a94.242,94.242,0,0,0,9.808-9.7c3.212-3.846,4.81-7.29,4.882-10.527a10.727,10.727,0,0,0-4.236-8.726,21.09,21.09,0,0,0-10.272-4.521,29.053,29.053,0,0,0-4.7-.387c-.274,0-.549,0-.821.012-.239-.007-.478-.01-.716-.01a25.359,25.359,0,0,0-6.276.78,8.254,8.254,0,0,0-4.379,2.468,3.845,3.845,0,0,0-.933,1.951,5.439,5.439,0,0,0-.674,2.382,4.2,4.2,0,0,0,1.493,3.552,4.406,4.406,0,0,0,2.868,1,6.136,6.136,0,0,0,1.352-.16,31.69,31.69,0,0,1,7.037-.962c2.315,0,4.025.447,5.081,1.33a1.107,1.107,0,0,1,.468.815,14.078,14.078,0,0,1-1.5,2.124,85.121,85.121,0,0,1-10.158,9.666l-1.236-.956c-2.077-1.58-3.886-2.351-5.539-2.369h-.06a5.34,5.34,0,0,0-.822.065,3.764,3.764,0,0,0-.656-.068,4.242,4.242,0,0,0-3.248,1.784,3.724,3.724,0,0,0-.938,1.959,4.8,4.8,0,0,0-.549,3.412,7.588,7.588,0,0,0,2.821,4c.022.019.046.038.07.056l.109.083c-3.166,2.445-6.9,5.242-11.134,8.342l-.05.038a12.532,12.532,0,0,0-1.868,1.7,4.4,4.4,0,0,0-1.1,2.219c-.812,1.594-1.562,4.646,2.08,7.689a6.687,6.687,0,0,0,4.387,1.619c2.059,0,4.227-.865,6.628-2.646,5.171-3.823,9.62-7.222,13.249-10.124.725.526,1.653,1.191,2.8,2,2.089,1.487,4.153,2.859,6.164,4.095q-.52.585-1,1.156a30.372,30.372,0,0,0-5.774,9.819,19.914,19.914,0,0,0-1.516,6.663,15.36,15.36,0,0,0,5.824,12.912,18.907,18.907,0,0,0,12.49,4.128,33.992,33.992,0,0,0,6.357-.648,7.038,7.038,0,0,0,1.151-.32l.052.109a10.757,10.757,0,0,0,7.543,5.92,11.908,11.908,0,0,0,2.781.337,12.332,12.332,0,0,0,6.938-2.243,10.829,10.829,0,0,0,1.386,2.429,8.785,8.785,0,0,0,5.028,3.359,10.222,10.222,0,0,0,2.374.276,14.357,14.357,0,0,0,5.745-1.341,36.037,36.037,0,0,0,5.515-3.052,12,12,0,0,0,.507,1.149,5.976,5.976,0,0,0,5.527,3.664c.224,0,.451-.012.685-.035a6.154,6.154,0,0,0,4.648-2.382,12.637,12.637,0,0,0,1.745-5.655,49.321,49.321,0,0,1,1.86-8.115,35.761,35.761,0,0,1,2.068-5.179c.012.2.026.4.047.594a9.053,9.053,0,0,0,3.26,6.448,9.241,9.241,0,0,0,5.955,1.888c.482,0,.988-.026,1.506-.077a13.821,13.821,0,0,0,6.493-2.38,22.051,22.051,0,0,0,2.37-1.864,24.55,24.55,0,0,0,4.515,6.462,6.4,6.4,0,0,0,4.392,1.893,6.892,6.892,0,0,0,6.225-4.5,12.681,12.681,0,0,0-.333-5.909,49.154,49.154,0,0,1-1.082-8.256,35.8,35.8,0,0,1,.137-5.574c.079.182.162.363.249.54a9.063,9.063,0,0,0,5.3,4.91,8.1,8.1,0,0,0,2.563.408,11.607,11.607,0,0,0,5.062-1.308,13.8,13.8,0,0,0,5.259-4.491,21.648,21.648,0,0,0,2.714-5.154c.245.239.494.476.744.712a14.872,14.872,0,0,0,7.905,4.143,10.7,10.7,0,0,0,1.637.132,7.956,7.956,0,0,0,6.007-2.564c.09-.1.178-.193.263-.292a71.524,71.524,0,0,0,.054,7.913,32.686,32.686,0,0,0,2.086,10.335,19.147,19.147,0,0,0,4.431,6.532,10.043,10.043,0,0,0,7.025,2.967c.124,0,.248,0,.374-.008a10.177,10.177,0,0,0,7.177-3.437C12122.737,2138.054,12123.4,2132.64,12121.034,2125.863Z" fill="#070707"/>
          <g id="Group_1436" data-name="Group 1436">
            <g id="Group_1431" data-name="Group 1431">
              <path id="Path_4028" data-name="Path 4028" d="M11947.686,2057.96a26.794,26.794,0,0,1,4.355.359,18.893,18.893,0,0,1,9.238,4.048,8.633,8.633,0,0,1,3.463,7.021q-.092,4.053-4.381,9.192a102.01,102.01,0,0,1-11.583,11.206l5.586,4.2c2.19,1.658,4.146,3.011,5.887,4.086a2.106,2.106,0,0,0,.375-.232,72.105,72.105,0,0,1,12.047-8.5,32.752,32.752,0,0,1,11.389-4.075,13.93,13.93,0,0,1,1.868-.129q.374,0,.734.021c.28-.015.555-.023.826-.023a10.952,10.952,0,0,1,7.259,2.487,6.61,6.61,0,0,1,2.516,5.765,12.16,12.16,0,0,1-3.139,6.982q-7.73,9.258-18.671,9.257a33.332,33.332,0,0,1-10.864-2q-1.989,2.051-3.952,4.4-4.793,5.74-5.38,9.332a5.759,5.759,0,0,0,1.982,5.738,9.777,9.777,0,0,0,5.082,2.248c.377.05.8.071,1.225.088.888-.034,1.835-.112,2.865-.249,0,.048,0,.1,0,.144,1.065-.1,2.2-.25,3.471-.486a3.566,3.566,0,0,1,.459-.039c.063-.347.132-.7.219-1.055a23.62,23.62,0,0,1,1.057-3.286,21.111,21.111,0,0,1,4.15-7.337,20.478,20.478,0,0,1,7.9-5.731,14.493,14.493,0,0,1,5.412-1.106q.438,0,.876.03.346-.015.69-.015a14.923,14.923,0,0,1,3.493.409,2.779,2.779,0,0,1,1.9,1.08,5.145,5.145,0,0,1,.358,2.321,16.787,16.787,0,0,1,3.112.455q3.394.816,2.811,3.241a53.515,53.515,0,0,1-2.7,6.675,69.113,69.113,0,0,0-4.258,10.7,2.586,2.586,0,0,0,.12,1.786,1.715,1.715,0,0,0,1.144.929,9.976,9.976,0,0,0,3.176-1.18c1.011-.552,2.261-1.354,3.719-2.362.023.182.05.353.074.529.925-.635,1.928-1.347,3.061-2.187.052-.038.1-.06.156-.094a57.413,57.413,0,0,1,1.023-15.994,6.523,6.523,0,0,1,.605-1.733,3.255,3.255,0,0,1,1.036-1.972,5.5,5.5,0,0,1,2.833-.89c.136-.014.256-.022.359-.028,0,.053-.007.118-.011.182.3-.054.611-.107.947-.141.3-.03.578-.045.824-.045a2.792,2.792,0,0,1,1.2.2,1.475,1.475,0,0,1,.7,1.29,27.2,27.2,0,0,1-.555,5.208q-.428,2.907-.641,5.074c-.128,1.3-.187,2.874-.186,4.7a2.174,2.174,0,0,0,.273-.336q.623-2.136,1.34-4a33.367,33.367,0,0,1,2.973-6.519,18.672,18.672,0,0,1,4.587-5.4,8.4,8.4,0,0,1,3.925-1.742,5.041,5.041,0,0,1,.521-.027,4.108,4.108,0,0,1,.693.055c.027,0,.055-.012.081-.015.278-.027.544-.041.8-.041q3.848,0,4.267,4.189a35.818,35.818,0,0,1-.193,4.528,26.219,26.219,0,0,0-.215,3.6c.12,1.2.513,1.933,1.172,2.2a7.772,7.772,0,0,0,3.657-2.037c.06.15.128.3.188.448a19.288,19.288,0,0,0,1.795-1.931,3.815,3.815,0,0,1,.351-.372,55.882,55.882,0,0,1-2.34-9.61,5.355,5.355,0,0,1,.558-3.642c.007-.012.019-.023.025-.034a2.533,2.533,0,0,1,.323-1.03,5.5,5.5,0,0,1,2.347-1.821c.122-.059.229-.108.325-.15.036.113.08.261.128.433.038-.02.068-.041.107-.06a4.521,4.521,0,0,1,1.809-.563,1.272,1.272,0,0,1,.14.007,1.47,1.47,0,0,1,1.106.965,27.135,27.135,0,0,1,1.293,5.076q.611,2.873,1.167,4.98c.339,1.286.844,2.819,1.5,4.571.047-.037.1-.072.139-.113a39.812,39.812,0,0,1,.391-10.684,26.371,26.371,0,0,1,1.392-4.834,14.346,14.346,0,0,1,1.635-3.574,8.411,8.411,0,0,1,3.072-3,3.545,3.545,0,0,1,1.5-.447,1.387,1.387,0,0,1,.608.132,4.548,4.548,0,0,1,.961-.109c1.545,0,2.777.915,3.686,2.772a35.907,35.907,0,0,1,1.395,4.312,25.82,25.82,0,0,0,1.054,3.449,3.013,3.013,0,0,0,1.327,1.527,4.3,4.3,0,0,0,.8-.291c1.77-.867,3.144-2.87,4.323-6.307h0c.063.076.133.154.2.23a2.214,2.214,0,0,1,.59-.445,1.679,1.679,0,0,1,.741-.18,1.792,1.792,0,0,1,.9.262c-.192-.24-.4-.481-.581-.721a61.236,61.236,0,0,1-5.252-8.183,5.957,5.957,0,0,1-.86-3.553,4.546,4.546,0,0,1,.628-1.675c0-.067-.007-.141,0-.2a4.989,4.989,0,0,1,1.543-2.39,5.183,5.183,0,0,1,.423-.405c.066.088.161.217.283.389a2.4,2.4,0,0,1,1.087-.541,1.556,1.556,0,0,1,.192-.013,1.908,1.908,0,0,1,1.312.6,29.6,29.6,0,0,1,2.26,3.209q1.43,2.327,2.689,4.1,1.734,2.42,3.383,4.562a28.879,28.879,0,0,0,2.894,3.315,4.8,4.8,0,0,0,1.511,1.04,3.552,3.552,0,0,0,1.545-.952,3.3,3.3,0,0,0,.359-.474,8.505,8.505,0,0,0-.141-2.253,31.473,31.473,0,0,0-2.37-6.934,86.68,86.68,0,0,0-5.354-9.9,5.6,5.6,0,0,1-1.031-3.37,4.231,4.231,0,0,1,.651-1.772,1.525,1.525,0,0,1-.011-.2,3.594,3.594,0,0,1,1.167-1.913,7.345,7.345,0,0,1,.534-.521c.087.094.191.213.318.36a2.68,2.68,0,0,1,.96-.523,1.321,1.321,0,0,1,.3-.035,1.724,1.724,0,0,1,1.174.546q1.293,1.221,7.641,9.752l6.775,8.828a2.148,2.148,0,0,0,.381-.334q.735-6.423,1.753-12.231a3.6,3.6,0,0,1,.544-1.37c.02-.116.039-.238.059-.352s.044-.191.064-.263a2.393,2.393,0,0,1,.3.186,1.568,1.568,0,0,1,.926-.289,2.181,2.181,0,0,1,.463.053,4.325,4.325,0,0,1,2,1.151,5.47,5.47,0,0,1,1.523,2.122,4.652,4.652,0,0,1,.116,2.264l-2.7,16.252q8.867,12.084,12,21.062t-1.507,13.9a8.066,8.066,0,0,1-5.688,2.762c-.1,0-.194,0-.292,0a7.922,7.922,0,0,1-5.546-2.379,16.918,16.918,0,0,1-3.924-5.805,30.956,30.956,0,0,1-1.92-9.643,94.454,94.454,0,0,1,.549-15.685l-1.045-1.279q-1.575-2.169-4.71-6.009a18.11,18.11,0,0,1,2.938,8.253,7.505,7.505,0,0,1-1.771,5.77,5.843,5.843,0,0,1-4.435,1.885,8.546,8.546,0,0,1-1.308-.1,12.725,12.725,0,0,1-6.755-3.581c-1.692-1.6-3.208-3.178-4.577-4.749a5.735,5.735,0,0,1,.521,4.3,19.267,19.267,0,0,1-2.644,5.217,11.629,11.629,0,0,1-4.444,3.8,9.452,9.452,0,0,1-4.115,1.088,5.922,5.922,0,0,1-1.88-.3,6.952,6.952,0,0,1-4.044-3.811,10.778,10.778,0,0,1-.746-2.012q-.5-1.343-.717-1.791-.375-.766-.864-.766a.775.775,0,0,0-.34.086q-.961.469-1.479,3.38a33.484,33.484,0,0,0-.335,7.18,51.292,51.292,0,0,0,1.134,8.642,11.114,11.114,0,0,1,.356,4.86,4.106,4.106,0,0,1-2.395,2.48,3.961,3.961,0,0,1-1.747.433,4.316,4.316,0,0,1-2.929-1.319q-2.244-2.073-5-7.705c-.146-.3-.277-.6-.419-.9a19.273,19.273,0,0,1-4.151,3.806,11.629,11.629,0,0,1-5.49,2.014q-.672.066-1.291.067a7.126,7.126,0,0,1-4.605-1.413,6.953,6.953,0,0,1-2.463-4.979,10.953,10.953,0,0,1,0-2.147q0-1.432-.049-1.928c-.069-.707-.336-1.061-.8-1.061a.758.758,0,0,0-.1.005q-1.063.1-2.564,2.652a33.52,33.52,0,0,0-2.812,6.615,51.1,51.1,0,0,0-1.946,8.5,11.13,11.13,0,0,1-1.359,4.68,4.1,4.1,0,0,1-3.107,1.491c-.161.016-.318.024-.471.024a3.919,3.919,0,0,1-3.6-2.482,16.031,16.031,0,0,1-1.216-3.729c-.05.039-.09.091-.142.128a35.959,35.959,0,0,1-7.456,4.506,12.209,12.209,0,0,1-4.876,1.157,7.984,7.984,0,0,1-1.87-.216,6.657,6.657,0,0,1-3.815-2.566,9.762,9.762,0,0,1-1.849-4.95q-3.952,3.91-8.193,3.911a9.676,9.676,0,0,1-2.277-.277,8.658,8.658,0,0,1-6.105-4.764,10.469,10.469,0,0,1-.8-2.366,5.934,5.934,0,0,1-2.747,1.4,31.726,31.726,0,0,1-5.951.609,16.75,16.75,0,0,1-11.108-3.626,13.242,13.242,0,0,1-5.049-11.175,17.711,17.711,0,0,1,1.388-6.006,28.09,28.09,0,0,1,5.4-9.174c.868-1.041,1.793-2.051,2.743-3.024q-3.984-2.289-8.315-5.368-3.026-2.154-4.109-2.967-5.751,4.662-14.474,11.111a9.373,9.373,0,0,1-5.343,2.222,4.567,4.567,0,0,1-3-1.118c-2.09-1.746-2.522-3.557-1.322-5.435a1.864,1.864,0,0,1,.617-1.434,10.378,10.378,0,0,1,1.536-1.383c5.3-3.878,9.8-7.272,13.388-10.1l-2.326-1.783a5.655,5.655,0,0,1-2.1-2.82,2.978,2.978,0,0,1,.676-2.432,1.076,1.076,0,0,1-.082-.2,1.446,1.446,0,0,1,.444-.877,2.257,2.257,0,0,1,1.56-1.008h.013a2.15,2.15,0,0,1,.629.125,3.263,3.263,0,0,1,.867-.123h.037a7.72,7.72,0,0,1,4.243,1.918l2.562,1.98a2.025,2.025,0,0,0,.3-.17,92.848,92.848,0,0,0,11.514-10.845,14.923,14.923,0,0,0,1.957-2.882,2.708,2.708,0,0,0,.052-.478,3.239,3.239,0,0,0-1.247-2.618q-2.193-1.831-6.465-1.832a33.6,33.6,0,0,0-7.513,1.016,3.948,3.948,0,0,1-.876.106,2.247,2.247,0,0,1-1.486-.5,2.1,2.1,0,0,1-.718-1.806,3.628,3.628,0,0,1,.781-2.016c-.041,0-.08,0-.108,0h-.027c0-.018,0-.038,0-.062a1.541,1.541,0,0,1,.46-.964,6.2,6.2,0,0,1,3.257-1.76,23.124,23.124,0,0,1,5.744-.713c.237,0,.477,0,.716.01.271-.008.544-.013.816-.013m27.315,45.707a17.056,17.056,0,0,0,4.717-.822c3.616-1.19,7.058-3.718,10.228-7.515a8.907,8.907,0,0,0,1.06-1.57,1.655,1.655,0,0,0-.5-1.609,2.463,2.463,0,0,0-1.627-.487,8.9,8.9,0,0,0-2.741.55,36.187,36.187,0,0,0-7.518,3.838,73.069,73.069,0,0,0-8.807,6.657,20.621,20.621,0,0,0,5.189.958m132.963,26.71a4.036,4.036,0,0,0,1.941-1.175,3.923,3.923,0,0,0,.453-.6,11.068,11.068,0,0,0-.782-4.454q-1.491-4.438-6.97-12.643a40.468,40.468,0,0,0,.69,11.568q1.087,4.4,3.159,6.357a4.1,4.1,0,0,0,1.508.949M11981.4,2134.9a7.07,7.07,0,0,0,3.226-1.569,14.206,14.206,0,0,0,3.759-5.066l5.056-10.894a8.176,8.176,0,0,0-1.6-.159,9.076,9.076,0,0,0-4.167,1.071,15.11,15.11,0,0,0-5.253,4.633,19.322,19.322,0,0,0-3.22,6.99,5.042,5.042,0,0,0,.1,3.4,3.016,3.016,0,0,0,2.1,1.6m-33.718-79.417c-.272,0-.547,0-.819.012-.238-.006-.477-.009-.713-.009a25.733,25.733,0,0,0-6.359.79,8.561,8.561,0,0,0-4.547,2.574,4.261,4.261,0,0,0-1,2.053,5.728,5.728,0,0,0-.686,2.475,4.587,4.587,0,0,0,1.608,3.813,4.727,4.727,0,0,0,3.075,1.077,6.465,6.465,0,0,0,1.424-.167,31.383,31.383,0,0,1,6.965-.955c2.237,0,3.877.422,4.874,1.255a.834.834,0,0,1,.343.5,14.148,14.148,0,0,1-1.42,1.983,83.641,83.641,0,0,1-9.917,9.458l-1.029-.8c-2.138-1.626-4.008-2.419-5.735-2.437h-.063a5.521,5.521,0,0,0-.816.062,3.969,3.969,0,0,0-.661-.064,4.548,4.548,0,0,0-3.5,1.9,4.079,4.079,0,0,0-1,2.07,5.094,5.094,0,0,0-.549,3.58,7.728,7.728,0,0,0,2.794,4.064c-3.095,2.385-6.715,5.095-10.8,8.087-.021.014-.039.029-.059.043a12.945,12.945,0,0,0-1.918,1.752,4.718,4.718,0,0,0-1.168,2.331c-.846,1.693-1.592,4.875,2.188,8.033a7,7,0,0,0,4.594,1.694c2.131,0,4.362-.886,6.821-2.709,5.084-3.758,9.47-7.108,13.065-9.977.7.5,1.559,1.12,2.6,1.861,1.98,1.412,3.94,2.719,5.854,3.905q-.387.442-.748.875a30.7,30.7,0,0,0-5.829,9.915,20.2,20.2,0,0,0-1.534,6.762,15.671,15.671,0,0,0,5.939,13.173,19.223,19.223,0,0,0,12.7,4.2,34.37,34.37,0,0,0,6.418-.653,7.389,7.389,0,0,0,.925-.238,11.071,11.071,0,0,0,7.685,5.944,12.231,12.231,0,0,0,2.857.345,12.511,12.511,0,0,0,6.793-2.085,11.1,11.1,0,0,0,1.273,2.143,9.1,9.1,0,0,0,5.21,3.478,10.5,10.5,0,0,0,2.451.285,14.674,14.674,0,0,0,5.875-1.368,36.362,36.362,0,0,0,5.231-2.858q.177.424.37.8a6.4,6.4,0,0,0,5.817,3.841q.349,0,.715-.036a6.47,6.47,0,0,0,4.881-2.515,12.955,12.955,0,0,0,1.8-5.8,49.042,49.042,0,0,1,1.848-8.058,39.123,39.123,0,0,1,1.553-4.094,9.2,9.2,0,0,0,3.312,6.11,9.559,9.559,0,0,0,6.158,1.96c.493,0,1.01-.027,1.537-.079a14.149,14.149,0,0,0,6.645-2.435,22.534,22.534,0,0,0,2.1-1.617,24.056,24.056,0,0,0,4.387,6.186,6.717,6.717,0,0,0,4.612,1.978,7.208,7.208,0,0,0,6.535-4.741,12.953,12.953,0,0,0-.329-6.066,48.839,48.839,0,0,1-1.074-8.2,39.009,39.009,0,0,1,.03-4.378,9.2,9.2,0,0,0,5.23,4.575,8.442,8.442,0,0,0,2.664.424,11.93,11.93,0,0,0,5.205-1.341,14.132,14.132,0,0,0,5.381-4.595,22.089,22.089,0,0,0,2.579-4.765l.392.372a15.2,15.2,0,0,0,8.077,4.228,11.108,11.108,0,0,0,1.688.134,8.375,8.375,0,0,0,5.913-2.333,68.965,68.965,0,0,0,.087,7.09,32.945,32.945,0,0,0,2.11,10.439,19.46,19.46,0,0,0,4.5,6.641,10.358,10.358,0,0,0,7.249,3.055c.129,0,.257,0,.386-.007a10.5,10.5,0,0,0,7.4-3.539c3.767-3.994,4.454-9.518,2.045-16.42-2.085-5.972-6.027-12.987-11.727-20.863l2.528-15.225a7.11,7.11,0,0,0-.209-3.451,7.785,7.785,0,0,0-2.177-3.147,6.771,6.771,0,0,0-3.166-1.769,4.628,4.628,0,0,0-1-.112,4.165,4.165,0,0,0-.975.116,2.408,2.408,0,0,0-.255-.013,2.481,2.481,0,0,0-2.385,1.8c-.034.116-.07.255-.105.422a6.587,6.587,0,0,0-.606,1.745c-.006.024-.011.048-.015.072-.4,2.256-.768,4.622-1.106,7.074l-3.39-4.417c-5.721-7.69-7.232-9.41-7.906-10.047a4.146,4.146,0,0,0-2.877-1.222,3.823,3.823,0,0,0-.863.1,3.755,3.755,0,0,0-.409.119,2.439,2.439,0,0,0-.31-.019,2.473,2.473,0,0,0-1.635.614c-.236.207-.47.433-.711.69a12.854,12.854,0,0,0-2.468,5.358,8,8,0,0,0,1.394,4.9,84.559,84.559,0,0,1,5.2,9.6,33.106,33.106,0,0,1,2.064,5.716q-.744-.834-1.627-1.981c-1.089-1.415-2.211-2.927-3.332-4.493-.8-1.133-1.679-2.466-2.592-3.956l-.039-.061a21.975,21.975,0,0,0-2.635-3.655,4.334,4.334,0,0,0-3.014-1.274,4.165,4.165,0,0,0-.5.03,3.917,3.917,0,0,0-.706.16l-.091-.011a2.433,2.433,0,0,0-.27-.015,2.483,2.483,0,0,0-1.6.587,7.452,7.452,0,0,0-.624.6,7.606,7.606,0,0,0-2.166,3.57,6.634,6.634,0,0,0-.662,2.077,8.368,8.368,0,0,0,1.135,5.053,68.666,68.666,0,0,0,3.766,6.177,2.473,2.473,0,0,0-.479.754c-.017.042-.032.084-.047.127a12.352,12.352,0,0,1-2.108,4.119c-.14-.444-.349-1.166-.652-2.323a31.9,31.9,0,0,0-1.566-4.771c-1.682-3.441-4.145-4.163-5.914-4.163a6.7,6.7,0,0,0-.8.049,3.956,3.956,0,0,0-.766-.073,5.836,5.836,0,0,0-2.595.7,10.783,10.783,0,0,0-4.042,3.849,16.684,16.684,0,0,0-1.9,4.1q-.423,1.051-.776,2.251a9,9,0,0,0-.541-1.491,3.843,3.843,0,0,0-3.074-2.342,3.793,3.793,0,0,0-.4-.021,5.073,5.073,0,0,0-1.507.249,2.475,2.475,0,0,0-1.526.147c-.121.053-.259.116-.416.191a7.78,7.78,0,0,0-3.405,2.794,4.9,4.9,0,0,0-.56,1.451,7.924,7.924,0,0,0-.661,4.9c.022.149.046.3.069.446a6.154,6.154,0,0,0-6.3-4.321c-.278,0-.568.012-.863.037a6.8,6.8,0,0,0-.71-.036,7.642,7.642,0,0,0-.774.04,10.786,10.786,0,0,0-5.127,2.2,17.991,17.991,0,0,0-3.845,4.012,7.171,7.171,0,0,0-.022-.963,3.845,3.845,0,0,0-2.065-3.266,5.117,5.117,0,0,0-2.3-.462c-.326,0-.687.02-1.068.057l-.124.014a2.465,2.465,0,0,0-.568-.067c-.044,0-.087,0-.13,0-.138.007-.3.018-.477.036a7.739,7.739,0,0,0-4.152,1.435,5.531,5.531,0,0,0-1.824,3.06,9.134,9.134,0,0,0-.683,2.073,59.8,59.8,0,0,0-1.153,15.271c-.229.166-.456.329-.681.49h-.048a2.482,2.482,0,0,0-1.413.441c-1.433.991-2.609,1.74-3.5,2.226q-.3.162-.576.3a81.835,81.835,0,0,1,3.838-9.309,47.356,47.356,0,0,0,2.866-7.137,4.628,4.628,0,0,0-.95-4.228,6.785,6.785,0,0,0-3.693-2.006q-.709-.17-1.411-.287a4.477,4.477,0,0,0-3.961-3.569,17.456,17.456,0,0,0-4.072-.478q-.331,0-.661.012c-.117-.007-.235-.013-.353-.017a30.834,30.834,0,0,0,6.39-5.858,14.617,14.617,0,0,0,3.711-8.416,9.117,9.117,0,0,0-3.4-7.826,13.409,13.409,0,0,0-8.849-3.064c-.271,0-.545.007-.823.02-.242-.012-.487-.018-.737-.018a16.582,16.582,0,0,0-2.2.151,35.233,35.233,0,0,0-12.262,4.365,73.983,73.983,0,0,0-11.366,7.857c-1.31-.867-2.729-1.88-4.238-3.022l-3.141-2.361a93.049,93.049,0,0,0,9.544-9.475c3.262-3.9,4.884-7.414,4.957-10.727a11.04,11.04,0,0,0-4.353-8.982,21.414,21.414,0,0,0-10.427-4.592,29.392,29.392,0,0,0-4.758-.392Zm27.972,45.664c1.442-1.095,2.878-2.1,4.293-3a33.971,33.971,0,0,1,6.979-3.58c.2-.067.38-.123.547-.171a20.007,20.007,0,0,1-8.533,6.092,14.327,14.327,0,0,1-3.286.655Zm-12.108,25.809c-.309-.013-.645-.03-.9-.064a7.282,7.282,0,0,1-3.819-1.693,3.291,3.291,0,0,1-1.124-3.432c.218-1.333,1.233-3.827,4.836-8.143.913-1.093,1.841-2.147,2.77-3.146a34.747,34.747,0,0,0,10.142,1.636q1.075,0,2.125-.082a24.522,24.522,0,0,0-3.686,3.475,23.657,23.657,0,0,0-4.607,8.114,26.526,26.526,0,0,0-.991,2.982c-.427.065-.85.123-1.272.173a2.537,2.537,0,0,0-.59-.069,2.709,2.709,0,0,0-.349.023c-.875.117-1.706.191-2.536.226Zm72.949-5.342c.029-.471.084-1.178.188-2.227a45.571,45.571,0,0,0,.222-4.56c.388,1.876.876,3.762,1.459,5.638a2.487,2.487,0,0,0-1.2.6c-.228.205-.451.39-.669.553Zm-54.915,10.675a.386.386,0,0,1-.055-.088,2.827,2.827,0,0,1,.088-1.715,16.937,16.937,0,0,1,2.807-6.1,12.743,12.743,0,0,1,4.386-3.9c.193-.1.386-.189.575-.269l-3.248,7a11.739,11.739,0,0,1-3.065,4.18,5.524,5.524,0,0,1-1.487.889Zm126.253-5a11.888,11.888,0,0,1-2.13-4.806q-.192-.78-.333-1.667a28.718,28.718,0,0,1,1.85,4.127,14.667,14.667,0,0,1,.613,2.346Z" fill="#1cbde4"/>
            </g>
            <g id="Group_1435" data-name="Group 1435">
              <g id="Group_1432" data-name="Group 1432">
                <path id="Path_4029" data-name="Path 4029" d="M11972.58,2130.906a4.417,4.417,0,0,1-1.1,2.145,6.728,6.728,0,0,1-3.869,2.523q-10.937,2.1-17.06-3.017a13.248,13.248,0,0,1-5.05-11.175q.252-6.747,6.644-14.4,1.55-1.859,3.268-3.58a100.937,100.937,0,0,1-8.694-5.59q-3.025-2.154-4.109-2.967-5.75,4.663-14.474,11.111-5.12,3.8-8.345,1.1-3.5-2.923-.851-6.092a12.7,12.7,0,0,1,1.917-1.74q8.109-5.938,13.542-10.219l-2.717-2.081a5.674,5.674,0,0,1-2.1-2.82,3.151,3.151,0,0,1,.893-2.735,4.19,4.19,0,0,1,3.252-1.784,7.713,7.713,0,0,1,4.243,1.919l2.988,2.31a91.7,91.7,0,0,0,11.236-10.568q2.145-2.568,2.156-4.138a3.249,3.249,0,0,0-1.247-2.618q-3.828-3.2-13.979-.816a2.61,2.61,0,0,1-2.362-.4,2.1,2.1,0,0,1-.719-1.806,3.76,3.76,0,0,1,.96-2.261,8.239,8.239,0,0,1,4.379-2.467,25.721,25.721,0,0,1,10.657-.426,18.872,18.872,0,0,1,9.237,4.047,8.637,8.637,0,0,1,3.464,7.021q-.092,4.053-4.381,9.192a102.029,102.029,0,0,1-11.583,11.206l5.585,4.2a73.868,73.868,0,0,0,6.36,4.383,73.954,73.954,0,0,1,12.41-8.752,34.722,34.722,0,0,1,12.151-4.328q5.745-.771,9.463,2.334a6.608,6.608,0,0,1,2.516,5.766,12.161,12.161,0,0,1-3.139,6.981q-11.322,13.56-29.534,7.258-1.991,2.052-3.953,4.4-4.792,5.74-5.379,9.332a5.756,5.756,0,0,0,1.982,5.738,9.776,9.776,0,0,0,5.081,2.248,25.133,25.133,0,0,0,7.564-.5,2.5,2.5,0,0,1,2.115.467A1.648,1.648,0,0,1,11972.58,2130.906Zm13.561-38.689a36.152,36.152,0,0,0-7.518,3.837,72.909,72.909,0,0,0-8.806,6.657,17.242,17.242,0,0,0,10.741.247q4.86-1.6,9.244-6.848a4.887,4.887,0,0,0,1.206-2.334,1.653,1.653,0,0,0-.5-1.622Q11989.307,2091.147,11986.141,2092.217Z" fill="url(#linear-gradient)"/>
                <path id="Path_4030" data-name="Path 4030" d="M11971.166,2136.54a12.8,12.8,0,0,1-.6-8.787,23.151,23.151,0,0,1,5.085-9.875,22.513,22.513,0,0,1,8.736-6.323,15.817,15.817,0,0,1,9.762-.838,2.773,2.773,0,0,1,1.9,1.08,5.128,5.128,0,0,1,.357,2.32,16.818,16.818,0,0,1,3.114.455q3.391.816,2.81,3.241a53.515,53.515,0,0,1-2.7,6.675,69,69,0,0,0-4.258,10.7,2.58,2.58,0,0,0,.119,1.786,1.727,1.727,0,0,0,1.2.949,5.407,5.407,0,0,0,3.593-.931,60.86,60.86,0,0,0,6.38-4.289,2.5,2.5,0,0,1,2.1-.519,1.643,1.643,0,0,1,1.22,1.172,4.416,4.416,0,0,1-.03,2.41,6.553,6.553,0,0,1-2.349,3.977,35.952,35.952,0,0,1-7.457,4.506,10.565,10.565,0,0,1-6.745.941,6.648,6.648,0,0,1-3.815-2.566,9.764,9.764,0,0,1-1.849-4.95q-5,4.952-10.471,3.635A8.655,8.655,0,0,1,11971.166,2136.54Zm13.622-2.73a12.018,12.018,0,0,0,3.157-4.3l5.627-12.126a8.641,8.641,0,0,0-5.892.891,15.119,15.119,0,0,0-5.253,4.633,19.32,19.32,0,0,0-3.22,6.99,5.055,5.055,0,0,0,.1,3.4,3.026,3.026,0,0,0,2.141,1.613A3.907,3.907,0,0,0,11984.788,2133.81Z" fill="url(#linear-gradient)"/>
                <path id="Path_4031" data-name="Path 4031" d="M12008.966,2143.341q-1.381-2.726-2-8.963a57.991,57.991,0,0,1,.879-17.766,5.365,5.365,0,0,1,1.791-3.22,7.4,7.4,0,0,1,3.98-1.362,4.021,4.021,0,0,1,2.02.157,1.473,1.473,0,0,1,.7,1.29,27.207,27.207,0,0,1-.555,5.207q-.428,2.907-.642,5.075a51.18,51.18,0,0,0-.186,5.315,40.473,40.473,0,0,1,4.257-10.444,20.657,20.657,0,0,1,5.161-6.025,10.424,10.424,0,0,1,4.977-2.141q4.605-.459,5.065,4.147a35.713,35.713,0,0,1-.194,4.529,26.308,26.308,0,0,0-.214,3.6q.248,2.481,2.02,2.3,1.982-.195,4.792-3.626a2.733,2.733,0,0,1,1.821-1.112,1.666,1.666,0,0,1,1.534.67,3.919,3.919,0,0,1,.746,2.109,5.743,5.743,0,0,1-1.008,4.252,19.222,19.222,0,0,1-4.292,3.97,11.619,11.619,0,0,1-5.49,2.014,7.849,7.849,0,0,1-5.9-1.346,6.95,6.95,0,0,1-2.465-4.979,11.032,11.032,0,0,1,0-2.147c0-.954-.015-1.6-.049-1.928-.073-.755-.373-1.108-.892-1.056q-1.062.105-2.563,2.652a33.477,33.477,0,0,0-2.812,6.615,51.215,51.215,0,0,0-1.946,8.5,11.118,11.118,0,0,1-1.358,4.68,4.1,4.1,0,0,1-3.108,1.491A3.894,3.894,0,0,1,12008.966,2143.341Z" fill="url(#linear-gradient)"/>
                <path id="Path_4032" data-name="Path 4032" d="M12049.186,2136.1q-2.243-2.073-5-7.705a57.94,57.94,0,0,1-5.361-16.961,5.363,5.363,0,0,1,.557-3.642,7.409,7.409,0,0,1,3.257-2.662,4.021,4.021,0,0,1,1.948-.556,1.472,1.472,0,0,1,1.106.965,27.135,27.135,0,0,1,1.293,5.076q.612,2.873,1.167,4.98a51.111,51.111,0,0,0,1.675,5.046,40.529,40.529,0,0,1,.354-11.272,20.66,20.66,0,0,1,2.742-7.445,10.434,10.434,0,0,1,3.919-3.74q4.159-2.034,6.192,2.125a35.53,35.53,0,0,1,1.395,4.312,26.125,26.125,0,0,0,1.054,3.449q1.1,2.242,2.694,1.458,1.79-.876,3.23-5.068a2.731,2.731,0,0,1,1.32-1.677,1.663,1.663,0,0,1,1.672.095,3.929,3.929,0,0,1,1.434,1.717,5.741,5.741,0,0,1,.535,4.336,19.261,19.261,0,0,1-2.642,5.217,11.646,11.646,0,0,1-4.445,3.8,7.861,7.861,0,0,1-6,.791,6.952,6.952,0,0,1-4.044-3.81,10.816,10.816,0,0,1-.747-2.013q-.5-1.343-.716-1.791-.5-1.021-1.205-.679-.958.469-1.479,3.379a33.559,33.559,0,0,0-.334,7.18,51.083,51.083,0,0,0,1.135,8.642,11.111,11.111,0,0,1,.354,4.861,4.1,4.1,0,0,1-2.395,2.479A3.89,3.89,0,0,1,12049.186,2136.1Z" fill="url(#linear-gradient)"/>
                <path id="Path_4033" data-name="Path 4033" d="M12102.9,2078.445a4.333,4.333,0,0,1,2,1.151,5.475,5.475,0,0,1,1.522,2.123,4.647,4.647,0,0,1,.117,2.263l-2.7,16.252q8.867,12.086,12,21.062t-1.507,13.9a8.067,8.067,0,0,1-5.687,2.761,7.878,7.878,0,0,1-5.84-2.374,16.918,16.918,0,0,1-3.923-5.8,30.923,30.923,0,0,1-1.92-9.642,94.362,94.362,0,0,1,.549-15.686l-1.045-1.279q-1.575-2.169-4.71-6.009a18.122,18.122,0,0,1,2.938,8.253,7.5,7.5,0,0,1-1.771,5.77,6.119,6.119,0,0,1-5.742,1.78,12.711,12.711,0,0,1-6.756-3.581,62.122,62.122,0,0,1-6.636-7.237,61.378,61.378,0,0,1-5.252-8.184,5.962,5.962,0,0,1-.86-3.553,7.041,7.041,0,0,1,2.112-3.588,3.514,3.514,0,0,1,1.854-1.238,1.832,1.832,0,0,1,1.5.586,29.714,29.714,0,0,1,2.26,3.209q1.428,2.327,2.689,4.1,1.733,2.421,3.384,4.562a28.813,28.813,0,0,0,2.893,3.316q1.972,1.859,3,.769.734-.779.279-3.409a31.477,31.477,0,0,0-2.37-6.934,86.68,86.68,0,0,0-5.354-9.9,4.624,4.624,0,0,1,.715-6.57,4.351,4.351,0,0,1,1.874-1.365,1.583,1.583,0,0,1,1.477.511q1.3,1.222,7.642,9.752l7.071,9.215q.757-6.822,1.838-12.952a3.231,3.231,0,0,1,.709-1.582A1.639,1.639,0,0,1,12102.9,2078.445Zm6.678,45.7q-1.493-4.44-6.97-12.643a40.472,40.472,0,0,0,.689,11.568q1.087,4.4,3.159,6.356a3.867,3.867,0,0,0,1.769,1.031,1.635,1.635,0,0,0,1.62-.577Q12111.07,2128.589,12109.581,2124.149Z" fill="url(#linear-gradient)"/>
              </g>
              <g id="Group_1433" data-name="Group 1433">
                <path id="Path_4034" data-name="Path 4034" d="M11994.677,2137.856a3.906,3.906,0,0,1-2.63-2.09,4.684,4.684,0,0,1-.283-3.248,69.929,69.929,0,0,1,4.4-11.1,48.368,48.368,0,0,0,2.563-6.272.721.721,0,0,0,.026-.172h0a4.253,4.253,0,0,0-1.24-.467,14.548,14.548,0,0,0-2.712-.4,2.158,2.158,0,0,1-2.055-2.181,5.9,5.9,0,0,0-.068-1.111,3.808,3.808,0,0,0-.538-.166,13.583,13.583,0,0,0-8.456.745,20.465,20.465,0,0,0-7.9,5.73,21.114,21.114,0,0,0-4.619,8.967,10.642,10.642,0,0,0,.439,7.34h0a6.546,6.546,0,0,0,4.669,3.608c2.894.7,5.657-.307,8.447-3.069a2.158,2.158,0,0,1,3.664,1.3,7.569,7.569,0,0,0,1.423,3.878,4.516,4.516,0,0,0,2.6,1.774,8.538,8.538,0,0,0,5.371-.819,33.2,33.2,0,0,0,6.091-3.57q-.182-1.025-.333-2.181c-1.458,1.009-2.708,1.81-3.719,2.363C11997.788,2137.828,11996.108,2138.2,11994.677,2137.856Zm-6.285-9.594a14.179,14.179,0,0,1-3.759,5.067,6.515,6.515,0,0,1-4.062,1.655,4.889,4.889,0,0,1-1.138-.135,5.172,5.172,0,0,1-3.57-2.757,7,7,0,0,1-.264-4.853,21.565,21.565,0,0,1,3.579-7.764,17.321,17.321,0,0,1,6.007-5.276,10.755,10.755,0,0,1,7.33-1.081,2.158,2.158,0,0,1,1.5,3.019Z" fill="#751c04"/>
                <path id="Path_4035" data-name="Path 4035" d="M12031.5,2123.817a5.206,5.206,0,0,1-1.153-3.025,22.891,22.891,0,0,1,.216-4.026,32.1,32.1,0,0,0,.192-4.1,2.022,2.022,0,0,0-2.7-2.214,8.412,8.412,0,0,0-3.925,1.742,18.7,18.7,0,0,0-4.586,5.4,38.5,38.5,0,0,0-4.015,9.887,2.159,2.159,0,0,1-4.24-.551,52.966,52.966,0,0,1,.2-5.546c.144-1.469.363-3.211.651-5.177a40.3,40.3,0,0,0,.543-4.22c-.1,0-.223.013-.359.027a5.5,5.5,0,0,0-2.832.891,3.254,3.254,0,0,0-1.037,1.976,56.085,56.085,0,0,0-.848,17.12c.48,4.825,1.232,7.123,1.779,8.2h0c.657,1.3,1.317,1.342,1.937,1.285a2.326,2.326,0,0,0,1.566-.6c.14-.194.622-1.039.974-3.7a53.754,53.754,0,0,1,2.031-8.878,35.721,35.721,0,0,1,3.008-7.047c.956-1.625,2.3-3.514,4.209-3.705a2.826,2.826,0,0,1,2.476.98,3.6,3.6,0,0,1,.778,2.011c.041.411.059,1.072.059,2.141,0,.071,0,.141-.01.212a8.591,8.591,0,0,0,0,1.721,4.849,4.849,0,0,0,1.667,3.51,5.877,5.877,0,0,0,4.331.881,9.4,9.4,0,0,0,4.484-1.648,17.706,17.706,0,0,0,2.821-2.391q-.458-1.032-.876-2.071a7.358,7.358,0,0,1-4.108,2.129A3.685,3.685,0,0,1,12031.5,2123.817Z" fill="#751c04"/>
                <path id="Path_4036" data-name="Path 4036" d="M11960.533,2129.327a11.947,11.947,0,0,1-6.182-2.73,7.909,7.909,0,0,1-2.728-7.744c.457-2.806,2.372-6.2,5.852-10.366,1.336-1.6,2.7-3.12,4.062-4.521a2.158,2.158,0,0,1,2.254-.536c11.31,3.91,20.2,1.751,27.173-6.6a10.151,10.151,0,0,0,2.642-5.732,4.47,4.47,0,0,0-1.745-3.974c-2.013-1.681-4.563-2.289-7.793-1.852a32.756,32.756,0,0,0-11.39,4.075,72.065,72.065,0,0,0-12.047,8.5,2.155,2.155,0,0,1-2.523.217,76.146,76.146,0,0,1-6.552-4.511l-5.581-4.2a2.159,2.159,0,0,1-.105-3.365,100.358,100.358,0,0,0,11.33-10.949c2.524-3.024,3.83-5.668,3.88-7.858a6.53,6.53,0,0,0-2.689-5.315,16.836,16.836,0,0,0-8.2-3.575,23.706,23.706,0,0,0-9.771.388,6.2,6.2,0,0,0-3.257,1.76,1.543,1.543,0,0,0-.46.964c0,.025,0,.045,0,.062a1.646,1.646,0,0,0,.447-.053c7.522-1.761,12.707-1.351,15.839,1.264a5.4,5.4,0,0,1,2.021,4.286c-.012,1.6-.856,3.353-2.658,5.511a92.712,92.712,0,0,1-11.514,10.844,2.157,2.157,0,0,1-2.7.047l-2.987-2.31c-1.729-1.314-2.639-1.465-2.948-1.468h-.012a2.255,2.255,0,0,0-1.56,1.008,1.452,1.452,0,0,0-.444.877c.023.1.2.651,1.377,1.639l2.646,2.025a2.156,2.156,0,0,1,.022,3.407c-3.624,2.857-8.2,6.312-13.6,10.266a10.38,10.38,0,0,0-1.535,1.382c-.763.914-1.135,1.621.579,3.052.525.439,1.921,1.6,5.675-1.181,5.76-4.258,10.6-7.977,14.4-11.055a2.159,2.159,0,0,1,2.654-.049q1.072.8,4.066,2.936a99.429,99.429,0,0,0,8.507,5.47,2.158,2.158,0,0,1,.463,3.4c-1.093,1.1-2.148,2.253-3.139,3.439-3.927,4.7-5.994,9.112-6.143,13.1a11.1,11.1,0,0,0,4.275,9.438c3.542,2.957,8.68,3.816,15.27,2.555a3.245,3.245,0,0,0,.811-.287,15.253,15.253,0,0,1-.091-1.819A22.493,22.493,0,0,1,11960.533,2129.327Zm6.354-30.4a75.212,75.212,0,0,1,9.068-6.853,37.927,37.927,0,0,1,7.986-4.062c1.064-.358,4.311-1.454,6.441.327a3.753,3.753,0,0,1,1.251,3.586,6.886,6.886,0,0,1-1.685,3.409c-3.17,3.8-6.61,6.325-10.227,7.515a17.17,17.17,0,0,1-5.4.848,22.2,22.2,0,0,1-6.659-1.086,2.158,2.158,0,0,1-.773-3.684Z" fill="#751c04"/>
                <path id="Path_4037" data-name="Path 4037" d="M12067.62,2109.307a3.684,3.684,0,0,1-3.449-.014,5.209,5.209,0,0,1-2.133-2.435,22.8,22.8,0,0,1-1.2-3.848,31.952,31.952,0,0,0-1.247-3.914c-.832-1.7-1.6-1.968-3.3-1.134a8.424,8.424,0,0,0-3.073,3,18.712,18.712,0,0,0-2.418,6.663,38.577,38.577,0,0,0-.322,10.665,2.158,2.158,0,0,1-4.166.96,53.413,53.413,0,0,1-1.747-5.267c-.376-1.431-.776-3.14-1.189-5.079a40.819,40.819,0,0,0-.962-4.146c-.1.041-.2.09-.325.149a5.523,5.523,0,0,0-2.348,1.821,3.268,3.268,0,0,0-.282,2.214,56.078,56.078,0,0,0,5.166,16.344c2.13,4.357,3.635,6.248,4.521,7.067v0c1.067.987,1.7.8,2.263.531.411-.2,1.125-.615,1.26-1.109.062-.229.222-1.19-.377-3.811a53.666,53.666,0,0,1-1.187-9.029,35.8,35.8,0,0,1,.367-7.653c.33-1.857.933-4.1,2.655-4.939a2.993,2.993,0,0,1,4.091,1.67c.116.236.322.695.8,1.988.024.066.045.133.063.2a8.754,8.754,0,0,0,.6,1.614,4.863,4.863,0,0,0,2.788,2.712,5.865,5.865,0,0,0,4.365-.683,9.42,9.42,0,0,0,3.631-3.107,17.19,17.19,0,0,0,2.351-4.635,3.5,3.5,0,0,0-.315-2.468c-.184-.213-.372-.426-.55-.639v0C12070.764,2106.437,12069.39,2108.441,12067.62,2109.307Z" fill="#751c04"/>
                <path id="Path_4038" data-name="Path 4038" d="M12112.3,2119.846c-2.007-5.751-5.945-12.647-11.7-20.5a2.158,2.158,0,0,1-.39-1.63l2.7-16.252a2.581,2.581,0,0,0-.035-1.232,3.444,3.444,0,0,0-.956-1.231,3,3,0,0,0-.7-.51c-.02.072-.043.158-.063.263-.7,3.948-1.308,8.261-1.807,12.751a2.158,2.158,0,0,1-3.856,1.076l-7.072-9.215c-4.724-6.348-6.5-8.522-7.174-9.252-.131.115-.311.281-.535.52a3.6,3.6,0,0,0-1.166,1.913,3.736,3.736,0,0,0,.716,2.041,89.4,89.4,0,0,1,5.49,10.153,33.1,33.1,0,0,1,2.523,7.444c.274,1.586.485,3.856-.834,5.256-.59.626-2.765,2.418-6.047-.678a30.734,30.734,0,0,1-3.123-3.57c-1.12-1.456-2.272-3.01-3.427-4.622-.875-1.231-1.806-2.651-2.775-4.23-1.053-1.607-1.557-2.311-1.784-2.61a5.176,5.176,0,0,0-.421.406,4.986,4.986,0,0,0-1.544,2.39,4.031,4.031,0,0,0,.621,2.248,54.939,54.939,0,0,0,11.469,14.873,10.668,10.668,0,0,0,5.605,3.018,4,4,0,0,0,3.84-1.127,5.425,5.425,0,0,0,1.187-4.184,16.149,16.149,0,0,0-2.629-7.243,2.158,2.158,0,0,1,3.519-2.482c2.071,2.535,3.668,4.572,4.748,6.057l1.007,1.232a2.163,2.163,0,0,1,.477,1.586,92.456,92.456,0,0,0-.543,15.313,29.034,29.034,0,0,0,1.753,8.951,14.851,14.851,0,0,0,3.418,5.078,5.728,5.728,0,0,0,4.275,1.786,5.936,5.936,0,0,0,4.2-2.084C12113.775,2128.883,12114.116,2125.053,12112.3,2119.846Zm-2.388,9.358a3.849,3.849,0,0,1-2.823,1.3,3.777,3.777,0,0,1-.844-.1,5.985,5.985,0,0,1-2.772-1.565c-1.707-1.609-2.94-4.033-3.773-7.409a42.7,42.7,0,0,1-.751-12.2,2.158,2.158,0,0,1,3.949-1.08c3.794,5.679,6.155,9.981,7.222,13.154h0C12110.933,2123.735,12111.8,2127.2,12109.909,2129.2Z" fill="#751c04"/>
              </g>
              <g id="Group_1434" data-name="Group 1434">
                <path id="Path_4039" data-name="Path 4039" d="M11992.309,2140.485a5.492,5.492,0,0,1-3.7-2.946,6.262,6.262,0,0,1-.407-4.343,71.16,71.16,0,0,1,4.5-11.4c1.084-2.4,1.693-3.866,2.035-4.748-.315-.066-.627-.12-.937-.163a3.732,3.732,0,0,1-.3.989l-5.626,12.125-.006.011a18.932,18.932,0,0,1-1.895,3.2,3.8,3.8,0,0,1,2.025,2.948,6.013,6.013,0,0,0,1.1,3.073,2.927,2.927,0,0,0,1.691,1.18,4.617,4.617,0,0,0,1.542.082l-.023-.006Z" fill="#ffde55"/>
                <path id="Path_4040" data-name="Path 4040" d="M11972.423,2133.865a8.527,8.527,0,0,1-.386-5.949,23.161,23.161,0,0,1,3.848-8.343,19.172,19.172,0,0,1,5.975-5.436,18.993,18.993,0,0,0-6.849,5.107,19.527,19.527,0,0,0-4.269,8.286,9.113,9.113,0,0,0,.323,6.255,4.956,4.956,0,0,0,3.591,2.743c.069.017.139.031.209.046A6.561,6.561,0,0,1,11972.423,2133.865Z" fill="#ffde55"/>
                <path id="Path_4041" data-name="Path 4041" d="M12007.679,2128a54.658,54.658,0,0,1,.205-5.719c.146-1.491.368-3.258.661-5.253.131-.8.23-1.454.3-1.993a1.464,1.464,0,0,0-.329.18,1.94,1.94,0,0,0-.474,1.045,54.548,54.548,0,0,0-.821,16.636c.479,4.817,1.216,6.848,1.611,7.63a2.118,2.118,0,0,0,.26.413l.085-.008a2.787,2.787,0,0,0,.466-.079,12.239,12.239,0,0,0,.617-2.826,57.125,57.125,0,0,1,1.259-6.281,4.665,4.665,0,0,1-.563-.034A3.791,3.791,0,0,1,12007.679,2128Z" fill="#ffde55"/>
                <path id="Path_4042" data-name="Path 4042" d="M12028.295,2125.939a6.758,6.758,0,0,1-1.546-3.93,23.877,23.877,0,0,1,.215-4.347,34.151,34.151,0,0,0,.192-3.786.612.612,0,0,0-.929-.76,6.987,6.987,0,0,0-3.14,1.443,12.773,12.773,0,0,0-2.471,2.487c.111-.019.224-.035.339-.046.159-.015.318-.024.475-.024a4.4,4.4,0,0,1,3.4,1.569,5.182,5.182,0,0,1,1.153,2.9c.048.472.067,1.161.067,2.3,0,.122-.007.245-.018.368a7.089,7.089,0,0,0,0,1.4,3.18,3.18,0,0,0,1.069,2.409,4.487,4.487,0,0,0,3.16.532,7.694,7.694,0,0,0,2.694-.765.47.47,0,0,1-.054.006A5.318,5.318,0,0,1,12028.295,2125.939Z" fill="#ffde55"/>
                <path id="Path_4043" data-name="Path 4043" d="M11948.038,2119.648c.5-3.1,2.536-6.745,6.208-11.142,1.361-1.632,2.754-3.183,4.141-4.612a3.8,3.8,0,0,1,3.945-.939c.179.062.357.122.534.181a3.682,3.682,0,0,1-.244-.756,3.778,3.778,0,0,1,1.212-3.619,76.948,76.948,0,0,1,9.264-7,50.2,50.2,0,0,1,5.181-2.927,36.372,36.372,0,0,0-6.8,2.98,70.452,70.452,0,0,0-11.774,8.308,3.768,3.768,0,0,1-4.419.378l-.063-.038a3.744,3.744,0,0,1,.442,1.321,3.8,3.8,0,0,1-1.069,3.179c-1.06,1.063-2.084,2.184-3.041,3.332-3.692,4.422-5.634,8.5-5.769,12.122a9.458,9.458,0,0,0,3.7,8.135,11.561,11.561,0,0,0,5.12,2.392,13.892,13.892,0,0,1-3.271-2.049A9.568,9.568,0,0,1,11948.038,2119.648Z" fill="#ffde55"/>
                <path id="Path_4044" data-name="Path 4044" d="M11941.509,2088.8a3.757,3.757,0,0,1,1.319-2.987,98.772,98.772,0,0,0,11.14-10.757c2.252-2.7,3.464-5.067,3.5-6.857a4.953,4.953,0,0,0-2.108-4.036,14.028,14.028,0,0,0-4.418-2.464,10.077,10.077,0,0,1,1.086.79,7.06,7.06,0,0,1,2.6,5.537c-.016,2-.979,4.078-3.034,6.538a94.366,94.366,0,0,1-11.723,11.054,3.755,3.755,0,0,1-4.724.08l-2.987-2.309a6.4,6.4,0,0,0-1.887-1.1,1.693,1.693,0,0,0-.187.165,6.907,6.907,0,0,0,.517.47l2.591,1.982a3.778,3.778,0,0,1,.041,5.965c-3.65,2.876-8.242,6.342-13.648,10.3a8.589,8.589,0,0,0-1.249,1.114c-.084.1-.143.175-.186.233a4.27,4.27,0,0,0,.559.539c.779.651,2.429-.314,3.674-1.239,5.739-4.242,10.564-7.946,14.345-11.011a3.854,3.854,0,0,1,4.646-.087q1.059.8,4.033,2.912,1.085.773,2.154,1.5l-4.557-3.426A3.758,3.758,0,0,1,11941.509,2088.8Z" fill="#ffde55"/>
                <path id="Path_4045" data-name="Path 4045" d="M12066.343,2111.817a5.333,5.333,0,0,1-4.93-.045,6.758,6.758,0,0,1-2.818-3.148,23.861,23.861,0,0,1-1.312-4.147,33.875,33.875,0,0,0-1.139-3.62,3.185,3.185,0,0,0-.4-.668,3.118,3.118,0,0,0-.731.282,6.989,6.989,0,0,0-2.439,2.446,12.715,12.715,0,0,0-1.45,3.191c.1-.057.2-.11.3-.161a4.605,4.605,0,0,1,2-.463,4.7,4.7,0,0,1,4.252,2.876c.141.287.365.788.865,2.137.04.107.078.227.11.348a7.226,7.226,0,0,0,.487,1.318,3.19,3.19,0,0,0,1.846,1.888,4.468,4.468,0,0,0,3.142-.6,7.721,7.721,0,0,0,2.259-1.654l-.044.022Z" fill="#ffde55"/>
                <path id="Path_4046" data-name="Path 4046" d="M12047.711,2123.054a3.677,3.677,0,0,1-.528.164,3.793,3.793,0,0,1-4.378-2.335,54.617,54.617,0,0,1-1.8-5.432c-.384-1.456-.79-3.191-1.209-5.153-.154-.793-.291-1.444-.409-1.976a1.384,1.384,0,0,0-.248.286,1.945,1.945,0,0,0-.076,1.143,54.49,54.49,0,0,0,5.021,15.88c2.126,4.349,3.522,5.995,4.166,6.589a2.093,2.093,0,0,0,.388.3c.025-.01.048-.023.072-.035a2.831,2.831,0,0,0,.413-.241,12.193,12.193,0,0,0-.4-2.861A56.726,56.726,0,0,1,12047.711,2123.054Z" fill="#ffde55"/>
                <path id="Path_4047" data-name="Path 4047" d="M12078.287,2103a32.042,32.042,0,0,1-3.295-3.759c-1.146-1.488-2.31-3.058-3.46-4.667-.9-1.261-1.851-2.716-2.839-4.326-.2-.311-.387-.586-.549-.829a1.948,1.948,0,0,0-.226.431,3.294,3.294,0,0,0,.451,1.219,57.846,57.846,0,0,0,4.918,7.668,58.744,58.744,0,0,0,6.235,6.795,9.1,9.1,0,0,0,4.743,2.595,2.38,2.38,0,0,0,2.415-.638,3.951,3.951,0,0,0,.746-2.993,8.536,8.536,0,0,0-.242-1.6,4.924,4.924,0,0,1-.562.72,5.073,5.073,0,0,1-2.976,1.551C12081.863,2105.4,12080.062,2104.674,12078.287,2103Z" fill="#ffde55"/>
                <path id="Path_4048" data-name="Path 4048" d="M12097.776,2103.73q-.174,1.686-.3,3.267a3.727,3.727,0,0,1,.641-.24,3.826,3.826,0,0,1,1-.132,3.779,3.779,0,0,1,2.475.921q-1.935-2.977-4.287-6.182a3.8,3.8,0,0,1-.681-2.853l.483-2.916a3.784,3.784,0,0,1-4.891-.969l-7.071-9.215c-3.076-4.134-4.87-6.45-5.913-7.749-.025.048-.044.086-.057.113a3.493,3.493,0,0,0,.471,1.02,91.132,91.132,0,0,1,5.593,10.347c.561,1.26,1.034,2.422,1.425,3.495a3.8,3.8,0,0,1,4.53,1.029c2.089,2.556,3.7,4.618,4.8,6.128l.951,1.16A3.806,3.806,0,0,1,12097.776,2103.73Z" fill="#ffde55"/>
              </g>
            </g>
          </g>
        </g>
        <g id="Group_1438" data-name="Group 1438">
          <g id="Rectangle_418" data-name="Rectangle 418" transform="translate(12106.088 2066.235) rotate(32.011)" fill="none" stroke="#707070" stroke-miterlimit="10" stroke-width="2">
            <rect width="9.307" height="15.689" rx="3.75" stroke="none"/>
            <rect x="1" y="1" width="7.307" height="13.689" rx="2.75" fill="none"/>
          </g>
          <g id="Rectangle_419" data-name="Rectangle 419" transform="translate(12112.329 2055.079) rotate(30)" fill="none" stroke="#707070" stroke-miterlimit="10" stroke-width="2">
            <rect width="9.307" height="15.689" rx="3.75" stroke="none"/>
            <rect x="1" y="1" width="7.307" height="13.689" rx="2.75" fill="none"/>
          </g>
          <g id="Rectangle_420" data-name="Rectangle 420" transform="translate(12117.062 2044.464) rotate(25.117)" fill="none" stroke="#707070" stroke-miterlimit="10" stroke-width="2">
            <rect width="9.307" height="15.689" rx="3.75" stroke="none"/>
            <rect x="1" y="1" width="7.307" height="13.689" rx="2.75" fill="none"/>
          </g>
        </g>
        <g id="Group_1439" data-name="Group 1439">
          <g id="Rectangle_421" data-name="Rectangle 421" transform="translate(11934.116 2080.744) rotate(147.989)" fill="none" stroke="#707070" stroke-miterlimit="10" stroke-width="2">
            <rect width="9.307" height="15.689" rx="3.75" stroke="none"/>
            <rect x="1" y="1" width="7.307" height="13.689" rx="2.75" fill="none"/>
          </g>
          <g id="Rectangle_422" data-name="Rectangle 422" transform="translate(11927.174 2070.336) rotate(150)" fill="none" stroke="#707070" stroke-miterlimit="10" stroke-width="2">
            <rect width="9.307" height="15.689" rx="3.75" stroke="none"/>
            <rect x="1" y="1" width="7.307" height="13.689" rx="2.75" fill="none"/>
          </g>
          <g id="Rectangle_423" data-name="Rectangle 423" transform="translate(11920.484 2061.139) rotate(169.416)" fill="none" stroke="#707070" stroke-miterlimit="10" stroke-width="2">
            <rect width="9.307" height="15.689" rx="3.75" stroke="none"/>
            <rect x="1" y="1" width="7.307" height="13.689" rx="2.75" fill="none"/>
          </g>
        </g>
      </g>
    </g>
    <path id="Path_4049" data-name="Path 4049" d="M11385.022,2075.225c-27.012,8.164-53.578,19.055-76.095,36.063-43.131,32.581-68.187,87.694-64.387,141.614s36.346,104.971,83.622,131.178c24.365,13.507,51.771,20.55,79.175,25.567a607.024,607.024,0,0,0,101.945,9.873c9.815.119,19.994-.08,28.869-4.276,7.546-3.569,13.514-9.744,18.953-16.077,45.269-52.719,64.425-123.071,73.037-192.025C11650.285,2045.88,11504.583,2039.09,11385.022,2075.225Z" transform="translate(-10600 -1280)" fill="#c7efa8"/>
    <path id="Path_4050" data-name="Path 4050" d="M12431.687,1838.993c27.849,40.117,83.153,58.613,129.623,43.6a112.265,112.265,0,0,0,26.319-12.534c23.281-15.02,41.258-38.376,49.023-65.016,5.153-17.684,6.006-36.373,4.978-54.764-.855-15.326-3.261-31.282-12.244-43.73C12552.246,1599.644,12349.659,1720.82,12431.687,1838.993Z" transform="translate(-10600 -1280)" fill="#fcd42d"/>
    <path id="Path_4051" data-name="Path 4051" d="M11427.013,1401.228c38.753,55.829,115.72,81.569,180.389,60.675a156.318,156.318,0,0,0,36.626-17.443c32.4-20.9,57.418-53.406,68.224-90.48,7.172-24.609,8.358-50.619,6.928-76.211-1.191-21.329-4.539-43.534-17.039-60.857C11594.788,1068.139,11312.858,1236.773,11427.013,1401.228Z" transform="translate(-10600 -1280)" fill="#1abee5"/>
    <text id="THE_GOAT" data-name="THE GOAT" transform="translate(1277.211 977.304)" fill="#141414" font-size="67.432" font-family="Panton-Bold, Panton" font-weight="700" letter-spacing="-0.04em"><tspan x="0" y="0">THE GOAT</tspan></text>
    <g id="Group_1442" data-name="Group 1442" transform="translate(-10600 -1280)">
      <g id="Rectangle_424" data-name="Rectangle 424" transform="translate(12106.027 2066.207) rotate(32.011)" fill="none" stroke="#707070" stroke-miterlimit="10" stroke-width="2">
        <rect width="9.307" height="15.689" rx="3.75" stroke="none"/>
        <rect x="1" y="1" width="7.307" height="13.689" rx="2.75" fill="none"/>
      </g>
      <g id="Rectangle_425" data-name="Rectangle 425" transform="translate(12112.269 2055.051) rotate(30)" fill="none" stroke="#707070" stroke-miterlimit="10" stroke-width="2">
        <rect width="9.307" height="15.689" rx="3.75" stroke="none"/>
        <rect x="1" y="1" width="7.307" height="13.689" rx="2.75" fill="none"/>
      </g>
      <g id="Rectangle_426" data-name="Rectangle 426" transform="translate(12117.001 2044.436) rotate(25.117)" fill="none" stroke="#707070" stroke-miterlimit="10" stroke-width="2">
        <rect width="9.307" height="15.689" rx="3.75" stroke="none"/>
        <rect x="1" y="1" width="7.307" height="13.689" rx="2.75" fill="none"/>
      </g>
    </g>
    <rect id="Rectangle_427" data-name="Rectangle 427" width="1971" height="1138" transform="translate(-25.5 -29)" fill="none"/>
  </g>
</svg>
