<svg xmlns="http://www.w3.org/2000/svg" width="2398.556" height="1488.09" viewBox="0 0 2398.556 1488.09">
  <g id="Group_1722" data-name="Group 1722" transform="translate(286.914 155.636)">
    <path id="Path_4052" data-name="Path 4052" d="M9353.242,1296.19c24.118,42.91,38.077,90.76,48.893,138.781,13.142,58.34,22.7,119.551,55.964,169.249,11.06,16.523,24.894,31.665,42.367,41.15,13.806,7.493,29.32,11.179,44.727,14.239,37.633,7.473,76.509,11.671,114.337,5.255s74.768-24.4,98.186-54.793,31.022-74.06,13.578-108.233c-16.016-31.374-49.222-50.054-82.205-62.423s-68.034-20.5-97.844-39.271a158.607,158.607,0,0,1-69.8-100.134c-8.851-41.823-1.175-88.707-24.156-124.754-16.148-25.33-45.069-40.237-74.479-46.359s-59.791-4.563-89.818-3.69c-21.07.613-43.314,1.2-61.237,12.3-13.963,8.647-24.895,27.724-21.713,44.592,3,15.9,15.385,20.268,27.843,28.925C9309.39,1232.918,9334.513,1262.867,9353.242,1296.19Z" transform="translate(-8480 -1280)" fill="#fcd42d"/>
    <path id="Path_4053" data-name="Path 4053" d="M9031.183,2423.072c-47.4-13.289-91.1-37.253-132.707-63.56-50.544-31.961-100.587-68.484-159.249-80.1-19.5-3.864-39.992-4.789-59.055.86-15.061,4.463-28.637,12.828-41.7,21.558-31.895,21.326-62.353,45.847-84.563,77.132s-35.616,70.123-30.685,108.172,30.433,74.305,66.932,86.134c33.51,10.86,70.2.588,102.268-13.988s62.606-33.609,96.955-41.417a158.6,158.6,0,0,1,120.16,21.451c35.831,23.315,63.556,61.894,105.295,71.133,29.33,6.493,60.321-3.417,85.445-19.884s45.506-39.052,66.121-60.9c14.466-15.332,29.778-31.477,34.6-52,3.759-15.987-2-37.207-16.178-46.884-13.362-9.12-25.211-3.453-40.141-.766C9106.93,2436.8,9067.989,2433.391,9031.183,2423.072Z" transform="translate(-8480 -1280)" fill="#fcd42d"/>
    <path id="Path_4054" data-name="Path 4054" d="M8693.559,1927.588c-121.576,22.206-144.606-32.762-214.88-58.792-26.473-9.806-55.5-18.3-82.282-9.426-32.979,10.928-57.517,39.123-89.265,53.437-77.5,34.945-110.043-16.138-114.046-10.147q31.988-122.244,63.975-244.487c2.518-9.615,5.584-20.057,13.568-25.616,6.123-4.262,16.25,27.023,23.491,28.486,188.229,38.032,214.047-90.842,321.278-67.431C8887.829,1653.092,8775.353,1912.649,8693.559,1927.588Z" transform="translate(-8480 -1280)" fill="#c4c4c4"/>
    <path id="Path_4055" data-name="Path 4055" d="M10291.911,1443.82c37.229-16.879,70.244-47.341,111.077-49.236,24.559-1.139,48.552,8.511,73.137,8.313,39.508-.318,74.03-25.516,104.422-50.76,5.444-4.522,11.343-10.118,11.087-17.19-.179-4.936-3.391-9.186-6.6-12.946-38.416-45.067-94.43-70.952-150.028-91.343a1208.3,1208.3,0,0,0-125.425-38.414c-9.326-2.31-19.172-4.505-28.419-1.9-11.831,3.337-20.1,13.73-27.381,23.635a1265.405,1265.405,0,0,0-70.536,106.854c-15.421,26.151-49.323,68.615-43.262,101.164C10150.485,1478.378,10256.43,1459.906,10291.911,1443.82Z" transform="translate(-8480 -1280)" fill="#fdf5c9"/>
    <g id="Group_1453" data-name="Group 1453" transform="translate(-8480 -1280)">
      <path id="Path_4072" data-name="Path 4072" d="M9356.429,2403.142c-.49-7.233-.827-14.52-.827-21.781,0-16.631,1.764-33.116,7.407-48.523a84.255,84.255,0,0,1,18.676-29.891c8.229-8.362,18.264-14.592,29.6-17.216a68.089,68.089,0,0,1,15.411-1.616c16.56-.014,33.872,4.547,50.7,4.562a61.393,61.393,0,0,0,23.112-4c12.43-4.987,21.963-14.621,31.9-22.844,24.044-19.953,53.508-33.952,84.51-36.9,4.728-.449,9.728-.687,14.883-.687a158.969,158.969,0,0,1,44.117,6.038c14.222,4.194,27.09,10.748,36.152,20.069,6.166,6.333,11.987,15.594,16.238,26.505a101.163,101.163,0,0,1,6.95,36.408c-.011,21.238-7.212,43.456-26.673,61.475-23.215,21.5-57.012,29.573-88.976,30.5l.085,2.9c32.361-.957,66.837-9.068,90.857-31.273,20.1-18.592,27.613-41.724,27.6-63.6a104.084,104.084,0,0,0-7.147-37.46c-4.38-11.226-10.357-20.784-16.861-27.473-9.554-9.813-22.866-16.532-37.408-20.827a161.876,161.876,0,0,0-44.937-6.156c-5.245,0-10.335.241-15.156.7-31.7,3.014-61.663,17.285-86.087,37.548-10.062,8.367-19.428,17.723-31.119,22.384a58.55,58.55,0,0,1-22.038,3.8c-16.312.014-33.631-4.549-50.7-4.563a70.957,70.957,0,0,0-16.064,1.69c-11.962,2.77-22.469,9.321-31.014,18.007a87.112,87.112,0,0,0-19.33,30.926c-5.807,15.855-7.583,32.688-7.584,49.519,0,7.35.339,14.7.834,21.977l2.889-.2Z" fill="#23af5b"/>
      <path id="Path_4073" data-name="Path 4073" d="M9382.83,2360.658a42.142,42.142,0,0,1,29.263-33.11,64.5,64.5,0,0,1,17.892-2.038c3,0,6.021.092,9.04.172q9.828.251,19.658.25,9.157,0,18.31-.217c8.99-.217,18.131-.594,27.042-2.73,11.186-2.685,21.255-7.932,30.976-13.819s19.106-12.428,28.9-17.779a150.947,150.947,0,0,1,54.257-17.363,88.909,88.909,0,0,1,10.528-.706,43.2,43.2,0,0,1,15.311,2.477c8.267,3.1,15.088,9.509,20.555,16.744,9.445,12.485,15.295,28,15.29,43.478a59.581,59.581,0,0,1-.709,9.217c-2.867,18.4-15.568,35.522-33.025,41.576l.952,2.736c18.644-6.512,31.891-24.494,34.935-43.864a62.3,62.3,0,0,0,.744-9.665c0-16.213-6.091-32.282-15.876-45.226-5.665-7.485-12.837-14.31-21.844-17.706a46.046,46.046,0,0,0-16.332-2.663,91.618,91.618,0,0,0-10.873.727,153.849,153.849,0,0,0-55.3,17.7c-9.982,5.456-19.4,12.02-29.017,17.844s-19.42,10.907-30.15,13.48c-8.544,2.051-17.48,2.438-26.436,2.65q-9.119.216-18.24.217-9.792,0-19.584-.25c-3.01-.079-6.058-.171-9.114-.171a67.239,67.239,0,0,0-18.691,2.149,45.009,45.009,0,0,0-31.324,35.442l2.861.453Z" fill="#23af5b"/>
      <path id="Path_4074" data-name="Path 4074" d="M9431.411,2362a67.568,67.568,0,0,1,47.156-19.49c.367,0,.729,0,1.086.012h.011c8.188.138,16.482,1.786,24.816,3.424s16.711,3.261,25.1,3.264a51.825,51.825,0,0,0,13.405-1.651c8.733-2.335,16.317-7.16,24.141-10.767a96.681,96.681,0,0,1,33.553-8.654c1.391-.1,2.8-.159,4.222-.159a36.6,36.6,0,0,1,10.9,1.475,18.607,18.607,0,0,1,8.624,5.379c3.289,3.757,4.536,8.731,4.538,14.06a45.834,45.834,0,0,1-1.4,10.676c-1.925,7.928-5.208,15.714-11.109,20.88a29.062,29.062,0,0,1-11.682,6.1,52.406,52.406,0,0,1-13.817,1.628,139.127,139.127,0,0,1-16.3-1.194l-.343,2.876a141.731,141.731,0,0,0,16.639,1.214,55.227,55.227,0,0,0,14.584-1.731,31.962,31.962,0,0,0,12.825-6.718c6.584-5.79,10.01-14.161,12.014-22.372a48.688,48.688,0,0,0,1.482-11.361c0-5.754-1.352-11.5-5.254-15.966a21.5,21.5,0,0,0-9.934-6.235,39.375,39.375,0,0,0-11.775-1.608c-1.5,0-2.979.061-4.43.165a99.566,99.566,0,0,0-34.56,8.915c-8.049,3.733-15.506,8.433-23.671,10.6a48.971,48.971,0,0,1-12.66,1.554c-8.008,0-16.211-1.572-24.54-3.21s-16.783-3.329-25.325-3.478h.011c-.392-.01-.777-.011-1.156-.011a70.442,70.442,0,0,0-49.2,20.335l2.046,2.05Z" fill="#23af5b"/>
    </g>
    <rect id="Rectangle_430" data-name="Rectangle 430" width="1974.857" height="1141.623" transform="translate(-23.484 -32.077)" fill="none"/>
  </g>
</svg>
