<svg xmlns="http://www.w3.org/2000/svg" width="1598.685" height="473.713" viewBox="0 0 1598.685 473.713">
  <g id="Group_1729" data-name="Group 1729" transform="translate(-105.264 -505.148)">
    <path id="Path_3464" data-name="Path 3464" d="M12857.413,3066.648l9.472,19.191,21.179,3.077-15.325,14.938,3.617,21.093-18.942-9.959-18.942,9.959,3.618-21.093-15.325-14.938,21.179-3.077Z" transform="translate(-12720 -2560)" fill="#fcd42d" stroke="#050505" stroke-linecap="round" stroke-linejoin="round" stroke-width="3"/>
    <g id="Group_1213" data-name="Group 1213" transform="translate(-12720 -2560)">
      <path id="Path_3465" data-name="Path 3465" d="M12893.827,3250.5l6.039,12.236,13.5,1.962-9.771,9.525,2.307,13.449-12.078-6.35-12.078,6.35,2.307-13.449-9.771-9.525,13.5-1.962Z" fill="#fcd42d" stroke="#050505" stroke-linecap="round" stroke-linejoin="round" stroke-width="3"/>
      <path id="Path_3466" data-name="Path 3466" d="M12951.529,3250.5l6.039,12.236,13.5,1.962-9.771,9.525,2.307,13.449-12.077-6.35-12.078,6.35,2.307-13.449-9.771-9.525,13.5-1.962Z" fill="#fcd42d" stroke="#050505" stroke-linecap="round" stroke-linejoin="round" stroke-width="3"/>
      <path id="Path_3467" data-name="Path 3467" d="M13009.23,3250.5l6.039,12.236,13.5,1.962-9.771,9.525,2.307,13.449-12.078-6.35-12.077,6.35,2.307-13.449-9.771-9.525,13.5-1.962Z" fill="#fcd42d" stroke="#050505" stroke-linecap="round" stroke-linejoin="round" stroke-width="3"/>
      <path id="Path_3468" data-name="Path 3468" d="M13066.933,3250.5l6.039,12.236,13.5,1.962-9.771,9.525,2.307,13.449-12.078-6.35-12.078,6.35,2.308-13.449-9.771-9.525,13.5-1.962Z" fill="#fcd42d" stroke="#050505" stroke-linecap="round" stroke-linejoin="round" stroke-width="3"/>
      <path id="Path_3469" data-name="Path 3469" d="M13124.635,3250.5l6.039,12.236,13.5,1.962-9.771,9.525,2.307,13.449-12.078-6.35-12.078,6.35,2.307-13.449-9.771-9.525,13.5-1.962Z" fill="#fcd42d" stroke="#050505" stroke-linecap="round" stroke-linejoin="round" stroke-width="3"/>
    </g>
    <g id="Group_1214" data-name="Group 1214" transform="translate(-12720 -2560)">
      <path id="Path_3470" data-name="Path 3470" d="M12893.827,3312.926l6.039,12.236,13.5,1.962-9.771,9.525,2.307,13.449-12.078-6.35-12.078,6.35,2.307-13.449-9.771-9.525,13.5-1.962Z" fill="#fcd42d" stroke="#050505" stroke-linecap="round" stroke-linejoin="round" stroke-width="3"/>
      <path id="Path_3471" data-name="Path 3471" d="M12951.529,3312.926l6.039,12.236,13.5,1.962-9.771,9.525,2.307,13.449-12.077-6.35-12.078,6.35,2.307-13.449-9.771-9.525,13.5-1.962Z" fill="#fcd42d" stroke="#050505" stroke-linecap="round" stroke-linejoin="round" stroke-width="3"/>
      <path id="Path_3472" data-name="Path 3472" d="M13009.23,3312.926l6.039,12.236,13.5,1.962-9.771,9.525,2.307,13.449-12.078-6.35-12.077,6.35,2.307-13.449-9.771-9.525,13.5-1.962Z" fill="#fcd42d" stroke="#050505" stroke-linecap="round" stroke-linejoin="round" stroke-width="3"/>
      <path id="Path_3473" data-name="Path 3473" d="M13066.933,3312.926l6.039,12.236,13.5,1.962-9.771,9.525,2.307,13.449-12.078-6.35-12.078,6.35,2.308-13.449-9.771-9.525,13.5-1.962Z" fill="#fcd42d" stroke="#050505" stroke-linecap="round" stroke-linejoin="round" stroke-width="3"/>
      <path id="Path_3474" data-name="Path 3474" d="M13124.635,3312.926l6.039,12.236,13.5,1.962-9.771,9.525,2.307,13.449-12.078-6.35-12.078,6.35,2.307-13.449-9.771-9.525,13.5-1.962Z" fill="none" stroke="#050505" stroke-linecap="round" stroke-linejoin="round" stroke-width="3"/>
    </g>
    <g id="Group_1215" data-name="Group 1215" transform="translate(-12720 -2560)">
      <path id="Path_3475" data-name="Path 3475" d="M12893.827,3375.347l6.039,12.236,13.5,1.962-9.771,9.525,2.307,13.449-12.078-6.35-12.078,6.35,2.307-13.449-9.771-9.525,13.5-1.962Z" fill="#fcd42d" stroke="#050505" stroke-linecap="round" stroke-linejoin="round" stroke-width="3"/>
      <path id="Path_3476" data-name="Path 3476" d="M12951.529,3375.347l6.039,12.236,13.5,1.962-9.771,9.525,2.307,13.449-12.077-6.35-12.078,6.35,2.307-13.449-9.771-9.525,13.5-1.962Z" fill="#fcd42d" stroke="#050505" stroke-linecap="round" stroke-linejoin="round" stroke-width="3"/>
      <path id="Path_3477" data-name="Path 3477" d="M13009.23,3375.347l6.039,12.236,13.5,1.962-9.771,9.525,2.307,13.449-12.078-6.35-12.077,6.35,2.307-13.449-9.771-9.525,13.5-1.962Z" fill="#fcd42d" stroke="#050505" stroke-linecap="round" stroke-linejoin="round" stroke-width="3"/>
      <path id="Path_3478" data-name="Path 3478" d="M13066.933,3375.347l6.039,12.236,13.5,1.962-9.771,9.525,2.307,13.449-12.078-6.35-12.078,6.35,2.308-13.449-9.771-9.525,13.5-1.962Z" fill="none" stroke="#050505" stroke-linecap="round" stroke-linejoin="round" stroke-width="3"/>
      <path id="Path_3479" data-name="Path 3479" d="M13124.635,3375.347l6.039,12.236,13.5,1.962-9.771,9.525,2.307,13.449-12.078-6.35-12.078,6.35,2.307-13.449-9.771-9.525,13.5-1.962Z" fill="none" stroke="#050505" stroke-linecap="round" stroke-linejoin="round" stroke-width="3"/>
    </g>
    <g id="Group_1216" data-name="Group 1216" transform="translate(-12720 -2560)">
      <path id="Path_3480" data-name="Path 3480" d="M12893.827,3437.768l6.039,12.236,13.5,1.962-9.771,9.525,2.307,13.449-12.078-6.35-12.078,6.35,2.307-13.449-9.771-9.525,13.5-1.962Z" fill="#fcd42d" stroke="#050505" stroke-linecap="round" stroke-linejoin="round" stroke-width="3"/>
      <path id="Path_3481" data-name="Path 3481" d="M12951.529,3437.768l6.039,12.236,13.5,1.962-9.771,9.525,2.307,13.449-12.077-6.35-12.078,6.35,2.307-13.449-9.771-9.525,13.5-1.962Z" fill="#fcd42d" stroke="#050505" stroke-linecap="round" stroke-linejoin="round" stroke-width="3"/>
      <path id="Path_3482" data-name="Path 3482" d="M13009.23,3437.768l6.039,12.236,13.5,1.962-9.771,9.525,2.307,13.449-12.078-6.35-12.077,6.35,2.307-13.449-9.771-9.525,13.5-1.962Z" fill="none" stroke="#050505" stroke-linecap="round" stroke-linejoin="round" stroke-width="3"/>
      <path id="Path_3483" data-name="Path 3483" d="M13066.933,3437.768l6.039,12.236,13.5,1.962-9.771,9.525,2.307,13.449-12.078-6.35-12.078,6.35,2.308-13.449-9.771-9.525,13.5-1.962Z" fill="none" stroke="#050505" stroke-linecap="round" stroke-linejoin="round" stroke-width="3"/>
      <path id="Path_3484" data-name="Path 3484" d="M13124.635,3437.768l6.039,12.236,13.5,1.962-9.771,9.525,2.307,13.449-12.078-6.35-12.078,6.35,2.307-13.449-9.771-9.525,13.5-1.962Z" fill="none" stroke="#050505" stroke-linecap="round" stroke-linejoin="round" stroke-width="3"/>
    </g>
    <g id="Group_1217" data-name="Group 1217" transform="translate(-12720 -2560)">
      <path id="Path_3485" data-name="Path 3485" d="M12893.827,3500.188l6.039,12.236,13.5,1.962-9.771,9.525,2.307,13.449-12.078-6.35-12.078,6.35,2.307-13.449-9.771-9.525,13.5-1.962Z" fill="#fcd42d" stroke="#050505" stroke-linecap="round" stroke-linejoin="round" stroke-width="3"/>
      <path id="Path_3486" data-name="Path 3486" d="M12951.529,3500.188l6.039,12.236,13.5,1.962-9.771,9.525,2.307,13.449-12.077-6.35-12.078,6.35,2.307-13.449-9.771-9.525,13.5-1.962Z" fill="none" stroke="#050505" stroke-linecap="round" stroke-linejoin="round" stroke-width="3"/>
      <path id="Path_3487" data-name="Path 3487" d="M13009.23,3500.188l6.039,12.236,13.5,1.962-9.771,9.525,2.307,13.449-12.078-6.35-12.077,6.35,2.307-13.449-9.771-9.525,13.5-1.962Z" fill="none" stroke="#050505" stroke-linecap="round" stroke-linejoin="round" stroke-width="3"/>
      <path id="Path_3488" data-name="Path 3488" d="M13066.933,3500.188l6.039,12.236,13.5,1.962-9.771,9.525,2.307,13.449-12.078-6.35-12.078,6.35,2.308-13.449-9.771-9.525,13.5-1.962Z" fill="none" stroke="#050505" stroke-linecap="round" stroke-linejoin="round" stroke-width="3"/>
      <path id="Path_3489" data-name="Path 3489" d="M13124.635,3500.188l6.039,12.236,13.5,1.962-9.771,9.525,2.307,13.449-12.078-6.35-12.078,6.35,2.307-13.449-9.771-9.525,13.5-1.962Z" fill="none" stroke="#050505" stroke-linecap="round" stroke-linejoin="round" stroke-width="3"/>
    </g>
    <g id="Group_1218" data-name="Group 1218" transform="translate(-12720 -2560)">
      <path id="Path_3490" data-name="Path 3490" d="M13515.665,3136.6l8.615,17.455,19.263,2.8-13.938,13.587,3.29,19.185-17.229-9.058-17.229,9.058,3.29-19.185-13.938-13.587,19.263-2.8Z" fill="#fcd42d" stroke="#050505" stroke-linecap="round" stroke-linejoin="round" stroke-width="3"/>
      <path id="Path_3491" data-name="Path 3491" d="M13597.977,3136.6l8.615,17.455,19.263,2.8-13.938,13.587,3.29,19.185-17.229-9.058-17.229,9.058,3.29-19.185-13.938-13.587,19.263-2.8Z" fill="#fcd42d" stroke="#050505" stroke-linecap="round" stroke-linejoin="round" stroke-width="3"/>
      <path id="Path_3492" data-name="Path 3492" d="M13680.288,3136.6l8.615,17.455,19.263,2.8-13.938,13.587,3.29,19.185-17.229-9.058-17.229,9.058,3.29-19.185-13.938-13.587,19.263-2.8Z" fill="#fcd42d" stroke="#050505" stroke-linecap="round" stroke-linejoin="round" stroke-width="3"/>
      <path id="Path_3493" data-name="Path 3493" d="M13762.6,3136.6l8.615,17.455,19.263,2.8-13.938,13.587,3.29,19.185-17.229-9.058-17.229,9.058,3.29-19.185-13.938-13.587,19.263-2.8Z" fill="#fcd42d" stroke="#050505" stroke-linecap="round" stroke-linejoin="round" stroke-width="3"/>
      <path id="Path_3494" data-name="Path 3494" d="M13844.911,3136.6l8.615,17.455,19.263,2.8-13.938,13.587,3.29,19.185-17.229-9.058-17.229,9.058,3.29-19.185-13.938-13.587,19.263-2.8Z" fill="#fcd42d" stroke="#050505" stroke-linecap="round" stroke-linejoin="round" stroke-width="3"/>
    </g>
    <g id="Group_1220" data-name="Group 1220" transform="translate(-12720 -2560)">
      <path id="Path_3495" data-name="Path 3495" d="M14065.325,3136.6l8.614,17.455,19.263,2.8-13.938,13.587,3.291,19.185-17.229-9.058-17.229,9.058,3.291-19.185-13.939-13.587,19.264-2.8Z" fill="#fcd42d" stroke="#050505" stroke-linecap="round" stroke-linejoin="round" stroke-width="3"/>
      <path id="Path_3496" data-name="Path 3496" d="M14147.637,3136.6l8.614,17.455,19.263,2.8-13.938,13.587,3.291,19.185-17.229-9.058-17.229,9.058,3.291-19.185-13.939-13.587,19.264-2.8Z" fill="#fcd42d" stroke="#050505" stroke-linecap="round" stroke-linejoin="round" stroke-width="3"/>
      <path id="Path_3497" data-name="Path 3497" d="M14229.948,3136.6l8.614,17.455,19.263,2.8-13.938,13.587,3.291,19.185-17.229-9.058-17.229,9.058,3.291-19.185-13.938-13.587,19.263-2.8Z" fill="#fcd42d" stroke="#050505" stroke-linecap="round" stroke-linejoin="round" stroke-width="3"/>
      <path id="Path_3498" data-name="Path 3498" d="M14312.26,3136.6l8.614,17.455,19.263,2.8-13.938,13.587,3.291,19.185-17.229-9.058-17.229,9.058,3.291-19.185-13.938-13.587,19.263-2.8Z" fill="#fcd42d" stroke="#050505" stroke-linecap="round" stroke-linejoin="round" stroke-width="3"/>
      <path id="Path_3499" data-name="Path 3499" d="M14394.571,3136.6l8.614,17.455,19.263,2.8-13.938,13.587,3.291,19.185-17.229-9.058-17.229,9.058,3.291-19.185-13.938-13.587,19.263-2.8Z" fill="#fcd42d" stroke="#050505" stroke-linecap="round" stroke-linejoin="round" stroke-width="3"/>
    </g>
  </g>
</svg>
