<svg xmlns="http://www.w3.org/2000/svg" width="1465.644" height="471.165" viewBox="0 0 1465.644 471.165">
  <g id="Group_1742" data-name="Group 1742" transform="translate(-120.681 -425.94)">
    <rect id="Rectangle_310" data-name="Rectangle 310" width="761.392" height="471.165" rx="48.087" transform="translate(120.681 425.94)" fill="#ff6a29"/>
    <g id="Group_1230" data-name="Group 1230" transform="translate(-10600 -2560)">
      <circle id="Ellipse_234" data-name="Ellipse 234" cx="31.957" cy="31.957" r="31.957" transform="translate(11780.62 3011.281)" fill="none" stroke="#000" stroke-miterlimit="10" stroke-width="4"/>
      <path id="Path_3517" data-name="Path 3517" d="M11802.933,3041.8a34.547,34.547,0,0,1,2.915-2.612c5.279-4.661,6.967-10.75,8.072-16.613a3.036,3.036,0,0,1,2.984,1.563,42.637,42.637,0,0,1,7.48,20.843c.395,5.554-.8,11.7-6.769,15.445a32.053,32.053,0,0,1-9.489,3.519c-.858-3.18,1.681-6.256,3.166-9.324,1.733-3.578,2.059-7.4,2.371-11.161-.944,2.327-5.993,12.493-10.52,10.95C11798.893,3052.966,11801.106,3043.854,11802.933,3041.8Z"/>
    </g>
    <g id="Group_1231" data-name="Group 1231" transform="translate(-10600 -2560)">
      <circle id="Ellipse_235" data-name="Ellipse 235" cx="31.957" cy="31.957" r="31.957" transform="translate(11895.648 3011.281)" fill="none" stroke="#000" stroke-miterlimit="10" stroke-width="4"/>
    </g>
    <g id="Group_1232" data-name="Group 1232" transform="translate(-10600 -2560)">
      <circle id="Ellipse_236" data-name="Ellipse 236" cx="31.957" cy="31.957" r="31.957" transform="translate(12005.316 3011.281)" fill="none" stroke="#000" stroke-miterlimit="10" stroke-width="4"/>
    </g>
    <g id="Group_1234" data-name="Group 1234" transform="translate(-10600 -2560)">
      <text id="GF" transform="translate(12153.367 3054.526)" font-size="30.899" font-family="BebasNeue-Bold, Bebas Neue" font-weight="700" letter-spacing="0.02em"><tspan x="-11.649" y="0">GF</tspan></text>
      <g id="Group_1233" data-name="Group 1233">
        <circle id="Ellipse_237" data-name="Ellipse 237" cx="31.957" cy="31.957" r="31.957" transform="translate(12120.411 3011.281)" fill="none" stroke="#000" stroke-miterlimit="10" stroke-width="4"/>
      </g>
    </g>
    <path id="Path_3518" data-name="Path 3518" d="M11942.133,3035.748a8.006,8.006,0,0,0-6.6-4.71,13.423,13.423,0,0,1-15.864,0,8,8,0,0,0-6.595,4.709,10.211,10.211,0,0,0,.735,10.216c3.857,5.7,12.8,14.67,13.182,15.048a.861.861,0,0,0,1.222,0c.379-.378,9.324-9.344,13.182-15.048A10.216,10.216,0,0,0,11942.133,3035.748Zm-14.527,23.424a154.557,154.557,0,0,1-11.27-12.662h4.654a.866.866,0,0,0,.747-.43l1.611-2.773,3.459,8.349a.866.866,0,0,0,.8.534l.062,0a.868.868,0,0,0,.776-.649l2.832-11.121,2.139,5.54a.862.862,0,0,0,.806.553h4.654A154.659,154.659,0,0,1,11927.605,3059.172Z" transform="translate(-10600 -2560)"/>
    <path id="Path_3519" data-name="Path 3519" d="M12034.9,3036.441c1.709-3.385,3.226-7.195,6.479-9.141a4.186,4.186,0,0,1,4.031-.449,4.127,4.127,0,0,1,1.45,1.482c1.823,2.892,1.725,6.551,1.564,9.966a16.218,16.218,0,0,1-2.711,7.04c-4.8,6.186-10.6,9.84-18.36,8.823-4.858-.637-8.961-6.983-.082-10.513C12031.05,3042.147,12032.914,3040.37,12034.9,3036.441Z" transform="translate(-10600 -2560)"/>
    <path id="Path_3520" data-name="Path 3520" d="M12022.057,3055.015c.16,2.924,2.738,5.313,5.587,5.991a13.728,13.728,0,0,0,8.541-1.226,26.993,26.993,0,0,0,11.769-10,17.766,17.766,0,0,0,3.089-8.836,6.243,6.243,0,0,0-.62-3.282c-1.367-2.456-4.691-2.813-7.5-2.876a5.089,5.089,0,0,0-1.891.194c-1.485.548-2.1,2.258-2.687,3.729,1.028-2.589-1.932,7.76-8,10.421C12027.142,3050.53,12021.756,3049.547,12022.057,3055.015Z" transform="translate(-10600 -2560)" fill="none" stroke="#000" stroke-miterlimit="10" stroke-width="2"/>
    <text transform="translate(1517.153 474.48)" font-size="10" font-family="ArialMT, Arial"/>  </g>
</svg>
