<svg xmlns="http://www.w3.org/2000/svg" xmlns:xlink="http://www.w3.org/1999/xlink" width="2059.821" height="1240.529" viewBox="0 0 2059.821 1240.529">
  <defs>
    <linearGradient id="linear-gradient" x1="0.5" y1="1.216" x2="0.5" y2="0.604" gradientUnits="objectBoundingBox">
      <stop offset="0.291" stop-color="#fff"/>
      <stop offset="0.619" stop-color="#f9f9f9"/>
      <stop offset="1" stop-color="#ebebeb"/>
    </linearGradient>
  </defs>
  <g id="Group_1736" data-name="Group 1736" transform="translate(25.428 136.172)">
    <g id="Group_270" data-name="Group 270" transform="translate(-2120 -5120)">
      <path id="Path_824" data-name="Path 824" d="M2977.865,6200.834c53.471,0,85.841-67.131,54.414-114.934q-.993-1.51-2.05-2.979c-19.217-26.707-48.381-36.276-74.21-51.181-7.137-4.119-14.316-8.929-19.3-16.674-6.939-10.784-8.6-25.863-7.169-39.73,6-58.024,57.611-93.791,65.941-151.34,6.3-43.535-15.436-87.741-44.882-110.783s-65.035-28.835-99.488-30.637-69.388-.2-102.924-10.506c-8.843-2.716-18-6.625-24.013-15.387-6.814-9.933-8.245-24.295-7.162-37.46,2.922-35.489,68.881-157.5,35.846-197.769-13.006-15.852-30.651-24.427-48.405-22.245s-34.336,12.178-49.881,23.406c-32.851,23.724-147.43,181-188.657,204.767-40.517,23.36-87.053,16.491-131.458,15.368s-93.759,6.992-122.781,50.165c-10.28,15.29-17.377,35.887-13.925,55.595,2.154,12.3,8.16,22.933,14.981,32,15.58,20.7,35.894,34.974,50.63,56.668s22.515,56.135,8.655,78.762c-5.377,8.779-13.2,14.427-20.854,19.721-42.835,29.612-90.894,60-109.6,117.667-9.555,29.447-9.373,61.914-2.28,92.476,7.517,32.384,33.929,55.034,64.183,55.034Z" fill="#c2ebec"/>
      <path id="Path_825" data-name="Path 825" d="M3030.229,6082.921c-19.217-26.707-48.381-36.276-74.21-51.181-7.138-4.119-14.316-8.929-19.3-16.674-6.939-10.784-8.6-25.863-7.169-39.73,6-58.024,57.611-93.791,65.941-151.34,6.3-43.535-15.436-87.741-44.882-110.783s-65.035-28.836-99.488-30.637-69.388-.2-102.924-10.506c-8.843-2.716-18-6.625-24.013-15.387-6.814-9.933-8.245-24.295-7.162-37.46,2.922-35.488,68.881-157.5,35.846-197.769-11.291-13.762-26.079-22.028-41.4-22.543,20.873,6.958,36.136,21.585,25.024,51.557-25.661,69.213-263.79,299.5-96.484,322.153s-109.826,205.12,16.423,217.7c96.306,9.6-101.256,147.919-200.049,210.509h521.482c53.471,0,85.841-67.131,54.414-114.934Q3031.286,6084.39,3030.229,6082.921Z" fill="#c2ebec"/>
      <path id="Path_826" data-name="Path 826" d="M2271.28,5590.412s173.4,73.181,250.51-97.886S2125.743,5526.853,2271.28,5590.412Z" fill="#1abee5"/>
      <path id="Path_827" data-name="Path 827" d="M2484.331,5426.024c12.287,10,14.724,28.038,1.881,56.531-54.553,121.028-157.29,119.8-212.735,108.724,20.236,7.716,176.282,61.052,248.313-98.753C2543.094,5445.261,2522.383,5426.744,2484.331,5426.024Z" fill="#1abee5"/>
    </g>
    <g id="Group_288" data-name="Group 288" transform="translate(-2120 -5120)">
      <rect id="Rectangle_162" data-name="Rectangle 162" width="46.679" height="190.418" transform="translate(2500.111 5978.432)" fill="#fbd32c"/>
      <rect id="Rectangle_163" data-name="Rectangle 163" width="46.679" height="190.418" transform="translate(2597.433 5978.432)" fill="#fbd32c"/>
      <g id="Group_279" data-name="Group 279">
        <path id="Path_844" data-name="Path 844" d="M2479.858,5807.313c9.622-54.52,19.215-111.354,28.935-165.856.633-3.55-.173-5.122-3.544-6.778-11.656-5.727-19.4-15.053-22.149-27.827a46.682,46.682,0,0,1,.042-17.357c.593-3.529-.283-4.357-3.205-5.339-6.378-2.143-12.867-3.987-18.382-8.272-10.279-7.984-17.671-17.64-20.171-30.746a55.7,55.7,0,0,1-.131-18.592c.57-3.97,1.826-4.559,5.36-2.51a101.731,101.731,0,0,0,53.872,14.113,105.922,105.922,0,0,0,33.345-6.176c1.977-.694,1.97-1.472,1.544-3.375-1.1-4.9-4.2-8.6-6.778-12.61-6.63-10.3-16.9-13.391-28.3-13.959-13.574-.676-27.1.961-40.66,1.081-12.6.111-25.009-.729-36.931-5.364-17.59-6.838-28.229-19.952-34.193-37.374-1.058-3.091-1.771-6.31-2.788-9.384-1.09-3.294-.393-5.876,2.313-7.084s4.931.494,6.539,3.135a79.809,79.809,0,0,0,14.452,17.774c9.949,9.024,21.754,11.5,34.752,9.923,18.249-2.218,35.846-7.821,54.143-9.971,30.45-3.577,57.327,10.167,71.708,37.5.707,1.343,1.455,2.665,2.538,4.643,4.814-9.322,10.081-17.574,17.326-24.46,15.9-15.114,35.074-19.625,56.322-17.805,15.484,1.327,30.37,5.778,45.584,8.5,12.621,2.261,25.218,3.439,36.948-3.523,9.178-5.447,15.42-13.717,21.079-22.5.89-1.383,1.541-3,3.338-3.52,3.128-.9,6.241,2.156,5.51,5.856-4.922,24.908-19.273,44.631-45.948,50.986-15.152,3.609-30.485,2.549-45.824,1.843-10.6-.487-21.224-1.234-31.782.819-8.557,1.665-14.955,6.342-19.641,13.554a89.381,89.381,0,0,0-6.239,11.879c-.842,1.852-.475,2.68,1.411,3.353a102.608,102.608,0,0,0,87.611-8.075c3.066-1.81,4.192-1.207,4.948,2.376,5.265,24.959-12.524,51.973-37.7,57.258-5.383,1.129-5.134,1.089-4.282,6.386,2.222,13.822-.6,26-11.1,36.186a50.624,50.624,0,0,1-13.172,9.723c-2.453,1.185-1.589,2.962-1.314,4.563,2.531,14.74,5.144,29.466,7.74,44.194q9.12,51.746,18.244,103.492c1.133,6.437,2.063,12.914,3.386,19.31Zm59.088-145.262c0,7.816.032,15.633-.024,23.45-.014,1.87.074,3.148,2.568,3.1,7.3-.135,14.608-.039,21.912-.061.974,0,2.507.226,2.435-1.146-.219-4.163,1.465-8.539-2.332-12.283-4.272-4.214-7.974-9-11.961-13.51-2.612-2.951-3.526-6.185-1.842-9.9,1.652-3.647,4.655-4.725,8.457-4.685q13.838.145,27.679,0c3.781-.045,6.857.9,8.513,4.564,1.731,3.831.822,7.184-1.926,10.239-3.339,3.714-6.31,7.807-9.946,11.192-3.758,3.5-4.731,7.467-4.418,12.323.158,2.437.652,3.349,3.231,3.288q10.182-.242,20.372,0c2.668.068,3.481-.7,3.459-3.421q-.186-23.064,0-46.13c.02-2.446-.892-3.451-2.954-4.556-13.7-7.344-21.221-18.875-22.424-34.379-.53-6.841-1.04-7.5-8-7.366-1.52.03-3.03.446-4.553.574-2.223.187-2.893,1.228-2.88,3.516.095,17.336-7.986,29.85-23.051,37.972a3.912,3.912,0,0,0-2.361,4.153C2539,5646.673,2538.944,5654.362,2538.946,5662.051Zm-15.35-36.75a27.573,27.573,0,0,0,27.371-27.387c.069-14.795-12.851-27.533-27.778-27.388s-27.054,12.633-27.253,27.62C2495.745,5612.488,2507.475,5625.974,2523.6,5625.3Zm69.822-27.409c0,15.264,12.48,27.792,27.505,27.621a27.5,27.5,0,0,0-.314-54.993A27.269,27.269,0,0,0,2593.418,5597.892Zm-21.354,102.743c-9.854,0-19.708.057-29.561-.038-2.527-.025-3.041.723-2.4,3.156a33.105,33.105,0,0,0,63.757.439c.779-2.726.365-3.646-2.622-3.6C2591.517,5700.721,2581.79,5700.637,2572.064,5700.635Zm.218-124.812a26.753,26.753,0,0,1,9.448,1.163c2.371.666,3.684.294,5.012-1.844a32.191,32.191,0,0,1,11.339-11.216c2.706-1.541,2.4-2.8.846-5-13.117-18.582-43.028-18.576-55.091,1.465-1.014,1.686-.532,2.039.606,2.785,5.2,3.406,10.086,7.18,13.392,12.566a2.947,2.947,0,0,0,3.836,1.439A33.936,33.936,0,0,1,2572.282,5575.823Z" fill="#141414"/>
        <path id="Path_845" data-name="Path 845" d="M2538.945,5662.051c0-7.689.051-15.378-.037-23.065a3.912,3.912,0,0,1,2.361-4.153c15.065-8.122,23.146-20.636,23.051-37.972-.013-2.288.657-3.329,2.88-3.516,1.523-.128,3.033-.544,4.553-.574,6.957-.137,7.467.525,8,7.366,1.2,15.5,8.724,27.035,22.424,34.379,2.062,1.1,2.974,2.11,2.954,4.556q-.189,23.065,0,46.13c.022,2.719-.791,3.489-3.459,3.421q-10.181-.261-20.372,0c-2.579.061-3.073-.851-3.231-3.288-.313-4.856.66-8.824,4.418-12.323,3.636-3.385,6.607-7.478,9.946-11.192,2.748-3.055,3.657-6.408,1.926-10.239-1.656-3.664-4.732-4.609-8.513-4.564q-13.839.162-27.679,0c-3.8-.04-6.8,1.038-8.457,4.685-1.684,3.716-.77,6.95,1.842,9.9,3.987,4.506,7.689,9.3,11.961,13.51,3.8,3.744,2.113,8.12,2.332,12.283.072,1.372-1.461,1.143-2.435,1.146-7.3.022-14.61-.074-21.912.061-2.494.046-2.582-1.232-2.568-3.1C2538.978,5677.684,2538.946,5669.867,2538.945,5662.051Z" fill="#fbd32c"/>
        <path id="Path_846" data-name="Path 846" d="M2523.6,5625.3c-16.121.673-27.851-12.813-27.66-27.155.2-14.987,12.322-27.475,27.253-27.62s27.847,12.593,27.778,27.388A27.573,27.573,0,0,1,2523.6,5625.3Z" fill="#1cbde4"/>
        <path id="Path_847" data-name="Path 847" d="M2593.418,5597.892a27.269,27.269,0,0,1,27.191-27.372,27.5,27.5,0,0,1,.314,54.993C2605.9,5625.684,2593.422,5613.156,2593.418,5597.892Z" fill="#1cbde4"/>
        <path id="Path_848" data-name="Path 848" d="M2572.064,5700.636c9.726,0,19.453.085,29.177-.049,2.987-.041,3.4.879,2.622,3.6a33.105,33.105,0,0,1-63.757-.439c-.644-2.433-.13-3.181,2.4-3.156C2552.356,5700.692,2562.21,5700.635,2572.064,5700.636Z" fill="#fbd32c"/>
        <path id="Path_849" data-name="Path 849" d="M2572.282,5575.823a33.936,33.936,0,0,0-10.612,1.361,2.947,2.947,0,0,1-3.836-1.439c-3.306-5.386-8.192-9.16-13.392-12.566-1.138-.746-1.62-1.1-.606-2.785,12.063-20.041,41.974-20.047,55.091-1.465,1.553,2.2,1.86,3.456-.846,5a32.191,32.191,0,0,0-11.339,11.216c-1.328,2.138-2.641,2.51-5.012,1.844A26.753,26.753,0,0,0,2572.282,5575.823Z" fill="#fbd32c"/>
      </g>
      <path id="Path_850" data-name="Path 850" d="M2479.857,5807.313l-22.18,108.772h223.891l-16.961-108.772-112.527-27.547Z" fill="#141414"/>
      <path id="Path_851" data-name="Path 851" d="M2457.677,5915.878a111.946,111.946,0,1,0,223.892,0L2590.7,5869.54Z" fill="#141414"/>
      <path id="Path_852" data-name="Path 852" d="M2644.111,6156.492s-12.926,11.889-27.35,9.45c-13.269-2.243-19.328-9.45-19.328-9.45v44.342h23.339l6.166-10.944,5.815,10.944h42.162v-18.173s0-9.45-7.27-13.811S2644.111,6156.492,2644.111,6156.492Z" fill="#141414"/>
      <path id="Path_853" data-name="Path 853" d="M2500.111,6156.492s12.926,11.889,27.351,9.45c13.268-2.243,19.328-9.45,19.328-9.45v44.342h-23.34l-6.165-10.944-5.816,10.944h-42.161v-18.173s0-9.45,7.269-13.811S2500.111,6156.492,2500.111,6156.492Z" fill="#141414"/>
      <g id="Group_280" data-name="Group 280">
        <path id="Path_854" data-name="Path 854" d="M2494.218,5680.232l-148.487,146.42,123.576,111.219v-52.338l-51.877-47.977,59.485-66.265" fill="#141414"/>
        <circle id="Ellipse_117" data-name="Ellipse 117" cx="28.622" cy="28.622" r="28.622" transform="translate(2439.232 5875.81)" fill="#141414"/>
      </g>
      <g id="Group_281" data-name="Group 281">
        <path id="Path_855" data-name="Path 855" d="M2669,5771.154l84.833,60.534,88.337-140.845-51.56,8.991-38.352,59.348-95.2-59.542" fill="#141414"/>
        <circle id="Ellipse_118" data-name="Ellipse 118" cx="28.622" cy="28.622" r="28.622" transform="translate(2787.28 5660.005)" fill="#141414"/>
      </g>
      <g id="Group_287" data-name="Group 287">
        <path id="Path_856" data-name="Path 856" d="M2658.59,5621.457H2651.9v-23.162c0-38.47-35.083-69.768-78.214-69.768h-3.3c-43.13,0-78.22,31.3-78.22,69.768v23.162h-6.688v-23.162c0-41.98,38.088-76.134,84.908-76.134h3.3c46.814,0,84.9,34.154,84.9,76.134Z" fill="#d14f15"/>
        <g id="Group_286" data-name="Group 286">
          <g id="Group_284" data-name="Group 284">
            <g id="Group_282" data-name="Group 282">
              <path id="Path_857" data-name="Path 857" d="M2653.025,5609.109h0a18.922,18.922,0,0,0-18.866,18.867V5661.6a18.921,18.921,0,0,0,18.866,18.866h0a18.921,18.921,0,0,0,18.865-18.866v-33.629A18.921,18.921,0,0,0,2653.025,5609.109Z" fill="#ff722c"/>
              <path id="Path_858" data-name="Path 858" d="M2653.025,5609.109a18.531,18.531,0,0,0-5.657.968,18.868,18.868,0,0,1,13.208,17.9V5661.6a18.866,18.866,0,0,1-13.208,17.9,18.531,18.531,0,0,0,5.657.968,18.921,18.921,0,0,0,18.865-18.866v-33.629A18.921,18.921,0,0,0,2653.025,5609.109Z" fill="#d14f15"/>
            </g>
            <g id="Group_283" data-name="Group 283">
              <path id="Path_859" data-name="Path 859" d="M2491.042,5609.109h0a18.922,18.922,0,0,0-18.866,18.867V5661.6a18.921,18.921,0,0,0,18.866,18.866h0a18.921,18.921,0,0,0,18.865-18.866v-33.629A18.921,18.921,0,0,0,2491.042,5609.109Z" fill="#ff722c"/>
              <path id="Path_860" data-name="Path 860" d="M2491.042,5609.109a18.525,18.525,0,0,0-5.657.968,18.868,18.868,0,0,1,13.208,17.9V5661.6a18.866,18.866,0,0,1-13.208,17.9,18.525,18.525,0,0,0,5.657.968,18.921,18.921,0,0,0,18.865-18.866v-33.629A18.921,18.921,0,0,0,2491.042,5609.109Z" fill="#d14f15"/>
            </g>
          </g>
          <g id="Group_285" data-name="Group 285">
            <path id="Path_861" data-name="Path 861" d="M2602.068,5701.539l-.238-3.75c21.511-1.362,39.988-28.127,40.172-28.4l3.108,2.118C2644.316,5672.675,2625.393,5700.064,2602.068,5701.539Z" fill="#ff722c"/>
            <path id="Path_862" data-name="Path 862" d="M2606.23,5699.867c-.13-3.519-5.173-5.981-11.263-5.5s-10.919,3.723-10.789,7.241,5.173,5.981,11.263,5.5S2606.36,5703.385,2606.23,5699.867Z" fill="#d14f15"/>
          </g>
        </g>
      </g>
    </g>
    <g id="Group_291" data-name="Group 291" transform="translate(-2120 -5120)">
      <g id="Group_290" data-name="Group 290">
        <path id="Path_863" data-name="Path 863" d="M2580.134,5772.44l23.586,182.31a8.63,8.63,0,0,1-2.628,7.375l-23.513,22.239a8.628,8.628,0,0,1-11.858,0l-23.512-22.239a8.63,8.63,0,0,1-2.628-7.375l23.571-182.31Z" fill="#ff722c"/>
        <path id="Path_864" data-name="Path 864" d="M2580.266,5773.219l14.937-26.291a2.1,2.1,0,0,0-1.83-3.145h-44.138a2.1,2.1,0,0,0-1.825,3.154l15.1,26.291a2.108,2.108,0,0,0,1.826,1.056h14.1A2.107,2.107,0,0,0,2580.266,5773.219Z" fill="#d14f15"/>
        <g id="Group_289" data-name="Group 289" style="mix-blend-mode: screen;isolation: isolate">
          <path id="Path_865" data-name="Path 865" d="M2560.555,5874.5a2.759,2.759,0,1,1-2.759-2.759A2.76,2.76,0,0,1,2560.555,5874.5Z" fill="#fbd32c"/>
          <path id="Path_866" data-name="Path 866" d="M2582.069,5928.909a2.759,2.759,0,1,1-2.759-2.759A2.759,2.759,0,0,1,2582.069,5928.909Z" fill="#fbd32c"/>
          <path id="Path_867" data-name="Path 867" d="M2587.648,5750.834a2.759,2.759,0,1,1-2.759-2.759A2.758,2.758,0,0,1,2587.648,5750.834Z" fill="#fbd32c"/>
          <path id="Path_868" data-name="Path 868" d="M2565.354,5948.651a2.76,2.76,0,1,1-2.76-2.759A2.761,2.761,0,0,1,2565.354,5948.651Z" fill="#fbd32c"/>
          <path id="Path_869" data-name="Path 869" d="M2581.7,5821.67a2.76,2.76,0,1,1-2.76-2.759A2.761,2.761,0,0,1,2581.7,5821.67Z" fill="#fbd32c"/>
          <path id="Path_870" data-name="Path 870" d="M2550.783,5954.339a2.76,2.76,0,1,1-2.76-2.759A2.761,2.761,0,0,1,2550.783,5954.339Z" fill="#fbd32c"/>
          <path id="Path_871" data-name="Path 871" d="M2563.965,5841.862a2.76,2.76,0,1,1-2.76-2.759A2.76,2.76,0,0,1,2563.965,5841.862Z" fill="#fbd32c"/>
          <path id="Path_872" data-name="Path 872" d="M2573.884,5883.063a2.76,2.76,0,1,1-2.76-2.759A2.761,2.761,0,0,1,2573.884,5883.063Z" fill="#fbd32c"/>
          <path id="Path_873" data-name="Path 873" d="M2581.767,5944.865a2.76,2.76,0,1,1-2.76-2.76A2.759,2.759,0,0,1,2581.767,5944.865Z" fill="#fbd32c"/>
          <path id="Path_874" data-name="Path 874" d="M2568.6,5811.065a2.76,2.76,0,1,1-2.76-2.759A2.76,2.76,0,0,1,2568.6,5811.065Z" fill="#fbd32c"/>
          <path id="Path_875" data-name="Path 875" d="M2569.092,5795.107a2.76,2.76,0,1,1-2.76-2.76A2.76,2.76,0,0,1,2569.092,5795.107Z" fill="#fbd32c"/>
          <path id="Path_876" data-name="Path 876" d="M2561.724,5965.888a2.76,2.76,0,1,1-2.76-2.759A2.759,2.759,0,0,1,2561.724,5965.888Z" fill="#fbd32c"/>
          <path id="Path_877" data-name="Path 877" d="M2562.3,5858.35a2.76,2.76,0,1,1-2.76-2.76A2.76,2.76,0,0,1,2562.3,5858.35Z" fill="#fbd32c"/>
          <path id="Path_878" data-name="Path 878" d="M2580.187,5805.5a2.76,2.76,0,1,1-2.759-2.759A2.76,2.76,0,0,1,2580.187,5805.5Z" fill="#fbd32c"/>
          <path id="Path_879" data-name="Path 879" d="M2567.75,5763.414a2.76,2.76,0,1,1-2.759-2.759A2.759,2.759,0,0,1,2567.75,5763.414Z" fill="#fbd32c"/>
          <path id="Path_880" data-name="Path 880" d="M2580.4,5764.007a2.76,2.76,0,1,1-2.759-2.76A2.76,2.76,0,0,1,2580.4,5764.007Z" fill="#fbd32c"/>
          <path id="Path_881" data-name="Path 881" d="M2586.6,5858.19a2.759,2.759,0,1,1-2.759-2.76A2.759,2.759,0,0,1,2586.6,5858.19Z" fill="#fbd32c"/>
          <path id="Path_882" data-name="Path 882" d="M2574.257,5867.195a2.76,2.76,0,1,1-2.76-2.759A2.76,2.76,0,0,1,2574.257,5867.195Z" fill="#fbd32c"/>
          <path id="Path_883" data-name="Path 883" d="M2596.617,5954.983a2.76,2.76,0,1,1-2.759-2.76A2.759,2.759,0,0,1,2596.617,5954.983Z" fill="#fbd32c"/>
          <path id="Path_884" data-name="Path 884" d="M2566.3,5825.459a2.76,2.76,0,1,1-2.759-2.759A2.758,2.758,0,0,1,2566.3,5825.459Z" fill="#fbd32c"/>
          <path id="Path_885" data-name="Path 885" d="M2574.8,5850.829a2.76,2.76,0,1,1-2.759-2.759A2.759,2.759,0,0,1,2574.8,5850.829Z" fill="#fbd32c"/>
          <path id="Path_886" data-name="Path 886" d="M2585.58,5841.25a2.759,2.759,0,1,1-2.759-2.759A2.759,2.759,0,0,1,2585.58,5841.25Z" fill="#fbd32c"/>
          <path id="Path_887" data-name="Path 887" d="M2552.828,5938.078a2.759,2.759,0,1,1-2.759-2.76A2.759,2.759,0,0,1,2552.828,5938.078Z" fill="#fbd32c"/>
          <path id="Path_888" data-name="Path 888" d="M2596.209,5938.864a2.76,2.76,0,1,1-2.76-2.76A2.76,2.76,0,0,1,2596.209,5938.864Z" fill="#fbd32c"/>
          <path id="Path_889" data-name="Path 889" d="M2574.148,5899.212a2.76,2.76,0,1,1-2.759-2.759A2.76,2.76,0,0,1,2574.148,5899.212Z" fill="#fbd32c"/>
          <path id="Path_890" data-name="Path 890" d="M2567.9,5933.05a2.759,2.759,0,1,1-2.759-2.759A2.759,2.759,0,0,1,2567.9,5933.05Z" fill="#fbd32c"/>
          <path id="Path_891" data-name="Path 891" d="M2575.9,5834.228a2.76,2.76,0,1,1-2.76-2.759A2.76,2.76,0,0,1,2575.9,5834.228Z" fill="#fbd32c"/>
          <path id="Path_892" data-name="Path 892" d="M2582.591,5913.171a2.759,2.759,0,1,1-2.759-2.759A2.76,2.76,0,0,1,2582.591,5913.171Z" fill="#fbd32c"/>
          <circle id="Ellipse_119" data-name="Ellipse 119" cx="2.759" cy="2.759" r="2.759" transform="translate(2589.536 5918.883)" fill="#fbd32c"/>
          <path id="Path_893" data-name="Path 893" d="M2576.444,5959.023a2.76,2.76,0,1,1-2.76-2.759A2.76,2.76,0,0,1,2576.444,5959.023Z" fill="#fbd32c"/>
          <path id="Path_894" data-name="Path 894" d="M2591.992,5903.6a2.759,2.759,0,1,1-2.759-2.759A2.759,2.759,0,0,1,2591.992,5903.6Z" fill="#fbd32c"/>
          <path id="Path_895" data-name="Path 895" d="M2587.835,5873.891a2.76,2.76,0,1,1-2.76-2.759A2.76,2.76,0,0,1,2587.835,5873.891Z" fill="#fbd32c"/>
          <path id="Path_896" data-name="Path 896" d="M2587.324,5967.342a2.76,2.76,0,1,1-2.759-2.759A2.76,2.76,0,0,1,2587.324,5967.342Z" fill="#fbd32c"/>
          <path id="Path_897" data-name="Path 897" d="M2560.521,5750.667a2.759,2.759,0,1,1-2.759-2.759A2.759,2.759,0,0,1,2560.521,5750.667Z" fill="#fbd32c"/>
          <path id="Path_898" data-name="Path 898" d="M2559.326,5890.53a2.76,2.76,0,1,1-2.759-2.759A2.759,2.759,0,0,1,2559.326,5890.53Z" fill="#fbd32c"/>
          <path id="Path_899" data-name="Path 899" d="M2574.039,5976.6a2.76,2.76,0,1,1-2.76-2.759A2.759,2.759,0,0,1,2574.039,5976.6Z" fill="#fbd32c"/>
          <path id="Path_900" data-name="Path 900" d="M2588.877,5889.043a2.76,2.76,0,1,1-2.759-2.76A2.759,2.759,0,0,1,2588.877,5889.043Z" fill="#fbd32c"/>
          <path id="Path_901" data-name="Path 901" d="M2569.131,5916.328a2.76,2.76,0,1,1-2.76-2.759A2.76,2.76,0,0,1,2569.131,5916.328Z" fill="#fbd32c"/>
          <path id="Path_902" data-name="Path 902" d="M2574.179,5751.083a2.76,2.76,0,1,1-2.759-2.759A2.759,2.759,0,0,1,2574.179,5751.083Z" fill="#fbd32c"/>
          <path id="Path_903" data-name="Path 903" d="M2578.868,5789.779a2.759,2.759,0,1,1-2.76-2.76A2.759,2.759,0,0,1,2578.868,5789.779Z" fill="#fbd32c"/>
          <path id="Path_904" data-name="Path 904" d="M2571.938,5780.854a2.76,2.76,0,1,1-2.759-2.759A2.759,2.759,0,0,1,2571.938,5780.854Z" fill="#fbd32c"/>
          <path id="Path_905" data-name="Path 905" d="M2557.425,5905.872a2.76,2.76,0,1,1-2.759-2.759A2.759,2.759,0,0,1,2557.425,5905.872Z" fill="#fbd32c"/>
          <path id="Path_906" data-name="Path 906" d="M2554.818,5922.069a2.76,2.76,0,1,1-2.759-2.76A2.759,2.759,0,0,1,2554.818,5922.069Z" fill="#fbd32c"/>
        </g>
      </g>
      <path id="Path_907" data-name="Path 907" d="M2580.4,5740.562l38.766-25.51a27.687,27.687,0,0,0,10.743-13.51v0l9.123,22.811a7.461,7.461,0,0,1-1.074,7.4l-37.392,47.308a1.684,1.684,0,0,1-2.8-.239l-18.459-33.885A3.326,3.326,0,0,1,2580.4,5740.562Z" fill="url(#linear-gradient)"/>
      <path id="Path_908" data-name="Path 908" d="M2562.985,5740.561l-38.764-25.509a27.688,27.688,0,0,1-10.745-13.513h0l-9.124,22.81a7.465,7.465,0,0,0,1.074,7.4l37.393,47.307a1.685,1.685,0,0,0,2.8-.238l18.458-33.886A3.327,3.327,0,0,0,2562.985,5740.561Z" fill="url(#linear-gradient)"/>
    </g>
    <path id="Path_911" data-name="Path 911" d="M3813.528,5574.44c-14.884,27.594-27.35,58.008-25.242,89.289,2.386,35.409,23.4,67.328,49.561,91.3,37.138,34.028,86.028,55.151,136.308,58.166,21.916,1.315,44.376-.811,64.627-9.294,26.555-11.124,47.656-32.447,64.443-55.838,32.776-45.671,51.589-101.568,51.16-157.781-.227-29.79-7.194-62.082-30.129-81.094-19.423-16.1-46.119-19.372-71.211-21.994-43.143-4.509-92.948-17.974-135.685-6.926C3868.191,5492.984,3836.734,5531.6,3813.528,5574.44Z" transform="translate(-2120 -5120)" fill="#ff6a29" fill-rule="evenodd"/>
    <path id="Path_912" data-name="Path 912" d="M3040.1,4997.3c-20.307,6.138-40.281,14.326-57.209,27.114-32.427,24.5-51.267,65.931-48.408,106.47s27.325,78.92,62.869,98.624c18.319,10.154,38.924,15.45,59.526,19.221a456.4,456.4,0,0,0,76.646,7.424c7.38.089,15.033-.061,21.7-3.216,5.674-2.683,10.161-7.325,14.25-12.087,34.035-39.636,48.437-92.528,54.913-144.371C3239.533,4975.24,3129.989,4970.134,3040.1,4997.3Z" transform="translate(-2120 -5120)" fill="#fcd42d"/>
    <rect id="Rectangle_165" data-name="Rectangle 165" width="1973.355" height="1131.429" transform="translate(-25.428 -27.071)" fill="none"/>
  </g>
</svg>
