<svg xmlns="http://www.w3.org/2000/svg" width="2215.94" height="1220.133" viewBox="0 0 2215.94 1220.133">
  <g id="Group_1739" data-name="Group 1739" transform="translate(166.161 40.583)">
    <path id="Path_537" data-name="Path 537" d="M10635.592,5806.384c-38.687,11.693-76.74,27.292-108.989,51.653-61.775,46.666-97.666,125.6-92.221,202.833s52.058,150.351,119.771,187.887c34.9,19.346,74.152,29.433,113.4,36.619a869.433,869.433,0,0,0,146.017,14.142c14.059.169,28.638-.115,41.348-6.126,10.809-5.111,19.357-13.956,27.147-23.027,64.839-75.509,92.275-176.274,104.612-275.037C11015.529,5764.353,10806.839,5754.626,10635.592,5806.384Z" transform="translate(-10600 -5120)" fill="#fcd42d"/>
    <path id="Path_538" data-name="Path 538" d="M12288.931,5613.594c47.777,68.827,142.663,100.56,222.391,74.8a192.66,192.66,0,0,0,45.153-21.5c39.943-25.77,70.786-65.841,84.108-111.547,8.843-30.339,10.3-62.405,8.542-93.957-1.469-26.3-5.6-53.669-21.007-75.026C12495.771,5202.948,12148.2,5410.847,12288.931,5613.594Z" transform="translate(-10600 -5120)" fill="#23af5b"/>
    <path id="Path_539" data-name="Path 539" d="M11478.988,5253.123c27.848,40.117,83.152,58.613,129.623,43.6a112.3,112.3,0,0,0,26.317-12.534c23.282-15.02,41.26-38.376,49.024-65.016,5.154-17.684,6.006-36.374,4.978-54.764-.855-15.326-3.261-31.282-12.244-43.73C11599.547,5013.774,11396.96,5134.95,11478.988,5253.123Z" transform="translate(-10600 -5120)" fill="#f6d3de"/>
    <rect id="Rectangle_92" data-name="Rectangle 92" width="1920" height="1080" fill="none"/>
  </g>
</svg>
