<svg xmlns="http://www.w3.org/2000/svg" width="1870.799" height="1316.52" viewBox="0 0 1870.799 1316.52">
  <g id="Group_1738" data-name="Group 1738" transform="translate(-100.266 120.509)">
    <path id="Path_622" data-name="Path 622" d="M8721.125,5971.693c-27.011,8.164-53.578,19.055-76.093,36.063-43.131,32.581-68.189,87.694-64.388,141.614s36.346,104.971,83.621,131.178c24.366,13.507,51.772,20.55,79.177,25.567a606.987,606.987,0,0,0,101.944,9.873c9.815.119,19.994-.08,28.868-4.276,7.547-3.569,13.515-9.744,18.953-16.077,45.27-52.719,64.426-123.071,73.039-192.025C8986.389,5942.348,8840.686,5935.558,8721.125,5971.693Z" transform="translate(-8480 -5120)" fill="#fcd42d"/>
    <path id="Path_623" data-name="Path 623" d="M9307.013,5241.228c38.753,55.829,115.72,81.569,180.389,60.675a156.313,156.313,0,0,0,36.626-17.443c32.4-20.9,57.418-53.406,68.224-90.48,7.172-24.609,8.358-50.619,6.928-76.211-1.191-21.329-4.539-43.534-17.039-60.857C9474.788,4908.139,9192.858,5076.773,9307.013,5241.228Z" transform="translate(-8480 -5120)" fill="#23af5b"/>
    <path id="Path_624" data-name="Path 624" d="M10240.74,5639.031c27.848,40.117,83.152,58.613,129.623,43.6a112.267,112.267,0,0,0,26.318-12.534c23.281-15.02,41.259-38.376,49.023-65.016,5.154-17.684,6.006-36.373,4.978-54.764-.855-15.326-3.261-31.282-12.242-43.73C10361.3,5399.682,10158.712,5520.858,10240.74,5639.031Z" transform="translate(-8480 -5120)" fill="#f6d3de"/>
  </g>
</svg>
