<svg xmlns="http://www.w3.org/2000/svg" width="2116.591" height="1443.518" viewBox="0 0 2116.591 1443.518">
  <g id="Group_1732" data-name="Group 1732" transform="translate(46.03 173.265)">
    <path id="Path_4835" data-name="Path 4835" d="M573.393,1965.544l11.786-200.367L383.725,1791.81l-178.163,94.98L153.4,2060.737l61.357,114.152,91.236,25.746,159.093-76.987Z" transform="translate(0 -1280)" fill="#fdf5c9"/>
    <path id="Path_4836" data-name="Path 4836" d="M472.888,1551.6l26.559,182.01,179.619-28.576L824.6,1614.966l15.363-158.93-77.5-102.2-88.4-21.353-131.417,73.323Z" transform="translate(0 -1280)" fill="#fcd42d"/>
    <path id="Path_4838" data-name="Path 4838" d="M2070.56,2101.837v200.217l-118.879,150.163-200.217,40.669-75.081-134.521,21.9-150.163,147.034-103.237Z" transform="translate(0 -1280)" fill="#c7efa8"/>
    <path id="Path_4839" data-name="Path 4839" d="M1139.085,2227.128v165.44l-98.23,124.08-165.44,33.6L813.375,2439.1l18.095-124.08,121.495-85.3Z" transform="translate(0 -1280)" fill="#fcd42d"/>
    <path id="Path_4840" data-name="Path 4840" d="M1446.9,1106.735l22.878,130.9-3.083,118.478-133.756,154.225-96.654-154.069,14.283-140.557Z" transform="translate(0 -1280)" fill="#fdf5c9"/>
    <path id="Path_4841" data-name="Path 4841" d="M1.563,1177.366l163.443,86.466,127.648,104.422,55.523,278.591-251.833-25.1L-46.03,1486.179Z" transform="translate(0 -1280)" fill="#c7efa8"/>
    <path id="Path_4842" data-name="Path 4842" d="M1435.864,2300.274l-118.879-62.568-28.156,50.054-25.027,62.568,37.541,96.98,140.777,100.108,37.541-128.264Z" transform="translate(0 -1280)" fill="#fcd42d"/>
    <path id="Path_4843" data-name="Path 4843" d="M1160.277,1233.722c-15.218,34.24-91.307,148.374-91.307,148.374l-110.329,64.676L840.7,1241.331Z" transform="translate(0 -1280)" fill="#c7efa8"/>
    <path id="Path_4844" data-name="Path 4844" d="M499.817,1325.738" transform="translate(0 -1280)" fill="#f6d3de"/>
    <path id="Path_4846" data-name="Path 4846" d="M260.846,1695.3a13.273,13.273,0,0,1,5.126,9.628c.076,3.75-2.291,7.62-5.9,8.623-6.1,1.693-11.722-6.333-9.163-12.119s10.421-7.8,16.273-5.4" transform="translate(0 -1280)" fill="none" stroke="#707070" stroke-width="1"/>
    <path id="Path_4847" data-name="Path 4847" d="M202.382,1703.6a7.052,7.052,0,0,1,7.121-1.478,4.448,4.448,0,0,1,2.6,1.12c3.072,2.742,5.126,7.2,2.806,11.094-2.644,4.444-8.076,4.106-11.445.7C200.5,1712.038,199.032,1706.909,202.382,1703.6Z" transform="translate(0 -1280)" fill="#0a0a0a"/>
    <path id="Path_4848" data-name="Path 4848" d="M74.914,1680.028a7.049,7.049,0,0,1,7.121-1.478,4.448,4.448,0,0,1,2.6,1.119c3.072,2.743,5.126,7.2,2.806,11.1-2.644,4.443-8.076,4.106-11.445.7C73.033,1688.468,71.564,1683.339,74.914,1680.028Z" transform="translate(0 -1280)" fill="#0a0a0a"/>
    <path id="Path_4849" data-name="Path 4849" d="M88.5,1776.352a7.051,7.051,0,0,1,7.122-1.478,4.447,4.447,0,0,1,2.6,1.119c3.072,2.742,5.126,7.2,2.807,11.095-2.645,4.443-8.076,4.1-11.446.7C86.623,1784.792,85.154,1779.663,88.5,1776.352Z" transform="translate(0 -1280)" fill="#0a0a0a"/>
    <path id="Path_4850" data-name="Path 4850" d="M16.072,1611.861a7.051,7.051,0,0,1,7.122-1.478,4.448,4.448,0,0,1,2.6,1.119c3.072,2.742,5.126,7.2,2.807,11.1-2.645,4.443-8.076,4.1-11.446.7C14.191,1620.3,12.722,1615.172,16.072,1611.861Z" transform="translate(0 -1280)" fill="#0a0a0a"/>
    <path id="Path_4851" data-name="Path 4851" d="M183.934,1845.808a7.055,7.055,0,0,1,1.128,7.186,4.451,4.451,0,0,1-1.246,2.544c-2.889,2.934-7.439,4.767-11.219,2.26-4.308-2.859-3.705-8.267-.139-11.466C175.6,1843.517,180.79,1842.3,183.934,1845.808Z" transform="translate(0 -1280)" fill="#0a0a0a"/>
    <path id="Path_4852" data-name="Path 4852" d="M47.589,2197.537a7.05,7.05,0,0,1-7.255-.513,4.442,4.442,0,0,1-2.2-1.784c-2.211-3.474-2.977-8.319.314-11.44,3.753-3.557,8.888-1.756,11.2,2.437C51.693,2189.926,51.713,2195.261,47.589,2197.537Z" transform="translate(0 -1280)" fill="#0a0a0a"/>
    <path id="Path_4853" data-name="Path 4853" d="M131.6,1985.055a7.053,7.053,0,0,1,1.128,7.186,4.444,4.444,0,0,1-1.245,2.543c-2.89,2.935-7.439,4.768-11.219,2.261-4.308-2.859-3.706-8.267-.14-11.466C123.267,1982.764,128.462,1981.547,131.6,1985.055Z" transform="translate(0 -1280)" fill="#0a0a0a"/>
    <path id="Path_4854" data-name="Path 4854" d="M48.874,2317.272A7.051,7.051,0,0,1,50,2324.457,4.451,4.451,0,0,1,48.756,2327c-2.889,2.934-7.438,4.768-11.218,2.26-4.309-2.859-3.706-8.267-.14-11.466C40.536,2314.98,45.731,2313.764,48.874,2317.272Z" transform="translate(0 -1280)" fill="#0a0a0a"/>
    <path id="Path_4855" data-name="Path 4855" d="M152.145,2147.8a7.053,7.053,0,0,1,1.128,7.186,4.452,4.452,0,0,1-1.246,2.544c-2.889,2.934-7.439,4.767-11.219,2.26-4.308-2.859-3.705-8.267-.139-11.466C143.807,2145.507,149,2144.29,152.145,2147.8Z" transform="translate(0 -1280)" fill="#0a0a0a"/>
    <path id="Path_4856" data-name="Path 4856" d="M259.177,2248.532a7.051,7.051,0,0,1,1.128,7.185,4.451,4.451,0,0,1-1.246,2.544c-2.889,2.934-7.438,4.768-11.218,2.26-4.309-2.859-3.706-8.267-.14-11.466C250.839,2246.24,256.034,2245.024,259.177,2248.532Z" transform="translate(0 -1280)" fill="#0a0a0a"/>
    <path id="Path_4857" data-name="Path 4857" d="M465.872,2202.506a7.055,7.055,0,0,1,1.128,7.186,4.449,4.449,0,0,1-1.246,2.543c-2.889,2.934-7.439,4.768-11.219,2.261-4.308-2.859-3.705-8.268-.139-11.466C457.533,2200.215,462.728,2199,465.872,2202.506Z" transform="translate(0 -1280)" fill="#0a0a0a"/>
    <path id="Path_4858" data-name="Path 4858" d="M564.046,2079.677a7.052,7.052,0,0,1,7.018-1.912,4.447,4.447,0,0,1,2.665.959c3.234,2.549,5.557,6.869,3.48,10.9-2.368,4.6-7.809,4.592-11.381,1.4C562.685,2088.216,560.905,2083.187,564.046,2079.677Z" transform="translate(0 -1280)" fill="#0a0a0a"/>
    <path id="Path_4859" data-name="Path 4859" d="M601.054,2233a7.052,7.052,0,0,1,7.018-1.911,4.447,4.447,0,0,1,2.665.958c3.234,2.549,5.557,6.87,3.48,10.9-2.368,4.6-7.809,4.592-11.381,1.4C599.693,2241.537,597.913,2236.507,601.054,2233Z" transform="translate(0 -1280)" fill="#0a0a0a"/>
    <path id="Path_4860" data-name="Path 4860" d="M667,2170.627a7.051,7.051,0,0,1,.922,7.215,4.449,4.449,0,0,1-1.318,2.507c-2.971,2.85-7.572,4.553-11.278,1.938-4.225-2.981-3.468-8.369.188-11.465C658.734,2168.1,663.962,2167.031,667,2170.627Z" transform="translate(0 -1280)" fill="#0a0a0a"/>
    <path id="Path_4861" data-name="Path 4861" d="M720.234,2315.379a7.052,7.052,0,0,1,7.175,1.192,4.437,4.437,0,0,1,2.022,1.983c1.876,3.666,2.184,8.561-1.386,11.359-4.07,3.19-9.013.915-10.927-3.476C715.434,2322.572,715.915,2317.259,720.234,2315.379Z" transform="translate(0 -1280)" fill="#0a0a0a"/>
    <path id="Path_4862" data-name="Path 4862" d="M11.4,1810.277a7.056,7.056,0,0,1,7.122-1.478,4.45,4.45,0,0,1,2.6,1.12c3.072,2.742,5.126,7.2,2.807,11.1-2.645,4.443-8.076,4.1-11.446.7C9.519,1818.718,8.05,1813.589,11.4,1810.277Z" transform="translate(0 -1280)" fill="#0a0a0a"/>
    <path id="Path_4863" data-name="Path 4863" d="M48.689,1950.524a7.051,7.051,0,0,1,7.122-1.478,4.442,4.442,0,0,1,2.6,1.12c3.072,2.742,5.126,7.2,2.807,11.094-2.645,4.443-8.076,4.106-11.446.7C46.808,1958.964,45.339,1953.835,48.689,1950.524Z" transform="translate(0 -1280)" fill="#0a0a0a"/>
    <circle id="Ellipse_330" data-name="Ellipse 330" cx="6.055" cy="6.055" r="6.055" transform="translate(167 492.043)" fill="#0a0a0a"/>
    <circle id="Ellipse_331" data-name="Ellipse 331" cx="6.055" cy="6.055" r="6.055" transform="translate(257.347 519.029)" fill="#0a0a0a"/>
    <circle id="Ellipse_332" data-name="Ellipse 332" cx="6.055" cy="6.055" r="6.055" transform="translate(82.404 787.797)" fill="#0a0a0a"/>
    <circle id="Ellipse_333" data-name="Ellipse 333" cx="6.055" cy="6.055" r="6.055" transform="translate(405.774 1043.022)" fill="#0a0a0a"/>
    <circle id="Ellipse_334" data-name="Ellipse 334" cx="6.055" cy="6.055" r="6.055" transform="translate(119.551 968.532)" fill="#0a0a0a"/>
    <circle id="Ellipse_335" data-name="Ellipse 335" cx="6.055" cy="6.055" r="6.055" transform="translate(198.813 1049.077)" fill="#0a0a0a"/>
    <circle id="Ellipse_336" data-name="Ellipse 336" cx="6.055" cy="6.055" r="6.055" transform="translate(95.343 604.171)" fill="#0a0a0a"/>
    <circle id="Ellipse_337" data-name="Ellipse 337" cx="6.055" cy="6.055" r="6.055" transform="translate(536.232 879.727)" fill="#0a0a0a"/>
    <circle id="Ellipse_338" data-name="Ellipse 338" cx="6.055" cy="6.055" r="6.055" transform="translate(532.734 1001.473)" fill="#0a0a0a"/>
    <circle id="Ellipse_339" data-name="Ellipse 339" cx="6.055" cy="6.055" r="6.055" transform="translate(637.691 1025.558)" fill="#0a0a0a"/>
    <circle id="Ellipse_340" data-name="Ellipse 340" cx="6.055" cy="6.055" r="6.055" transform="translate(352.933 947.798)" fill="#0a0a0a"/>
  </g>
</svg>
