<svg xmlns="http://www.w3.org/2000/svg" width="947.705" height="1078.763" viewBox="0 0 947.705 1078.763">
  <g id="Group_1731" data-name="Group 1731" transform="translate(-938.511 -37.92)">
    <g id="Group_750" data-name="Group 750" transform="translate(-6360 -3840)">
      <g id="Group_520" data-name="Group 520">
        <g id="Group_519" data-name="Group 519">
          <path id="Path_1274" data-name="Path 1274" d="M7934.587,4241.959c19.138,16.066,33.493,88.324,26.521,130.54s-82.222,41.245-125.079,37.494-37.342-100.818-35.342-126.792C7803.811,4242.643,7906.23,4218.151,7934.587,4241.959Z" fill="#c4c4c4"/>
        </g>
      </g>
      <g id="Group_562" data-name="Group 562">
        <g id="Group_559" data-name="Group 559">
          <g id="Group_546" data-name="Group 546">
            <g id="Group_522" data-name="Group 522">
              <g id="Group_521" data-name="Group 521">
                <path id="Path_1275" data-name="Path 1275" d="M8036.869,4610.408a211.861,211.861,0,0,1-281.229,180.614A213.226,213.226,0,0,1,7701,4762.31c51.952-13.066,112-34.139,174.139-62.244S7992.749,4640.792,8036.869,4610.408Z" fill="#ffb200"/>
              </g>
            </g>
            <g id="Group_524" data-name="Group 524">
              <g id="Group_523" data-name="Group 523">
                <path id="Path_1276" data-name="Path 1276" d="M7875.137,4700.066c62.135-28.1,117.612-59.274,161.732-89.658a209.845,209.845,0,0,1-3.954,25.631c-33.953,24.665-88.2,55.119-151.371,83.689-60.507,27.365-116.908,47.441-157.534,57.174A211.951,211.951,0,0,1,7701,4762.31C7752.95,4749.244,7813,4728.171,7875.137,4700.066Z" fill="#d66b09"/>
              </g>
            </g>
            <g id="Group_526" data-name="Group 526">
              <g id="Group_525" data-name="Group 525">
                <path id="Path_1277" data-name="Path 1277" d="M8028.279,4528.62c-34.455,27.864-102.516,66.861-183.8,103.633s-155.539,62.119-199.219,69.591a214.936,214.936,0,0,1-12.344-23.357c-.176-.389-.341-.754-.517-1.154-1.6-3.589-3.1-7.189-4.472-10.837a212.1,212.1,0,0,1-8-25.735c-.082-.353-.164-.694-.247-1.047a212.213,212.213,0,0,1,40.3-180.239h.012c2.035-2.588,4.154-5.13,6.331-7.625a210.877,210.877,0,0,1,72.3-53.646q5.949-2.684,11.979-4.99a211.258,211.258,0,0,1,161.034,4.295c.306.142.624.271.93.424q6.972,3.106,13.709,6.754a211.418,211.418,0,0,1,45.1,32.478,208.684,208.684,0,0,1,23.594,26.37c.776,1.024,1.541,2.071,2.318,3.118.635.859,1.247,1.73,1.859,2.6a210.384,210.384,0,0,1,14.038,23c1.589,2.989,3.095,6.025,4.542,9.108.389.847.789,1.694,1.165,2.553A213.623,213.623,0,0,1,8028.279,4528.62Z" fill="#ffb200"/>
              </g>
            </g>
            <g id="Group_528" data-name="Group 528">
              <g id="Group_527" data-name="Group 527">
                <path id="Path_1278" data-name="Path 1278" d="M8017.718,4501.376c.4.841.789,1.686,1.176,2.541a212.575,212.575,0,0,1,9.381,24.7c-34.451,27.863-102.509,66.868-183.808,103.636s-155.533,62.117-199.207,69.587a212.629,212.629,0,0,1-12.351-23.354c-.174-.383-.343-.758-.509-1.144,41.413-4.576,116.986-29.1,199.861-66.583C7918.406,4571.8,7988.841,4529.512,8017.718,4501.376Z" fill="#d66b09"/>
              </g>
            </g>
            <g id="Group_530" data-name="Group 530">
              <g id="Group_529" data-name="Group 529">
                <path id="Path_1279" data-name="Path 1279" d="M7617.109,4605.943q-1.62,0-3.1-.076l.5-9.708c29.165,1.519,105.132-22.554,184.679-58.53,83.807-37.9,154.485-81.236,168.057-103.035l8.252,5.138c-14.709,23.624-85.562,67.523-172.3,106.753C7723.713,4582.431,7649.918,4605.943,7617.109,4605.943Z" fill="#d66b09"/>
              </g>
            </g>
            <g id="Group_532" data-name="Group 532">
              <g id="Group_531" data-name="Group 531">
                <path id="Path_1280" data-name="Path 1280" d="M7624.128,4533.839l-1.428-9.615c32.662-4.852,89.19-24.253,147.524-50.637,61.134-27.648,114.075-58.188,138.164-79.7l6.474,7.249c-24.774,22.127-78.662,53.283-140.632,81.309C7715.133,4509.172,7657.618,4528.865,7624.128,4533.839Z" fill="#d66b09"/>
              </g>
            </g>
            <g id="Group_534" data-name="Group 534">
              <g id="Group_533" data-name="Group 533">
                <path id="Path_1281" data-name="Path 1281" d="M7620,4644.572h-.345l.047-9.721h.324c33.6,0,111.772-25.151,194.782-62.693,87.384-39.521,160.8-84.086,178.547-108.375l7.85,5.733c-18.927,25.912-92.225,70.72-182.392,111.5C7734.658,4619.074,7654.871,4644.572,7620,4644.572Z" fill="#d66b09"/>
              </g>
            </g>
            <g id="Group_536" data-name="Group 536">
              <g id="Group_535" data-name="Group 535">
                <path id="Path_1282" data-name="Path 1282" d="M7755.815,4793.446l-.174-2.407-.777-2.32.289-.1.312-.024c28.775-2.074,83.545-19.774,139.534-45.1,56.3-25.462,104.4-54.023,125.522-74.535l3.387,3.488c-21.5,20.877-70.129,49.8-126.906,75.475C7839.665,4773.863,7785.565,4791.3,7755.815,4793.446Z" fill="#d66b09"/>
              </g>
            </g>
            <g id="Group_538" data-name="Group 538">
              <g id="Group_537" data-name="Group 537">
                <path id="Path_1283" data-name="Path 1283" d="M7826.021,4807.652a217.023,217.023,0,0,1-127.795-41.537l-8.122-5.919,9.746-2.451c53.541-13.465,113.484-34.893,173.348-61.968s115.536-57.935,161-89.244l8.276-5.7-.919,10.006a216.378,216.378,0,0,1-215.535,196.813Zm-113.886-43.361A207.162,207.162,0,0,0,8031,4620.079c-44.268,29.622-97.253,58.645-153.926,84.277S7763.616,4750.611,7712.135,4764.291Z"/>
              </g>
            </g>
            <g id="Group_540" data-name="Group 540" opacity="0.35">
              <g id="Group_539" data-name="Group 539">
                <path id="Path_1284" data-name="Path 1284" d="M8036.869,4610.408a211.861,211.861,0,0,1-281.229,180.614A213.226,213.226,0,0,1,7701,4762.31c51.952-13.066,112-34.139,174.139-62.244S7992.749,4640.792,8036.869,4610.408Z"/>
              </g>
            </g>
            <g id="Group_543" data-name="Group 543" opacity="0.41">
              <g id="Group_542" data-name="Group 542">
                <g id="Group_541" data-name="Group 541">
                  <path id="Path_1285" data-name="Path 1285" d="M8028.274,4528.612q-6.015,4.868-13.359,10.159c-1.976-5.571-4.205-11.114-6.676-16.589-.392-.853-.785-1.693-1.177-2.534q-2.157-4.647-4.528-9.119a212.991,212.991,0,0,0-14.044-23.008c-.613-.875-1.24-1.737-1.868-2.6a209.009,209.009,0,0,0-25.916-29.494,211.915,211.915,0,0,0-322.8,38.172,211.793,211.793,0,0,1,359.372-26.951c.64.864,1.253,1.739,1.866,2.613a210.842,210.842,0,0,1,14.045,22.995q2.37,4.491,4.528,9.119c.406.842.8,1.682,1.175,2.548A213.419,213.419,0,0,1,8028.274,4528.612Z" fill="#c4c4c4"/>
                </g>
              </g>
            </g>
            <g id="Group_545" data-name="Group 545">
              <g id="Group_544" data-name="Group 544">
                <path id="Path_1286" data-name="Path 1286" d="M7642.91,4707.014l-1.664-2.721a218.393,218.393,0,0,1-12.626-23.868c-1.821-4.026-3.536-8.147-5.1-12.249a216.817,216.817,0,0,1-8.173-26.3c-24.384-100.851,26.642-205.131,121.328-247.953s206.688-12.276,266.316,72.635a216.612,216.612,0,0,1,14.359,23.517c2.04,3.86,4,7.87,5.828,11.906h0a218.139,218.139,0,0,1,9.589,25.245l.943,3.046-2.479,2.006c-36.312,29.368-105.406,68.346-184.828,104.266s-154.32,62.064-200.352,69.936Zm182.91-322.929a206.558,206.558,0,0,0-85.263,18.412c-90.57,40.961-139.378,140.7-116.056,237.161a207.416,207.416,0,0,0,7.819,25.165c1.5,3.929,3.135,7.869,4.876,11.722a209.837,209.837,0,0,0,10.43,20.091c44.978-8.306,119.147-34.413,194.9-68.674s144.339-72.716,180.279-101.006a209.438,209.438,0,0,0-8.2-21.1h0c-1.748-3.863-3.624-7.7-5.579-11.4a206.528,206.528,0,0,0-183.207-110.376Z"/>
              </g>
            </g>
          </g>
          <g id="Group_558" data-name="Group 558">
            <g id="Group_548" data-name="Group 548">
              <g id="Group_547" data-name="Group 547">
                <path id="Path_1287" data-name="Path 1287" d="M8140.756,4481.738c12.787,28.273-29.367,77.353-103.887,128.67-44.12,30.384-99.6,61.557-161.732,89.658S7752.95,4749.244,7701,4762.31c-87.747,22.07-152.433,21.309-165.22-6.963-11.612-25.676,22.076-68.5,84.148-114.582a211.466,211.466,0,0,0,8,25.738c-17.161,14.034-25.611,25.167-22.675,31.658,2.989,6.61,17.408,7.536,40.011,3.677,43.674-7.47,117.916-32.822,199.207-69.587s149.357-75.773,183.808-103.636c17.817-14.421,26.643-25.86,23.654-32.471-2.932-6.483-16.876-7.5-38.739-3.882a211.765,211.765,0,0,0-14.046-23C8074.742,4453.082,8129.144,4456.062,8140.756,4481.738Z" fill="#ffc943"/>
              </g>
            </g>
            <g id="Group_550" data-name="Group 550">
              <g id="Group_549" data-name="Group 549">
                <path id="Path_1288" data-name="Path 1288" d="M7615.165,4724.076c-16.085,0-28.321-3.326-32.34-12.212-5.758-12.733,7.55-32.06,39.555-57.445l4.532,5.713c-27.413,21.741-41.411,39.956-37.444,48.727,4.745,10.494,39.577,13.887,122.132-11.074,42.37-12.823,90.28-31.141,138.548-52.971s93.657-45.708,131.266-69.057c73.267-45.508,93.722-73.909,88.977-84.4-3.968-8.771-26.894-10.288-61.316-4.059l-1.3-7.175c40.2-7.271,63.5-4.5,69.257,8.23,11.242,24.86-52.674,69.314-91.773,93.6-37.877,23.514-83.558,47.55-132.107,69.507s-96.773,40.391-139.444,53.305C7685.4,4713.321,7644.075,4724.075,7615.165,4724.076Z" fill="#ffec90"/>
              </g>
            </g>
            <g id="Group_552" data-name="Group 552">
              <g id="Group_551" data-name="Group 551">
                <path id="Path_1289" data-name="Path 1289" d="M7604.094,4752.634c-26.18,0-42.9-6.02-48.34-18.053-11.281-24.944,28.571-62.2,63.99-89.057l4.4,5.809c-45.712,34.667-68.8,64.665-61.751,80.243,8.879,19.629,63.421,18.348,142.34-3.343,48.255-13.259,102.529-33.277,156.958-57.892s105.287-52.144,147.116-79.628c68.411-44.942,105.4-85.054,96.517-104.684-7.046-15.577-44.82-18.05-101.037-6.621l-1.454-7.143c43.562-8.861,97.852-14.181,109.134,10.76,10.777,23.832-25.364,65.3-99.157,113.781-42.143,27.688-93.359,55.413-148.115,80.178s-109.415,44.921-158.031,58.278C7664.525,4746.846,7629.762,4752.634,7604.094,4752.634Z" fill="#ffec90"/>
              </g>
            </g>
            <g id="Group_554" data-name="Group 554">
              <g id="Group_553" data-name="Group 553">
                <path id="Path_1290" data-name="Path 1290" d="M8145.045,4479.8c13.55,29.962-24.9,78.981-105.506,134.487-45.92,31.622-102.1,62.768-162.462,90.07s-120.855,48.92-174.931,62.519c-41.689,10.484-77.073,15.689-104.789,15.691-35.381,0-58.269-8.478-65.868-25.28-12.384-27.384,18.026-70.107,85.63-120.3l5.708-4.239,1.673,6.91a207.554,207.554,0,0,0,7.82,25.166l1.213,3.173-2.63,2.151c-23.93,19.57-21.482,25.818-21.366,26.075s3.284,6.384,34.931.975c44.61-7.629,120.5-34.158,198.06-69.235s147.6-74.547,182.787-103.008c24.952-20.2,22.443-26.608,22.324-26.871s-3.191-6.219-33.682-1.176l-3.351.554-1.582-3.007a207.85,207.85,0,0,0-13.733-22.491l-4.083-5.819,6.951-1.487m-381.023,184.09c-58.089,44.179-86.828,83.081-77.068,104.661,11.151,24.657,72.376,26.321,159.782,4.337,53.541-13.465,113.484-34.893,173.348-61.968s115.536-57.935,161-89.244c74.234-51.121,113.421-98.2,102.267-122.855-9.758-21.58-57.951-25.688-129.486-11.241,3.116,4.766,6.051,9.669,8.777,14.655,23.776-3.561,36.665-1.281,40.46,7.112,4.032,8.914-3.907,21.011-24.981,38.068-36.313,29.37-105.407,68.348-184.829,104.268s-154.32,62.064-200.352,69.936c-26.739,4.568-41.064,2.541-45.1-6.376-3.795-8.394,3.008-19.582,21.386-35.083C7620.4,4659.673,7618.657,4654.231,7617.136,4648.747Z"/>
              </g>
            </g>
            <g id="Group_557" data-name="Group 557" opacity="0.35">
              <g id="Group_556" data-name="Group 556">
                <g id="Group_555" data-name="Group 555">
                  <path id="Path_1291" data-name="Path 1291" d="M8139.032,4510.039c-11.685,27.688-48.552,63.461-102.163,100.374-44.116,30.383-99.6,61.555-161.729,89.655s-122.19,49.175-174.142,62.248c-87.748,22.064-152.433,21.3-165.224-6.966-7.766-17.157,4.707-41.985,32.384-70.321-4.566,10.791-5.307,20.369-1.718,28.3,12.791,28.277,77.475,29.042,165.223,6.966,51.952-13.061,112-34.136,174.143-62.236s117.613-59.283,161.728-89.666C8096.834,4548.224,8121.122,4528.4,8139.032,4510.039Z"/>
                </g>
              </g>
            </g>
          </g>
        </g>
        <g id="Group_561" data-name="Group 561" opacity="0.35">
          <g id="Group_560" data-name="Group 560">
            <path id="Path_1292" data-name="Path 1292" d="M7933.215,4402.364c-8.312,12.451-22.59,28.31-43.576,33.533-36.3,9.023-.159,78.712-36.3,101.991-40.72,26.231-82.12,3.217-82-15.646.159-23.757,9.087-56.834-9.341-27.154-13.577,21.857-38.661,27.96-59.212,24.394-17.186-2.983-44.2-11.89-29.489-39.086,11.2-20.71,13.195-38.5,12.123-51.6.912-.7,1.836-1.4,2.77-2.092a240.15,240.15,0,0,1,245.032-24.34Z"/>
          </g>
        </g>
      </g>
      <g id="Group_564" data-name="Group 564" opacity="0.35">
        <g id="Group_563" data-name="Group 563">
          <path id="Path_1293" data-name="Path 1293" d="M7836.028,4409.993c42.857,3.752,118.1,4.716,125.084-37.5a140.357,140.357,0,0,0,1.672-17.932c-12.372,8.666-28.434-.543-29.8-12.051-8.409-71.041-33.119-99.492-45.283-109.434-38.924,3.278-84.944,23.14-87.013,50.125C7798.684,4309.174,7793.17,4406.242,7836.028,4409.993Z"/>
        </g>
      </g>
      <g id="Group_566" data-name="Group 566">
        <g id="Group_565" data-name="Group 565">
          <path id="Path_1294" data-name="Path 1294" d="M7871.846,4415.915c-12.146,0-24.439-.665-36.187-1.694-42.63-3.73-42.86-83.893-39.2-131.347,1.255-16.3,16.15-31.246,41.944-42.082,32.5-13.658,79.56-18.337,98.917-2.085h0c20.186,16.946,35.352,89.844,27.98,134.483C7959.747,4406.79,7916.818,4415.914,7871.846,4415.915Zm26.631-179.122c-17.43,0-38.192,4.012-56.789,11.826-22.382,9.4-35.783,22.127-36.768,34.908-2.145,27.842-6.215,118.938,31.48,122.237,42.3,3.7,114.214,4.216,120.52-33.957,6.725-40.721-7.328-111.709-25.062-126.6h0C7925.127,4239.56,7912.951,4236.793,7898.477,4236.793Z"/>
        </g>
      </g>
      <g id="Group_568" data-name="Group 568">
        <g id="Group_567" data-name="Group 567">
          <path id="Path_1295" data-name="Path 1295" d="M7926.432,4312.985l19.474-6.542a7.717,7.717,0,0,1,10.029,5.779c3.149,15.662,7.544,48.008-8.356,53.7-19.269,6.9-24.743-15.191-26.4-45.217A7.712,7.712,0,0,1,7926.432,4312.985Z" fill="#c4c4c4"/>
        </g>
      </g>
      <g id="Group_570" data-name="Group 570" opacity="0.35">
        <g id="Group_569" data-name="Group 569">
          <path id="Path_1296" data-name="Path 1296" d="M7921.218,4320.659c1.588,30.029,7.014,52.139,26.3,45.277,7.921-2.806,10.827-12.244,11.357-22.938a13.8,13.8,0,0,1-7.346,6.36c-17.264,6.134-23.428-10.944-25.652-36.155A7.636,7.636,0,0,0,7921.218,4320.659Z"/>
        </g>
      </g>
      <g id="Group_572" data-name="Group 572">
        <g id="Group_571" data-name="Group 571">
          <path id="Path_1297" data-name="Path 1297" d="M7940.94,4371.177a16.054,16.054,0,0,1-9.094-2.712c-8.781-5.856-13.149-20.089-14.607-47.593a11.715,11.715,0,0,1,7.989-11.694l19.488-6.5a11.7,11.7,0,0,1,15.177,8.8c3.764,18.934,7.332,51.674-11.047,58.207A23.667,23.667,0,0,1,7940.94,4371.177Zm7.492-61.144a3.779,3.779,0,0,0-1.2.2l-19.49,6.5a3.736,3.736,0,0,0-2.556,3.722c.461,8.72,1.867,35.253,11.074,41.394,2.548,1.7,5.792,1.813,9.918.344,9.169-3.258,11.376-21.634,5.907-49.154a3.671,3.671,0,0,0-1.78-2.489A3.724,3.724,0,0,0,7948.432,4310.033Zm-21.946,2.92h0Z"/>
        </g>
      </g>
      <g id="Group_574" data-name="Group 574">
        <g id="Group_573" data-name="Group 573">
          <path id="Path_1298" data-name="Path 1298" d="M7939.992,4252.037c-2.324.365-4.733.794-7.1,1.239s-4.742.927-7.1,1.435c-4.719,1.025-9.408,2.176-13.991,3.587l-.021.006a2.127,2.127,0,0,1-1.538-3.955c4.509-2.141,9.111-4.006,13.75-5.745q3.481-1.3,6.995-2.508c2.353-.806,4.674-1.58,7.1-2.332a4.257,4.257,0,0,1,2.521,8.132,4.433,4.433,0,0,1-.577.136Z"/>
        </g>
      </g>
      <g id="Group_576" data-name="Group 576">
        <g id="Group_575" data-name="Group 575">
          <path id="Path_1299" data-name="Path 1299" d="M7766.422,4439.139" fill="none" stroke="#371a45" stroke-linecap="round" stroke-miterlimit="10" stroke-width="24"/>
        </g>
      </g>
      <g id="Group_578" data-name="Group 578">
        <g id="Group_577" data-name="Group 577">
          <path id="Path_1300" data-name="Path 1300" d="M7705.6,4395.455" fill="none" stroke="#371a45" stroke-linecap="round" stroke-miterlimit="10" stroke-width="24"/>
        </g>
      </g>
      <g id="Group_580" data-name="Group 580">
        <g id="Group_579" data-name="Group 579">
          <path id="Path_1301" data-name="Path 1301" d="M7746.783,4267.18l-5.4-30.765A222.558,222.558,0,0,1,7746.783,4267.18Z" fill="#c4c4c4"/>
        </g>
      </g>
      <g id="Group_582" data-name="Group 582">
        <g id="Group_581" data-name="Group 581">
          <path id="Path_1302" data-name="Path 1302" d="M7914.067,4402.128c-15.112,17.319-45.484,21.692-53.263,33.386-6.845,10.273-4.382,23.347-3.735,37.069.562,11.727-1.433,27.083-11.3,40.39-14.932,20.132-43.277,22.233-58.633,9.424-17.532-14.613,4.255-51.385,7.418-55.916,0,0-4.786-5.879-9.233-11.164a26.7,26.7,0,0,1-4.086-6.813A45.265,45.265,0,0,1,7778,4435.78c-20.015,19.3-36.613,52.361-36.613,52.361-13.806,24.238-68.778,10.262-82.372-15.643-2.908-5.539-4.086-10.071-4.022-13.785.371-19.782,36.251-16.205,36.251-16.205s-9.18-36.634,24.684-58.156a83.978,83.978,0,0,1,20.822-9.285s5.666-18.827,8.9-46.249a307.44,307.44,0,0,0,2.155-41.027,228.619,228.619,0,0,0-6.421-51.374l133.025-9.052q6.3,7.131,11.78,14.485C7932.989,4304.665,7935.494,4377.582,7914.067,4402.128Z" fill="#c4c4c4"/>
        </g>
      </g>
      <g id="Group_584" data-name="Group 584" opacity="0.35">
        <g id="Group_583" data-name="Group 583">
          <path id="Path_1303" data-name="Path 1303" d="M7833.212,4378.983l-51.979,69.521A45.265,45.265,0,0,1,7778,4435.78c-20.015,19.3-36.613,52.361-36.613,52.361-13.806,24.238-68.778,10.262-82.372-15.643-2.908-5.539-4.086-10.071-4.022-13.785,66.5,55.141,87.487-3.513,99.66-31.837,7.683-17.892,26.774-29.757,44.21-37.207-33.227,2.229-65.584-2.228-82.935-5.317a83.978,83.978,0,0,1,20.822-9.285s5.666-18.827,8.9-46.249c10.92-9.254,21.437-15.579,26.52-15.26,8.31.53,23.984,24.716,35.53,46.927,3.418,6.58,6.336,12.268,8.565,16.672.222.425,62.169-64.368,62.382-63.954.785,1.549-4.246,54.918-26.338,62.829C7846.25,4376.524,7833.212,4378.983,7833.212,4378.983Z"/>
        </g>
      </g>
      <g id="Group_586" data-name="Group 586">
        <g id="Group_585" data-name="Group 585">
          <path id="Path_1304" data-name="Path 1304" d="M7714.111,4504.932q-.531,0-1.066-.009c-20.739-.355-48.028-11.844-57.795-30.456-5.428-10.343-5.967-18.869-1.6-25.341,6.875-10.193,23.739-11.324,32.616-11.14-1.394-14.031-.2-50.877,47.015-66.276,3.318-12.289,18.761-75.338,3.984-134.258a4.244,4.244,0,0,1,8.234-2.065c16.964,67.634-3.795,137.947-4.687,140.907l-.656,2.18-2.179.659c-53.3,16.124-43.083,60.47-42.622,62.349l1.43,5.831-5.972-.584c-6.6-.652-24.89-.628-30.128,7.15-2.48,3.682-1.779,9.281,2.084,16.642,7.314,13.938,29.934,25.563,50.423,25.913,6.811.118,19.115-1.068,24.451-10.309,1.885-3.734,31.463-61.469,60.739-67.613a4.245,4.245,0,1,1,1.743,8.309c-21.265,4.462-46.874,47.149-54.949,63.221l-.1.195C7739.663,4499.736,7728.692,4504.932,7714.111,4504.932Zm22.635-129.863h0Z"/>
        </g>
      </g>
      <g id="Group_588" data-name="Group 588">
        <g id="Group_587" data-name="Group 587">
          <path id="Path_1305" data-name="Path 1305" d="M7829.337,4477.087" fill="#c4c4c4"/>
        </g>
      </g>
      <g id="Group_590" data-name="Group 590">
        <g id="Group_589" data-name="Group 589">
          <path id="Path_1306" data-name="Path 1306" d="M7836.365,4267.987" fill="#32b1d1"/>
        </g>
      </g>
      <g id="Group_592" data-name="Group 592">
        <g id="Group_591" data-name="Group 591">
          <path id="Path_1307" data-name="Path 1307" d="M7859.806,4378.614a74.579,74.579,0,0,0-52.57,3.127,54.262,54.262,0,0,0-15.744,10.542c-16.629,16.493-17.1,49.608-5.805,63.03,4.452,5.292,9.24,11.168,9.24,11.168-3.163,4.533-24.953,41.3-7.418,55.919,15.355,12.8,43.7,10.7,58.626-9.432,9.869-13.306,11.872-28.657,11.311-40.389-.657-13.719-3.11-26.8,3.726-37.066,7.788-11.7,38.153-16.068,53.265-33.383,23.1-26.471,18.385-109.136-39.66-174.77l20.137,107.2Z" fill="#c4c4c4"/>
        </g>
      </g>
      <g id="Group_594" data-name="Group 594" opacity="0.35">
        <g id="Group_593" data-name="Group 593">
          <path id="Path_1308" data-name="Path 1308" d="M7785.69,4455.317a31.063,31.063,0,0,1-5.7-11.345c18.656,20.981,46.333,23.889,46.333,23.889-12.888,12.533-23.57,8.267-38.926,12.533a101.273,101.273,0,0,1,7.524-13.913S7790.137,4460.6,7785.69,4455.317Z"/>
        </g>
      </g>
      <g id="Group_596" data-name="Group 596" opacity="0.35">
        <g id="Group_595" data-name="Group 595">
          <path id="Path_1309" data-name="Path 1309" d="M7914.439,4402.128c-15.112,17.319-45.484,21.692-53.263,33.386-6.845,10.262-4.383,23.347-3.725,37.069.552,11.727-1.443,27.083-11.313,40.38-14.931,20.142-43.277,22.233-58.633,9.434a18.459,18.459,0,0,1-6.325-11.334c1.742,2.388-.851-15.785,0-12.918,9.82,33.087,52.133,19.668,61.012,1.86,5.741-11.513,7.947-29.608,7.385-41.345-.658-13.722-6.021-35.316.813-45.589,7.789-11.695,41.063-7.547,56.175-24.856,18.072-20.715,19.123-75.825-9.074-130.255C7933.615,4316.646,7934.061,4379.651,7914.439,4402.128Z"/>
        </g>
      </g>
      <g id="Group_598" data-name="Group 598">
        <g id="Group_597" data-name="Group 597">
          <path id="Path_1310" data-name="Path 1310" d="M7859.019,4379.968c-12.764-1.542-25.159-1.514-37.024,1.363-1.484.335-2.93.8-4.394,1.195-1.434.5-2.89.921-4.29,1.5a67.211,67.211,0,0,0-8.256,3.719c-5.256,2.823-10.168,6.381-13.657,10.851a44.271,44.271,0,0,0-7.629,15.816,57.926,57.926,0,0,0-1.784,17.908l.046,1.127.133,1.114.263,2.227c.2,1.478.556,2.912.826,4.368a34.239,34.239,0,0,0,3.061,8,24.231,24.231,0,0,0,2.212,3.373l3.1,3.751,6.219,7.517,2,2.423-1.813,2.688c-1.132,1.678-2.356,3.8-3.442,5.794-1.1,2.034-2.147,4.108-3.123,6.206a88.832,88.832,0,0,0-4.884,12.851,44.222,44.222,0,0,0-1.934,12.949c.061,4.194,1.186,8.009,3.55,10.752a6.552,6.552,0,0,0,.935,1,8.869,8.869,0,0,0,1.074.938c.852.6,1.65,1.261,2.533,1.818.92.505,1.815,1.049,2.744,1.541l2.917,1.255a36.322,36.322,0,0,0,12.661,2.114,39.164,39.164,0,0,0,24.137-8.4c6.85-5.249,11.67-13.175,14.572-21.575a60.414,60.414,0,0,0,2.788-13.155,64.808,64.808,0,0,0,.341-6.779c.012-1.134-.034-2.268-.071-3.4l-.205-3.529c-.3-4.734-.747-9.6-.762-14.676a43.068,43.068,0,0,1,2.463-15.7,16.515,16.515,0,0,1,.819-1.931c.317-.628.582-1.281.951-1.882l1.091-1.813a20.468,20.468,0,0,1,1.4-1.85,29.575,29.575,0,0,1,6.44-5.437,106.312,106.312,0,0,1,13.375-6.891c8.811-3.975,17.468-7.711,24.8-12.947a40.777,40.777,0,0,0,9.38-9,44.369,44.369,0,0,0,5.839-11.76,80.835,80.835,0,0,0,3.172-13.268,118.8,118.8,0,0,0,1.134-13.829,152.678,152.678,0,0,0-2.212-27.922,195.329,195.329,0,0,0-17.749-53.406l-1.609-3.148-1.709-3.1-1.725-3.085-1.844-3.017-1.838-3.016-1.915-2.969c-1.248-2-2.5-3.988-3.806-5.953-2.517-3.987-5.186-7.871-7.681-11.917-1.312-1.975-2.509-4.049-3.749-6.1a70.817,70.817,0,0,1-3.547-6.371l-.024-.048a1.454,1.454,0,0,1,2.143-1.827,70,70,0,0,1,5.815,4.611c.963.783,1.794,1.68,2.682,2.532s1.73,1.745,2.579,2.634a103.078,103.078,0,0,1,9.232,11.456c1.465,1.973,2.768,4.055,4.073,6.134l1.926,3.138,1.8,3.214,1.794,3.214,1.7,3.264,1.712,3.257,1.61,3.309a204.793,204.793,0,0,1,18.5,55.762,160.918,160.918,0,0,1,2.331,29.532,127.024,127.024,0,0,1-1.226,14.915,89.189,89.189,0,0,1-3.537,14.758,52.744,52.744,0,0,1-6.986,13.976,49.1,49.1,0,0,1-11.317,10.93c-8.382,5.961-17.559,9.84-26.242,13.779a99.507,99.507,0,0,0-12.271,6.288,21.4,21.4,0,0,0-4.577,3.8,12.071,12.071,0,0,0-.778,1.025l-.766,1.28c-.268.419-.443.894-.673,1.336a10.326,10.326,0,0,0-.588,1.387c-1.485,3.755-1.891,8.123-1.9,12.649.009,4.546.433,9.275.745,14.139l.212,3.673c.045,1.27.093,2.539.081,3.81a73.087,73.087,0,0,1-.384,7.625,68.96,68.96,0,0,1-3.19,15.016,62.48,62.48,0,0,1-6.759,13.925c-.759,1.055-1.441,2.144-2.27,3.168l-2.527,3.051c-.865,1-1.864,1.872-2.8,2.809a27.6,27.6,0,0,1-3.01,2.577,46.288,46.288,0,0,1-13.826,7.579,49.293,49.293,0,0,1-15.524,2.639,44.777,44.777,0,0,1-15.643-2.639l-3.711-1.6c-1.2-.623-2.368-1.32-3.546-1.988-1.148-.725-2.221-1.587-3.326-2.386a16.015,16.015,0,0,1-1.636-1.434,13.449,13.449,0,0,1-1.529-1.63,22.6,22.6,0,0,1-4.246-7.733,29.069,29.069,0,0,1-1.306-8.285,52.483,52.483,0,0,1,2.257-15.492,97.258,97.258,0,0,1,5.349-14.1q1.579-3.395,3.363-6.681c1.219-2.222,2.382-4.287,3.938-6.6l.191,5.111-6.163-7.448-3.085-3.737a32.64,32.64,0,0,1-3.131-4.715,47.973,47.973,0,0,1-5.372-20.438,66.742,66.742,0,0,1,2.041-20.576,53.578,53.578,0,0,1,8.929-19.024A50.22,50.22,0,0,1,7800.7,4379.7a69.182,69.182,0,0,1,19.385-6.99c13.432-2.737,27.742-1.424,39.753,4.551a1.435,1.435,0,0,1-.808,2.71Z"/>
        </g>
      </g>
      <g id="Group_643" data-name="Group 643">
        <g id="Group_600" data-name="Group 600">
          <g id="Group_599" data-name="Group 599">
            <path id="Path_1311" data-name="Path 1311" d="M7685.746,4221.144c90.643,134.313,281.62,15.118,208.755-122.875C7804.978,3958.579,7607.686,4081.974,7685.746,4221.144Z" fill="#c4c4c4"/>
          </g>
        </g>
        <g id="Group_602" data-name="Group 602">
          <g id="Group_601" data-name="Group 601">
            <path id="Path_1312" data-name="Path 1312" d="M7685.746,4221.144c90.643,134.313,281.62,15.118,208.755-122.875C7804.978,3958.579,7607.686,4081.974,7685.746,4221.144Z" fill="#c4c4c4"/>
          </g>
        </g>
        <g id="Group_604" data-name="Group 604" opacity="0.35">
          <g id="Group_603" data-name="Group 603">
            <path id="Path_1313" data-name="Path 1313" d="M7886.189,4241.85c-30.319,42.036-86.936,64.109-138.384,45.941a228.619,228.619,0,0,0-6.421-51.374l133.025-9.052Q7880.713,4234.5,7886.189,4241.85Z"/>
          </g>
        </g>
        <g id="Group_606" data-name="Group 606">
          <g id="Group_605" data-name="Group 605">
            <path id="Path_1314" data-name="Path 1314" d="M7685.746,4221.144c90.643,134.313,281.62,15.118,208.755-122.875C7804.978,3958.579,7607.686,4081.974,7685.746,4221.144Z" fill="#c4c4c4"/>
          </g>
        </g>
        <g id="Group_608" data-name="Group 608">
          <g id="Group_607" data-name="Group 607">
            <path id="Path_1315" data-name="Path 1315" d="M7787.876,4282.992a116.427,116.427,0,0,1-21.9-2.066c-32.7-6.252-61.305-26.339-82.732-58.089l-.131-.213c-18.615-33.187-23.133-67.845-13.063-100.228,8.982-28.891,28.939-53.81,56.192-70.167,27.2-16.325,58.376-22.072,87.8-16.17,33.172,6.65,61.877,27.6,83.014,60.577l.128.221c17.4,32.954,21.2,67.167,10.978,98.941-9.141,28.417-28.917,52.9-55.689,68.936A125.9,125.9,0,0,1,7787.876,4282.992Zm-99.551-63.438c45.351,67.1,113.544,68.436,161.032,39.988,46.4-27.795,79.478-89.634,42.528-159.747-44.549-69.4-115.468-70.626-162.532-42.377C7681.823,4085.944,7648.727,4148.837,7688.325,4219.554Z"/>
          </g>
        </g>
        <g id="Group_610" data-name="Group 610" opacity="0.35">
          <g id="Group_609" data-name="Group 609">
            <path id="Path_1316" data-name="Path 1316" d="M7685.746,4221.14c76.27,117.373,248.312,43.006,221.882-88.907-5.569,43.519-20.352,46.088-41.822,69.3-65.63,75.909-178.042,29.22-196.805-57.019A121.152,121.152,0,0,0,7685.746,4221.14Z"/>
          </g>
        </g>
        <g id="Group_612" data-name="Group 612">
          <g id="Group_611" data-name="Group 611">
            <path id="Path_1317" data-name="Path 1317" d="M7787.876,4284.21a117.693,117.693,0,0,1-22.133-2.087c-33.023-6.314-61.9-26.58-83.514-58.6l-.184-.3c-18.783-33.486-23.335-68.476-13.165-101.186,9.074-29.177,29.22-54.339,56.73-70.851,27.46-16.479,58.941-22.276,88.666-16.319,33.5,6.717,62.481,27.85,83.8,61.115l.18.308c17.557,33.251,21.381,67.791,11.059,99.884-9.23,28.7-29.2,53.419-56.221,69.609A127.115,127.115,0,0,1,7787.876,4284.21Zm-98.512-65.3c44.9,66.391,112.382,67.73,159.367,39.583,45.913-27.5,78.649-88.691,42.1-158.087-44.112-68.671-114.286-69.9-160.852-41.947C7682.95,4086.689,7650.206,4148.927,7689.364,4218.914Z" fill="#293856"/>
          </g>
        </g>
        <g id="Group_614" data-name="Group 614">
          <g id="Group_613" data-name="Group 613">
            <path id="Path_1318" data-name="Path 1318" d="M7787.876,4284.21a117.693,117.693,0,0,1-22.133-2.087c-33.023-6.314-61.9-26.58-83.514-58.6l-.184-.3c-18.783-33.486-23.335-68.476-13.165-101.186,9.074-29.177,29.22-54.339,56.73-70.851,27.46-16.479,58.941-22.276,88.666-16.319,33.5,6.717,62.481,27.85,83.8,61.115l.18.308c17.557,33.251,21.381,67.791,11.059,99.884-9.23,28.7-29.2,53.419-56.221,69.609A127.115,127.115,0,0,1,7787.876,4284.21Zm-98.512-65.3c44.9,66.391,112.382,67.73,159.367,39.583,45.913-27.5,78.649-88.691,42.1-158.087-44.112-68.671-114.286-69.9-160.852-41.947C7682.95,4086.689,7650.206,4148.927,7689.364,4218.914Z"/>
          </g>
        </g>
        <g id="Group_616" data-name="Group 616">
          <g id="Group_615" data-name="Group 615">
            <path id="Path_1319" data-name="Path 1319" d="M7705.077,4245.427c122.526,72.3,226.542-70.679,133.606-153.611C7728.943,4005.25,7605.758,4140.169,7705.077,4245.427Z"/>
          </g>
        </g>
        <g id="Group_618" data-name="Group 618">
          <g id="Group_617" data-name="Group 617">
            <path id="Path_1320" data-name="Path 1320" d="M7672.324,4161.175c-.535,128.581,183.352,139.292,203.135,21.818C7816.542,4252.2,7706.787,4223.4,7672.324,4161.175Z" fill="#d66b09"/>
          </g>
        </g>
        <g id="Group_620" data-name="Group 620">
          <g id="Group_619" data-name="Group 619">
            <path id="Path_1321" data-name="Path 1321" d="M7777.706,4280.147a100.679,100.679,0,0,1-25.538-3.263c-27.323-7.158-51.258-25.817-69.217-53.956l-.013-.021c-29.373-46.8-24.315-123.1,30.031-162.079l.484-.288c29.474-14.324,65.215-15.295,98.061-2.663,32.731,12.586,58.491,37.089,70.674,67.226,11.048,29.48,10.6,59.331-1.276,86.4a116.047,116.047,0,0,1-54.487,56.938A109.19,109.19,0,0,1,7777.706,4280.147Zm-89.156-60.775c39.487,61.861,97.356,61.9,134.911,43.141,43.169-21.564,75.081-74.862,52.548-135-11.467-28.359-35.854-51.512-66.876-63.442-31.04-11.936-64.744-11.09-92.527,2.316C7665.5,4103.237,7660.824,4175.185,7688.55,4219.372Z"/>
          </g>
        </g>
        <g id="Group_622" data-name="Group 622">
          <g id="Group_621" data-name="Group 621">
            <path id="Path_1322" data-name="Path 1322" d="M7772.149,4269.456c-22.811,0-46.377-6.889-69.23-20.373l-.518-.306-.412-.437c-24.038-25.476-37.051-54.575-37.63-84.151a102.315,102.315,0,0,1,26.91-71.384,100.455,100.455,0,0,1,66.677-32.6c28.364-2.142,57.19,7.63,83.366,28.279l.2.165c21.885,19.53,34.611,43.621,36.8,69.67,1.982,23.587-4.921,47.524-19.439,67.4a106.255,106.255,0,0,1-64.881,41.563A109.955,109.955,0,0,1,7772.149,4269.456Zm-64.4-27.38c62.261,36.444,117.286,15.577,144.264-21.362,24.483-33.519,28.995-85.356-16.062-125.645-54.292-42.758-108.633-29.079-138.42,3.467C7666.928,4131.977,7658.274,4189.275,7707.751,4242.076Z"/>
          </g>
        </g>
        <g id="Group_624" data-name="Group 624">
          <g id="Group_623" data-name="Group 623">
            <path id="Path_1323" data-name="Path 1323" d="M7926.682,4183.269c-7.739,56.608-65.125,53.616-63.184-1.171C7869.432,4122.469,7930.775,4125.661,7926.682,4183.269Z" fill="#c4c4c4"/>
          </g>
        </g>
        <g id="Group_626" data-name="Group 626" opacity="0.35">
          <g id="Group_625" data-name="Group 625">
            <path id="Path_1324" data-name="Path 1324" d="M7890.851,4224.618c-17.208-.77-29.918-21.636-27.1-45.389,11.055,24.754,36.782-16.526,38.5-28.3C7946.529,4161.642,7922.428,4226.712,7890.851,4224.618Z"/>
          </g>
        </g>
        <g id="Group_628" data-name="Group 628">
          <g id="Group_627" data-name="Group 627">
            <path id="Path_1325" data-name="Path 1325" d="M7892.255,4228.713q-1.21,0-2.4-.1c-16-1.373-31.673-16.336-30.6-46.664l.018-.27c3.279-32.955,23.21-48.644,41.172-47.113,16.254,1.386,32.723,17.313,30.472,49.006l-.029.274C7926.618,4215.071,7908.342,4228.713,7892.255,4228.713Zm-24.52-46.33c-.829,24.663,10.866,36.741,22.845,37.77,12.733,1.088,28.114-10.122,31.877-37.323,1.792-25.864-10.517-38.765-22.733-39.807C7885.921,4141.846,7870.509,4154.987,7867.735,4182.383Zm58.947.886h0Z"/>
          </g>
        </g>
        <g id="Group_630" data-name="Group 630">
          <g id="Group_629" data-name="Group 629">
            <path id="Path_1326" data-name="Path 1326" d="M7928.936,4186.4c-6.32,45.868-49.349,44.352-47.786.039C7885.785,4137.551,7932.545,4139.25,7928.936,4186.4Z" fill="#c4c4c4"/>
          </g>
        </g>
        <g id="Group_632" data-name="Group 632">
          <g id="Group_631" data-name="Group 631">
            <path id="Path_1327" data-name="Path 1327" d="M7902.329,4223.552q-.866,0-1.715-.074c-11.953-1.031-23.633-12.922-22.778-37.158l.011-.2c2.574-27.145,17.9-40.154,31.747-38.962,12.283,1.052,24.611,13.859,22.649,39.49l-.022.2C7928.7,4212.374,7914.6,4223.552,7902.329,4223.552Zm-17.868-36.9c-.67,19.819,7.91,29.459,16.724,30.219,9.6.836,21.34-8.466,24.451-30.826,1.582-21.06-7.494-31.494-16.608-32.274C7898.471,4152.865,7886.653,4163.868,7884.461,4186.651Zm44.475-.254h0Z"/>
          </g>
        </g>
        <g id="Group_634" data-name="Group 634" opacity="0.7">
          <g id="Group_633" data-name="Group 633">
            <path id="Path_1328" data-name="Path 1328" d="M7852.209,4157.582c-6.266,23.223-32.77,16.511-30.738-4.477C7825.529,4126.78,7856.9,4134.186,7852.209,4157.582Z" fill="#c4c4c4"/>
          </g>
        </g>
        <g id="Group_636" data-name="Group 636" opacity="0.7">
          <g id="Group_635" data-name="Group 635">
            <path id="Path_1329" data-name="Path 1329" d="M7838.574,4194.088c-2.909,8.743-14.557,6.032-12.277-3.761C7829.206,4181.585,7840.854,4184.3,7838.574,4194.088Z" fill="#c4c4c4"/>
          </g>
        </g>
        <g id="Group_638" data-name="Group 638" opacity="0.7">
          <g id="Group_637" data-name="Group 637">
            <path id="Path_1330" data-name="Path 1330" d="M7685.035,4170.154c-17.06-90.31,76.64-103.874,105.482-85.189C7730.4,4090.254,7704.453,4127.938,7685.035,4170.154Z" fill="#c4c4c4"/>
          </g>
        </g>
        <g id="Group_640" data-name="Group 640" opacity="0.35">
          <g id="Group_639" data-name="Group 639">
            <path id="Path_1331" data-name="Path 1331" d="M7879.037,4196.851a41.041,41.041,0,0,1,2.029-19.348c8.736,30.79,39.609,16.558,46.414-5.774C7935.2,4217.363,7889.083,4239.612,7879.037,4196.851Z"/>
          </g>
        </g>
        <g id="Group_642" data-name="Group 642">
          <g id="Group_641" data-name="Group 641">
            <path id="Path_1332" data-name="Path 1332" d="M7866.008,4148.93a7.162,7.162,0,0,1-3.057-.682c-5.325-2.493-5.9-10.614-5.949-13.043a4.245,4.245,0,0,1,8.488-.181h0a15.877,15.877,0,0,0,.978,5.152,7.483,7.483,0,0,0,.842-.595,4.245,4.245,0,1,1,5.3,6.629A10.617,10.617,0,0,1,7866.008,4148.93Zm-.106-8.486Z"/>
          </g>
        </g>
      </g>
      <g id="Group_645" data-name="Group 645">
        <g id="Group_644" data-name="Group 644">
          <path id="Path_1333" data-name="Path 1333" d="M7856.9,4450.687a3.423,3.423,0,0,1-.378-.022,3.186,3.186,0,0,1-2.788-3.537c3.8-32.074-14.947-46.834-23.181-51.692-12.568-7.415-27.336-8.291-35.913-2.138a3.183,3.183,0,1,1-3.713-5.171c10.727-7.705,27.954-6.971,42.861,1.825,19.388,11.436,29.208,33.091,26.27,57.925A3.184,3.184,0,0,1,7856.9,4450.687Z"/>
        </g>
      </g>
      <g id="Group_647" data-name="Group 647">
        <g id="Group_646" data-name="Group 646">
          <path id="Path_1334" data-name="Path 1334" d="M7793.742,4460.544c1,.72,2.283,1.586,3.477,2.323,1.223.754,2.462,1.49,3.742,2.135a40.569,40.569,0,0,0,7.91,3.176,30.05,30.05,0,0,0,8.435,1.026c.716-.048,1.448-.072,2.2-.079.721-.113,1.452-.234,2.21-.323.376-.052.761-.093,1.141-.158l1.117-.279c.755-.183,1.536-.351,2.352-.505-.567.562-1.167,1.11-1.794,1.643l-.956.795c-.335.241-.7.422-1.053.637-.712.421-1.446.828-2.2,1.209-.776.3-1.571.583-2.38.841a24.133,24.133,0,0,1-10.128.714,34.721,34.721,0,0,1-9.711-2.834,35.824,35.824,0,0,1-4.413-2.405,28.344,28.344,0,0,1-4.114-3.1,3.18,3.18,0,0,1,3.988-4.943Z"/>
        </g>
      </g>
      <g id="Group_649" data-name="Group 649">
        <g id="Group_648" data-name="Group 648">
          <path id="Path_1335" data-name="Path 1335" d="M7759.328,4461.515c-.053,0-.106,0-.159,0a3.187,3.187,0,0,1-3.024-3.337c1-20.324-3.74-36.116-14.088-46.933-14.774-15.446-36.258-15.458-36.433-15.492h-.014a3.184,3.184,0,0,1-.03-6.368c.994.009,24.327,0,41.023,17.4,11.642,12.132,16.993,29.529,15.9,51.707A3.185,3.185,0,0,1,7759.328,4461.515Z"/>
        </g>
      </g>
      <g id="Group_690" data-name="Group 690">
        <g id="Group_651" data-name="Group 651">
          <g id="Group_650" data-name="Group 650">
            <circle id="Ellipse_177" data-name="Ellipse 177" cx="13.347" cy="13.347" r="13.347" transform="translate(7732.018 4350.944) rotate(-73.922)" fill="#c4c4c4"/>
          </g>
        </g>
        <g id="Group_653" data-name="Group 653" opacity="0.35">
          <g id="Group_652" data-name="Group 652">
            <path id="Path_1336" data-name="Path 1336" d="M7735.232,4342.817a13.348,13.348,0,1,0,26.62-2,13.194,13.194,0,0,0-1.709-5.594,13.347,13.347,0,0,1-24.059,1.812A13.193,13.193,0,0,0,7735.232,4342.817Z"/>
          </g>
        </g>
        <g id="Group_655" data-name="Group 655">
          <g id="Group_654" data-name="Group 654">
            <path id="Path_1337" data-name="Path 1337" d="M7748.513,4359.409A17.595,17.595,0,0,1,7731,4343.137h0a17.592,17.592,0,1,1,18.863,16.222Q7749.184,4359.41,7748.513,4359.409Zm.033-26.7c-.229,0-.46.009-.691.027a9.1,9.1,0,0,0-8.391,9.759h0a9.1,9.1,0,1,0,9.082-9.786Z"/>
          </g>
        </g>
        <g id="Group_657" data-name="Group 657">
          <g id="Group_656" data-name="Group 656">
            <path id="Path_1338" data-name="Path 1338" d="M7764.9,4373.787l70.548-1.112a15.237,15.237,0,0,0,14.951-15.432l-.594-37.542a15.244,15.244,0,0,0-12.391-14.69,14.757,14.757,0,0,0-3.04-.261l-70.538,1.112a15.226,15.226,0,0,0-14.951,15.431l.464,29.735.12,7.808A15.238,15.238,0,0,0,7764.9,4373.787Z" fill="#c4c4c4"/>
          </g>
        </g>
        <g id="Group_659" data-name="Group 659" opacity="0.35">
          <g id="Group_658" data-name="Group 658">
            <path id="Path_1339" data-name="Path 1339" d="M7764.9,4373.787l70.548-1.112a15.237,15.237,0,0,0,14.951-15.432l-.594-37.542a15.244,15.244,0,0,0-12.391-14.69c-3.964,2.723-6.481,4.466-6.481,4.466-2.96,30.189-1.283,52.508-48.089,50.146a82.316,82.316,0,0,1-33.495-8.6l.12,7.808A15.238,15.238,0,0,0,7764.9,4373.787Z"/>
          </g>
        </g>
        <g id="Group_661" data-name="Group 661">
          <g id="Group_660" data-name="Group 660">
            <path id="Path_1340" data-name="Path 1340" d="M7764.654,4378.035a19.483,19.483,0,0,1-19.428-19.131l-.591-37.547a19.479,19.479,0,0,1,19.13-19.741l70.541-1.112c.1,0,.207,0,.31,0a19.461,19.461,0,0,1,19.433,19.131l.591,37.548a19.461,19.461,0,0,1-19.129,19.742l-70.544,1.11C7764.862,4378.035,7764.758,4378.035,7764.654,4378.035Zm70.79-5.356h0Zm-.83-63.688h-.174L7763.9,4310.1a10.994,10.994,0,0,0-10.776,11.119l.591,37.547a10.878,10.878,0,0,0,3.342,7.679,11.137,11.137,0,0,0,7.777,3.1l70.543-1.11a10.964,10.964,0,0,0,10.776-11.12l-.591-37.548A10.964,10.964,0,0,0,7834.614,4308.991Z"/>
          </g>
        </g>
        <g id="Group_663" data-name="Group 663">
          <g id="Group_662" data-name="Group 662">
            <path id="Path_1341" data-name="Path 1341" d="M7762.063,4373.554a13.526,13.526,0,0,0,2.836.233l70.548-1.112a15.222,15.222,0,0,0,13.681-9.146,14.941,14.941,0,0,0,1.26-6.285l-.257-16.678-.084-5.5-.243-15.361a15.238,15.238,0,0,0-15.431-14.951l-15.244.244a15.235,15.235,0,0,1,12.616,14.717l.326,20.279.269,17.273a15.245,15.245,0,0,1-14.951,15.432Z" fill="#c4c4c4"/>
          </g>
        </g>
        <g id="Group_665" data-name="Group 665" opacity="0.35">
          <g id="Group_664" data-name="Group 664">
            <path id="Path_1342" data-name="Path 1342" d="M7762.063,4373.554a13.526,13.526,0,0,0,2.836.233l70.548-1.112a15.222,15.222,0,0,0,14.941-15.431l-.341-22.182c-1.713,3.948-4.825,8.809-9.918,9.394-2.794.328-5.58-1.643-8.058-4.466l.269,17.273a15.245,15.245,0,0,1-14.951,15.432Z"/>
          </g>
        </g>
        <g id="Group_667" data-name="Group 667">
          <g id="Group_666" data-name="Group 666">
            <path id="Path_1343" data-name="Path 1343" d="M7764.589,4378.034a18.257,18.257,0,0,1-3.3-.3l.7-8.419,55.332-.866a10.987,10.987,0,0,0,10.767-11.117l-.591-37.548a10.959,10.959,0,0,0-9.09-10.611l.656-8.427,15.237-.242c.1,0,.2,0,.3,0a19.483,19.483,0,0,1,19.44,19.137l.592,37.543a19.476,19.476,0,0,1-19.125,19.741l-70.546,1.109C7764.84,4378.033,7764.715,4378.034,7764.589,4378.034Zm68.027-69.014a19.362,19.362,0,0,1,3.373,10.628l.591,37.546a19.224,19.224,0,0,1-3.4,11.273l2.2-.034a10.987,10.987,0,0,0,10.768-11.117h0l-.592-37.546a10.857,10.857,0,0,0-3.34-7.677,11.1,11.1,0,0,0-7.781-3.1Z"/>
          </g>
        </g>
        <g id="Group_669" data-name="Group 669">
          <g id="Group_668" data-name="Group 668">
            <path id="Path_1344" data-name="Path 1344" d="M7804.23,4339.23c.03,1.389,2.223,12.553,2.223,12.553l7.909-.17c5.446-.117,9.74-5.851,9.59-12.806s-4.685-12.5-10.131-12.383l-7.91.17S7804.182,4336.969,7804.23,4339.23Z" fill="#22a7f0"/>
          </g>
        </g>
        <g id="Group_671" data-name="Group 671" opacity="0.35">
          <g id="Group_670" data-name="Group 670">
            <path id="Path_1345" data-name="Path 1345" d="M7804.23,4339.23c.03,1.389,2.223,12.553,2.223,12.553l7.909-.17c5.446-.117,9.74-5.851,9.59-12.806s-4.685-12.5-10.131-12.383l-7.91.17S7804.182,4336.969,7804.23,4339.23Z"/>
          </g>
        </g>
        <g id="Group_673" data-name="Group 673">
          <g id="Group_672" data-name="Group 672">
            <path id="Path_1346" data-name="Path 1346" d="M7803.845,4355.024l-.517-2.627c-.838-4.271-2.25-11.651-2.281-13.1h0c-.052-2.436,1.427-11.446,1.724-13.227l.434-2.6,10.546-.228c7.156-.174,13.2,6.8,13.384,15.5s-5.511,15.9-12.7,16.058Zm3.568-15.887c.059.835.818,5.051,1.654,9.406l5.226-.113c3.621-.079,6.586-4.453,6.476-9.555s-3.276-9.4-6.88-9.269l-5.259.114C7807.968,4333.912,7807.4,4338.075,7807.413,4339.137Z"/>
          </g>
        </g>
        <g id="Group_675" data-name="Group 675">
          <g id="Group_674" data-name="Group 674">
            <ellipse id="Ellipse_178" data-name="Ellipse 178" cx="9.863" cy="12.597" rx="9.863" ry="12.597" transform="translate(7796.05 4326.806) rotate(-1.231)" fill="#22a7f0"/>
          </g>
        </g>
        <g id="Group_677" data-name="Group 677" opacity="0.35">
          <g id="Group_676" data-name="Group 676">
            <path id="Path_1347" data-name="Path 1347" d="M7816.043,4338.979c.152,6.952-4.143,12.689-9.587,12.807s-9.988-5.429-10.133-12.389a15.434,15.434,0,0,1,.18-2.748c1.5,4.747,5.184,8.074,9.413,7.977,4.7-.1,8.553-4.39,9.408-10.051A15.89,15.89,0,0,1,7816.043,4338.979Z"/>
          </g>
        </g>
        <g id="Group_679" data-name="Group 679">
          <g id="Group_678" data-name="Group 678">
            <path id="Path_1348" data-name="Path 1348" d="M7816.043,4338.979a13.767,13.767,0,0,1-.037,1.4c-1.2-5.427-5.156-9.373-9.756-9.272-5.074.114-9.156,5.1-9.55,11.413a15.971,15.971,0,0,1-.377-3.125c-.152-6.952,4.142-12.689,9.587-12.807S7815.89,4332.019,7816.043,4338.979Z" fill="#c4c4c4"/>
          </g>
        </g>
        <g id="Group_681" data-name="Group 681">
          <g id="Group_680" data-name="Group 680">
            <path id="Path_1349" data-name="Path 1349" d="M7806.287,4354.969c-7.087,0-12.964-6.9-13.149-15.5h0a17.641,17.641,0,0,1,3.332-10.944,11.609,11.609,0,0,1,18.958-.408,18.352,18.352,0,0,1,.466,21.736,11.984,11.984,0,0,1-9.373,5.113C7806.442,4354.967,7806.365,4354.969,7806.287,4354.969Zm-6.783-15.638c.111,5.1,3.25,9.312,6.88,9.269a5.771,5.771,0,0,0,4.414-2.564,12.012,12.012,0,0,0-.3-13.887,5.278,5.278,0,0,0-8.934.192,11.278,11.278,0,0,0-2.062,6.99Z"/>
          </g>
        </g>
        <g id="Group_683" data-name="Group 683">
          <g id="Group_682" data-name="Group 682">
            <path id="Path_1350" data-name="Path 1350" d="M7786.823,4376.355a3.184,3.184,0,0,1-3.179-3.058l-.959-24.321-10.738-6.519a3.185,3.185,0,0,1-1.531-2.661l-.653-34a3.183,3.183,0,1,1,6.366-.122l.619,32.244,10.7,6.5a3.186,3.186,0,0,1,1.53,2.6l1.026,26.029a3.185,3.185,0,0,1-3.056,3.308Z"/>
          </g>
        </g>
        <g id="Group_685" data-name="Group 685">
          <g id="Group_684" data-name="Group 684">
            <path id="Path_1351" data-name="Path 1351" d="M7921.5,4310.537s7.456,4.557,7.608,12.915a17.6,17.6,0,0,1-6.634,14.386s-23.119,16.825-76.748,13.525c0,0-13.556-14.239,2.117-25C7847.838,4326.361,7896.848,4334.4,7921.5,4310.537Z" fill="#c4c4c4"/>
          </g>
        </g>
        <g id="Group_687" data-name="Group 687" opacity="0.35">
          <g id="Group_686" data-name="Group 686">
            <path id="Path_1352" data-name="Path 1352" d="M7929.1,4323.264h0a17.632,17.632,0,0,1-6.634,14.576s-23.116,16.821-76.745,13.525c0,0-10.36-10.885-2.5-20.811.009.059.019.118.028.177a12.909,12.909,0,0,0,12.374,10.652c48.561,1.474,69.631-13.854,69.631-13.854A15.824,15.824,0,0,0,7929.1,4323.264Z"/>
          </g>
        </g>
        <g id="Group_689" data-name="Group 689">
          <g id="Group_688" data-name="Group 688">
            <path id="Path_1353" data-name="Path 1353" d="M7859.421,4356.039q-6.617,0-13.96-.438l-1.664-.1-1.149-1.208c-.307-.321-7.5-8-6.523-17.351.574-5.493,3.706-10.229,9.31-14.077l1.4-.965,1.684.275c.471.079,47.217,7.393,70.019-14.685l2.361-2.287,2.805,1.714c.386.236,9.446,5.894,9.638,16.461a21.9,21.9,0,0,1-8.459,17.951C7924.055,4341.934,7904.107,4356.039,7859.421,4356.039Zm-11.6-8.807c49.822,2.66,71.943-12.681,72.165-12.838a13.375,13.375,0,0,0,4.872-10.865,11.2,11.2,0,0,0-3.275-7.378c-23.884,19.793-63.579,15.87-72.626,14.661-2.639,2.122-4.112,4.462-4.385,6.971C7844.152,4341.644,7846.442,4345.376,7847.822,4347.232Z"/>
          </g>
        </g>
      </g>
      <g id="Group_692" data-name="Group 692" opacity="0.35">
        <g id="Group_691" data-name="Group 691">
          <path id="Path_1354" data-name="Path 1354" d="M7689.6,4362.261c-.963,2.779-1.852,5.409-2.655,7.829.8-2.42,1.679-5.05,2.643-7.829Z"/>
        </g>
      </g>
      <g id="Group_694" data-name="Group 694">
        <g id="Group_693" data-name="Group 693">
          <path id="Path_1355" data-name="Path 1355" d="M7789.456,4382.886s-4.816-18.97-12.333-47.291c-10.488-39.513-24.723-82.527-32.265-83.457-7.57-.934-28.479,29.968-42.414,63.57-11.281,27.205-20.522,57.672-20.522,57.672S7738.7,4399.864,7789.456,4382.886Z" fill="#ffc82c"/>
        </g>
      </g>
      <g id="Group_697" data-name="Group 697" opacity="0.41">
        <g id="Group_696" data-name="Group 696">
          <g id="Group_695" data-name="Group 695">
            <path id="Path_1356" data-name="Path 1356" d="M7789.46,4382.883q-3.891,1.3-7.817,2.26c-2.124-8.236-5.606-21.634-10-38.231-10.5-39.514-24.722-82.524-32.267-83.462-5.976-.729-20.288,18.4-32.908,43.034,13.669-29.809,31.525-55.2,38.391-54.346,7.545.927,21.783,43.948,32.266,83.451C7784.644,4363.916,7789.46,4382.883,7789.46,4382.883Z" fill="#c4c4c4"/>
          </g>
        </g>
      </g>
      <g id="Group_699" data-name="Group 699" opacity="0.1">
        <g id="Group_698" data-name="Group 698">
          <circle id="Ellipse_179" data-name="Ellipse 179" cx="15.177" cy="15.177" r="15.177" transform="translate(7721.604 4280.58)"/>
        </g>
      </g>
      <g id="Group_701" data-name="Group 701">
        <g id="Group_700" data-name="Group 700">
          <circle id="Ellipse_180" data-name="Ellipse 180" cx="10.739" cy="10.739" r="10.739" transform="translate(7726.042 4281.65)" fill="#f2101c"/>
        </g>
      </g>
      <g id="Group_704" data-name="Group 704" opacity="0.41">
        <g id="Group_703" data-name="Group 703">
          <g id="Group_702" data-name="Group 702">
            <path id="Path_1357" data-name="Path 1357" d="M7747.52,4292.391a10.863,10.863,0,0,1-.4,2.925,10.734,10.734,0,0,0-20.672,0,10.844,10.844,0,0,1-.4-2.925,10.736,10.736,0,1,1,21.472,0Z" fill="#c4c4c4"/>
          </g>
        </g>
      </g>
      <g id="Group_706" data-name="Group 706">
        <g id="Group_705" data-name="Group 705">
          <path id="Path_1358" data-name="Path 1358" d="M7736.781,4306.312a13.923,13.923,0,1,1,13.924-13.923A13.939,13.939,0,0,1,7736.781,4306.312Zm0-21.478a7.554,7.554,0,1,0,7.555,7.555A7.564,7.564,0,0,0,7736.781,4284.834Z"/>
        </g>
      </g>
      <g id="Group_708" data-name="Group 708" opacity="0.1">
        <g id="Group_707" data-name="Group 707">
          <circle id="Ellipse_181" data-name="Ellipse 181" cx="14.265" cy="14.265" r="14.265" transform="translate(7732.804 4339.137) rotate(-76.717)"/>
        </g>
      </g>
      <g id="Group_710" data-name="Group 710">
        <g id="Group_709" data-name="Group 709">
          <circle id="Ellipse_182" data-name="Ellipse 182" cx="11.102" cy="11.102" r="11.102" transform="translate(7739.907 4313.201)" fill="#f2101c"/>
        </g>
      </g>
      <g id="Group_713" data-name="Group 713" opacity="0.41">
        <g id="Group_712" data-name="Group 712">
          <g id="Group_711" data-name="Group 711">
            <path id="Path_1359" data-name="Path 1359" d="M7762.11,4324.128a11.106,11.106,0,0,0-20.443,6.006v.157a11.1,11.1,0,1,1,20.443-6.163Z" fill="#c4c4c4"/>
          </g>
        </g>
      </g>
      <g id="Group_715" data-name="Group 715">
        <g id="Group_714" data-name="Group 714">
          <path id="Path_1360" data-name="Path 1360" d="M7751.009,4338.588a14.285,14.285,0,1,1,14.286-14.285A14.3,14.3,0,0,1,7751.009,4338.588Zm0-22.2a7.917,7.917,0,1,0,7.918,7.918A7.927,7.927,0,0,0,7751.009,4316.385Z"/>
        </g>
      </g>
      <g id="Group_717" data-name="Group 717" opacity="0.1">
        <g id="Group_716" data-name="Group 716">
          <circle id="Ellipse_183" data-name="Ellipse 183" cx="13.648" cy="13.648" r="13.648" transform="translate(7704.246 4326.486)"/>
        </g>
      </g>
      <g id="Group_719" data-name="Group 719">
        <g id="Group_718" data-name="Group 718">
          <circle id="Ellipse_184" data-name="Ellipse 184" cx="10.673" cy="10.673" r="10.673" transform="translate(7707.221 4324.423)" fill="#f2101c"/>
        </g>
      </g>
      <g id="Group_722" data-name="Group 722" opacity="0.41">
        <g id="Group_721" data-name="Group 721">
          <g id="Group_720" data-name="Group 720">
            <path id="Path_1361" data-name="Path 1361" d="M7728.572,4335.1a10.623,10.623,0,0,1-1.139,4.8,10.682,10.682,0,0,0-20.12-3.36,10.264,10.264,0,0,1-.1-1.44,10.677,10.677,0,0,1,21.355,0Z" fill="#c4c4c4"/>
          </g>
        </g>
      </g>
      <g id="Group_724" data-name="Group 724">
        <g id="Group_723" data-name="Group 723">
          <path id="Path_1362" data-name="Path 1362" d="M7717.893,4348.954a13.858,13.858,0,1,1,13.858-13.858A13.874,13.874,0,0,1,7717.893,4348.954Zm0-21.347a7.489,7.489,0,1,0,7.489,7.489A7.5,7.5,0,0,0,7717.893,4327.607Z"/>
        </g>
      </g>
      <g id="Group_726" data-name="Group 726">
        <g id="Group_725" data-name="Group 725">
          <path id="Path_1363" data-name="Path 1363" d="M7789.453,4382.889c-50.752,16.98-107.53-9.508-107.53-9.508s3-9.9,7.668-23.462a232.1,232.1,0,0,0,94.38,11.719C7787.44,4374.937,7789.453,4382.889,7789.453,4382.889Z" fill="#ffa21a"/>
        </g>
      </g>
      <g id="Group_729" data-name="Group 729" opacity="0.41">
        <g id="Group_728" data-name="Group 728">
          <g id="Group_727" data-name="Group 727">
            <path id="Path_1364" data-name="Path 1364" d="M7789.447,4382.883c-50.752,16.979-107.53-9.508-107.53-9.508s1.173-3.865,3.2-10.064c10.4,4.4,57.778,22.622,101.8,9.718C7788.546,4379.339,7789.447,4382.883,7789.447,4382.883Z" fill="#c4c4c4"/>
          </g>
        </g>
      </g>
      <g id="Group_731" data-name="Group 731">
        <g id="Group_730" data-name="Group 730">
          <path id="Path_1365" data-name="Path 1365" d="M7752.206,4392.844c-28.831,0-54.577-8.576-66.567-13.3a10.4,10.4,0,0,1-6.093-12.788c1.3-4.1,3.405-10.592,6.033-18.219a4.241,4.241,0,0,1,5.409-2.626,228.781,228.781,0,0,0,92.622,11.5,4.249,4.249,0,0,1,4.468,3.158c1.991,7.636,3.506,13.512,4.432,17.134a8.688,8.688,0,0,1-6.045,10.562h0A124.053,124.053,0,0,1,7752.206,4392.844Zm-59.962-37.555c-1.967,5.811-3.552,10.716-4.607,14.037a1.866,1.866,0,0,0,1.115,2.319c15.824,6.234,56.794,19.535,95.369,8.458h0a.245.245,0,0,0,.165-.3c-.781-3.052-1.979-7.705-3.528-13.664A238.188,238.188,0,0,1,7692.244,4355.289Z"/>
        </g>
      </g>
      <g id="Group_733" data-name="Group 733">
        <g id="Group_732" data-name="Group 732">
          <path id="Path_1366" data-name="Path 1366" d="M7764.953,4366.687a237.773,237.773,0,0,1-76.758-12.76,4.244,4.244,0,0,1-2.615-5.395c4.472-12.932,8.827-24.521,12.945-34.445a273.538,273.538,0,0,1,23.989-45.479c14.549-21.707,20.593-20.961,22.865-20.69,3.785.473,8.638,3.219,18.489,30.016,5.429,14.769,11.591,34.86,17.352,56.573,2.656,9.981,4.968,18.816,6.858,26.058a4.246,4.246,0,0,1-3.748,5.3C7777.678,4366.435,7771.2,4366.687,7764.953,4366.687Zm-69.94-19.425a229.771,229.771,0,0,0,83.562,10.516c-1.618-6.185-3.484-13.287-5.56-21.092-12.569-47.373-24.031-76.192-28.8-80.2-5.472,2.211-23.538,26.328-37.846,60.854C7702.747,4326.066,7698.935,4336.115,7695.013,4347.262Zm48.8-91.066Z"/>
        </g>
      </g>
      <g id="Group_735" data-name="Group 735">
        <g id="Group_734" data-name="Group 734">
          <path id="Path_1367" data-name="Path 1367" d="M7707.707,4297.657c6.969,2.538,7.7,4.984,8.345,15.446s-7.606,44.531-18.882,44.871-20.3-.875-20.384-21.389C7676.693,4313.128,7692.257,4292.029,7707.707,4297.657Z" fill="#c4c4c4"/>
        </g>
      </g>
      <g id="Group_737" data-name="Group 737" opacity="0.35">
        <g id="Group_736" data-name="Group 736">
          <path id="Path_1368" data-name="Path 1368" d="M7714.294,4327.788c-2.96,13.547-9.32,29.946-17.128,30.181-11.273.344-20.3-.868-20.379-21.386a53.38,53.38,0,0,1,4.494-21.665,53.537,53.537,0,0,0-.611,8.226c.086,20.507,9.106,21.73,20.389,21.387C7706.336,4344.37,7710.937,4336.841,7714.294,4327.788Z"/>
        </g>
      </g>
      <g id="Group_739" data-name="Group 739">
        <g id="Group_738" data-name="Group 738">
          <path id="Path_1369" data-name="Path 1369" d="M7694.555,4361.2c-5.454,0-10.87-.7-14.933-4.628s-5.981-10.28-6.02-19.976c-.063-16.079,6.841-31.767,17.184-39.037,5.793-4.076,12.022-5.076,18.011-2.9,8.744,3.184,9.76,7.3,10.433,18.242.568,9.238-4.856,34.123-13.769,43.891-2.558,2.805-5.315,4.27-8.195,4.357C7696.366,4361.184,7695.459,4361.2,7694.555,4361.2Zm8-61.289a14.074,14.074,0,0,0-8.11,2.857c-8.578,6.031-14.532,19.932-14.476,33.8.029,7.757,1.364,12.8,4.076,15.422,2.678,2.589,6.8,2.981,13.027,2.8,1.359-.041,2.753-1.265,3.683-2.285,7.311-8.011,12.609-31.21,12.118-39.208-.632-10.266-1.207-10.812-6.257-12.651h0A11.8,11.8,0,0,0,7702.557,4299.913Z"/>
        </g>
      </g>
      <g id="Group_741" data-name="Group 741">
        <g id="Group_740" data-name="Group 740">
          <path id="Path_1370" data-name="Path 1370" d="M7692,4439.414a31.42,31.42,0,0,1,5.52,1.55,42.685,42.685,0,0,1,5.2,2.376,26.829,26.829,0,0,1,4.83,3.205,14.019,14.019,0,0,1,3.722,4.656c-2.014-.409-3.762-.827-5.515-1.266-1.751-.412-3.437-.931-5.148-1.385l-5.125-1.39c-1.682-.489-3.431-.985-5.016-1.566l-.1-.035a3.193,3.193,0,0,1,1.632-6.145Z"/>
        </g>
      </g>
      <g id="Group_743" data-name="Group 743">
        <g id="Group_742" data-name="Group 742">
          <path id="Path_1371" data-name="Path 1371" d="M7862.132,4267.18s-6.549,27.812-40.566,38.394c-27.893,8.677-41.245-8.051-59.188,11.733-15.777,17.394-8.231,49.579,13.483,54.635,21.32,4.964,90.786.9,105.247-54.507" fill="#c4c4c4"/>
        </g>
      </g>
      <g id="Group_745" data-name="Group 745" opacity="0.35">
        <g id="Group_744" data-name="Group 744">
          <path id="Path_1372" data-name="Path 1372" d="M7881.106,4317.431c-14.454,55.407-83.922,59.472-105.243,54.516-15.557-3.63-23.845-21.193-21.468-37.25,3.162,7.238,8.912,17.759,23.216,21.439,28.617,7.361,74.207-4.76,99.443-39.281a2.33,2.33,0,0,1,4.052.576Z"/>
        </g>
      </g>
      <g id="Group_747" data-name="Group 747">
        <g id="Group_746" data-name="Group 746">
          <path id="Path_1373" data-name="Path 1373" d="M7863.165,4267.423c-.319,7.153-3.492,13.613-7.629,19.212A53.7,53.7,0,0,1,7840.1,4300.6a79.963,79.963,0,0,1-18.917,8.365,63.616,63.616,0,0,1-20.583,2.422c-6.857-.188-13.449-1.449-19.375-.949a21.148,21.148,0,0,0-8.254,2.36l-1.878,1.094a16.938,16.938,0,0,0-1.779,1.322c-.576.475-1.193.877-1.741,1.405l-1.624,1.62c-8.717,8.314-10.848,22.144-6.829,33.506a27.5,27.5,0,0,0,10.383,14.013,21.468,21.468,0,0,0,7.994,3.266,66.545,66.545,0,0,0,9.357,1.128,120.311,120.311,0,0,0,38.166-4.317c12.35-3.44,24.109-9.151,33.6-17.491,1.223-1,2.279-2.172,3.43-3.246,1.112-1.114,2.117-2.325,3.178-3.484.985-1.222,1.908-2.5,2.838-3.756l2.479-3.992c3.23-5.406,5.673-11.016,9.534-16.7l.011-.015a1.12,1.12,0,0,1,2.043.551c.5,7.088-2.143,13.818-5.784,19.7-.95,1.456-1.99,2.852-2.983,4.274l-3.265,4.046c-1.173,1.272-2.279,2.609-3.5,3.831-1.257,1.183-2.43,2.466-3.763,3.562-10.4,9.136-23.042,15.209-36.087,18.848a126.568,126.568,0,0,1-40.253,4.547,72.833,72.833,0,0,1-10.3-1.252,30.334,30.334,0,0,1-5.3-1.573,28.477,28.477,0,0,1-4.919-2.622,33.839,33.839,0,0,1-12.872-17.213,41.334,41.334,0,0,1-1.61-21.176,36.419,36.419,0,0,1,3.483-10.216,33.272,33.272,0,0,1,6.438-8.7l1.89-1.873c.643-.614,1.405-1.139,2.1-1.71a22.244,22.244,0,0,1,2.2-1.619l2.4-1.4a27.582,27.582,0,0,1,10.648-3.063,60.615,60.615,0,0,1,10.44.218c3.33.279,6.555.622,9.725.711a57.208,57.208,0,0,0,18.593-2.177,64.715,64.715,0,0,0,17.12-7.781,65.663,65.663,0,0,0,13.791-12.521,120.526,120.526,0,0,0,10.764-15.611l.063-.107a1.076,1.076,0,0,1,2,.593Z"/>
        </g>
      </g>
      <g id="Group_749" data-name="Group 749">
        <g id="Group_748" data-name="Group 748">
          <path id="Path_1374" data-name="Path 1374" d="M7843.267,4365.508a3.182,3.182,0,0,1-2.921-4.447c12.635-29.239-13.726-55.528-13.993-55.79a3.183,3.183,0,0,1,4.454-4.549c1.222,1.194,29.736,29.654,15.384,62.865A3.184,3.184,0,0,1,7843.267,4365.508Z"/>
        </g>
      </g>
    </g>
    <g id="Group_760" data-name="Group 760" transform="translate(-6360 -3840)">
      <g id="Group_752" data-name="Group 752">
        <path id="Path_1375" data-name="Path 1375" d="M7573.755,4219.734c20.908,13.713,16.8,56.936,16.8,56.936s-38.007,20.989-58.914,7.275-28.428-39.2-16.8-56.935S7552.848,4206.021,7573.755,4219.734Z" fill="#f5c40d"/>
        <path id="Path_1376" data-name="Path 1376" d="M7516.975,4224.126c.007.1.023.2.031.3,4.944-2.616,10.84-3.787,16.253-4.5,10.511-1.388,21.136-1.459,31.174,2.4a60.262,60.262,0,0,1,21.675,14.661c-.018-.136-.028-.274-.046-.409-2.571-6.861-6.459-13.007-12.307-16.842C7554.04,4206.8,7529.466,4208.968,7516.975,4224.126Z" fill="#c4c4c4"/>
        <path id="Path_1377" data-name="Path 1377" d="M7590.4,4264.205a42.833,42.833,0,0,1-10.917,10.737c-16.919,11.344-39.244,4.767-53.768-7.514a59.21,59.21,0,0,1-16.33-22.327c-.236,14.275,7.814,29.37,22.259,38.844,20.907,13.714,58.914-7.275,58.914-7.275a110.079,110.079,0,0,0,.29-11.577Q7590.622,4264.647,7590.4,4264.205Z" fill="#c4c4c4"/>
        <path id="Rectangle_234" data-name="Rectangle 234" d="M2.139,0H31.1a2.139,2.139,0,0,1,2.139,2.139V5.883a2.14,2.14,0,0,1-2.14,2.14H2.139A2.139,2.139,0,0,1,0,5.884V2.139A2.139,2.139,0,0,1,2.139,0Z" transform="matrix(0.548, -0.836, 0.836, 0.548, 7574.101, 4287.125)" fill="#0f0b49"/>
        <path id="Rectangle_235" data-name="Rectangle 235" d="M2.14,0H27.445a2.139,2.139,0,0,1,2.139,2.139V5.884a2.139,2.139,0,0,1-2.139,2.139H2.139A2.139,2.139,0,0,1,0,5.884V2.14A2.14,2.14,0,0,1,2.14,0Z" transform="translate(7580.853 4289.368) rotate(-56.739)" fill="#0f0b49"/>
        <path id="Rectangle_236" data-name="Rectangle 236" d="M2.14,0H21.063A2.139,2.139,0,0,1,23.2,2.139V5.883a2.14,2.14,0,0,1-2.14,2.14H2.139A2.139,2.139,0,0,1,0,5.884V2.14A2.14,2.14,0,0,1,2.14,0Z" transform="matrix(0.548, -0.836, 0.836, 0.548, 7588.353, 4290.472)" fill="#0f0b49"/>
        <g id="Group_751" data-name="Group 751">
          <path id="Path_1378" data-name="Path 1378" d="M7590.661,4267.893l-.912,1.231c-.234-.173-18.741-13.907-30.559-22.625-.2.416-.415.825-.648,1.222a14.455,14.455,0,0,1-5.12,5.269,17.792,17.792,0,0,1,2.11,6.759,6.71,6.71,0,0,1-1.372,4.881l26.959,14.725-.735,1.344-27.321-14.933a11.362,11.362,0,0,1-4.681,2.236c-6.251,1.527-14.671-.367-16.76-5.524-.878-2.168-.815-3.824.172-4.892,2.186-2.374,8-.647,8.659-.442l12.341,6.74a5.144,5.144,0,0,0,1.212-3.991,16.2,16.2,0,0,0-1.986-6.24,8.012,8.012,0,0,1-6.758-.424c-3.5-1.822-5.324-3.852-5.439-6.033-.143-2.766,2.543-4.58,2.658-4.657l.4-.266.414.247a31.179,31.179,0,0,1,9.347,9.137,12.855,12.855,0,0,0,4.576-4.712,15.144,15.144,0,0,0,.713-1.372c-2.5-1.84-4.622-3.4-6.108-4.488-5.328-3.888-4.5-6.27-3.949-7.129,1.449-2.093,5.9-1.649,9.921.989,3.153,2.067,3.387,6.246,2,10.1C7571.6,4253.751,7590.426,4267.719,7590.661,4267.893Zm-57.865-9.107c-.516.786-.162,2.11.246,3.117,1.716,4.237,9.46,5.957,14.977,4.61a10.845,10.845,0,0,0,3.573-1.551l-11.734-6.415c-1.983-.6-5.781-1.179-6.936.077A1.213,1.213,0,0,0,7532.8,4258.786Zm16.329-23.942c-.526.8.382,2.652,3.6,5,1.422,1.037,3.426,2.511,5.782,4.246,1.016-3.112.81-6.318-1.553-7.868-3.69-2.42-7.1-2.444-7.821-1.4Zm-7.209,10.424a3.083,3.083,0,0,0-.561,1.855c.086,1.576,1.682,3.219,4.615,4.749a6.536,6.536,0,0,0,5.24.425,30.392,30.392,0,0,0-8.263-8.181A5.641,5.641,0,0,0,7541.916,4245.268Z" fill="#0f0b49"/>
        </g>
      </g>
      <g id="Group_753" data-name="Group 753">
        <path id="Path_1379" data-name="Path 1379" d="M7536.33,4292.656l-12.77,19.47a1.532,1.532,0,1,1-2.562-1.681l12.77-19.47a1.532,1.532,0,0,1,2.562,1.681Z" fill="#c4c4c4"/>
      </g>
      <g id="Group_754" data-name="Group 754">
        <path id="Path_1380" data-name="Path 1380" d="M7512.737,4277.971a1.527,1.527,0,0,1-.627.544l-21.061,9.926a1.532,1.532,0,1,1-1.306-2.772l21.06-9.926a1.532,1.532,0,0,1,1.934,2.228Z" fill="#c4c4c4"/>
      </g>
      <g id="Group_755" data-name="Group 755">
        <path id="Path_1381" data-name="Path 1381" d="M7504.038,4253.5a1.534,1.534,0,0,1-1.416.687l-23.194-2.04a1.532,1.532,0,0,1,.268-3.052l23.194,2.039a1.533,1.533,0,0,1,1.148,2.366Z" fill="#c4c4c4"/>
      </g>
      <g id="Group_756" data-name="Group 756">
        <path id="Path_1382" data-name="Path 1382" d="M7598.447,4202.778l-12.77,19.469a1.533,1.533,0,0,1-2.563-1.681l12.77-19.469a1.532,1.532,0,1,1,2.563,1.681Z" fill="#c4c4c4"/>
      </g>
      <g id="Group_757" data-name="Group 757">
        <path id="Path_1383" data-name="Path 1383" d="M7565.02,4207.909a1.533,1.533,0,0,1-2.814-.886l.713-23.272a1.532,1.532,0,1,1,3.063.094l-.713,23.272A1.533,1.533,0,0,1,7565.02,4207.909Z" fill="#c4c4c4"/>
      </g>
      <g id="Group_758" data-name="Group 758">
        <path id="Path_1384" data-name="Path 1384" d="M7540.39,4204.827a1.533,1.533,0,0,1-2.627-.111l-11.111-20.46a1.532,1.532,0,0,1,2.693-1.462l11.111,20.46A1.532,1.532,0,0,1,7540.39,4204.827Z" fill="#c4c4c4"/>
      </g>
      <g id="Group_759" data-name="Group 759">
        <path id="Path_1385" data-name="Path 1385" d="M7512.442,4224.832a1.533,1.533,0,0,1-2.037.491l-20.253-11.483a1.533,1.533,0,0,1,1.513-2.667l20.253,11.484a1.533,1.533,0,0,1,.577,2.089C7512.479,4224.775,7512.46,4224.805,7512.442,4224.832Z" fill="#c4c4c4"/>
      </g>
    </g>
    <g id="Group_767" data-name="Group 767" transform="translate(-6360 -3840)">
      <g id="Group_766" data-name="Group 766">
        <g id="Group_764" data-name="Group 764">
          <path id="Path_1386" data-name="Path 1386" d="M8129.562,4289.009l-38.108-62.644-5.675,3.452a4.441,4.441,0,0,1-6.084-1.482h0a4.442,4.442,0,0,1,1.482-6.084l47.286-28.765a4.441,4.441,0,0,1,6.084,1.482h0a4.44,4.44,0,0,1-1.482,6.083l-5.674,3.452,38.108,62.645c29.481-9.443,59.864-1.7,73.651,20.965,16.84,27.682,2.546,67.123-31.927,88.093s-76.069,15.53-92.908-12.153C8100.528,4341.389,8107.622,4310.847,8129.562,4289.009Z" fill="#c4c4c4"/>
          <path id="Path_1387" data-name="Path 1387" d="M8188.622,4381.727c27.746-6.962,43.25-32.8,39.134-60.836a55.447,55.447,0,0,0-19.307-34.636c-11.25-9.268-25.1-12.459-38.867-16.071-15.842-4.156-26.994-11.46-36.076-25.293-8.566-13.047-15.123-27.321-20.708-41.876l15.665-9.529a4.441,4.441,0,0,1,6.084,1.482h0a4.44,4.44,0,0,1-1.482,6.083l-5.674,3.452,38.108,62.645c29.481-9.443,59.864-1.7,73.651,20.965,16.84,27.682,2.546,67.123-31.927,88.093s-76.069,15.53-92.908-12.153c-.707-1.162-1.345-2.349-1.943-3.551C8131.049,4380.49,8162.346,4388.32,8188.622,4381.727Z" fill="#c4c4c4"/>
          <g id="Group_761" data-name="Group 761" opacity="0.47">
            <path id="Path_1388" data-name="Path 1388" d="M8082.816,4226.971l28.856-17.554a1.368,1.368,0,1,0-1.422-2.338l-28.856,17.554a1.368,1.368,0,0,0,1.422,2.338Z" fill="#c4c4c4"/>
          </g>
          <g id="Group_762" data-name="Group 762" opacity="0.47">
            <path id="Path_1389" data-name="Path 1389" d="M8134.269,4287.92a1.367,1.367,0,0,0,.458-1.88l-33.513-55.09a1.368,1.368,0,1,0-2.338,1.423l33.512,55.09A1.368,1.368,0,0,0,8134.269,4287.92Z" fill="#c4c4c4"/>
          </g>
          <g id="Group_763" data-name="Group 763" opacity="0.47">
            <path id="Path_1390" data-name="Path 1390" d="M8132.533,4377.631a1.313,1.313,0,0,0,.285-.231,1.368,1.368,0,0,0-.056-1.934c-11.094-10.467-16.873-22.19-17.179-34.842-.546-22.549,16.58-40.619,16.753-40.8a1.369,1.369,0,0,0-1.973-1.9c-.739.768-18.089,19.084-17.516,42.762.323,13.41,6.392,25.779,18.037,36.766A1.368,1.368,0,0,0,8132.533,4377.631Z" fill="#c4c4c4"/>
          </g>
          <path id="Path_1391" data-name="Path 1391" d="M8156.547,4343.91a115.6,115.6,0,0,0,41.189-24.4c10.037-9.064,19.045-19.326,29.392-28.029a41.137,41.137,0,0,1,2.862,4.115c14.276,23.469,2.556,56.665-26.18,74.145s-63.6,12.626-77.878-10.843a41.111,41.111,0,0,1-3.19-6.48C8134.138,4350.054,8145.533,4347.629,8156.547,4343.91Z" fill="#f5c40d"/>
          <path id="Path_1392" data-name="Path 1392" d="M8227.128,4291.482s-27.547-6.987-104.386,60.937C8122.742,4352.419,8183.148,4365.512,8227.128,4291.482Z" fill="#fe9bb8"/>
          <path id="Path_1393" data-name="Path 1393" d="M8179.211,4288.93a5.118,5.118,0,1,0,1.712-7.032A5.118,5.118,0,0,0,8179.211,4288.93Z" fill="#c4c4c4"/>
          <path id="Path_1394" data-name="Path 1394" d="M8152.817,4336.135a5.118,5.118,0,1,0,1.713-7.032A5.119,5.119,0,0,0,8152.817,4336.135Z" fill="#c4c4c4"/>
          <path id="Path_1395" data-name="Path 1395" d="M8145.748,4275.741a3.311,3.311,0,1,0,1.108-4.548A3.311,3.311,0,0,0,8145.748,4275.741Z" fill="#c4c4c4"/>
          <path id="Path_1396" data-name="Path 1396" d="M8135.421,4314.37a3.311,3.311,0,1,0,1.108-4.548A3.311,3.311,0,0,0,8135.421,4314.37Z" fill="#c4c4c4"/>
          <path id="Path_1397" data-name="Path 1397" d="M8162.4,4309.022a3.311,3.311,0,1,0,1.108-4.549A3.311,3.311,0,0,0,8162.4,4309.022Z" fill="#c4c4c4"/>
          <path id="Path_1398" data-name="Path 1398" d="M8223.588,4317.044a3.31,3.31,0,1,0,1.107-4.549A3.31,3.31,0,0,0,8223.588,4317.044Z" fill="#c4c4c4"/>
          <path id="Path_1399" data-name="Path 1399" d="M8197.027,4316.71a3.31,3.31,0,1,0,1.107-4.549A3.309,3.309,0,0,0,8197.027,4316.71Z" fill="#c4c4c4"/>
          <path id="Path_1400" data-name="Path 1400" d="M8180.47,4356.452a3.311,3.311,0,1,0,1.108-4.549A3.311,3.311,0,0,0,8180.47,4356.452Z" fill="#c4c4c4"/>
        </g>
        <g id="Group_765" data-name="Group 765">
          <path id="Path_1401" data-name="Path 1401" d="M8101.092,4207.542c-9.333-4.532-19.98-8.675-21.394-18.954s5.539-21.067,15.483-24.026a27.165,27.165,0,0,1,6.048-51.647c-7.307-9.76-5.552-23.389-2.8-35.267,2.648-11.424,6.047-23,13.12-32.353s18.556-16.149,30.194-14.712c8.484,1.047,15.815,6.145,23.423,10.041s16.866,6.64,24.536,2.865,10.178-16.658,2.566-20.549c14.737-.24,26.938,14.283,27.313,29.017s-8.8,28.456-20.77,37.058-26.452,12.884-40.772,16.365c10.116,4.537,21.584,10.773,23.2,21.741,1.746,11.816-9.38,21.728-20.572,25.9a64.252,64.252,0,0,1-37.6,2.145c5.629,4.113,11.072,11.908,6.754,17.382-3.637,4.613-10.848,3.093-16.537,4.56-9.959,2.567-14.146,17.139-7.069,24.6C8106.222,4201.707,8107.642,4210.723,8101.092,4207.542Z" fill="#c4c4c4"/>
          <path id="Path_1402" data-name="Path 1402" d="M8203.478,4025.727a46.008,46.008,0,0,1-6.447,18.963c-6.884,11.362-17.5,14.568-29.98,10.5-9.72-3.172-19-8.364-29.477-8.383-10.419-.019-20.912,6.082-26.5,14.846-5.147,8.075-4.7,17.6-2.688,26.592,1.67,7.461,7.549,20.439,1.8,27.223-3.91,4.61-10.525,5.96-14.29,11.036-3.247,4.379-4.06,10.249-3.142,15.522.961,5.525,4.729,8.552,6.811,13.386,2.345,5.449-.771,10.132-4.678,13.837-8.535,8.093-13.437,15.13-9.235,27.38a28.179,28.179,0,0,0,1.4,3.3c-3.81-2.839-6.662-6.367-7.346-11.338-1.414-10.279,5.539-21.067,15.483-24.026a27.165,27.165,0,0,1,6.048-51.647c-7.307-9.76-5.552-23.389-2.8-35.267,2.648-11.424,6.047-23,13.12-32.353s18.556-16.149,30.194-14.712c8.484,1.047,15.815,6.145,23.423,10.041s16.866,6.64,24.536,2.865,10.178-16.658,2.566-20.549A23.138,23.138,0,0,1,8203.478,4025.727Z" fill="#fe9bb8" opacity="0.43"/>
        </g>
      </g>
      <path id="Path_1403" data-name="Path 1403" d="M8098.926,4193.2c-1.469-4.881-2.694-10.024-1.9-15.414a12.993,12.993,0,0,1,3.614-7.512,12.851,12.851,0,0,1,3.555-2.486,33.487,33.487,0,0,0,3.255-1.638,5.616,5.616,0,0,0,2.593-4.731,20.212,20.212,0,0,0-1.345-6.658c-.79-2.338-1.673-4.743-2.453-7.315a23.3,23.3,0,0,1-1.137-8.669,11.49,11.49,0,0,1,5.246-8.686,14.671,14.671,0,0,1,9.568-1.691,26.929,26.929,0,0,1,8.306,2.621c2.418,1.135,4.611,2.287,6.695,3.045a17.694,17.694,0,0,0,3,.822,11.741,11.741,0,0,0,1.4.148,6.605,6.605,0,0,0,1.1-.088,6.506,6.506,0,0,0,3.95-2.392,2.083,2.083,0,0,0,.474-1.309,2.282,2.282,0,0,0-.572-1.315,27.641,27.641,0,0,0-2.238-2.405c-.915-.935-1.831-1.883-2.733-2.874-3.548-3.962-7.021-8.555-8.94-14.173a22.615,22.615,0,0,1,1.123-17.871,16.481,16.481,0,0,1,6.848-6.752,20.989,20.989,0,0,1,8.789-2.273c5.716-.314,10.8.737,15.563.883,9.241.321,18.563-4.214,25.062-11.451,6.578-7.137,10.628-17.1,9.51-27.362,5.6,20.247-11.548,44.257-34.569,44.9-5.455.143-10.544-.571-15.05-.155-4.511.361-7.971,2.257-9.635,5.684a15.6,15.6,0,0,0-.438,11.906c1.435,4.091,4.241,7.853,7.519,11.435.806.908,1.654,1.807,2.515,2.709a31.991,31.991,0,0,1,2.905,3.267,9.947,9.947,0,0,1,2,5.766,9.725,9.725,0,0,1-1.943,5.823,13.8,13.8,0,0,1-11.56,5.54,19.165,19.165,0,0,1-2.406-.282,22.089,22.089,0,0,1-4.345-1.317c-2.682-1.1-4.969-2.433-7.14-3.538a20.014,20.014,0,0,0-6.152-2.243,8.477,8.477,0,0,0-5.294.553,5.141,5.141,0,0,0-2.546,3.841,17.8,17.8,0,0,0,.543,6.46l1.928,7.371a24.354,24.354,0,0,1,.892,8.416,9.754,9.754,0,0,1-1.614,4.528,7.391,7.391,0,0,1-1.627,1.8,7.059,7.059,0,0,1-1.94,1.356,35.064,35.064,0,0,1-3.758,1.441,9.631,9.631,0,0,0-2.887,1.585,10.911,10.911,0,0,0-3.534,5.741,25.087,25.087,0,0,0-.833,7.35A53.179,53.179,0,0,0,8098.926,4193.2Z" fill="#c4c4c4"/>
      <path id="Path_1404" data-name="Path 1404" d="M8114.278,4103.3a20.014,20.014,0,0,1-3.717-9.135,34.862,34.862,0,0,1,.061-10.018,58.859,58.859,0,0,1,2.27-9.557,52.992,52.992,0,0,1,3.873-9.183,32.754,32.754,0,0,1,6.365-8.278,21.706,21.706,0,0,1,9.456-5.282,19.347,19.347,0,0,1,10.586.211,12.529,12.529,0,0,1,7.692,6.371,14.044,14.044,0,0,0-8.36-2.6,18.158,18.158,0,0,0-7.93,1.819c-4.736,2.189-8.231,6.579-10.984,11.529a117.468,117.468,0,0,0-7.016,16.357C8114.671,4091.162,8113.353,4096.886,8114.278,4103.3Z" fill="#c4c4c4"/>
    </g>
    <g id="Group_770" data-name="Group 770" transform="translate(-6360 -3840)">
      <path id="Path_1405" data-name="Path 1405" d="M7392.989,4867.824s-97.395,63.491-78.783,85.233,85.925-61,93.433-70.564S7392.989,4867.824,7392.989,4867.824Z" fill="#0f0b49"/>
      <circle id="Ellipse_185" data-name="Ellipse 185" cx="61.196" cy="61.196" r="61.196" transform="translate(7345.436 4844.912) rotate(-45)" fill="#0f0b49"/>
      <circle id="Ellipse_186" data-name="Ellipse 186" cx="47.818" cy="47.818" r="47.818" transform="translate(7364.916 4853.604) rotate(-52.385)" fill="#cdc3ff"/>
      <path id="Path_1406" data-name="Path 1406" d="M7465.915,4811.254a47.714,47.714,0,0,0-56.664-8.393A130.326,130.326,0,0,1,7465.915,4811.254Z" fill="#c4c4c4"/>
      <path id="Path_1407" data-name="Path 1407" d="M7475.516,4864.665a47.5,47.5,0,0,0,3.167-9.514c-31.424-2.294-62.863-4.382-94.328-5.994a47.4,47.4,0,0,0,1.366,7.837C7415.4,4861.88,7445.428,4863.7,7475.516,4864.665Z" fill="#c4c4c4"/>
      <path id="Path_1408" data-name="Path 1408" d="M7428.282,4892.587a47.537,47.537,0,0,0,24.228-4.5c-14.23,1.013-28.4,1.2-42.511-.714A47.612,47.612,0,0,0,7428.282,4892.587Z" fill="#c4c4c4"/>
      <path id="Path_1409" data-name="Path 1409" d="M7479.7,4842.211a47.808,47.808,0,0,0-1.022-7.6c-29.709-3.387-59.4-6.882-88.759-12.449a47.584,47.584,0,0,0-4.96,14.032C7416.566,4837.809,7448.142,4839.907,7479.7,4842.211Z" fill="#c4c4c4"/>
      <g id="Group_768" data-name="Group 768" opacity="0.48">
        <path id="Path_1410" data-name="Path 1410" d="M7317.384,4947.5c.944-12.175,11.5-26.382,31.421-42.282a269.494,269.494,0,0,1,31.911-21.653,1.623,1.623,0,0,1,1.586,2.832c-.628.352-62.8,35.511-61.731,63.587a1.622,1.622,0,1,1-3.242.122A22.752,22.752,0,0,1,7317.384,4947.5Z" fill="#cdc3ff"/>
      </g>
      <g id="Group_769" data-name="Group 769" opacity="0.48">
        <path id="Path_1411" data-name="Path 1411" d="M7445.332,4898.95a1.622,1.622,0,0,1,1.006-1.379c18.094-7.358,30.167-18.288,35.883-32.489,9.076-22.531-1.072-45.8-1.175-46.038a1.622,1.622,0,1,1,2.963-1.32c.447,1,10.8,24.772,1.222,48.57-6.057,15.047-18.731,26.582-37.67,34.283a1.623,1.623,0,0,1-2.229-1.627Z" fill="#cdc3ff"/>
      </g>
    </g>
    <g id="Group_775" data-name="Group 775" transform="translate(-6360 -3840)">
      <g id="Group_771" data-name="Group 771">
        <path id="Path_1412" data-name="Path 1412" d="M7408.747,3950.97s-34.768-34.368,9.241-73.05C7417.988,3877.92,7453.834,3920.341,7408.747,3950.97Z" fill="#029960"/>
        <path id="Path_1413" data-name="Path 1413" d="M7409.778,3951.165l2.446-20.724,7.031-6.659a1.017,1.017,0,0,0,.015-1.452,1.053,1.053,0,0,0-1.471-.044l-5.193,4.917,5.427-45.978a1.055,1.055,0,0,0-.913-1.157,1.013,1.013,0,0,0-1.153.878l-3.848,32.606-5.227-9.09a1.058,1.058,0,0,0-1.419-.407,1.006,1.006,0,0,0-.383,1.394l6.613,11.5c0,.005.01.007.013.013l-4,33.923a1.057,1.057,0,0,0,.913,1.156A1.013,1.013,0,0,0,7409.778,3951.165Z" fill="#0f0b49" opacity="0.4"/>
      </g>
      <g id="Group_772" data-name="Group 772">
        <path id="Path_1414" data-name="Path 1414" d="M7383.106,3955.642s-43.412,22.48-66.643-31.311C7316.463,3924.331,7367.869,3903.308,7383.106,3955.642Z" fill="#029960"/>
        <path id="Path_1415" data-name="Path 1415" d="M7383.61,3954.721l-18.961-8.715-4.167-8.741a1.018,1.018,0,0,0-1.377-.462,1.053,1.053,0,0,0-.5,1.386l3.078,6.455-42.066-19.336a1.054,1.054,0,0,0-1.382.512,1.013,1.013,0,0,0,.48,1.367l29.831,13.713-10.258,2.169a1.058,1.058,0,0,0-.825,1.225,1,1,0,0,0,1.207.794l12.981-2.745c.007,0,.01-.007.017-.008l31.036,14.266a1.046,1.046,0,0,0,1.145-.19,1.062,1.062,0,0,0,.237-.322A1.014,1.014,0,0,0,7383.61,3954.721Z" fill="#0f0b49" opacity="0.4"/>
      </g>
      <g id="Group_773" data-name="Group 773">
        <path id="Path_1416" data-name="Path 1416" d="M7396.6,3956.265s-47.127-13-27.626-68.253C7368.971,3888.012,7420.973,3907.512,7396.6,3956.265Z" fill="#09b5b1"/>
        <path id="Path_1417" data-name="Path 1417" d="M7397.592,3955.932l-7.991-19.278,2.882-9.245a1.02,1.02,0,0,0-.7-1.275,1.053,1.053,0,0,0-1.305.681l-2.128,6.827-17.729-42.768a1.053,1.053,0,0,0-1.361-.564,1.012,1.012,0,0,0-.577,1.329l12.572,30.33-9-5.378a1.059,1.059,0,0,0-1.437.338,1,1,0,0,0,.346,1.4l11.39,6.8s.012,0,.017.005l13.08,31.554a1.046,1.046,0,0,0,.97.639,1.065,1.065,0,0,0,.392-.075A1.013,1.013,0,0,0,7397.592,3955.932Z" fill="#0f0b49" opacity="0.4"/>
      </g>
      <g id="Group_774" data-name="Group 774">
        <path id="Path_1418" data-name="Path 1418" d="M7351.643,3973.649s26.483,73.118,42.641,74.85,72.079-16.789,76.35-26.137-25.1-86.044-25.1-86.044Z" fill="#ff6a29"/>
        <path id="Path_1419" data-name="Path 1419" d="M7461.45,3981.18c-7.236-22.192-15.914-44.862-15.914-44.862l-93.893,37.331s9.315,25.717,20.267,47.009C7401.47,4006.856,7431.269,3993.539,7461.45,3981.18Z" fill="#fe487c" style="mix-blend-mode: multiply;isolation: isolate"/>
        <path id="Path_1420" data-name="Path 1420" d="M7329.368,3967.992s9.115,36.934,20.773,34.915,121.132-47.486,118.42-52.68-14.656-30.99-14.656-30.99Z" fill="#ff6a29"/>
      </g>
    </g>
    <g id="Group_776" data-name="Group 776" transform="translate(-6360 -3840)">
      <circle id="Ellipse_187" data-name="Ellipse 187" cx="59.345" cy="59.345" r="59.345" transform="matrix(0.892, -0.451, 0.451, 0.892, 7327.868, 4376.76)" fill="#fe9bb8"/>
      <path id="Path_1421" data-name="Path 1421" d="M7462.127,4379.483c-6.869,27.41-29.9,50.616-59.422,53.632-30.668,3.134-47.769-19.493-52.417-45.486-.382,1.436-.731,2.888-1.009,4.372a59.345,59.345,0,1,0,112.848-12.518Z" fill="#fe487c" opacity="0.31" style="mix-blend-mode: multiply;isolation: isolate"/>
      <path id="Path_1422" data-name="Path 1422" d="M7420.412,4366.845a15.578,15.578,0,1,1-12.441-18.182A15.578,15.578,0,0,1,7420.412,4366.845Z" fill="#fe487c"/>
      <path id="Path_1423" data-name="Path 1423" d="M7387.386,4387.069a8.357,8.357,0,1,1-6.674-9.753A8.357,8.357,0,0,1,7387.386,4387.069Z" fill="#fe487c"/>
      <path id="Path_1424" data-name="Path 1424" d="M7407.791,4442.217a8.357,8.357,0,1,1-6.674-9.754A8.355,8.355,0,0,1,7407.791,4442.217Z" fill="#fe487c"/>
      <circle id="Ellipse_188" data-name="Ellipse 188" cx="8.357" cy="8.357" r="8.357" transform="translate(7400.931 4417.909) rotate(-39.77)" fill="#fe487c"/>
      <path id="Path_1425" data-name="Path 1425" d="M7437.241,4443.21a8.357,8.357,0,1,1-6.674-9.754A8.358,8.358,0,0,1,7437.241,4443.21Z" fill="#fe487c"/>
      <path id="Path_1426" data-name="Path 1426" d="M7467.23,4405.737a6.283,6.283,0,0,1-1.052,1.55c-1.228,4.755-8.78,16.661-54.441,8.1-49.78-9.332-58.892-27.718-60.323-31.785-30.568-2.324-51.6-.221-52.844,6.44-1.928,10.284,44,27.524,102.577,38.506s107.632,11.549,109.56,1.264C7511.906,4423.417,7494.578,4414.334,7467.23,4405.737Z" fill="#f5c40d"/>
      <path id="Path_1427" data-name="Path 1427" d="M7351.414,4383.6a70.431,70.431,0,0,0-9.932.164,27.463,27.463,0,0,0-4.851.862c-1.5.469-3.215,1.182-3.642,2.6-.362,1.422.7,2.9,1.739,4.06a27.985,27.985,0,0,0,3.654,3.243,75.64,75.64,0,0,0,8.372,5.249,213.571,213.571,0,0,0,36.577,15.246,207.722,207.722,0,0,0,38.7,8.426c13.106,1.375,26.521,1.373,39.353-1.88l-.034.01a49.171,49.171,0,0,0,6.075-2.707,19.306,19.306,0,0,0,5.31-3.89,5.03,5.03,0,0,0,1.359-2.855,4.063,4.063,0,0,0-1.23-2.886,16.813,16.813,0,0,0-5.634-3.507,16.7,16.7,0,0,1,5.834,3.317,4.391,4.391,0,0,1,1.411,3.09,5.443,5.443,0,0,1-1.367,3.153,19.871,19.871,0,0,1-5.343,4.188,43.781,43.781,0,0,1-6.119,2.916l-.013,0-.022.006c-12.911,3.528-26.5,3.868-39.733,2.489a192.038,192.038,0,0,1-39.013-8.412,196.89,196.89,0,0,1-36.659-15.739,76.49,76.49,0,0,1-8.384-5.484,28.713,28.713,0,0,1-3.717-3.43,10.506,10.506,0,0,1-1.453-2.139,3.25,3.25,0,0,1,1.452-4.653,10.647,10.647,0,0,1,2.384-.927,27.853,27.853,0,0,1,4.964-.725A63.64,63.64,0,0,1,7351.414,4383.6Z" fill="#fe487c" opacity="0.36"/>
      <path id="Path_1428" data-name="Path 1428" d="M7322.891,4382.384a31.057,31.057,0,0,0-6.152,3.185c-1.84,1.254-3.7,2.916-3.951,4.962a4.767,4.767,0,0,0,.7,2.891,11.246,11.246,0,0,0,2.175,2.417,28.86,28.86,0,0,0,5.674,3.716,114.785,114.785,0,0,0,12.691,5.543c2.164.843,4.354,1.62,6.555,2.378,2.177.832,4.4,1.51,6.589,2.346a132.164,132.164,0,0,1-13.555-3.545,80.11,80.11,0,0,1-13.046-5.292,29.251,29.251,0,0,1-5.931-4,12.623,12.623,0,0,1-2.378-2.846,5.734,5.734,0,0,1-.7-3.8,6.424,6.424,0,0,1,1.865-3.281,14.46,14.46,0,0,1,2.893-2.151A26.5,26.5,0,0,1,7322.891,4382.384Z" fill="#fe487c" opacity="0.36"/>
      <path id="Path_1429" data-name="Path 1429" d="M7458.241,4430.645l5.784-.718c1.926-.22,3.849-.457,5.765-.73,3.83-.543,7.654-1.087,11.426-1.843a45.222,45.222,0,0,0,10.9-3.279c1.61-.824,3.3-2,3.462-3.76a1.318,1.318,0,0,0,.012-.647c-.031-.218-.04-.444-.087-.664a8.131,8.131,0,0,0-.546-1.277,16.047,16.047,0,0,0-1.713-2.316l1.1.965a10.994,10.994,0,0,1,.972,1.12,8.571,8.571,0,0,1,.764,1.313c.087.243.136.5.2.76a1.823,1.823,0,0,1,.085.792,4.413,4.413,0,0,1-1.244,2.9,10.384,10.384,0,0,1-2.4,1.908c-3.5,2.051-7.379,2.958-11.2,3.78a95.361,95.361,0,0,1-11.614,1.489A100.61,100.61,0,0,1,7458.241,4430.645Z" fill="#fe487c" opacity="0.36"/>
    </g>
    <g id="Group_777" data-name="Group 777" transform="translate(-6360 -3840)">
      <path id="Path_1430" data-name="Path 1430" d="M8241.715,4631.063c-1.3-8.933-7.653-17.665-16.558-19.146-8.578-1.427-18.393,3.69-25.568-1.222-3.641-2.493-5.356-6.886-7.74-10.6-6.474-10.087-19.43-14.784-31.144-12.97a46.693,46.693,0,0,0-12.146,7.388,31.356,31.356,0,0,0-3.183,3.169c-.1,2.639.126,5.221-1.809,4.491a6.4,6.4,0,0,0-1.339-.346c-5.222,7.872-8.363,18.358-6.15,27a15.4,15.4,0,0,0,6.319,4.958c4.986,2.053,11.8,2.277,13.8,7.283,1.8,4.511-1.922,9.1-4.364,13.3-4.013,6.9-4.686,15.951-.657,22.844s13.087,10.786,20.543,7.933c5.937-2.272,9.758-7.9,14.109-12.539s10.779-8.7,16.75-6.523c4.314,1.575,7.03,6,11.231,7.852,4.841,2.138,10.724.305,14.668-3.224s6.313-8.459,8.333-13.351C8240.258,4649.015,8243.014,4640,8241.715,4631.063Z" fill="#f5c40d"/>
      <path id="Path_1431" data-name="Path 1431" d="M8218.385,4633.419c-.727-5-4.285-9.891-9.271-10.721-4.8-.8-10.3,2.067-14.317-.684-2.038-1.4-3-3.856-4.333-5.935-3.625-5.648-10.88-8.278-17.439-7.262a26.138,26.138,0,0,0-6.8,4.136,17.544,17.544,0,0,0-1.783,1.774c-.055,1.478.071,2.924-1.013,2.516a3.558,3.558,0,0,0-.749-.2c-2.925,4.408-4.683,10.28-3.444,15.116a8.625,8.625,0,0,0,3.538,2.777c2.792,1.149,6.608,1.275,7.73,4.077,1.01,2.526-1.077,5.1-2.444,7.45-2.247,3.864-2.624,8.931-.368,12.791s7.328,6.039,11.5,4.441c3.324-1.272,5.463-4.425,7.9-7.02s6.035-4.874,9.378-3.653c2.415.882,3.937,3.358,6.288,4.4,2.711,1.2,6,.171,8.213-1.8s3.535-4.737,4.666-7.476C8217.569,4643.47,8219.113,4638.421,8218.385,4633.419Z" fill="#09b5b1"/>
      <path id="Path_1432" data-name="Path 1432" d="M8196.4,4637.636a7.817,7.817,0,1,1-7.817-7.817A7.816,7.816,0,0,1,8196.4,4637.636Z" fill="#0f0b49" opacity="0.36"/>
      <circle id="Ellipse_189" data-name="Ellipse 189" cx="4.493" cy="4.493" r="4.493" transform="translate(8171.81 4616.393)" fill="#0f0b49" opacity="0.36"/>
      <path id="Path_1433" data-name="Path 1433" d="M8210.945,4636.519a4.493,4.493,0,1,1-4.493-4.493A4.494,4.494,0,0,1,8210.945,4636.519Z" fill="#0f0b49" opacity="0.36"/>
      <path id="Path_1434" data-name="Path 1434" d="M8181.912,4653.269a4.493,4.493,0,1,1-4.493-4.493A4.493,4.493,0,0,1,8181.912,4653.269Z" fill="#0f0b49" opacity="0.36"/>
    </g>
  </g>
</svg>
