<svg xmlns="http://www.w3.org/2000/svg" xmlns:xlink="http://www.w3.org/1999/xlink" width="2366.868" height="1566.568" viewBox="0 0 2366.868 1566.568">
  <defs>
    <clipPath id="clip-path">
      <rect id="Rectangle_549" data-name="Rectangle 549" width="765.666" height="527.481" transform="translate(8438.055 555.888)" fill="none"/>
    </clipPath>
  </defs>
  <g id="Group_1719" data-name="Group 1719" transform="translate(225.601 177.716)">
    <g id="arrow" transform="translate(0 -2560)">
      <line id="Line_64" data-name="Line 64" x1="21.585" transform="translate(1809.103 3546.727)" fill="none" stroke="#fff" stroke-miterlimit="10" stroke-width="3"/>
      <path id="Path_3871" data-name="Path 3871" d="M1821.284,3537.3l9.483,9.483-9.483,9.483" fill="none" stroke="#fff" stroke-miterlimit="10" stroke-width="3"/>
    </g>
    <path id="Path_5214" data-name="Path 5214" d="M9051.078,708.768c-.95,27.894,5.139,57.156,26.446,79.392,27.559,28.759,75.893,40.662,121.521,41.053,33.647.289,68.894-5.35,94.635-22.5,42.661-28.413,47.213-78.317,46.594-122.421-.848-60.144-23.575-162.9-127.392-151.668C9113.441,543.391,9053.468,638.624,9051.078,708.768Z" transform="translate(-8480 -0.487)" fill="#ff6a29" fill-rule="evenodd"/>
    <path id="Path_5215" data-name="Path 5215" d="M8257.611,119.257c-4.363,33.432-5.234,67.865,3.5,100.428,21.4,79.739,100.585,136.05,182.726,144.365s164.556-25.4,228.523-77.591c24.785-20.222,47.513-43.474,63.841-70.98,25.1-42.291,33.753-92.053,41.5-140.62,8.393-52.651,15.668-109.4-8.44-156.953-62.248-122.788-239.386-95.171-342.2-54.517C8323.1-95.5,8271.674,11.478,8257.611,119.257Z" transform="translate(-8480 -0.487)" fill="#fcd42d" fill-rule="evenodd"/>
    <path id="Path_5216" data-name="Path 5216" d="M9515.429-30.09c-22.252,41.254-40.889,86.724-37.737,133.49,3.566,52.938,34.977,100.659,74.1,136.5,55.522,50.874,128.616,82.454,203.786,86.962,32.765,1.965,66.345-1.213,96.62-13.895,39.7-16.632,71.247-48.51,96.345-83.481,49-68.28,77.128-151.848,76.487-235.889-.341-44.537-10.757-92.815-45.045-121.24-29.038-24.072-68.949-28.961-106.464-32.881-64.5-6.741-138.961-26.872-202.854-10.354C9597.153-151.871,9550.123-94.141,9515.429-30.09Z" transform="translate(-8480 -0.487)" fill="#ff6a29" fill-rule="evenodd"/>
    <path id="Path_5233" data-name="Path 5233" d="M10062.056,1109.479c-18.568,137.954-112.56,251.786-251.582,251.863s-251.785-112.56-251.862-251.582,112.56-251.785,251.582-251.863S10080.6,971.7,10062.056,1109.479Z" transform="translate(-8480 -0.487)" fill="#070707" fill-rule="evenodd"/>
    <path id="Path_5234" data-name="Path 5234" d="M10619.708,550.536c-16.5,122.568-100.006,223.7-223.524,223.773s-223.7-100.006-223.772-223.524,100.006-223.7,223.523-223.773S10636.185,428.122,10619.708,550.536Z" transform="translate(-8480 -0.487)" fill="#fcd42d" fill-rule="evenodd"/>
    <path id="Path_5235" data-name="Path 5235" d="M9023.8,1112.713c-20.395,151.517-123.627,276.541-276.318,276.626s-276.541-123.627-276.626-276.318S8594.479,836.48,8747.17,836.4,9044.165,961.387,9023.8,1112.713Z" transform="translate(-8480 -0.487)" fill="#ff6a29" fill-rule="evenodd"/>
    <g id="Group_1701" data-name="Group 1701" transform="translate(-8480 -0.487)">
      <g id="Group_1700" data-name="Group 1700" clip-path="url(#clip-path)">
        <path id="Path_5236" data-name="Path 5236" d="M8761.133,680.664c6.673-12.919,13.973-24.354,24.011-33.9,22.036-20.945,48.606-27.2,78.052-24.674,21.458,1.838,42.087,8.007,63.171,11.784,17.489,3.134,34.947,4.767,51.2-4.881,12.719-7.549,21.368-19.009,29.211-31.179,1.233-1.917,2.136-4.164,4.626-4.878,4.335-1.244,8.648,2.987,7.635,8.115-6.82,34.518-26.708,61.849-63.674,70.655-21,5-42.246,3.534-63.5,2.556-14.689-.676-29.412-1.711-44.043,1.135-11.859,2.306-20.725,8.788-27.22,18.782a123.985,123.985,0,0,0-8.646,16.462c-1.167,2.567-.658,3.714,1.956,4.647A142.2,142.2,0,0,0,8935.322,704.1c4.249-2.508,5.81-1.673,6.856,3.294,7.3,34.587-17.354,72.023-52.25,79.346-7.46,1.566-7.113,1.51-5.934,8.851,3.079,19.154-.833,36.028-15.379,50.146-5.6,5.433-11.363,10.148-18.253,13.475-3.4,1.641-2.2,4.1-1.822,6.323,3.508,20.426,7.129,40.833,10.727,61.245q12.64,71.709,25.282,143.419c1.571,8.919,2.859,17.9,4.693,26.759.921,4.451-1.281,6.255-4.771,7.316a16.815,16.815,0,0,1-4.763.193q-118.789.013-237.576.011c-9.162,0-10.52-1.641-8.917-10.721q20-113.329,40.1-226.643c.877-4.919-.239-7.1-4.91-9.393-16.153-7.935-26.879-20.86-30.7-38.562-1.685-7.82-1.263-16.193.059-24.054.822-4.889-.392-6.037-4.441-7.4-8.838-2.97-17.831-5.526-25.475-11.463-14.243-11.065-24.487-24.446-27.952-42.608a77.189,77.189,0,0,1-.182-25.765c.79-5.5,2.53-6.318,7.429-3.479A140.953,140.953,0,0,0,8661.8,723.95a146.759,146.759,0,0,0,46.209-8.558c2.74-.962,2.73-2.04,2.141-4.678-1.519-6.785-5.813-11.912-9.394-17.475-9.187-14.272-23.418-18.556-39.225-19.343-18.811-.937-37.552,1.331-56.347,1.5-17.454.154-34.657-1.009-51.179-7.433-24.377-9.477-39.12-27.649-47.385-51.793-1.466-4.284-2.454-8.744-3.863-13-1.511-4.565-.546-8.143,3.205-9.818,3.73-1.664,6.833.686,9.063,4.346a110.563,110.563,0,0,0,20.026,24.63c13.788,12.506,30.147,15.94,48.16,13.751,25.289-3.073,49.674-10.838,75.031-13.817,42.2-4.957,79.444,14.089,99.374,51.974C8758.6,676.091,8759.634,677.923,8761.133,680.664ZM8715.1,895.654c0,10.832.045,21.665-.032,32.5-.02,2.593.1,4.364,3.559,4.3,10.119-.187,20.243-.054,30.366-.085,1.35,0,3.473.314,3.374-1.588-.3-5.769,2.03-11.833-3.231-17.022-5.921-5.839-11.051-12.477-16.577-18.722-3.617-4.09-4.886-8.571-2.552-13.721,2.289-5.054,6.451-6.548,11.72-6.492q19.176.2,38.357-.006c5.24-.062,9.5,1.247,11.8,6.325,2.4,5.309,1.14,9.955-2.668,14.19-4.628,5.146-8.744,10.818-13.783,15.51-5.208,4.848-6.557,10.348-6.122,17.077.219,3.377.9,4.641,4.477,4.556q14.111-.334,28.232.005c3.7.1,4.822-.972,4.792-4.74q-.258-31.962.009-63.927c.027-3.39-1.237-4.783-4.095-6.315-18.984-10.176-29.407-26.156-31.074-47.642-.735-9.48-1.441-10.4-11.082-10.208-2.107.042-4.2.618-6.312.8-3.08.26-4.008,1.7-3.991,4.873.132,24.024-11.066,41.366-31.943,52.621-2.7,1.454-3.3,3.023-3.271,5.755C8715.17,874.343,8715.1,885,8715.1,895.654Zm-21.271-50.928a38.211,38.211,0,0,0,37.932-37.954c.094-20.5-17.81-38.154-38.5-37.954s-37.49,17.507-37.767,38.276C8655.232,826.969,8671.488,845.658,8693.828,844.726Zm96.759-37.983c.006,21.152,17.3,38.513,38.118,38.276,20.556-.234,37.727-17.7,37.7-38.353s-17.358-37.856-38.135-37.856A37.792,37.792,0,0,0,8790.587,806.743ZM8761,949.124c-13.656,0-27.313.078-40.967-.053-3.5-.034-4.213,1-3.321,4.373,5.148,19.456,23.562,33.706,43.979,33.813a45.958,45.958,0,0,0,44.375-33.2c1.08-3.778.507-5.052-3.632-5C8787.954,949.242,8774.474,949.127,8761,949.124Zm.3-172.965a37.054,37.054,0,0,1,13.093,1.612c3.286.923,5.106.407,6.946-2.556a44.6,44.6,0,0,1,15.713-15.542c3.75-2.136,3.325-3.876,1.173-6.926-18.177-25.751-59.627-25.742-76.345,2.031-1.406,2.336-.738,2.826.84,3.859,7.206,4.72,13.978,9.95,18.56,17.413,1.4,2.285,3.012,2.643,5.314,1.995A47.052,47.052,0,0,1,8761.3,776.159Z" fill="#070707"/>
        <path id="Path_5237" data-name="Path 5237" d="M8715.1,895.654c0-10.655.071-21.311-.051-31.964-.032-2.732.574-4.3,3.271-5.755,20.877-11.255,32.075-28.6,31.943-52.621-.017-3.171.911-4.613,3.991-4.873,2.112-.178,4.2-.754,6.312-.8,9.641-.19,10.347.728,11.082,10.208,1.667,21.486,12.09,37.466,31.074,47.642,2.857,1.532,4.122,2.925,4.095,6.315q-.265,31.962-.009,63.927c.03,3.768-1.1,4.835-4.792,4.74q-14.108-.36-28.232-.005c-3.573.085-4.258-1.179-4.477-4.556-.435-6.729.914-12.229,6.122-17.077,5.039-4.692,9.155-10.364,13.783-15.51,3.808-4.235,5.068-8.881,2.668-14.19-2.295-5.078-6.557-6.387-11.8-6.325q-19.176.225-38.357.006c-5.269-.056-9.431,1.438-11.72,6.492-2.334,5.15-1.065,9.631,2.552,13.721,5.526,6.245,10.656,12.883,16.577,18.722,5.262,5.189,2.929,11.253,3.231,17.022.1,1.9-2.024,1.584-3.374,1.588-10.123.031-20.247-.1-30.366.085-3.456.064-3.578-1.707-3.559-4.3C8715.145,917.319,8715.1,906.486,8715.1,895.654Z" fill="#fbd32c"/>
        <path id="Path_5238" data-name="Path 5238" d="M8693.828,844.726c-22.34.932-38.6-17.757-38.331-37.632.276-20.769,17.076-38.075,37.767-38.276s38.59,17.453,38.5,37.954A38.211,38.211,0,0,1,8693.828,844.726Z" fill="#055425"/>
        <path id="Path_5239" data-name="Path 5239" d="M8790.587,806.743a37.792,37.792,0,0,1,37.682-37.933c20.776,0,38.1,17.2,38.135,37.856s-17.143,38.119-37.7,38.353C8807.883,845.256,8790.593,827.9,8790.587,806.743Z" fill="#055425"/>
        <path id="Path_5240" data-name="Path 5240" d="M8761,949.125c13.478,0,26.958.117,40.434-.068,4.139-.056,4.712,1.218,3.632,5a45.958,45.958,0,0,1-44.375,33.2c-20.417-.107-38.83-14.357-43.979-33.813-.892-3.372-.181-4.407,3.321-4.373C8733.683,949.2,8747.34,949.124,8761,949.125Z" fill="#fbd32c"/>
        <path id="Path_5241" data-name="Path 5241" d="M8761.3,776.159a47.052,47.052,0,0,0-14.706,1.886c-2.3.648-3.912.29-5.314-1.995-4.582-7.463-11.354-12.693-18.56-17.413-1.578-1.033-2.246-1.523-.84-3.859,16.718-27.773,58.168-27.782,76.345-2.031,2.152,3.05,2.577,4.79-1.173,6.926a44.6,44.6,0,0,0-15.713,15.542c-1.84,2.963-3.66,3.479-6.946,2.556A37.054,37.054,0,0,0,8761.3,776.159Z" fill="#fbd32c"/>
      </g>
    </g>
    <g id="Group_1706" data-name="Group 1706" transform="translate(-8480 -0.487)">
      <g id="Group_1704" data-name="Group 1704">
        <g id="Group_1702" data-name="Group 1702">
          <path id="Path_5242" data-name="Path 5242" d="M9858.033,870.7c-7.779,7.261-10.341,14.845-11.083,20.189l.124.1,29.67-29.67C9873.121,861.188,9866.731,862.572,9858.033,870.7Z" fill="#834c3c"/>
          <path id="Path_5243" data-name="Path 5243" d="M9767.706,820.787a14.689,14.689,0,0,0,2.665,3.2l76.579,66.9c.742-5.344,3.3-12.928,11.083-20.189,8.7-8.128,15.088-9.512,18.711-9.38l.187-.185-16.226-16.228Z" fill="#51291e"/>
          <path id="Path_5244" data-name="Path 5244" d="M9804.368,788.572a14.854,14.854,0,0,0-21,0L9769.645,802.3a14.66,14.66,0,0,0-1.938,18.484l93,24.12Z" fill="#5f3227"/>
        </g>
        <g id="Group_1703" data-name="Group 1703">
          <path id="Path_5245" data-name="Path 5245" d="M9844.265,867.668a5.941,5.941,0,1,1,8.405,0A5.944,5.944,0,0,1,9844.265,867.668Z" fill="#c7c8ca"/>
          <path id="Path_5246" data-name="Path 5246" d="M9831.117,854.518a5.94,5.94,0,1,1,8.4,0A5.944,5.944,0,0,1,9831.117,854.518Z" fill="#c7c8ca"/>
        </g>
        <path id="Path_5247" data-name="Path 5247" d="M9940.622,1065.59l16.256-16.255L9847.531,939.994l-16.247,16.25Z" fill="#d8d9da"/>
        <path id="Path_5248" data-name="Path 5248" d="M9956.878,1049.334l39.207-39.207a26.31,26.31,0,0,0-.642-37.818l-53.712-50.2-18.171,93.909Zm18.271-67.118a8.249,8.249,0,1,1,0,11.672A8.251,8.251,0,0,1,9975.148,982.216Z" fill="#c0d0d8"/>
        <path id="Path_5249" data-name="Path 5249" d="M9941.731,922.106l-65.146-60.886-29.839,29.833,6.678,6.818a25.911,25.911,0,0,1-.2,36.43l-5.692,5.693,76.029,76.021Z" fill="#b1c0c9"/>
        <path id="Path_5250" data-name="Path 5250" d="M9823.507,821.241s-22.159-22.17-27.3-24.029C9805.538,807.944,9823.507,821.241,9823.507,821.241Z" fill="#44231d"/>
        <path id="Path_5251" data-name="Path 5251" d="M9828.408,860.665s-22.168-22.16-27.295-24.029C9810.439,847.367,9828.408,860.665,9828.408,860.665Z" fill="#44231d"/>
        <path id="Path_5252" data-name="Path 5252" d="M9809.351,826.528s-9.271-9.263-11.855-9.606C9801.21,821.6,9809.351,826.528,9809.351,826.528Z" fill="#44231d"/>
      </g>
      <g id="Group_1705" data-name="Group 1705">
        <path id="Path_5253" data-name="Path 5253" d="M10047.536,1077.615H9602.4v-16.959a27.556,27.556,0,0,1,27.556-27.556h390.022a27.556,27.556,0,0,1,27.555,27.556Z" fill="#fcd42d"/>
        <path id="Path_5254" data-name="Path 5254" d="M9639.977,1051.774s67.842,1.843,93.252-2.5C9695.059,1045.188,9639.977,1051.774,9639.977,1051.774Z" fill="#9c865e"/>
        <path id="Path_5255" data-name="Path 5255" d="M9704.174,1062.765s138.309,1.557,190.148-2.9C9816.512,1055.952,9704.174,1062.765,9704.174,1062.765Z" fill="#9c865e"/>
      </g>
    </g>
    <path id="Path_5256" data-name="Path 5256" d="M9688,1031.07l10.215,4.348,57.549-3.507,58.968-26.168,18.342-27.522-47.025-.63L9753.01,1007.9l-33.1,17.792,29.117-26.381L9771,920.779l23.3-39.628-46.41,27.205-28.378,79.259-6.562,23.488-8.777,7.035,5.9-29.8-2.9-38.288,3.678-27.731-7.579-50.189-2.707-19.247L9663.8,808.794l-18.146,46.562,13.124,24.113-16.833,32.9L9675.6,954.7l20.222,52.985-.92,6.933-13.362-21.63L9652,965.768l-14.893-16.249-34.706,2.89,31.665,41.915,26.385,9.939Z" transform="translate(-8480 -0.487)" fill="#23af5b"/>
    <path id="Path_5257" data-name="Path 5257" d="M9835.02,1031.894l10.143-2.219,41.973-33.852,30.776-51.9-.929-30.917-36.19,25-8.765,41.008-15.6,31.5,7.905-35.886-25.793-71.779-3.705-42.834L9814.2,905.895l21.307,75.8,7.724,21.461-2.88,10.118L9828.7,987.354l-22.955-27.616-12.22-23.134-32.969-34.154-12.491-13.207-51.919-13.689,11.392,45.327,23.069,11.272,4.993,34.2,48.586,14.039,44.121,29.437,3.056,5.783-21.906-9.25-37.262-4.751-20.156-4.319-24.893,21.006L9774,1033.1l25.5-6.718Z" transform="translate(-8480 -0.487)" fill="#0b893e"/>
    <path id="Path_5258" data-name="Path 5258" d="M8692,842.379l3,.547,15.221-4.425,14.229-10.588,3.252-8.491-12.649,2.679-7.024,10.13-7.8,6.776,6.211-8.838,1.138-22.392,3.85-12.038-10.8,10.106-2.811,22.973-.337,6.7-1.928,2.418-.222-8.349-3.1-10.092-.692-7.66-5.072-13-1.892-5-12.531-9.6-2.046,13.585,4.979,5.672-2.521,9.843,11.587,9.314,8.632,12.985.173,1.915-4.894-4.991-9.568-5.511-4.978-3.456-9.133,2.877,11.03,9.323,7.678,1.068Z" transform="translate(-8480 -0.487)" fill="#0b893e"/>
    <path id="Path_5259" data-name="Path 5259" d="M8827,839.807l3,.547,15.221-4.425,14.229-10.589,3.252-8.491-12.649,2.679-7.024,10.13-7.8,6.776,6.211-8.838,1.138-22.392,3.85-12.038-10.8,10.106-2.811,22.973-.337,6.7-1.928,2.418-.222-8.349-3.1-10.092-.692-7.66-5.072-13-1.892-5-12.531-9.6-2.046,13.585,4.979,5.672-2.521,9.843,11.587,9.314,8.632,12.985.173,1.915-4.894-4.991-9.568-5.511-4.978-3.456-9.133,2.877,11.03,9.323,7.678,1.068Z" transform="translate(-8480 -0.487)" fill="#0b893e"/>
    <g id="Group_1707" data-name="Group 1707" transform="translate(-8480 -0.487)">
      <path id="Path_5260" data-name="Path 5260" d="M8854.861,930.915s-33.566,5.9-34.461,32.388C8820.4,963.3,8850.3,956.057,8854.861,930.915Z" fill="#23af5b"/>
      <path id="Path_5261" data-name="Path 5261" d="M8855.564,971.9c1.039-2.9,23.09-25.592,7.169-33.75s-13.787,27.83-13.787,27.83-5.979-27.535-17.812-21.941-5.675,25,10.667,25.117c0,0-27.135,2.572-20.295,13.213s14.935,8.624,21.532-2.94-4.787,17.947,1.747,20.286,18.466,3.336,13.761-15.552,14.208,8.364,20.492-.035,7.853-24.221-10.308-19.256S8855.564,971.9,8855.564,971.9Z" fill="#ef5135"/>
      <path id="Path_5262" data-name="Path 5262" d="M8774.178,1088.173s-1.272-34.057-27.39-38.551C8746.788,1049.622,8749.892,1080.231,8774.178,1088.173Z" fill="#23af5b"/>
      <path id="Path_5263" data-name="Path 5263" d="M8650.746,1017.694s33.072,8.234,44.642-15.608C8695.388,1002.086,8665.12,996.568,8650.746,1017.694Z" fill="#23af5b"/>
      <path id="Path_5264" data-name="Path 5264" d="M8691.6,1000.906s31.391,13.275,46.525-8.479C8738.128,992.427,8709.086,982.272,8691.6,1000.906Z" fill="#23af5b"/>
      <path id="Path_5265" data-name="Path 5265" d="M8750.511,1010.333s-26.842,21-15.169,44.793C8735.342,1055.126,8758.317,1034.664,8750.511,1010.333Z" fill="#23af5b"/>
      <path id="Path_5266" data-name="Path 5266" d="M8844.333,1057.288s-25.833-22.23-46.891-6.141C8797.442,1051.147,8821.993,1069.69,8844.333,1057.288Z" fill="#23af5b"/>
      <path id="Path_5267" data-name="Path 5267" d="M8884.551,988.675s-33.606-5.667-43.31,18.994C8841.241,1007.669,8871.843,1010.843,8884.551,988.675Z" fill="#23af5b"/>
      <path id="Path_5268" data-name="Path 5268" d="M8832.7,1005.109s20.612-27.141,3.27-47.178C8835.968,957.931,8818.957,983.566,8832.7,1005.109Z" fill="#23af5b"/>
      <path id="Path_5269" data-name="Path 5269" d="M8829.389,1005.159s-26.343-21.623-47.021-5.048C8782.368,1000.111,8807.344,1018.078,8829.389,1005.159Z" fill="#23af5b"/>
      <path id="Path_5270" data-name="Path 5270" d="M8789.7,1007.818s-14,31.075,7.4,46.708C8797.1,1054.526,8807.925,1025.726,8789.7,1007.818Z" fill="#23af5b"/>
      <path id="Path_5271" data-name="Path 5271" d="M8836.929,1003.607c-1.771-2.37-8.226-32.025-23.186-23.619s14.945,25.774,14.945,25.774-25.186-9.813-26.983,2.613,16.981,17.788,25.737,4.783c0,0-12.325,23.06-.192,23.23s14.81-7.37,9.061-18.774,11.813,13.339,17.147,9.354,12.453-13-5.143-19.245,14.218-6.928,10.832-16.4-15.2-19.116-20.859-1.963S8836.929,1003.607,8836.929,1003.607Z" fill="#f9f3e8"/>
      <path id="Path_5272" data-name="Path 5272" d="M8865.888,933.107c-1.771-2.37-8.226-32.025-23.187-23.619s14.946,25.774,14.946,25.774-25.186-9.813-26.984,2.613,16.983,17.787,25.737,4.783c0,0-12.324,23.059-.192,23.23s14.811-7.37,9.062-18.774,11.813,13.339,17.146,9.354,12.454-13-5.143-19.246,14.218-6.927,10.833-16.4-15.205-19.117-20.86-1.963S8865.888,933.107,8865.888,933.107Z" fill="#f9f3e8"/>
      <path id="Path_5273" data-name="Path 5273" d="M8825.741,1009.092s-31.222,13.668-25.829,39.615C8799.912,1048.707,8827.253,1034.6,8825.741,1009.092Z" fill="#23af5b"/>
      <path id="Path_5274" data-name="Path 5274" d="M8675.932,963.919s-11.36,28.089,10.607,37.049C8686.539,1000.968,8694.978,975.326,8675.932,963.919Z" fill="#23af5b"/>
      <path id="Path_5275" data-name="Path 5275" d="M8792.223,1047.971c-2.986,1.314-36.44.886-31.125,19.041s31.394-9.655,31.394-9.655-16.791,24.615-3.892,29.632,23.321-13.826,11.526-26.457c0,0,21.709,18.961,24.9,5.972s-4.241-17.737-17.917-14.393,17.26-9.376,14.3-16.095-10.869-16.6-21.947.747-3.912-16.991-14.931-15.707-24.307,11.587-7.286,21.918S8792.223,1047.971,8792.223,1047.971Z" fill="#ffca36"/>
      <path id="Path_5276" data-name="Path 5276" d="M8673.7,932.547s29.673-11.169,18.911-33.625C8692.609,898.922,8667.049,910.545,8673.7,932.547Z" fill="#23af5b"/>
      <path id="Path_5277" data-name="Path 5277" d="M8668.169,900.826s-21.032,26.817-4,47.121C8664.168,947.947,8681.575,922.578,8668.169,900.826Z" fill="#23af5b"/>
      <path id="Path_5278" data-name="Path 5278" d="M8666.8,947.3s-18.166-28.836-43.02-19.639C8623.779,927.658,8641.8,952.592,8666.8,947.3Z" fill="#23af5b"/>
      <path id="Path_5279" data-name="Path 5279" d="M8719.624,958.524s-25.324-22.809-46.74-7.2C8672.884,951.325,8697.009,970.418,8719.624,958.524Z" fill="#23af5b"/>
      <path id="Path_5280" data-name="Path 5280" d="M8654.293,996.616s25.706-22.377,12.8-45.525C8667.1,951.091,8645.224,972.728,8654.293,996.616Z" fill="#23af5b"/>
      <path id="Path_5281" data-name="Path 5281" d="M8695.527,1005.064s3.317,33.919,29.657,36.835C8725.185,1041.9,8720.247,1011.532,8695.527,1005.064Z" fill="#23af5b"/>
      <path id="Path_5282" data-name="Path 5282" d="M8683.625,1065.658s33.072,8.234,44.642-15.608C8728.267,1050.05,8698,1044.533,8683.625,1065.658Z" fill="#23af5b"/>
      <path id="Path_5283" data-name="Path 5283" d="M8676.006,944.433c-1.952-2.613-9.067-35.3-25.56-26.038s16.476,28.414,16.476,28.414-27.765-10.818-29.748,2.88,18.723,19.609,28.373,5.273c0,0-13.586,25.421-.211,25.609s16.327-8.125,9.989-20.7,13.021,14.7,18.9,10.312,13.729-14.329-5.669-21.216,15.675-7.637,11.941-18.084-16.761-21.073-23-2.163S8676.006,944.433,8676.006,944.433Z" fill="#ffca36"/>
      <path id="Path_5284" data-name="Path 5284" d="M8735.121,1058.557c2.936-1.422,36.384-2.209,30.413-20.16s-31.023,10.789-31.023,10.789,15.888-25.209,2.813-29.753-22.8,14.663-10.558,26.858c0,0-22.384-18.161-25.1-5.064s4.882,17.572,18.428,13.733-16.908,10-13.71,16.6,11.466,16.2,21.906-1.544,4.527,16.838,15.492,15.154,23.869-12.461,6.484-22.168S8735.121,1058.557,8735.121,1058.557Z" fill="#ef5135"/>
      <path id="Path_5285" data-name="Path 5285" d="M8690,1001.535c-.064,2.855-12.8,29.232,3.574,31.742s3.971-28.478,3.971-28.478,13.3,22.437,22.063,14.063-2.328-23.62-16.717-18.943c0,0,23.082-10.2,13.963-17.541s-15.641-3.208-18.054,8.879-1.044-17.163-7.468-17.307-17.2,2.471-7.538,17.685-14.927-3.191-17.99,6.025.187,23.572,14.687,13.9S8690,1001.535,8690,1001.535Z" fill="#f9f3e8"/>
    </g>
    <g id="Group_1712" data-name="Group 1712" transform="translate(-8480 -0.487)">
      <g id="Group_1711" data-name="Group 1711">
        <g id="Group_1710" data-name="Group 1710">
          <g id="Group_1709" data-name="Group 1709">
            <g id="Group_1708" data-name="Group 1708">
              <path id="Path_5286" data-name="Path 5286" d="M9592.636,62.756a10.315,10.315,0,1,0-14.5,1.552A10.317,10.317,0,0,0,9592.636,62.756Z" fill="none"/>
              <path id="Path_5287" data-name="Path 5287" d="M9549.294,58.538a97.544,97.544,0,0,1,15.3,12.933c-4.018-1.884-10.064-6.268-15.594-10.6a20.3,20.3,0,0,0,8.263,17.788l75.759,55.729a10.382,10.382,0,0,1,1.929,14.887l-22.024,27.312a20.408,20.408,0,0,0,3.076,28.7L9777.727,335.7a20.41,20.41,0,0,0,28.7-3.076l60.782-75.375L9552.162,51.258A20.4,20.4,0,0,0,9549.294,58.538Z" fill="#f9b630"/>
              <path id="Path_5288" data-name="Path 5288" d="M9708.194,58.451l-22.032,27.321a10.392,10.392,0,0,1-14.957,1.269l-70.52-62.227A20.4,20.4,0,0,0,9571.3,27.3l-17.83,22.112a19.87,19.87,0,0,0-1.306,1.846l315.047,205.99,34.483-42.761a20.413,20.413,0,0,0-3.079-28.7L9736.892,55.378A20.408,20.408,0,0,0,9708.194,58.451Zm-115.559,4.305a10.315,10.315,0,1,1-1.552-14.507A10.314,10.314,0,0,1,9592.636,62.756Z" fill="#fcd42d"/>
              <path id="Path_5289" data-name="Path 5289" d="M9549.294,58.538a19.538,19.538,0,0,0-.291,2.333c5.529,4.332,11.576,8.716,15.594,10.6A97.544,97.544,0,0,0,9549.294,58.538Z" fill="#9c865e"/>
            </g>
            <path id="Path_5290" data-name="Path 5290" d="M9881.5,203.227l-90.362,112.056a7.343,7.343,0,0,1-10.31,1.1l-147.7-119.108a7.342,7.342,0,0,1-1.107-10.308l90.362-112.056a7.348,7.348,0,0,1,10.314-1.11l147.7,119.108A7.346,7.346,0,0,1,9881.5,203.227ZM9634.461,188.94a4.2,4.2,0,0,0,.632,5.893L9782.8,313.94a4.2,4.2,0,0,0,5.895-.629l90.36-112.056a4.2,4.2,0,0,0-.629-5.9l-147.7-119.108a4.2,4.2,0,0,0-5.9.637Z" fill="#9c865e"/>
            <path id="Path_5291" data-name="Path 5291" d="M9847.205,207.3s-79.137-65.052-110.849-86.891C9779.635,158.541,9847.205,207.3,9847.205,207.3Z" fill="#9c865e"/>
            <path id="Path_5292" data-name="Path 5292" d="M9699.711,149.026s38.5,32.294,54.675,42.216C9733.792,171.76,9699.711,149.026,9699.711,149.026Z" fill="#9c865e"/>
            <path id="Path_5293" data-name="Path 5293" d="M9789.493,282.774s19.775,17.319,28.935,21.625C9808.361,293.342,9789.493,282.774,9789.493,282.774Z" fill="#9c865e"/>
            <path id="Path_5294" data-name="Path 5294" d="M9717.709,280.517s38.5,32.289,54.682,42.221C9751.79,303.252,9717.709,280.517,9717.709,280.517Z" fill="#9c865e"/>
          </g>
          <path id="Path_5295" data-name="Path 5295" d="M9583.768,50.084c-2.6,3.227-8.725,3.279-9,3.294a9.45,9.45,0,0,1,.938-2.446c.066-.007,5.392-.8,6.18-3.94.81-3.247-2.537-13.894-50.816-42.577-21.316-12.671-26.524-13.549-27.726-13.433.5,5.169,27.084,31.433,53.3,54.468l-1.907,2.365c-22.07-19.394-58.405-52.739-54.016-58.782,1.539-2.16,5.412-3.093,31.957,12.68,37.357,22.2,54.448,37.26,52.247,46.052A5.931,5.931,0,0,1,9583.768,50.084Z" fill="#e3856e"/>
        </g>
        <path id="Path_5296" data-name="Path 5296" d="M9509.717-11.661a6.494,6.494,0,0,1,.978,9.129,6.488,6.488,0,0,1-9.126.977,6.489,6.489,0,0,1-.98-9.126A6.5,6.5,0,0,1,9509.717-11.661Z" fill="#c7c8ca"/>
      </g>
      <path id="Path_5297" data-name="Path 5297" d="M9639.983,80.526s19.78,17.323,28.938,21.632C9658.853,91.1,9639.983,80.526,9639.983,80.526Z" fill="#9c865e"/>
    </g>
    <g id="Group_1718" data-name="Group 1718" transform="translate(-8480 -0.487)">
      <g id="Group_1713" data-name="Group 1713">
        <path id="Path_5298" data-name="Path 5298" d="M10416.872,533.022a142.718,142.718,0,0,1-8.69-102.462c.237-.8.511-1.59.73-2.4,13.884-51.265-23.229-34.978-32.04-12.816-6.743,16.959-26.124,1.151-4.807-52.867,27.5-69.688-23.229-34.444-23.229-34.444s-16.821-21.627.8-55.269-24.029-65.683-40.05-20.826-32.041,166.61,84.907,286.761C10394.494,538.7,10434.234,569.086,10416.872,533.022Z" fill="#23af5b"/>
        <path id="Path_5299" data-name="Path 5299" d="M10400.183,545.312c-140.155-170.79-73.857-303.02-73.857-303.02s-27.938,73.387-1.074,160.538S10400.183,545.312,10400.183,545.312Z" fill="#263a27"/>
      </g>
      <g id="Group_1714" data-name="Group 1714">
        <path id="Path_5300" data-name="Path 5300" d="M10377.114,561.517a142.716,142.716,0,0,1-102.724,4.684c-.787-.267-1.568-.571-2.373-.823-50.684-15.874-35.857,21.847-14.057,31.516,16.683,7.4.131,26.149-53.014,2.739-68.562-30.2-35.324,21.868-35.324,21.868s-22.267,15.964-55.2-2.958-66.57,21.449-22.374,39.207,165.233,38.519,289.857-73.65C10381.91,584.1,10413.828,545.576,10377.114,561.517Z" fill="#23af5b"/>
        <path id="Path_5301" data-name="Path 5301" d="M10388.744,578.673c-176.13,133.384-305.672,61.975-305.672,61.975s72.239,30.781,160.373,7.339S10388.744,578.673,10388.744,578.673Z" fill="#263a27"/>
      </g>
      <g id="Group_1715" data-name="Group 1715">
        <path id="Path_5302" data-name="Path 5302" d="M10403.014,542.214c-39.278-15.573-71.721-44.808-90.338-82.739-.436-.889-.837-1.8-1.3-2.694-29.228-56.117-48.588-11.885-38.414,14.642,7.786,20.3-21.954,22.1-46.893-42.43-32.175-83.249-48.158-11.417-48.158-11.417s-32.2-5.364-43.921-49.062-74.081-38.135-51.9,14.093,106.45,171.815,305.9,182.644C10387.992,565.251,10447.339,559.787,10403.014,542.214Z" fill="#23af5b"/>
        <path id="Path_5303" data-name="Path 5303" d="M10394.766,562.632c-260.665-36.449-305.8-201.986-305.8-201.986s34.777,86.842,128.672,141.495S10394.766,562.632,10394.766,562.632Z" fill="#263a27"/>
      </g>
      <g id="Group_1716" data-name="Group 1716">
        <path id="Path_5304" data-name="Path 5304" d="M10413.129,573.335c-12.267,40.433-9.586,84.022,8.508,122.2.424.9.891,1.779,1.3,2.7,25.72,57.809-20.947,45.423-35.373,20.946-11.038-18.73-30.963,3.423,4.011,63.113,45.118,77.006-21.046,44.794-21.046,44.794s-15.848,28.535,11.05,64.915-16.277,81.715-43.338,31.841-68.187-190.271,47.51-353.1C10385.748,570.748,10426.972,527.707,10413.129,573.335Z" fill="#23af5b"/>
        <path id="Path_5305" data-name="Path 5305" d="M10385.581,579.762c-127.514,226.935-25.876,352.372-25.876,352.372s-50.652-82-30.622-188.784C10347.335,646.049,10385.581,579.762,10385.581,579.762Z" fill="#263a27"/>
      </g>
      <g id="Group_1717" data-name="Group 1717">
        <path id="Path_5306" data-name="Path 5306" d="M10425.912,561.734a116.909,116.909,0,0,0,51.394,63.838c.57.333,1.157.645,1.727,1,35.891,22.161,6.233,32.661-10.85,24.587-13.072-6.178-15.214,13.347,26.337,33.111,53.605,25.5,5.941,32.353,5.941,32.353s2.482,21.513,30.786,31.491,22.642,50.824-10.924,33.51-109.343-79.04-110.018-211.161C10410.306,570.46,10415.807,531.593,10425.912,561.734Z" fill="#23af5b"/>
        <path id="Path_5307" data-name="Path 5307" d="M10414.152,566.943c15.516,173.816,120.807,211.269,120.807,211.269s-55.085-26.051-85.448-91.956C10422.481,627.584,10414.152,566.943,10414.152,566.943Z" fill="#263a27"/>
      </g>
    </g>
    <rect id="Rectangle_550" data-name="Rectangle 550" width="1920" height="1080" transform="translate(0 -0.487)" fill="none"/>
  </g>
</svg>
